<svg xmlns="http://www.w3.org/2000/svg" xmlns:xlink="http://www.w3.org/1999/xlink" contentStyleType="text/css" height="579px" preserveAspectRatio="none" style="width:2559px;height:579px;background:#FFFFFF;" version="1.1" viewBox="0 0 2559 579" width="2559px" zoomAndPan="magnify"><title>Esquemas de Mensagens - Servi&#231;o de Consulta de Cota&#231;&#227;o</title><defs/><g><text fill="#000000" font-family="sans-serif" font-size="14" font-weight="bold" lengthAdjust="spacing" textLength="403.3245" x="1074.5877" y="24.9659">Esquemas de Mensagens - Servi&#231;o de Consulta de Cota&#231;&#227;o</text><!--cluster Requisi??o--><g id="cluster_Requisi&#231;&#227;o"><rect fill="none" height="317" rx="2.5" ry="2.5" style="stroke:#181818;stroke-width:1.0;" width="726" x="1315.5" y="256.0679"/><text fill="#000000" font-family="sans-serif" font-size="14" font-weight="bold" lengthAdjust="spacing" textLength="75.3897" x="1640.8051" y="273.0339">Requisi&#231;&#227;o</text></g><!--cluster Resposta (Sucesso)--><g id="cluster_Resposta (Sucesso)"><rect fill="none" height="407" rx="2.5" ry="2.5" style="stroke:#181818;stroke-width:1.0;" width="504" x="2049.5" y="44.0679"/><text fill="#000000" font-family="sans-serif" font-size="14" font-weight="bold" lengthAdjust="spacing" textLength="131.5855" x="2235.7072" y="61.0339">Resposta (Sucesso)</text></g><!--cluster Resposta (Erro)--><g id="cluster_Resposta (Erro)"><rect fill="none" height="371.5" rx="2.5" ry="2.5" style="stroke:#181818;stroke-width:1.0;" width="298" x="609.5" y="44.0679"/><text fill="#000000" font-family="sans-serif" font-size="14" font-weight="bold" lengthAdjust="spacing" textLength="105.8396" x="705.5802" y="61.0339">Resposta (Erro)</text></g><g id="elem_GMN19"><path d="M6,314.0679 L6,377.186 A0,0 0 0 0 6,377.186 L301.3652,377.186 A0,0 0 0 0 301.3652,377.186 L301.3652,324.0679 L291.3652,314.0679 L189.7775,314.0679 L1777.8988,285.9563 L181.7775,314.0679 L6,314.0679 A0,0 0 0 0 6,314.0679 " fill="#FEFFDD" style="stroke:#181818;stroke-width:0.5;"/><path d="M291.3652,314.0679 L291.3652,324.0679 L301.3652,324.0679 L291.3652,314.0679 " fill="#FEFFDD" style="stroke:#181818;stroke-width:0.5;"/><text fill="#000000" font-family="sans-serif" font-size="13" font-weight="bold" lengthAdjust="spacing" textLength="66.3001" x="12" y="332.9649">Opera&#231;&#227;o:</text><text fill="#000000" font-family="sans-serif" font-size="13" lengthAdjust="spacing" textLength="165.3731" x="81.6801" y="332.9649">receberSolicitacaoConsulta</text><text fill="#000000" font-family="sans-serif" font-size="13" lengthAdjust="spacing" textLength="274.3652" x="12" y="350.6709">Entrada bruta vinda do cliente (API gateway).</text><text fill="#000000" font-family="sans-serif" font-size="13" lengthAdjust="spacing" textLength="228.8912" x="12" y="368.377">O s&#237;mbolo ainda n&#227;o foi normalizado.</text></g><g id="elem_GMN22"><path d="M319.5,314.0679 L319.5,377.186 A0,0 0 0 0 319.5,377.186 L601.6312,377.186 A0,0 0 0 0 601.6312,377.186 L601.6312,324.0679 L591.6312,314.0679 L493.9964,314.0679 L1417.4645,285.9854 L485.9964,314.0679 L319.5,314.0679 A0,0 0 0 0 319.5,314.0679 " fill="#FEFFDD" style="stroke:#181818;stroke-width:0.5;"/><path d="M591.6312,314.0679 L591.6312,324.0679 L601.6312,324.0679 L591.6312,314.0679 " fill="#FEFFDD" style="stroke:#181818;stroke-width:0.5;"/><text fill="#000000" font-family="sans-serif" font-size="13" font-weight="bold" lengthAdjust="spacing" textLength="66.3001" x="325.5" y="332.9649">Opera&#231;&#227;o:</text><text fill="#000000" font-family="sans-serif" font-size="13" lengthAdjust="spacing" textLength="137.3971" x="395.1801" y="332.9649">consultarCotacaoAtivo</text><text fill="#000000" font-family="sans-serif" font-size="13" lengthAdjust="spacing" textLength="261.1312" x="325.5" y="350.6709">Invocada internamente ap&#243;s normaliza&#231;&#227;o</text><text fill="#000000" font-family="sans-serif" font-size="13" lengthAdjust="spacing" textLength="201.7732" x="325.5" y="368.377">pelo Servi&#231;o de Cota&#231;&#227;o de Ativo.</text></g><g id="elem_GMN25"><path d="M915.5,305.0679 L915.5,385.892 A0,0 0 0 0 915.5,385.892 L1305.8549,385.892 A0,0 0 0 0 1305.8549,385.892 L1305.8549,315.0679 L1295.8549,305.0679 L1044.943,305.0679 L878.1623,212.2278 L1036.943,305.0679 L915.5,305.0679 A0,0 0 0 0 915.5,305.0679 " fill="#FEFFDD" style="stroke:#181818;stroke-width:0.5;"/><path d="M1295.8549,305.0679 L1295.8549,315.0679 L1305.8549,315.0679 L1295.8549,305.0679 " fill="#FEFFDD" style="stroke:#181818;stroke-width:0.5;"/><text fill="#000000" font-family="sans-serif" font-size="13" lengthAdjust="spacing" textLength="293.9288" x="921.5" y="323.9649">401 INVALID_TOKEN       &#8594; falha de autentica&#231;&#227;o</text><text fill="#000000" font-family="sans-serif" font-size="13" lengthAdjust="spacing" textLength="312.7009" x="921.5" y="341.6709">422 VALIDATION_ERROR    &#8594; s&#237;mbolo/tipo inv&#225;lidos</text><text fill="#000000" font-family="sans-serif" font-size="13" lengthAdjust="spacing" textLength="278.9268" x="921.5" y="359.377">404 ASSET_NOT_FOUND     &#8594; ativo inexistente</text><text fill="#000000" font-family="sans-serif" font-size="13" lengthAdjust="spacing" textLength="369.3549" x="921.5" y="377.083">502 EXTERNAL_SERVICE_ERROR &#8594; falha do provedor externo</text></g><!--class ReceberSolicitacaoConsultaRequest--><g id="elem_ReceberSolicitacaoConsultaRequest"><rect codeLine="13" fill="#F8F9FA" height="118.6158" id="ReceberSolicitacaoConsultaRequest" rx="2.5" ry="2.5" style="stroke:#2C3E50;stroke-width:0.5;" width="352.6467" x="1680" y="286.0679"/><ellipse cx="1734.8028" cy="308.7739" fill="#ADD1B2" rx="11" ry="11" style="stroke:#181818;stroke-width:1.0;"/><path d="M1737.7716,314.4146 Q1737.1934,314.7114 1736.5528,314.8521 Q1735.9122,315.0083 1735.2091,315.0083 Q1732.7091,315.0083 1731.3809,313.3677 Q1730.0684,311.7114 1730.0684,308.5864 Q1730.0684,305.4614 1731.3809,303.8052 Q1732.7091,302.1489 1735.2091,302.1489 Q1735.9122,302.1489 1736.5528,302.3052 Q1737.2091,302.4614 1737.7716,302.7583 L1737.7716,305.4771 Q1737.1466,304.8989 1736.5528,304.6333 Q1735.9591,304.3521 1735.3341,304.3521 Q1733.9903,304.3521 1733.3028,305.4302 Q1732.6153,306.4927 1732.6153,308.5864 Q1732.6153,310.6802 1733.3028,311.7583 Q1733.9903,312.8208 1735.3341,312.8208 Q1735.9591,312.8208 1736.5528,312.5552 Q1737.1466,312.2739 1737.7716,311.6958 L1737.7716,314.4146 Z " fill="#000000"/><text fill="#000000" font-family="sans-serif" font-size="12" font-style="italic" lengthAdjust="spacing" textLength="96.8767" x="1824.135" y="303.896">&#171;Message / Input&#187;</text><text fill="#000000" font-family="sans-serif" font-size="14" lengthAdjust="spacing" textLength="234.5411" x="1755.3028" y="322.378">ReceberSolicitacaoConsultaRequest</text><line style="stroke:#2C3E50;stroke-width:0.5;" x1="1681" x2="2031.6467" y1="331.4799" y2="331.4799"/><text fill="#000000" font-family="sans-serif" font-size="14" lengthAdjust="spacing" textLength="257.375" x="1686" y="350.4459">+tipoAtivo        : TipoAtivo  {obrigat&#243;rio}</text><text fill="#000000" font-family="sans-serif" font-size="14" lengthAdjust="spacing" textLength="322.6008" x="1686" y="369.5138">+simboloInformado : string     {obrigat&#243;rio, 1..15}</text><text fill="#000000" font-family="sans-serif" font-size="14" lengthAdjust="spacing" textLength="340.6467" x="1686" y="388.5817">+tokenBearer      : string     {obrigat&#243;rio, JWT Bearer}</text><line style="stroke:#2C3E50;stroke-width:0.5;" x1="1681" x2="2031.6467" y1="396.6837" y2="396.6837"/></g><!--class ConsultarCotacaoAtivoRequest--><g id="elem_ConsultarCotacaoAtivoRequest"><rect codeLine="19" fill="#F8F9FA" height="118.6158" id="ConsultarCotacaoAtivoRequest" rx="2.5" ry="2.5" style="stroke:#2C3E50;stroke-width:0.5;" width="337.5128" x="1323.5" y="286.0679"/><ellipse cx="1386.1988" cy="308.7739" fill="#ADD1B2" rx="11" ry="11" style="stroke:#181818;stroke-width:1.0;"/><path d="M1389.1675,314.4146 Q1388.5894,314.7114 1387.9488,314.8521 Q1387.3082,315.0083 1386.605,315.0083 Q1384.105,315.0083 1382.7769,313.3677 Q1381.4644,311.7114 1381.4644,308.5864 Q1381.4644,305.4614 1382.7769,303.8052 Q1384.105,302.1489 1386.605,302.1489 Q1387.3082,302.1489 1387.9488,302.3052 Q1388.605,302.4614 1389.1675,302.7583 L1389.1675,305.4771 Q1388.5425,304.8989 1387.9488,304.6333 Q1387.355,304.3521 1386.73,304.3521 Q1385.3863,304.3521 1384.6988,305.4302 Q1384.0113,306.4927 1384.0113,308.5864 Q1384.0113,310.6802 1384.6988,311.7583 Q1385.3863,312.8208 1386.73,312.8208 Q1387.355,312.8208 1387.9488,312.5552 Q1388.5425,312.2739 1389.1675,311.6958 L1389.1675,314.4146 Z " fill="#000000"/><text fill="#000000" font-family="sans-serif" font-size="12" font-style="italic" lengthAdjust="spacing" textLength="96.8767" x="1460.0681" y="303.896">&#171;Message / Input&#187;</text><text fill="#000000" font-family="sans-serif" font-size="14" lengthAdjust="spacing" textLength="203.6152" x="1406.6988" y="322.378">ConsultarCotacaoAtivoRequest</text><line style="stroke:#2C3E50;stroke-width:0.5;" x1="1324.5" x2="1660.0128" y1="331.4799" y2="331.4799"/><text fill="#000000" font-family="sans-serif" font-size="14" lengthAdjust="spacing" textLength="325.5128" x="1329.5" y="350.4459">+tipoAtivo   : TipoAtivo {obrigat&#243;rio, normalizado}</text><text fill="#000000" font-family="sans-serif" font-size="14" lengthAdjust="spacing" textLength="314.0888" x="1329.5" y="369.5138">+simbolo     : string    {obrigat&#243;rio, normalizado}</text><text fill="#000000" font-family="sans-serif" font-size="14" lengthAdjust="spacing" textLength="318.8068" x="1329.5" y="388.5817">+tokenBearer : string    {obrigat&#243;rio, JWT Bearer}</text><line style="stroke:#2C3E50;stroke-width:0.5;" x1="1324.5" x2="1660.0128" y1="396.6837" y2="396.6837"/></g><!--class TipoAtivo--><g id="elem_TipoAtivo"><rect codeLine="25" fill="#F8F9FA" height="86.1358" id="TipoAtivo" rx="2.5" ry="2.5" style="stroke:#2C3E50;stroke-width:0.5;" width="93.6698" x="1809.5" y="479.0679"/><ellipse cx="1824.5" cy="495.0679" fill="#EB937F" rx="11" ry="11" style="stroke:#181818;stroke-width:1.0;"/><path d="M1828.6094,501.0679 L1820.8906,501.0679 L1820.8906,488.6773 L1828.6094,488.6773 L1828.6094,490.8335 L1823.3438,490.8335 L1823.3438,493.5054 L1828.1094,493.5054 L1828.1094,495.6617 L1823.3438,495.6617 L1823.3438,498.9117 L1828.6094,498.9117 L1828.6094,501.0679 Z " fill="#000000"/><text fill="#000000" font-family="sans-serif" font-size="14" lengthAdjust="spacing" textLength="61.6698" x="1838.5" y="500.4999">TipoAtivo</text><line style="stroke:#2C3E50;stroke-width:0.5;" x1="1810.5" x2="1902.1698" y1="511.0679" y2="511.0679"/><text fill="#000000" font-family="sans-serif" font-size="14" lengthAdjust="spacing" textLength="37.6739" x="1815.5" y="530.0339">ACAO</text><text fill="#000000" font-family="sans-serif" font-size="14" lengthAdjust="spacing" textLength="49.4898" x="1815.5" y="549.1018">CRIPTO</text><line style="stroke:#2C3E50;stroke-width:0.5;" x1="1810.5" x2="1902.1698" y1="557.2038" y2="557.2038"/></g><!--class ConsultaCotacaoResponse--><g id="elem_ConsultaCotacaoResponse"><rect codeLine="37" fill="#F8F9FA" height="137.6837" id="ConsultaCotacaoResponse" rx="2.5" ry="2.5" style="stroke:#2C3E50;stroke-width:0.5;" width="461.1183" x="2071" y="74.0679"/><ellipse cx="2209.9285" cy="96.7739" fill="#ADD1B2" rx="11" ry="11" style="stroke:#181818;stroke-width:1.0;"/><path d="M2212.8972,102.4146 Q2212.3191,102.7114 2211.6785,102.8521 Q2211.0378,103.0083 2210.3347,103.0083 Q2207.8347,103.0083 2206.5066,101.3677 Q2205.1941,99.7114 2205.1941,96.5864 Q2205.1941,93.4614 2206.5066,91.8052 Q2207.8347,90.1489 2210.3347,90.1489 Q2211.0378,90.1489 2211.6785,90.3052 Q2212.3347,90.4614 2212.8972,90.7583 L2212.8972,93.4771 Q2212.2722,92.8989 2211.6785,92.6333 Q2211.0847,92.3521 2210.4597,92.3521 Q2209.116,92.3521 2208.4285,93.4302 Q2207.741,94.4927 2207.741,96.5864 Q2207.741,98.6802 2208.4285,99.7583 Q2209.116,100.8208 2210.4597,100.8208 Q2211.0847,100.8208 2211.6785,100.5552 Q2212.2722,100.2739 2212.8972,99.6958 L2212.8972,102.4146 Z " fill="#000000"/><text fill="#000000" font-family="sans-serif" font-size="12" font-style="italic" lengthAdjust="spacing" textLength="105.6247" x="2264.9968" y="91.896">&#171;Message / Output&#187;</text><text fill="#000000" font-family="sans-serif" font-size="14" lengthAdjust="spacing" textLength="174.7613" x="2230.4285" y="110.378">ConsultaCotacaoResponse</text><line style="stroke:#2C3E50;stroke-width:0.5;" x1="2072" x2="2531.1183" y1="119.4799" y2="119.4799"/><text fill="#000000" font-family="sans-serif" font-size="14" lengthAdjust="spacing" textLength="224.4052" x="2077" y="138.4459">+cotacao         : CotacaoFormatada</text><text fill="#000000" font-family="sans-serif" font-size="14" lengthAdjust="spacing" textLength="191.0433" x="2077" y="157.5138">+origem          : OrigemDados</text><text fill="#000000" font-family="sans-serif" font-size="14" lengthAdjust="spacing" textLength="449.1183" x="2077" y="176.5817">+provedorOrigem  : string    {quando origem=PROVEDOR_EXTERNO}</text><text fill="#000000" font-family="sans-serif" font-size="14" lengthAdjust="spacing" textLength="290.1348" x="2077" y="195.6496">+atualizadoEm    : datetime  {ISO-8601, UTC}</text><line style="stroke:#2C3E50;stroke-width:0.5;" x1="2072" x2="2531.1183" y1="203.7516" y2="203.7516"/></g><!--class CotacaoFormatada--><g id="elem_CotacaoFormatada"><rect codeLine="44" fill="#F8F9FA" height="194.8874" id="CotacaoFormatada" rx="2.5" ry="2.5" style="stroke:#2C3E50;stroke-width:0.5;" width="315.9528" x="2057.5" y="248.0679"/><ellipse cx="2148.6746" cy="270.7739" fill="#ADD1B2" rx="11" ry="11" style="stroke:#181818;stroke-width:1.0;"/><path d="M2151.6434,276.4146 Q2151.0653,276.7114 2150.4246,276.8521 Q2149.784,277.0083 2149.0809,277.0083 Q2146.5809,277.0083 2145.2528,275.3677 Q2143.9403,273.7114 2143.9403,270.5864 Q2143.9403,267.4614 2145.2528,265.8052 Q2146.5809,264.1489 2149.0809,264.1489 Q2149.784,264.1489 2150.4246,264.3052 Q2151.0809,264.4614 2151.6434,264.7583 L2151.6434,267.4771 Q2151.0184,266.8989 2150.4246,266.6333 Q2149.8309,266.3521 2149.2059,266.3521 Q2147.8621,266.3521 2147.1746,267.4302 Q2146.4871,268.4927 2146.4871,270.5864 Q2146.4871,272.6802 2147.1746,273.7583 Q2147.8621,274.8208 2149.2059,274.8208 Q2149.8309,274.8208 2150.4246,274.5552 Q2151.0184,274.2739 2151.6434,273.6958 L2151.6434,276.4146 Z " fill="#000000"/><text fill="#000000" font-family="sans-serif" font-size="12" font-style="italic" lengthAdjust="spacing" textLength="34.1162" x="2214.6683" y="265.896">&#171;DTO&#187;</text><text fill="#000000" font-family="sans-serif" font-size="14" lengthAdjust="spacing" textLength="125.1036" x="2169.1746" y="284.378">CotacaoFormatada</text><line style="stroke:#2C3E50;stroke-width:0.5;" x1="2058.5" x2="2372.4528" y1="293.4799" y2="293.4799"/><text fill="#000000" font-family="sans-serif" font-size="14" lengthAdjust="spacing" textLength="157.8494" x="2063.5" y="312.4459">+tipoAtivo      : TipoAtivo</text><text fill="#000000" font-family="sans-serif" font-size="14" lengthAdjust="spacing" textLength="135.5055" x="2063.5" y="331.5138">+simbolo        : string</text><text fill="#000000" font-family="sans-serif" font-size="14" lengthAdjust="spacing" textLength="235.8011" x="2063.5" y="350.5817">+moeda          : string        {ISO-4217}</text><text fill="#000000" font-family="sans-serif" font-size="14" lengthAdjust="spacing" textLength="303.9528" x="2063.5" y="369.6496">+dataReferencia : datetime      {ISO-8601, UTC}</text><line style="stroke:#2C3E50;stroke-width:0.5;" x1="2058.5" x2="2372.4528" y1="377.7516" y2="377.7516"/><text fill="#000000" font-family="sans-serif" font-size="14" lengthAdjust="spacing" textLength="176.8473" x="2063.5" y="396.7176">+preco          : decimal(18,8)</text><text fill="#000000" font-family="sans-serif" font-size="14" lengthAdjust="spacing" textLength="275.1129" x="2063.5" y="415.7855">+variacaoDia    : decimal(8,4)  {percentual}</text><text fill="#000000" font-family="sans-serif" font-size="14" lengthAdjust="spacing" textLength="184.5612" x="2063.5" y="434.8534">+volume         : decimal(20,2)</text></g><!--class OrigemDados--><g id="elem_OrigemDados"><rect codeLine="54" fill="#F8F9FA" height="86.1358" id="OrigemDados" rx="2.5" ry="2.5" style="stroke:#2C3E50;stroke-width:0.5;" width="154.2114" x="2391.5" y="302.5679"/><ellipse cx="2420.1925" cy="318.5679" fill="#EB937F" rx="11" ry="11" style="stroke:#181818;stroke-width:1.0;"/><path d="M2424.3019,324.5679 L2416.5831,324.5679 L2416.5831,312.1773 L2424.3019,312.1773 L2424.3019,314.3335 L2419.0362,314.3335 L2419.0362,317.0054 L2423.8019,317.0054 L2423.8019,319.1617 L2419.0362,319.1617 L2419.0362,322.4117 L2424.3019,322.4117 L2424.3019,324.5679 Z " fill="#000000"/><text fill="#000000" font-family="sans-serif" font-size="14" lengthAdjust="spacing" textLength="91.7837" x="2437.2353" y="323.9999">OrigemDados</text><line style="stroke:#2C3E50;stroke-width:0.5;" x1="2392.5" x2="2544.7114" y1="334.5679" y2="334.5679"/><text fill="#000000" font-family="sans-serif" font-size="14" lengthAdjust="spacing" textLength="44.7998" x="2397.5" y="353.5339">CACHE</text><text fill="#000000" font-family="sans-serif" font-size="14" lengthAdjust="spacing" textLength="142.2114" x="2397.5" y="372.6018">PROVEDOR_EXTERNO</text><line style="stroke:#2C3E50;stroke-width:0.5;" x1="2392.5" x2="2544.7114" y1="380.7038" y2="380.7038"/></g><!--class ErroConsulta--><g id="elem_ErroConsulta"><rect codeLine="67" fill="#F8F9FA" height="137.6837" id="ErroConsulta" rx="2.5" ry="2.5" style="stroke:#2C3E50;stroke-width:0.5;" width="280.9669" x="618" y="74.0679"/><ellipse cx="708.5271" cy="96.7739" fill="#ADD1B2" rx="11" ry="11" style="stroke:#181818;stroke-width:1.0;"/><path d="M711.4959,102.4146 Q710.9177,102.7114 710.2771,102.8521 Q709.6365,103.0083 708.9334,103.0083 Q706.4334,103.0083 705.1052,101.3677 Q703.7927,99.7114 703.7927,96.5864 Q703.7927,93.4614 705.1052,91.8052 Q706.4334,90.1489 708.9334,90.1489 Q709.6365,90.1489 710.2771,90.3052 Q710.9334,90.4614 711.4959,90.7583 L711.4959,93.4771 Q710.8709,92.8989 710.2771,92.6333 Q709.6834,92.3521 709.0584,92.3521 Q707.7146,92.3521 707.0271,93.4302 Q706.3396,94.4927 706.3396,96.5864 Q706.3396,98.6802 707.0271,99.7583 Q707.7146,100.8208 709.0584,100.8208 Q709.6834,100.8208 710.2771,100.5552 Q710.8709,100.2739 711.4959,99.6958 L711.4959,102.4146 Z " fill="#000000"/><text fill="#000000" font-family="sans-serif" font-size="12" font-style="italic" lengthAdjust="spacing" textLength="95.4127" x="727.0271" y="91.896">&#171;Message / Error&#187;</text><text fill="#000000" font-family="sans-serif" font-size="14" lengthAdjust="spacing" textLength="85.6657" x="731.9006" y="110.378">ErroConsulta</text><line style="stroke:#2C3E50;stroke-width:0.5;" x1="619" x2="897.9669" y1="119.4799" y2="119.4799"/><text fill="#000000" font-family="sans-serif" font-size="14" lengthAdjust="spacing" textLength="268.9669" x="624" y="138.4459">+codigo   : int        {401 | 422 | 404 | 502}</text><text fill="#000000" font-family="sans-serif" font-size="14" lengthAdjust="spacing" textLength="136.3734" x="624" y="157.5138">+chave    : ChaveErro</text><text fill="#000000" font-family="sans-serif" font-size="14" lengthAdjust="spacing" textLength="131.2495" x="624" y="176.5817">+mensagem : string</text><text fill="#000000" font-family="sans-serif" font-size="14" lengthAdjust="spacing" textLength="235.9411" x="624" y="195.6496">+traceId  : string     {rastreabilidade}</text><line style="stroke:#2C3E50;stroke-width:0.5;" x1="619" x2="897.9669" y1="203.7516" y2="203.7516"/></g><!--class ChaveErro--><g id="elem_ChaveErro"><rect codeLine="74" fill="#F8F9FA" height="124.2717" id="ChaveErro" rx="2.5" ry="2.5" style="stroke:#2C3E50;stroke-width:0.5;" width="190.4153" x="663.5" y="283.5679"/><ellipse cx="720.3678" cy="299.5679" fill="#EB937F" rx="11" ry="11" style="stroke:#181818;stroke-width:1.0;"/><path d="M724.4771,305.5679 L716.7584,305.5679 L716.7584,293.1773 L724.4771,293.1773 L724.4771,295.3335 L719.2115,295.3335 L719.2115,298.0054 L723.9771,298.0054 L723.9771,300.1617 L719.2115,300.1617 L719.2115,303.4117 L724.4771,303.4117 L724.4771,305.5679 Z " fill="#000000"/><text fill="#000000" font-family="sans-serif" font-size="14" lengthAdjust="spacing" textLength="68.1797" x="740.8678" y="304.9999">ChaveErro</text><line style="stroke:#2C3E50;stroke-width:0.5;" x1="664.5" x2="852.9153" y1="315.5679" y2="315.5679"/><text fill="#000000" font-family="sans-serif" font-size="14" lengthAdjust="spacing" textLength="107.0576" x="669.5" y="334.5339">INVALID_TOKEN</text><text fill="#000000" font-family="sans-serif" font-size="14" lengthAdjust="spacing" textLength="133.7555" x="669.5" y="353.6018">VALIDATION_ERROR</text><text fill="#000000" font-family="sans-serif" font-size="14" lengthAdjust="spacing" textLength="130.9695" x="669.5" y="372.6697">ASSET_NOT_FOUND</text><text fill="#000000" font-family="sans-serif" font-size="14" lengthAdjust="spacing" textLength="178.4153" x="669.5" y="391.7376">EXTERNAL_SERVICE_ERROR</text><line style="stroke:#2C3E50;stroke-width:0.5;" x1="664.5" x2="852.9153" y1="399.8396" y2="399.8396"/></g><polygon fill="#181818" points="1856.5,478.8994,1860.5,469.8994,1856.5,473.8994,1852.5,469.8994,1856.5,478.8994" style="stroke:#181818;stroke-width:1.0;"/><path d="M1856.5,405.1593 C1856.5,429.3182 1856.5,450.7749 1856.5,472.8994 " fill="none" style="stroke:#181818;stroke-width:1.0;"/><polygon fill="#181818" points="1809.3369,505.8195,1802.0963,499.1431,1804.6012,504.2151,1799.5293,506.7201,1809.3369,505.8195" style="stroke:#181818;stroke-width:1.0;"/><path d="M1585.5542,405.2316 C1612.4558,421.0768 1642.2038,437.5592 1670.5,451.0679 C1716.4264,472.9933 1765.4942,490.966 1803.6541,503.8942 " fill="none" style="stroke:#181818;stroke-width:1.0;"/><polygon fill="#181818" points="2272.2643,212.2278,2266.223,216.1652,2267.534,223.2562,2273.5753,219.3188,2272.2643,212.2278" style="stroke:#181818;stroke-width:1.0;"/><path d="M2267.534,223.2562 C2262.6158,234.7223 2262.1595,235.7862 2257.0016,247.8113 " fill="none" style="stroke:#181818;stroke-width:1.0;"/><text fill="#000000" font-family="sans-serif" font-size="13" lengthAdjust="spacing" textLength="7.436" x="2249.0016" y="243.7083">1</text><text fill="#000000" font-family="sans-serif" font-size="13" lengthAdjust="spacing" textLength="7.436" x="2264.2643" y="227.1249">1</text><polygon fill="#181818" points="2433.2912,302.2963,2430.6048,292.8209,2430.0913,298.4544,2424.4578,297.9409,2433.2912,302.2963" style="stroke:#181818;stroke-width:1.0;"/><path d="M2358.2716,212.2278 C2383.1403,242.0852 2407.705,271.5776 2429.4513,297.6861 " fill="none" style="stroke:#181818;stroke-width:1.0;"/><polygon fill="#181818" points="1903.776,506.433,1913.5734,507.4382,1908.5284,504.8792,1911.0874,499.8343,1903.776,506.433" style="stroke:#181818;stroke-width:1.0;"/><path d="M2061.0236,443.2533 C2055.8234,445.9533 2050.6399,448.5664 2045.5,451.0679 C1998.7782,473.8064 1948.3672,491.8546 1909.4789,504.5685 " fill="none" style="stroke:#181818;stroke-width:1.0;"/><polygon fill="#181818" points="758.5,283.3245,762.5,274.3245,758.5,278.3245,754.5,274.3245,758.5,283.3245" style="stroke:#181818;stroke-width:1.0;"/><path d="M758.5,212.2278 C758.5,235.2736 758.5,254.8486 758.5,277.3245 " fill="none" style="stroke:#181818;stroke-width:1.0;"/><!--SRC=[bLRDSjis4BxhARRkeRPhEP8gfwedyOmYKHEsYUYAijkR1YBNCiOa88EW6YVrgJFjlM_GwI6ddl88UfC-IHVyaKZgnuqE50ZkBhvlzri0NymLcuKC0lOWOmrHY9e9LjDS1mXMT1zZo2Bm4TwYYDYC7b075zM2BpzACz-J8ee3pTAnPikFoxzbhHRTSJ5dYeNW1IoAkbehFeqrsfuKBd-FqAYQl6BUtKp9MFWz6KW5NmuwW-y6tGqpgNnKcKchzurrLemKQLGezSCSUnlnhCwWFUXlDHvkBZuOjAtdjTfNyBByWv7ruvNjsii_bhyvrO-rESMXBC712EzZ7l4a6mVmuiK8FKhiBC2B2_XGgq5A1cWQfwXS6N2FQ-OncUVJ1C18a-jRZ4pcuHdOOXxh903GxslGV2wxcYyaPBzp6A-dFiYfuZEcbvyKbu-PIyJ3AJ6qnOrK8VCbkKHK6Z5B_4ik9z0yFMsUvPvQtg5uXKoXoXVRxVdzJsD8ROtxuvfmJayPhH3T1EldSYtIh2mi3As0loTg5SeRc9_sB5BUuxc5B8euB89C0dPxNISPz4RsvTZ9RP_MGBr-iGv67dkJM3P-t2vXzz9nnrquTAzwbkiwH_k47CrbHFrzwCOULKSUxP5p3Yp3bVYA24k5TM9ThgoN6iDQn9dxm5H4CvzbXfAIZY4K39rafaybYpARkP8BzALoCjjIsUvZ9aZoQPoNboFdskexeudryzWQ3Psywap7cGwiC5t6Pner3v52sAvJxpnlD4_WQjpRq7OPDj7kZvtT_NfUAcfLgWMrhhYX9ulqVVGuQVQmsJdf76L6eKHQ6QeXylU4GBlL_3Pdks2A6zHzpif1EoVj8xAVe_9Gc9IiF6GGcrnim6WrJbev34ePoVU6DbZXKUHY3bSmDlEOj4sXg5dcUjtUQoiPLMkME-uIta7p08xhzUH_YwfskPaUAcjhexQVrMRMQFJ_UinIQc-3cU-h4xVOLUQ3AZMLpsVfNic5NbM_tMZ2hz1kjSopqQRdMQEL5zQxPGlCEj0CJSnSLUdf7rObgHNpqFQhXu5Yz8PioWFkCn_BzLt5pi3Qm-lk6xi_6Ji_MCDa9ddlZcrdE36P6wMxf-jQuydG6Ky6pjMmdyobAkY-cRZMwDhkMIlpPBLIiaozrgpekv0QWMfygq7UFBq9KxpZOuUw8RtXd1yVWzhfOnONb1lIoLJ5jFg22nhJtkC5dBe9uR1xQGCT8VWBUpWw9Ni7ekK_QVUpn5ZGAd0ZUV5WEgsXyC4Wh-BVToHiWUvjCoSxMooaPs2JQ5095YPWsNpvALhZIAzu07CaiEMxO7R_Coz9o0t0Kwcr30tYOdKec55cIGcPPF_z_K-uOS5jSi5aT8CKcdih24R9LRNaNda-dvbjbmWjbd-H79DkDjAlw6cr64isQ2xm7O_CQaZsr2Gxj5R49rUd3-0xapwvPlyV]--></g></svg>