<svg xmlns="http://www.w3.org/2000/svg" xmlns:xlink="http://www.w3.org/1999/xlink" contentStyleType="text/css" height="861px" preserveAspectRatio="none" style="width:1543px;height:861px;background:#FFFFFF;" version="1.1" viewBox="0 0 1543 861" width="1543px" zoomAndPan="magnify"><title>Interface - Servi&#231;o de Consulta de Cota&#231;&#227;o</title><defs/><g><text fill="#000000" font-family="sans-serif" font-size="14" font-weight="bold" lengthAdjust="spacing" textLength="293.9289" x="621.0356" y="24.9659">Interface - Servi&#231;o de Consulta de Cota&#231;&#227;o</text><!--class ISvc--><g id="elem_ISvc"><rect codeLine="9" fill="#F8F9FA" height="99.5479" id="ISvc" rx="2.5" ry="2.5" style="stroke:#2C3E50;stroke-width:0.5;" width="652.8757" x="84" y="69.0679"/><ellipse cx="351.1961" cy="91.7739" fill="#B4A7E5" rx="11" ry="11" style="stroke:#181818;stroke-width:1.0;"/><path d="M347.118,87.5396 L347.118,85.3833 L354.5086,85.3833 L354.5086,87.5396 L352.0398,87.5396 L352.0398,95.6177 L354.5086,95.6177 L354.5086,97.7739 L347.118,97.7739 L347.118,95.6177 L349.5867,95.6177 L349.5867,87.5396 L347.118,87.5396 Z " fill="#000000"/><text fill="#000000" font-family="sans-serif" font-size="12" font-style="italic" lengthAdjust="spacing" textLength="99.1567" x="377.1095" y="86.896">&#171;Service Interface&#187;</text><text fill="#000000" font-family="sans-serif" font-size="14" font-style="italic" lengthAdjust="spacing" textLength="109.9836" x="371.6961" y="105.378">IConsultaCotacao</text><line style="stroke:#2C3E50;stroke-width:0.5;" x1="85" x2="735.8757" y1="114.4799" y2="114.4799"/><line style="stroke:#2C3E50;stroke-width:0.5;" x1="85" x2="735.8757" y1="122.4799" y2="122.4799"/><text fill="#000000" font-family="sans-serif" font-size="14" lengthAdjust="spacing" textLength="640.8757" x="90" y="141.4459">+receberSolicitacaoConsulta(req: ReceberSolicitacaoConsultaRequest): ConsultaCotacaoResponse</text><text fill="#000000" font-family="sans-serif" font-size="14" lengthAdjust="spacing" textLength="579.8219" x="90" y="160.5138">+consultarCotacaoAtivo(req: ConsultarCotacaoAtivoRequest): ConsultaCotacaoResponse</text></g><!--class ReceberSolicitacaoConsultaRequest--><g id="elem_ReceberSolicitacaoConsultaRequest"><rect codeLine="14" fill="#F8F9FA" height="118.6158" id="ReceberSolicitacaoConsultaRequest" rx="2.5" ry="2.5" style="stroke:#2C3E50;stroke-width:0.5;" width="297.2069" x="6" y="399.0679"/><ellipse cx="34.7996" cy="421.7739" fill="#ADD1B2" rx="11" ry="11" style="stroke:#181818;stroke-width:1.0;"/><path d="M37.7684,427.4146 Q37.1902,427.7114 36.5496,427.8521 Q35.909,428.0083 35.2059,428.0083 Q32.7059,428.0083 31.3777,426.3677 Q30.0652,424.7114 30.0652,421.5864 Q30.0652,418.4614 31.3777,416.8052 Q32.7059,415.1489 35.2059,415.1489 Q35.909,415.1489 36.5496,415.3052 Q37.2059,415.4614 37.7684,415.7583 L37.7684,418.4771 Q37.1434,417.8989 36.5496,417.6333 Q35.9559,417.3521 35.3309,417.3521 Q33.9871,417.3521 33.2996,418.4302 Q32.6121,419.4927 32.6121,421.5864 Q32.6121,423.6802 33.2996,424.7583 Q33.9871,425.8208 35.3309,425.8208 Q35.9559,425.8208 36.5496,425.5552 Q37.1434,425.2739 37.7684,424.6958 L37.7684,427.4146 Z " fill="#000000"/><text fill="#000000" font-family="sans-serif" font-size="12" font-style="italic" lengthAdjust="spacing" textLength="87.0846" x="125.5944" y="416.896">&#171;DTO / Entrada&#187;</text><text fill="#000000" font-family="sans-serif" font-size="14" lengthAdjust="spacing" textLength="234.5411" x="51.8662" y="435.378">ReceberSolicitacaoConsultaRequest</text><line style="stroke:#2C3E50;stroke-width:0.5;" x1="7" x2="302.2069" y1="444.4799" y2="444.4799"/><text fill="#000000" font-family="sans-serif" font-size="14" lengthAdjust="spacing" textLength="285.2069" x="12" y="463.4459">+tipoAtivo        : TipoAtivo  {ACAO | CRIPTO}</text><text fill="#000000" font-family="sans-serif" font-size="14" lengthAdjust="spacing" textLength="284.8429" x="12" y="482.5138">+simboloInformado : string     {bruto, 1..15}</text><text fill="#000000" font-family="sans-serif" font-size="14" lengthAdjust="spacing" textLength="258.929" x="12" y="501.5817">+tokenBearer      : string     {JWT Bearer}</text><line style="stroke:#2C3E50;stroke-width:0.5;" x1="7" x2="302.2069" y1="509.6837" y2="509.6837"/></g><!--class ConsultarCotacaoAtivoRequest--><g id="elem_ConsultarCotacaoAtivoRequest"><rect codeLine="20" fill="#F8F9FA" height="118.6158" id="ConsultarCotacaoAtivoRequest" rx="2.5" ry="2.5" style="stroke:#2C3E50;stroke-width:0.5;" width="240.7311" x="308" y="399.0679"/><ellipse cx="325.3022" cy="421.7739" fill="#ADD1B2" rx="11" ry="11" style="stroke:#181818;stroke-width:1.0;"/><path d="M328.2709,427.4146 Q327.6928,427.7114 327.0522,427.8521 Q326.4115,428.0083 325.7084,428.0083 Q323.2084,428.0083 321.8803,426.3677 Q320.5678,424.7114 320.5678,421.5864 Q320.5678,418.4614 321.8803,416.8052 Q323.2084,415.1489 325.7084,415.1489 Q326.4115,415.1489 327.0522,415.3052 Q327.7084,415.4614 328.2709,415.7583 L328.2709,418.4771 Q327.6459,417.8989 327.0522,417.6333 Q326.4584,417.3521 325.8334,417.3521 Q324.4897,417.3521 323.8022,418.4302 Q323.1147,419.4927 323.1147,421.5864 Q323.1147,423.6802 323.8022,424.7583 Q324.4897,425.8208 325.8334,425.8208 Q326.4584,425.8208 327.0522,425.5552 Q327.6459,425.2739 328.2709,424.6958 L328.2709,427.4146 Z " fill="#000000"/><text fill="#000000" font-family="sans-serif" font-size="12" font-style="italic" lengthAdjust="spacing" textLength="87.0846" x="398.079" y="416.896">&#171;DTO / Entrada&#187;</text><text fill="#000000" font-family="sans-serif" font-size="14" lengthAdjust="spacing" textLength="203.6152" x="339.8137" y="435.378">ConsultarCotacaoAtivoRequest</text><line style="stroke:#2C3E50;stroke-width:0.5;" x1="309" x2="547.7311" y1="444.4799" y2="444.4799"/><text fill="#000000" font-family="sans-serif" font-size="14" lengthAdjust="spacing" textLength="146.9294" x="314" y="463.4459">+tipoAtivo   : TipoAtivo</text><text fill="#000000" font-family="sans-serif" font-size="14" lengthAdjust="spacing" textLength="228.7311" x="314" y="482.5138">+simbolo     : string   {normalizado}</text><text fill="#000000" font-family="sans-serif" font-size="14" lengthAdjust="spacing" textLength="139.3135" x="314" y="501.5817">+tokenBearer : string</text><line style="stroke:#2C3E50;stroke-width:0.5;" x1="309" x2="547.7311" y1="509.6837" y2="509.6837"/></g><!--class ConsultaCotacaoResponse--><g id="elem_ConsultaCotacaoResponse"><rect codeLine="26" fill="#F8F9FA" height="137.6837" id="ConsultaCotacaoResponse" rx="2.5" ry="2.5" style="stroke:#2C3E50;stroke-width:0.5;" width="415.6883" x="359.5" y="243.0679"/><ellipse cx="475.7135" cy="265.7739" fill="#ADD1B2" rx="11" ry="11" style="stroke:#181818;stroke-width:1.0;"/><path d="M478.6822,271.4146 Q478.1041,271.7114 477.4635,271.8521 Q476.8229,272.0083 476.1197,272.0083 Q473.6197,272.0083 472.2916,270.3677 Q470.9791,268.7114 470.9791,265.5864 Q470.9791,262.4614 472.2916,260.8052 Q473.6197,259.1489 476.1197,259.1489 Q476.8229,259.1489 477.4635,259.3052 Q478.1197,259.4614 478.6822,259.7583 L478.6822,262.4771 Q478.0572,261.8989 477.4635,261.6333 Q476.8697,261.3521 476.2447,261.3521 Q474.901,261.3521 474.2135,262.4302 Q473.526,263.4927 473.526,265.5864 Q473.526,267.6802 474.2135,268.7583 Q474.901,269.8208 476.2447,269.8208 Q476.8697,269.8208 477.4635,269.5552 Q478.0572,269.2739 478.6822,268.6958 L478.6822,271.4146 Z " fill="#000000"/><text fill="#000000" font-family="sans-serif" font-size="12" font-style="italic" lengthAdjust="spacing" textLength="74.3645" x="546.4119" y="260.896">&#171;DTO / Sa&#237;da&#187;</text><text fill="#000000" font-family="sans-serif" font-size="14" lengthAdjust="spacing" textLength="174.7613" x="496.2135" y="279.378">ConsultaCotacaoResponse</text><line style="stroke:#2C3E50;stroke-width:0.5;" x1="360.5" x2="774.1883" y1="288.4799" y2="288.4799"/><text fill="#000000" font-family="sans-serif" font-size="14" lengthAdjust="spacing" textLength="220.7652" x="365.5" y="307.4459">+cotacao        : CotacaoFormatada</text><text fill="#000000" font-family="sans-serif" font-size="14" lengthAdjust="spacing" textLength="403.6883" x="365.5" y="326.5138">+origem         : OrigemDados {CACHE | PROVEDOR_EXTERNO}</text><text fill="#000000" font-family="sans-serif" font-size="14" lengthAdjust="spacing" textLength="168.1114" x="365.5" y="345.5817">+provedorOrigem : string</text><line style="stroke:#2C3E50;stroke-width:0.5;" x1="360.5" x2="774.1883" y1="353.6837" y2="353.6837"/><text fill="#000000" font-family="sans-serif" font-size="14" lengthAdjust="spacing" textLength="280.6149" x="365.5" y="372.6496">+atualizadoEm   : datetime (ISO-8601, UTC)</text></g><!--class CotacaoFormatada--><g id="elem_CotacaoFormatada"><rect codeLine="33" fill="#F8F9FA" height="194.8874" id="CotacaoFormatada" rx="2.5" ry="2.5" style="stroke:#2C3E50;stroke-width:0.5;" width="228.2151" x="453.5" y="536.0679"/><ellipse cx="500.8058" cy="558.7739" fill="#ADD1B2" rx="11" ry="11" style="stroke:#181818;stroke-width:1.0;"/><path d="M503.7745,564.4146 Q503.1964,564.7114 502.5558,564.8521 Q501.9152,565.0083 501.212,565.0083 Q498.712,565.0083 497.3839,563.3677 Q496.0714,561.7114 496.0714,558.5864 Q496.0714,555.4614 497.3839,553.8052 Q498.712,552.1489 501.212,552.1489 Q501.9152,552.1489 502.5558,552.3052 Q503.212,552.4614 503.7745,552.7583 L503.7745,555.4771 Q503.1495,554.8989 502.5558,554.6333 Q501.962,554.3521 501.337,554.3521 Q499.9933,554.3521 499.3058,555.4302 Q498.6183,556.4927 498.6183,558.5864 Q498.6183,560.6802 499.3058,561.7583 Q499.9933,562.8208 501.337,562.8208 Q501.962,562.8208 502.5558,562.5552 Q503.1495,562.2739 503.7745,561.6958 L503.7745,564.4146 Z " fill="#000000"/><text fill="#000000" font-family="sans-serif" font-size="12" font-style="italic" lengthAdjust="spacing" textLength="34.1162" x="566.7995" y="553.896">&#171;DTO&#187;</text><text fill="#000000" font-family="sans-serif" font-size="14" lengthAdjust="spacing" textLength="125.1036" x="521.3058" y="572.378">CotacaoFormatada</text><line style="stroke:#2C3E50;stroke-width:0.5;" x1="454.5" x2="680.7151" y1="581.4799" y2="581.4799"/><text fill="#000000" font-family="sans-serif" font-size="14" lengthAdjust="spacing" textLength="157.8494" x="459.5" y="600.4459">+tipoAtivo      : TipoAtivo</text><text fill="#000000" font-family="sans-serif" font-size="14" lengthAdjust="spacing" textLength="135.5055" x="459.5" y="619.5138">+simbolo        : string</text><line style="stroke:#2C3E50;stroke-width:0.5;" x1="454.5" x2="680.7151" y1="627.6158" y2="627.6158"/><text fill="#000000" font-family="sans-serif" font-size="14" lengthAdjust="spacing" textLength="176.8473" x="459.5" y="646.5817">+preco          : decimal(18,8)</text><text fill="#000000" font-family="sans-serif" font-size="14" lengthAdjust="spacing" textLength="208.0812" x="459.5" y="665.6496">+moeda          : string (ISO-4217)</text><text fill="#000000" font-family="sans-serif" font-size="14" lengthAdjust="spacing" textLength="186.4653" x="459.5" y="684.7176">+variacaoDia    : decimal(8,4)</text><text fill="#000000" font-family="sans-serif" font-size="14" lengthAdjust="spacing" textLength="184.5612" x="459.5" y="703.7855">+volume         : decimal(20,2)</text><text fill="#000000" font-family="sans-serif" font-size="14" lengthAdjust="spacing" textLength="216.2151" x="459.5" y="722.8534">+dataReferencia : datetime (UTC)</text></g><!--class ErroConsulta--><g id="elem_ErroConsulta"><rect codeLine="43" fill="#F8F9FA" height="137.6837" id="ErroConsulta" rx="2.5" ry="2.5" style="stroke:#2C3E50;stroke-width:0.5;" width="742.6289" x="794" y="243.0679"/><ellipse cx="1118.2316" cy="265.7739" fill="#ADD1B2" rx="11" ry="11" style="stroke:#181818;stroke-width:1.0;"/><path d="M1121.2004,271.4146 Q1120.6222,271.7114 1119.9816,271.8521 Q1119.341,272.0083 1118.6379,272.0083 Q1116.1379,272.0083 1114.8097,270.3677 Q1113.4972,268.7114 1113.4972,265.5864 Q1113.4972,262.4614 1114.8097,260.8052 Q1116.1379,259.1489 1118.6379,259.1489 Q1119.341,259.1489 1119.9816,259.3052 Q1120.6379,259.4614 1121.2004,259.7583 L1121.2004,262.4771 Q1120.5754,261.8989 1119.9816,261.6333 Q1119.3879,261.3521 1118.7629,261.3521 Q1117.4191,261.3521 1116.7316,262.4302 Q1116.0441,263.4927 1116.0441,265.5864 Q1116.0441,267.6802 1116.7316,268.7583 Q1117.4191,269.8208 1118.7629,269.8208 Q1119.3879,269.8208 1119.9816,269.5552 Q1120.5754,269.2739 1121.2004,268.6958 L1121.2004,271.4146 Z " fill="#000000"/><text fill="#000000" font-family="sans-serif" font-size="12" font-style="italic" lengthAdjust="spacing" textLength="67.1045" x="1148.0122" y="260.896">&#171;DTO / Erro&#187;</text><text fill="#000000" font-family="sans-serif" font-size="14" lengthAdjust="spacing" textLength="85.6657" x="1138.7316" y="279.378">ErroConsulta</text><line style="stroke:#2C3E50;stroke-width:0.5;" x1="795" x2="1535.6289" y1="288.4799" y2="288.4799"/><text fill="#000000" font-family="sans-serif" font-size="14" lengthAdjust="spacing" textLength="268.9669" x="800" y="307.4459">+codigo   : int        {401 | 422 | 404 | 502}</text><text fill="#000000" font-family="sans-serif" font-size="14" lengthAdjust="spacing" textLength="730.6289" x="800" y="326.5138">+chave    : string     {INVALID_TOKEN | VALIDATION_ERROR | ASSET_NOT_FOUND | EXTERNAL_SERVICE_ERROR}</text><text fill="#000000" font-family="sans-serif" font-size="14" lengthAdjust="spacing" textLength="131.2495" x="800" y="345.5817">+mensagem : string</text><text fill="#000000" font-family="sans-serif" font-size="14" lengthAdjust="spacing" textLength="107.7576" x="800" y="364.6496">+traceId  : string</text><line style="stroke:#2C3E50;stroke-width:0.5;" x1="795" x2="1535.6289" y1="372.7516" y2="372.7516"/></g><!--class TipoAtivo--><g id="elem_TipoAtivo"><rect codeLine="50" fill="#F8F9FA" height="86.1358" id="TipoAtivo" rx="2.5" ry="2.5" style="stroke:#2C3E50;stroke-width:0.5;" width="93.6698" x="378.5" y="768.0679"/><ellipse cx="393.5" cy="784.0679" fill="#EB937F" rx="11" ry="11" style="stroke:#181818;stroke-width:1.0;"/><path d="M397.6094,790.0679 L389.8906,790.0679 L389.8906,777.6773 L397.6094,777.6773 L397.6094,779.8335 L392.3438,779.8335 L392.3438,782.5054 L397.1094,782.5054 L397.1094,784.6617 L392.3438,784.6617 L392.3438,787.9117 L397.6094,787.9117 L397.6094,790.0679 Z " fill="#000000"/><text fill="#000000" font-family="sans-serif" font-size="14" lengthAdjust="spacing" textLength="61.6698" x="407.5" y="789.4999">TipoAtivo</text><line style="stroke:#2C3E50;stroke-width:0.5;" x1="379.5" x2="471.1698" y1="800.0679" y2="800.0679"/><text fill="#000000" font-family="sans-serif" font-size="14" lengthAdjust="spacing" textLength="37.6739" x="384.5" y="819.0339">ACAO</text><text fill="#000000" font-family="sans-serif" font-size="14" lengthAdjust="spacing" textLength="49.4898" x="384.5" y="838.1018">CRIPTO</text><line style="stroke:#2C3E50;stroke-width:0.5;" x1="379.5" x2="471.1698" y1="846.2038" y2="846.2038"/></g><g id="elem_GMN17"><path d="M755.5,52.0679 L755.5,115.0679 L737.0752,119.0679 L755.5,123.0679 L755.5,186.01 A0,0 0 0 0 755.5,186.01 L1083.0662,186.01 A0,0 0 0 0 1083.0662,186.01 L1083.0662,62.0679 L1073.0662,52.0679 L755.5,52.0679 A0,0 0 0 0 755.5,52.0679 " fill="#FEFFDD" style="stroke:#181818;stroke-width:0.5;"/><path d="M1073.0662,52.0679 L1073.0662,62.0679 L1083.0662,62.0679 L1073.0662,52.0679 " fill="#FEFFDD" style="stroke:#181818;stroke-width:0.5;"/><text fill="#000000" font-family="sans-serif" font-size="13" font-weight="bold" lengthAdjust="spacing" textLength="50.5441" x="761.5" y="70.9649">Servi&#231;o:</text><text fill="#000000" font-family="sans-serif" font-size="13" lengthAdjust="spacing" textLength="134.2771" x="815.4241" y="70.9649">Tarefa / Orquestrador</text><text fill="#000000" font-family="sans-serif" font-size="13" font-weight="bold" lengthAdjust="spacing" textLength="72.5921" x="761.5" y="88.6709">Opera&#231;&#245;es:</text><text fill="#000000" font-family="sans-serif" font-size="13" lengthAdjust="spacing" textLength="303.1862" x="764.88" y="106.377">- receberSolicitacaoConsulta (entry-point externo)</text><text fill="#000000" font-family="sans-serif" font-size="13" lengthAdjust="spacing" textLength="264.4202" x="764.88" y="124.083">- consultarCotacaoAtivo (invoca&#231;&#227;o interna)</text><text fill="#000000" font-family="sans-serif" font-size="13" font-weight="bold" lengthAdjust="spacing" textLength="37.297" x="761.5" y="141.789">Erros:</text><text fill="#000000" font-family="sans-serif" font-size="13" lengthAdjust="spacing" textLength="109.8241" x="802.177" y="141.789">401, 422, 404, 502</text><text fill="#000000" font-family="sans-serif" font-size="13" lengthAdjust="spacing" textLength="268.7348" x="761.5" y="159.495">Orquestra: Autentica&#231;&#227;o &#8594; Cota&#231;&#227;o de Ativo</text><text fill="#000000" font-family="sans-serif" font-size="13" lengthAdjust="spacing" textLength="241.8883" x="761.5" y="177.201">&#8594; Cache &#8594; Integra&#231;&#227;o com Provedores.</text></g><polygon fill="#181818" points="177.6816,398.8388,184.9162,392.1559,179.66,394.2468,177.5691,388.9905,177.6816,398.8388" style="stroke:#181818;stroke-width:1.0;"/><path d="M331.8153,169.0758 C318.1144,179.6203 304.6908,191.4325 293.5,204.0679 C241.5027,262.7776 203.5711,338.746 180.0556,393.3284 " fill="none" style="stroke:#181818;stroke-width:1.0;stroke-dasharray:7.0,7.0;"/><text fill="#000000" font-family="sans-serif" font-size="13" lengthAdjust="spacing" textLength="55.718" x="295.5" y="219.9649">consome</text><polygon fill="#181818" points="360.2217,398.6516,358.4357,388.9661,357.3961,394.5266,351.8356,393.487,360.2217,398.6516" style="stroke:#181818;stroke-width:1.0;"/><path d="M380.1101,169.3111 C368.393,191.0729 356.4066,217.4869 350.5,243.0679 C336.7013,302.8289 326.754,324.5179 350.5,381.0679 C353.0702,387.1888 353.005,388.1159 356.831,393.7016 " fill="none" style="stroke:#181818;stroke-width:1.0;stroke-dasharray:7.0,7.0;"/><text fill="#000000" font-family="sans-serif" font-size="13" lengthAdjust="spacing" textLength="55.718" x="365.5" y="219.9649">consome</text><polygon fill="#181818" points="511.5276,242.974,508.9026,233.4814,508.3526,239.1115,502.7225,238.5614,511.5276,242.974" style="stroke:#181818;stroke-width:1.0;"/><path d="M450.9314,169.2552 C469.3751,191.693 487.708,213.9962 507.7176,238.339 " fill="none" style="stroke:#181818;stroke-width:1.0;stroke-dasharray:7.0,7.0;"/><text fill="#000000" font-family="sans-serif" font-size="13" lengthAdjust="spacing" textLength="43.368" x="496.5" y="219.9649">produz</text><polygon fill="#181818" points="896.3677,242.9828,888.6236,236.8977,891.5204,241.7565,886.6616,244.6533,896.3677,242.9828" style="stroke:#181818;stroke-width:1.0;"/><path d="M604.4409,169.1311 C693.2432,191.5963 794.1404,217.1213 890.5509,241.5113 " fill="none" style="stroke:#181818;stroke-width:1.0;stroke-dasharray:7.0,7.0;"/><text fill="#000000" font-family="sans-serif" font-size="13" lengthAdjust="spacing" textLength="32.214" x="813.5" y="219.9649">lan&#231;a</text><polygon fill="#181818" points="567.5,536.0386,571.5,527.0386,567.5,531.0386,563.5,527.0386,567.5,536.0386" style="stroke:#181818;stroke-width:1.0;"/><path d="M567.5,381.2168 C567.5,426.3009 567.5,480.0865 567.5,530.0386 " fill="none" style="stroke:#181818;stroke-width:1.0;"/><polygon fill="#181818" points="459.5259,768.0147,468.2966,763.5342,462.671,764.1277,462.0774,758.5021,459.5259,768.0147" style="stroke:#181818;stroke-width:1.0;"/><path d="M489.2311,731.3017 C478.8154,744.1746 472.3846,752.1225 463.3,763.3503 " fill="none" style="stroke:#181818;stroke-width:1.0;"/><polygon fill="#181818" points="392.9915,768.0228,390.6509,758.4561,389.9331,764.0672,384.322,763.3495,392.9915,768.0228" style="stroke:#181818;stroke-width:1.0;"/><path d="M199.8593,518.2337 C254.48,588.8779 341.195,701.0313 389.3215,763.2761 " fill="none" style="stroke:#181818;stroke-width:1.0;"/><polygon fill="#181818" points="425.8599,768.0228,429.9368,759.0573,425.9027,763.023,421.937,758.9889,425.8599,768.0228" style="stroke:#181818;stroke-width:1.0;"/><path d="M427.9979,518.2337 C427.3932,588.8779 426.444,699.7782 425.9112,762.023 " fill="none" style="stroke:#181818;stroke-width:1.0;"/><!--SRC=[ZLRDSk964BxhAJgR2pX0WE24K5kkqWfHKRA5N4Bhv4QDfGPF6Ssmen4Lc_YQ1yWhvE1JZda2tYHFajP8W01ZBmSGCrztV_slhvQApHC62_OWCmrfWfe9Pcck5mYUqAXcB49emWJLYc-U9SG8ZXHfjj2iUDPiyxpvMrfMUi_5aYcMGBHWQMfhhVXjfj6Bf9ZmHuJsCUG3Y-xdIcOYTkH2AlXwr1_zEB9FO5B5g4f8r_dElQngIeaaIlsmHET4dziVzKP3o-8xJzvvM_OvyuZ9Ty1Iy2Qh2Dw_Dqv65SUlhc1j0Nm32YEyHJMH2nvn8xTLKrFuUG31sVi0FsUOwle0ZWm7c2xf18t-gBnJvQMj-KeMgfsNhjxM-cHP9dXlKoF7Xw4Ftu8hj68nspcj-RAm1kLd0E7-Q6qxjWz_W1Durw7_P2HIdjnIv3qnaofXiII9bAf0p8tu-bPbMZQWqsfrBWi1BUzHV42cK6rDL0L-_ZM4ulPfxz1h0VaYNofkL5aVsr-Bt8a5VoH7JjbkWQUyZZAnepHXctygZA82jezjAJVAhMhYRb1IyJaci4Vvvc18d59OExRpaqivk0xy6tVe1rFtjz0DncKsbagkC9Qg4Dappk-OpahNtCJeZPb6pHE4cZVnc_tlsvq6V0gTUjM_Gtw5O-UgvRKWL-9S4iLeTsF8OCGfzBLElz6l6qWYaIp2iNZ1jjVj_530LapndEIGiqDD_KQlHCX5HbwUskgs6zq2Gg6WtfZHM14HwQd6vZ0YhbAxPjfN7XrMaXppUL5pD8EsHjUzTeUorkjsy-zsZxulszqYQT4TM-5f9tZZ6_kZDvo6_Y_kcF3cdnrw_dZg1e4Vq94zcRZXTEo7qv7_QJoaaw8Qx8_JYHlSU8vRG0ix2OgKdPG5DKs4NWm7vOqYIogTdtkMzpxz5BsVOym4RRMklc3S3CoqamdkXLvjwJ9FPuME-wrQ9TG2SVQubpd8s8kV0Ur2iNbcrZdrpURLQQkUz4QEsZV0sq4vnByQZqEe9QH6e0w_qo1dPfDHOYukjWjxS7418Ksi6QFQz9LHGPDHAeFobwZo_VqlfWIa8rhrvtSTr936waDpAVDYnjzfImfPBwHUt61Gus8be-8D0SmM5gnkBEUPo6rI_TEaeLPev9tGo1k1xdT41s3JAuJGVAlalp__shzqv6yWsn5ZBbXqX-OfN-5pLQ8YcS1rEGmnRL51nv27pVeV]--></g></svg>