<?plantuml 1.2026.2?><svg xmlns="http://www.w3.org/2000/svg" xmlns:xlink="http://www.w3.org/1999/xlink" contentStyleType="text/css" data-diagram-type="DESCRIPTION" height="1980px" preserveAspectRatio="none" style="width:2310px;height:1980px;background:#FCFCFA;" version="1.1" viewBox="0 0 2310 1980" width="2310px" zoomAndPan="magnify"><title>FINTA - Lab 4
Comunicacao entre componentes por interfaces</title><defs/><g><rect fill="#FCFCFA" height="1980" style="stroke:none;stroke-width:1.875;" width="2310" x="0" y="0"/><g class="title" data-source-line="50"><text fill="#16324F" font-family="Arial" font-size="41.25" font-weight="bold" lengthAdjust="spacing" textLength="265.8289" x="1009.5108" y="57.442">FINTA - Lab 4</text><text fill="#16324F" font-family="Arial" font-size="41.25" font-weight="bold" lengthAdjust="spacing" textLength="946.6956" x="669.0775" y="104.8755">Comunicacao entre componentes por interfaces</text></g><!--cluster Camada de Interacao--><g class="cluster" data-qualified-name="Camada de Interacao" data-source-line="54" id="ent0003"><path d="M945.5062,383.4294 L1230.3067,383.4294 A7.0313,7.0313 0 0 1 1234.9942,388.1169 L1248.1192,427.0204 L1273.6313,427.0204 A4.6875,4.6875 0 0 1 1278.3188,431.7079 L1278.3188,578.4294 A4.6875,4.6875 0 0 1 1273.6313,583.1169 L945.5062,583.1169 A4.6875,4.6875 0 0 1 940.8187,578.4294 L940.8187,388.1169 A4.6875,4.6875 0 0 1 945.5062,383.4294" fill="#F5F7F9" style="stroke:#7A8A99;stroke-width:2.8125;"/><line style="stroke:#7A8A99;stroke-width:2.8125;" x1="940.8187" x2="1248.1192" y1="427.0204" y2="427.0204"/><text fill="#000000" font-family="Arial" font-size="28.125" font-weight="bold" lengthAdjust="spacing" textLength="282.9254" x="948.3187" y="413.5604">Camada de Interacao</text></g><!--cluster Camada de API e Composicao--><g class="cluster" data-qualified-name="Camada de API e Composicao" data-source-line="58" id="ent0005"><path d="M604.2562,667.9607 L1010.9362,667.9607 A7.0313,7.0313 0 0 1 1015.6237,672.6482 L1028.7487,711.5517 L1028.0063,711.5517 A4.6875,4.6875 0 0 1 1032.6938,716.2392 L1032.6938,862.9419 A4.6875,4.6875 0 0 1 1028.0063,867.6294 L604.2562,867.6294 A4.6875,4.6875 0 0 1 599.5687,862.9419 L599.5687,672.6482 A4.6875,4.6875 0 0 1 604.2562,667.9607" fill="#F5F7F9" style="stroke:#7A8A99;stroke-width:2.8125;"/><line style="stroke:#7A8A99;stroke-width:2.8125;" x1="599.5687" x2="1028.7487" y1="711.5517" y2="711.5517"/><text fill="#000000" font-family="Arial" font-size="28.125" font-weight="bold" lengthAdjust="spacing" textLength="404.805" x="607.0687" y="698.0916">Camada de API e Composicao</text></g><!--cluster Componente de Dominio--><g class="cluster" data-qualified-name="Componente de Dominio" data-source-line="62" id="ent0007"><path d="M150.5063,975.4419 L485.1846,975.4419 A7.0313,7.0313 0 0 1 489.8721,980.1294 L502.9971,1019.0329 L621.1312,1019.0329 A4.6875,4.6875 0 0 1 625.8187,1023.7204 L625.8187,1420.7544 A4.6875,4.6875 0 0 1 621.1312,1425.4419 L150.5063,1425.4419 A4.6875,4.6875 0 0 1 145.8188,1420.7544 L145.8188,980.1294 A4.6875,4.6875 0 0 1 150.5063,975.4419" fill="#F5F7F9" style="stroke:#7A8A99;stroke-width:2.8125;"/><line style="stroke:#7A8A99;stroke-width:2.8125;" x1="145.8188" x2="502.9971" y1="1019.0329" y2="1019.0329"/><text fill="#000000" font-family="Arial" font-size="28.125" font-weight="bold" lengthAdjust="spacing" textLength="332.8033" x="153.3188" y="1005.5729">Componente de Dominio</text></g><!--cluster Adapters de Infraestrutura--><g class="cluster" data-qualified-name="Adapters de Infraestrutura" data-source-line="70" id="ent0012"><path d="M675.5062,1259.9732 L1030.5917,1259.9732 A7.0313,7.0313 0 0 1 1035.2792,1264.6607 L1048.4042,1303.5642 L1727.3813,1303.5642 A4.6875,4.6875 0 0 1 1732.0688,1308.2517 L1732.0688,1684.1732 A4.6875,4.6875 0 0 1 1727.3813,1688.8607 L675.5062,1688.8607 A4.6875,4.6875 0 0 1 670.8187,1684.1732 L670.8187,1264.6607 A4.6875,4.6875 0 0 1 675.5062,1259.9732" fill="#F5F7F9" style="stroke:#7A8A99;stroke-width:2.8125;"/><line style="stroke:#7A8A99;stroke-width:2.8125;" x1="670.8187" x2="1048.4042" y1="1303.5642" y2="1303.5642"/><text fill="#000000" font-family="Arial" font-size="28.125" font-weight="bold" lengthAdjust="spacing" textLength="353.2104" x="678.3187" y="1290.1041">Adapters de Infraestrutura</text></g><!--cluster Infraestrutura Externa--><g class="cluster" data-qualified-name="Infraestrutura Externa" data-source-line="77" id="ent0017"><path d="M1029.8813,1750.7357 L1325.5993,1750.7357 A7.0313,7.0313 0 0 1 1330.2868,1755.4232 L1343.4118,1794.3267 L1838.0063,1794.3267 A4.6875,4.6875 0 0 1 1842.6938,1799.0142 L1842.6938,1962.6107 A4.6875,4.6875 0 0 1 1838.0063,1967.2982 L1029.8813,1967.2982 A4.6875,4.6875 0 0 1 1025.1938,1962.6107 L1025.1938,1755.4232 A4.6875,4.6875 0 0 1 1029.8813,1750.7357" fill="#F5F7F9" style="stroke:#7A8A99;stroke-width:2.8125;"/><line style="stroke:#7A8A99;stroke-width:2.8125;" x1="1025.1938" x2="1343.4118" y1="1794.3267" y2="1794.3267"/><text fill="#000000" font-family="Arial" font-size="28.125" font-weight="bold" lengthAdjust="spacing" textLength="293.8431" x="1032.6938" y="1780.8666">Infraestrutura Externa</text></g><!--entity Front--><g class="entity" data-qualified-name="Camada de Interacao.Front" data-source-line="55" id="ent0004"><rect fill="#EAF2FF" height="102.182" rx="4.6875" ry="4.6875" style="stroke:#486581;stroke-width:2.25;" width="278.9658" x="970.0875" y="450.9294"/><text fill="#102A43" font-family="Arial" font-size="28.125" lengthAdjust="spacing" textLength="234.5169" x="988.8375" y="496.0604">frontend-cloudflare</text><text fill="#102A43" font-family="Arial" font-size="28.125" lengthAdjust="spacing" textLength="241.4658" x="988.8375" y="528.4014">Next.js + rotas BFF</text></g><!--entity Back--><g class="entity" data-qualified-name="Camada de API e Composicao.Back" data-source-line="59" id="ent0006"><rect fill="#EAF2FF" height="102.182" rx="4.6875" ry="4.6875" style="stroke:#486581;stroke-width:2.25;" width="275.148" x="702" y="735.4607"/><text fill="#102A43" font-family="Arial" font-size="28.125" lengthAdjust="spacing" textLength="237.648" x="720.75" y="780.5916">backend-cloudflare</text><text fill="#102A43" font-family="Arial" font-size="28.125" lengthAdjust="spacing" textLength="189.1296" x="720.75" y="812.9326">handlers HTTP</text></g><!--entity PriceQuery--><g class="entity" data-qualified-name="Componente de Dominio.PriceQuery" data-source-line="63" id="ent0008"><rect fill="#EEF8EE" height="102.182" rx="4.6875" ry="4.6875" style="stroke:#486581;stroke-width:2.25;" width="271.9482" x="322.9688" y="1042.9419"/><text fill="#102A43" font-family="Arial" font-size="28.125" lengthAdjust="spacing" textLength="230.2048" x="341.7188" y="1088.0729">@finta/price-query</text><text fill="#102A43" font-family="Arial" font-size="28.125" lengthAdjust="spacing" textLength="234.4482" x="341.7188" y="1120.4139">PriceQueryService</text></g><!--entity IPriceQuery--><g class="entity" data-qualified-name="Componente de Dominio.IPriceQuery" data-source-line="65" id="ent0009"><ellipse cx="192.6938" cy="1094.0357" fill="#F8FBFF" rx="15" ry="15" style="stroke:#486581;stroke-width:0.9375;"/><text fill="#102A43" font-family="Arial" font-size="26.25" lengthAdjust="spacing" textLength="226.1115" x="79.638" y="1150.5329">IPriceQueryService</text></g><!--entity IMarketDataGateway--><g class="entity" data-qualified-name="Componente de Dominio.IMarketDataGateway" data-source-line="66" id="ent0010"><ellipse cx="425.1938" cy="1378.5669" fill="#F8FBFF" rx="15" ry="15" style="stroke:#486581;stroke-width:0.9375;"/><text fill="#102A43" font-family="Arial" font-size="26.25" lengthAdjust="spacing" textLength="246.5552" x="301.9162" y="1435.0641">IMarketDataGateway</text></g><!--entity IQuoteSnapshotStore--><g class="entity" data-qualified-name="Componente de Dominio.IQuoteSnapshotStore" data-source-line="67" id="ent0011"><ellipse cx="571.4437" cy="1378.5669" fill="#F8FBFF" rx="15" ry="15" style="stroke:#486581;stroke-width:0.9375;"/><text fill="#102A43" font-family="Arial" font-size="26.25" lengthAdjust="spacing" textLength="252.464" x="445.2118" y="1435.0641">IQuoteSnapshotStore</text></g><!--entity CompositeGateway--><g class="entity" data-qualified-name="Adapters de Infraestrutura.CompositeGateway" data-source-line="71" id="ent0013"><rect fill="#FFFDF7" height="102.182" rx="4.6875" ry="4.6875" style="stroke:#486581;stroke-width:2.25;" width="428.2837" x="700.425" y="1327.4732"/><text fill="#102A43" font-family="Arial" font-size="28.125" lengthAdjust="spacing" textLength="334.52" x="719.175" y="1372.6041">createMarketDataGateway</text><text fill="#102A43" font-family="Arial" font-size="28.125" lengthAdjust="spacing" textLength="390.7837" x="719.175" y="1404.9451">CompositeMarketDataGateway</text></g><!--entity BrapiGateway--><g class="entity" data-qualified-name="Adapters de Infraestrutura.BrapiGateway" data-source-line="72" id="ent0014"><rect fill="#FFFDF7" height="69.841" rx="4.6875" ry="4.6875" style="stroke:#486581;stroke-width:2.25;" width="359.5093" x="701.0625" y="1589.0169"/><text fill="#102A43" font-family="Arial" font-size="28.125" lengthAdjust="spacing" textLength="322.0093" x="719.8125" y="1634.1479">BrapiMarketDataGateway</text></g><!--entity CoinCapGateway--><g class="entity" data-qualified-name="Adapters de Infraestrutura.CoinCapGateway" data-source-line="73" id="ent0015"><rect fill="#FFFDF7" height="69.841" rx="4.6875" ry="4.6875" style="stroke:#486581;stroke-width:2.25;" width="403.2898" x="1172.3063" y="1589.0169"/><text fill="#102A43" font-family="Arial" font-size="28.125" lengthAdjust="spacing" textLength="365.7898" x="1191.0563" y="1634.1479">CoinCapMarketDataGateway</text></g><!--entity KvStore--><g class="entity" data-qualified-name="Adapters de Infraestrutura.KvStore" data-source-line="74" id="ent0016"><rect fill="#FFFDF7" height="69.841" rx="4.6875" ry="4.6875" style="stroke:#486581;stroke-width:2.25;" width="461.2015" x="1240.8562" y="1343.6357"/><text fill="#102A43" font-family="Arial" font-size="28.125" lengthAdjust="spacing" textLength="423.7015" x="1259.6062" y="1388.7666">CloudflareKvQuoteSnapshotStore</text></g><!--entity KV--><g class="entity" data-qualified-name="Infraestrutura Externa.KV" data-source-line="78" id="ent0018"><path d="M1568.925,1836.9857 C1568.925,1818.2357 1690.8298,1818.2357 1690.8298,1818.2357 C1690.8298,1818.2357 1812.7345,1818.2357 1812.7345,1836.9857 L1812.7345,1918.5427 C1812.7345,1937.2927 1690.8298,1937.2927 1690.8298,1937.2927 C1690.8298,1937.2927 1568.925,1937.2927 1568.925,1918.5427 L1568.925,1836.9857" fill="#FFF7DB" style="stroke:#7C5E10;stroke-width:0.9375;"/><path d="M1568.925,1836.9857 C1568.925,1855.7357 1690.8298,1855.7357 1690.8298,1855.7357 C1690.8298,1855.7357 1812.7345,1855.7357 1812.7345,1836.9857" fill="none" style="stroke:#7C5E10;stroke-width:0.9375;"/><text fill="#102A43" font-family="Arial" font-size="28.125" lengthAdjust="spacing" textLength="173.5291" x="1587.675" y="1889.6166">Cloudflare KV</text><text fill="#102A43" font-family="Arial" font-size="28.125" lengthAdjust="spacing" textLength="206.3095" x="1587.675" y="1921.9576">ASSET_CACHE</text></g><!--entity Brapi--><g class="entity" data-qualified-name="Infraestrutura Externa.Brapi" data-source-line="79" id="ent0019"><path d="M1074.591,1849.1885 C1078.3216,1839.0205 1087.2396,1836.355 1094.8963,1844.9366 C1098.8761,1830.7871 1108.635,1829.6827 1117.952,1839.8831 C1129.3262,1831.5436 1137.2509,1833.0435 1143.2224,1846.2266 C1151.2602,1838.6581 1157.5094,1837.3821 1163.0696,1848.8145 C1185.4006,1848.153 1191.2753,1862.1843 1184.4198,1880.9274 C1190.5827,1896.1473 1184.1866,1908.0488 1166.75,1907.6834 C1162.5304,1922.319 1153.6046,1923.3364 1142.7837,1914.3931 C1139.1288,1925.9701 1128.0926,1927.7254 1120.2722,1919.0154 C1109.9861,1927.6452 1102.4809,1927.9434 1096.7057,1914.2527 C1087.1577,1923.1061 1077.008,1920.7083 1072.8696,1908.2128 C1055.3302,1906.6055 1049.7582,1893.7684 1060.3133,1879.762 C1049.0064,1865.0627 1054.4246,1849.1898 1074.591,1849.1885" fill="#E9FBFF" style="stroke:#0F6D7A;stroke-width:0.9375;"/><text fill="#102A43" font-family="Arial" font-size="28.125" lengthAdjust="spacing" textLength="65.657" x="1084.2375" y="1887.9854">Brapi</text></g><!--entity CoinCap--><g class="entity" data-qualified-name="Infraestrutura Externa.CoinCap" data-source-line="80" id="ent0020"><path d="M1310.2129,1849.8011 C1315.3213,1839.5958 1322.17,1837.5178 1329.8934,1847.2154 C1334.7633,1835.3409 1346.5717,1831.6948 1354.8429,1843.655 C1360.7396,1832.7644 1368.872,1830.8208 1378.0573,1839.8159 C1384.9874,1832.977 1392.7094,1834.968 1396.63,1843.4614 C1405.0927,1830.911 1416.5039,1831.6926 1423.2553,1845.2095 C1433.0219,1839.1004 1439.8685,1841.1708 1443.9904,1852.0851 C1458.6672,1855.5332 1459.6476,1868.0319 1450.9436,1877.8016 C1462.2185,1890.0672 1459.9542,1900.7507 1445.7538,1908.7433 C1440.9543,1921.4349 1429.5009,1925.2367 1419.3621,1914.849 C1417.3021,1925.5585 1408.6897,1930.8722 1399.5222,1922.0795 C1395.0332,1936.2943 1387.0052,1935.1766 1377.0903,1927.6875 C1364.928,1937.8482 1356.0339,1933.1023 1352.3898,1919.0116 C1343.6168,1927.0456 1336.1856,1924.0972 1331.5115,1914.2309 C1322.9504,1925.143 1312.4238,1920.9085 1308.2439,1909.6359 C1292.2617,1902.8745 1289.9314,1890.6981 1303.836,1879.557 C1292.1566,1866.8223 1293.5836,1856.4691 1310.2129,1849.8011" fill="#E9FBFF" style="stroke:#0F6D7A;stroke-width:0.9375;"/><text fill="#102A43" font-family="Arial" font-size="28.125" lengthAdjust="spacing" textLength="109.4376" x="1319.2313" y="1887.9854">CoinCap</text></g><!--entity User--><g class="entity" data-qualified-name="User" data-source-line="52" id="ent0002"><ellipse cx="1109.5808" cy="160.4919" fill="#F1F1F1" rx="15" ry="15" style="stroke:#486581;stroke-width:0.9375;"/><path d="M1109.5808,175.4919 L1109.5808,226.1169 M1085.2058,190.4919 L1133.9558,190.4919 M1109.5808,226.1169 L1085.2058,254.2419 M1109.5808,226.1169 L1133.9558,254.2419" fill="none" style="stroke:#486581;stroke-width:0.9375;"/><text fill="#102A43" font-family="Arial" font-size="30" lengthAdjust="spacing" textLength="103.374" x="1057.8938" y="285.1941">Usuario</text></g><g class="entity" data-qualified-name="GMN36" data-source-line="105" id="ent0037"><path d="M1238.8125,1019.9732 L1238.8125,1086.0482 L595.8187,1093.5482 L1238.8125,1101.0482 L1238.8125,1168.0872 A0,0 0 0 0 1238.8125,1168.0872 L1756.6009,1168.0872 A0,0 0 0 0 1756.6009,1168.0872 L1756.6009,1038.7232 L1737.8509,1019.9732 L1238.8125,1019.9732 A0,0 0 0 0 1238.8125,1019.9732" fill="#FEFFDD" style="stroke:#181818;stroke-width:0.9375;"/><path d="M1737.8509,1019.9732 L1737.8509,1038.7232 L1756.6009,1038.7232 L1737.8509,1019.9732" fill="#FEFFDD" style="stroke:#181818;stroke-width:0.9375;"/><text fill="#000000" font-family="Arial" font-size="28.125" lengthAdjust="spacing" textLength="478.4134" x="1250.0625" y="1055.7291">O servico de dominio conhece apenas</text><text fill="#000000" font-family="Arial" font-size="28.125" lengthAdjust="spacing" textLength="307.9742" x="1250.0625" y="1088.0701">as interfaces requeridas.</text><text fill="#000000" font-family="Arial" font-size="28.125" lengthAdjust="spacing" textLength="417.4805" x="1250.0625" y="1120.4111">Nao depende diretamente de KV,</text><text fill="#000000" font-family="Arial" font-size="28.125" lengthAdjust="spacing" textLength="229.8203" x="1250.0625" y="1152.7521">Brapi ou CoinCap.</text></g><g class="entity" data-qualified-name="GMN39" data-source-line="112" id="ent0040"><path d="M1784.925,712.4919 L1784.925,860.606 L2297.9755,860.606 L2297.9755,731.2419 L2279.2255,712.4919 L1784.925,712.4919" fill="#FEFFDD" style="stroke:#181818;stroke-width:0.9375;"/><path d="M2279.2255,712.4919 L2279.2255,731.2419 L2297.9755,731.2419 L2279.2255,712.4919" fill="#FEFFDD" style="stroke:#181818;stroke-width:1.875;"/><text fill="#000000" font-family="Arial" font-size="28.125" lengthAdjust="spacing" textLength="370.5139" x="1796.175" y="748.2479">O backend faz a composicao:</text><text fill="#000000" font-family="Arial" font-size="28.125" lengthAdjust="spacing" textLength="400.177" x="1796.175" y="780.5889">instancia o PriceQueryService e</text><text fill="#000000" font-family="Arial" font-size="28.125" lengthAdjust="spacing" textLength="473.6755" x="1796.175" y="812.9299">fornece as implementacoes concretas</text><text fill="#000000" font-family="Arial" font-size="28.125" lengthAdjust="spacing" textLength="348.7061" x="1796.175" y="845.2709">via injecao de dependencia.</text></g><g class="entity" data-qualified-name="GMN42" data-source-line="119" id="ent0043"><path d="M1089.75,728.6544 L1089.75,844.4275 A0,0 0 0 0 1089.75,844.4275 L1673.1405,844.4275 A0,0 0 0 0 1673.1405,844.4275 L1673.1405,747.4044 L1654.3905,728.6544 L1176.9,728.6544 L1169.4,553.5482 L1161.9,728.6544 L1089.75,728.6544 A0,0 0 0 0 1089.75,728.6544" fill="#FEFFDD" style="stroke:#181818;stroke-width:0.9375;"/><path d="M1654.3905,728.6544 L1654.3905,747.4044 L1673.1405,747.4044 L1654.3905,728.6544" fill="#FEFFDD" style="stroke:#181818;stroke-width:0.9375;"/><text fill="#000000" font-family="Arial" font-size="28.125" lengthAdjust="spacing" textLength="544.0155" x="1101" y="764.4104">O frontend consome apenas as rotas HTTP</text><text fill="#000000" font-family="Arial" font-size="28.125" lengthAdjust="spacing" textLength="443.9713" x="1101" y="796.7514">do backend, sem acessar providers</text><text fill="#000000" font-family="Arial" font-size="28.125" lengthAdjust="spacing" textLength="406.4804" x="1101" y="829.0924">ou armazenamento diretamente.</text></g><!--link User to Front--><g class="link" data-entity-1="ent0002" data-entity-2="ent0004" data-link-type="dependency" data-source-line="83" id="lnk21"><path d="M1109.5688,291.9294 C1109.5688,341.5607 1109.5688,394.4919 1109.5688,438.7794" fill="none" id="User-to-Front" style="stroke:#425466;stroke-width:2.4375;"/><polygon fill="#425466" points="1109.5688,450.0294,1117.0688,433.1544,1109.5688,440.6544,1102.0688,433.1544,1109.5688,450.0294" style="stroke:#425466;stroke-width:2.4375;"/><text fill="#000000" font-family="Arial" font-size="28.125" lengthAdjust="spacing" textLength="243.8965" x="863.9437" y="363.6104">usa a interface web</text></g><!--link Front to Back--><g class="link" data-entity-1="ent0004" data-entity-2="ent0006" data-link-type="dependency" data-source-line="84" id="lnk22"><path d="M1033.4438,553.4544 C1033.4438,635.2982 1033.4438,786.0482 1033.4438,786.0482 C1033.4438,786.0482 1020.4688,786.0482 989.1375,786.0482" fill="none" id="Front-to-Back" style="stroke:#425466;stroke-width:2.4375;"/><polygon fill="#425466" points="977.8875,786.0482,994.7625,793.5482,987.2625,786.0482,994.7625,778.5482,977.8875,786.0482" style="stroke:#425466;stroke-width:2.4375;"/><text fill="#000000" font-family="Arial" font-size="28.125" lengthAdjust="spacing" textLength="153.2043" x="879.6938" y="725.7854">/api/assets/*</text></g><!--link Back to IPriceQuery--><g class="link" data-entity-1="ent0006" data-entity-2="ent0009" data-link-type="dependency" data-source-line="85" id="lnk23"><path d="M701.6063,786.0482 C511.6125,786.0482 192.6938,786.0482 192.6938,786.0482 C192.6938,786.0482 192.6938,1000.1919 192.6938,1065.3482" fill="none" id="Back-to-IPriceQuery" style="stroke:#425466;stroke-width:2.4375;"/><polygon fill="#425466" points="192.6938,1076.5982,200.1938,1059.7232,192.6938,1067.2232,185.1938,1059.7232,192.6938,1076.5982" style="stroke:#425466;stroke-width:2.4375;"/><text fill="#000000" font-family="Arial" font-size="28.125" lengthAdjust="spacing" textLength="287.6633" x="13.125" y="778.6791">usa servico de cotacao</text></g><!--link IPriceQuery to PriceQuery--><g class="link" data-entity-1="ent0009" data-entity-2="ent0008" data-link-type="association" data-source-line="86" id="lnk24"><path d="M210.1688,1093.5482 C233.6625,1093.5482 277.6312,1093.5482 322.1438,1093.5482" fill="none" id="IPriceQuery-PriceQuery" style="stroke:#425466;stroke-width:2.4375;"/></g><!--link PriceQuery to IMarketDataGateway--><g class="link" data-entity-1="ent0008" data-entity-2="ent0010" data-link-type="dependency" data-source-line="88" id="lnk25"><path d="M425.1938,1145.5607 C425.1938,1210.5857 425.1938,1307.7482 425.1938,1349.8419" fill="none" id="PriceQuery-to-IMarketDataGateway" style="stroke:#425466;stroke-width:2.4375;"/><polygon fill="#425466" points="425.1938,1361.0919,432.6938,1344.2169,425.1938,1351.7169,417.6938,1344.2169,425.1938,1361.0919" style="stroke:#425466;stroke-width:2.4375;"/><text fill="#000000" font-family="Arial" font-size="28.125" lengthAdjust="spacing" textLength="81.2988" x="342.6938" y="1245.9666">requer</text></g><!--link PriceQuery to IQuoteSnapshotStore--><g class="link" data-entity-1="ent0008" data-entity-2="ent0011" data-link-type="dependency" data-source-line="89" id="lnk26"><path d="M571.4437,1145.5607 C571.4437,1210.5857 571.4437,1307.7482 571.4437,1349.8419" fill="none" id="PriceQuery-to-IQuoteSnapshotStore" style="stroke:#425466;stroke-width:2.4375;"/><polygon fill="#425466" points="571.4437,1361.0919,578.9437,1344.2169,571.4437,1351.7169,563.9437,1344.2169,571.4437,1361.0919" style="stroke:#425466;stroke-width:2.4375;"/><text fill="#000000" font-family="Arial" font-size="28.125" lengthAdjust="spacing" textLength="81.2988" x="488.9437" y="1245.9666">requer</text></g><!--link Back to CompositeGateway--><g class="link" data-entity-1="ent0006" data-entity-2="ent0013" data-link-type="dependency" data-source-line="91" id="lnk27"><path d="M770.7937,838.5669 C770.7937,950.8607 770.7937,1203.6294 770.7937,1315.6232" fill="none" id="Back-to-CompositeGateway" style="stroke:#425466;stroke-width:2.4375;"/><polygon fill="#425466" points="770.7937,1326.8732,778.2937,1309.9982,770.7937,1317.4982,763.2937,1309.9982,770.7937,1326.8732" style="stroke:#425466;stroke-width:2.4375;"/><text fill="#000000" font-family="Arial" font-size="28.125" lengthAdjust="spacing" textLength="236.1374" x="772.6687" y="1075.3416">injeta dependencia</text></g><!--link Back to KvStore--><g class="link" data-entity-1="ent0006" data-entity-2="ent0016" data-link-type="dependency" data-source-line="92" id="lnk28"><path d="M839.5687,838.5107 C839.5687,958.9982 839.5687,1247.2982 839.5687,1247.2982 C839.5687,1247.2982 1471.4438,1247.2982 1471.4438,1247.2982 C1471.4438,1247.2982 1471.4438,1293.2544 1471.4438,1332.1419" fill="none" id="Back-to-KvStore" style="stroke:#425466;stroke-width:2.4375;"/><polygon fill="#425466" points="1471.4438,1343.3919,1478.9438,1326.5169,1471.4438,1334.0169,1463.9438,1326.5169,1471.4438,1343.3919" style="stroke:#425466;stroke-width:2.4375;"/><text fill="#000000" font-family="Arial" font-size="28.125" lengthAdjust="spacing" textLength="236.1374" x="762.9" y="1239.9291">injeta dependencia</text></g><!--link IMarketDataGateway to CompositeGateway--><g class="link" data-entity-1="ent0010" data-entity-2="ent0013" data-link-type="association" data-source-line="94" id="lnk29"><path d="M425.1938,1396.2107 C425.1938,1404.3857 425.1938,1412.2982 425.1938,1412.2982 C425.1938,1412.2982 568.4438,1412.2982 699.9188,1412.2982" fill="none" id="IMarketDataGateway-CompositeGateway" style="stroke:#425466;stroke-width:2.4375;"/></g><!--link IQuoteSnapshotStore to KvStore--><g class="link" data-entity-1="ent0011" data-entity-2="ent0016" data-link-type="association" data-source-line="95" id="lnk30"><path d="M571.4437,1396.2669 C571.4437,1432.0794 571.4437,1509.7982 571.4437,1509.7982 C571.4437,1509.7982 1408.2188,1509.7982 1408.2188,1509.7982 C1408.2188,1509.7982 1408.2188,1452.6107 1408.2188,1413.7232" fill="none" id="IQuoteSnapshotStore-KvStore" style="stroke:#425466;stroke-width:2.4375;"/></g><!--link CompositeGateway to BrapiGateway--><g class="link" data-entity-1="ent0013" data-entity-2="ent0014" data-link-type="dependency" data-source-line="97" id="lnk31"><path d="M880.8187,1429.9982 C880.8187,1477.5107 880.8187,1535.5607 880.8187,1577.1857" fill="none" id="CompositeGateway-to-BrapiGateway" style="stroke:#425466;stroke-width:2.4375;"/><polygon fill="#425466" points="880.8187,1588.4357,888.3187,1571.5607,880.8187,1579.0607,873.3187,1571.5607,880.8187,1588.4357" style="stroke:#425466;stroke-width:2.4375;"/><text fill="#000000" font-family="Arial" font-size="28.125" lengthAdjust="spacing" textLength="65.6433" x="813.3187" y="1501.8479">stock</text></g><!--link CompositeGateway to CoinCapGateway--><g class="link" data-entity-1="ent0013" data-entity-2="ent0015" data-link-type="dependency" data-source-line="98" id="lnk32"><path d="M1129.1063,1421.6732 C1172.7188,1421.6732 1205.55,1421.6732 1205.55,1421.6732 C1205.55,1421.6732 1205.55,1518.9294 1205.55,1576.9982" fill="none" id="CompositeGateway-to-CoinCapGateway" style="stroke:#425466;stroke-width:2.4375;"/><polygon fill="#425466" points="1205.55,1588.2482,1213.05,1571.3732,1205.55,1578.8732,1198.05,1571.3732,1205.55,1588.2482" style="stroke:#425466;stroke-width:2.4375;"/><text fill="#000000" font-family="Arial" font-size="28.125" lengthAdjust="spacing" textLength="76.5884" x="1128.675" y="1459.3604">crypto</text></g><!--link BrapiGateway to Brapi--><g class="link" data-entity-1="ent0014" data-entity-2="ent0019" data-link-type="dependency" data-source-line="100" id="lnk33"><path d="M1061.2313,1624.1732 C1081.275,1624.1732 1094.6438,1624.1732 1094.6438,1624.1732 C1094.6438,1624.1732 1094.6438,1748.9544 1094.6438,1821.7607" fill="none" id="BrapiGateway-to-Brapi" style="stroke:#425466;stroke-width:2.4375;"/><polygon fill="#425466" points="1094.6438,1833.0107,1102.1438,1816.1357,1094.6438,1823.6357,1087.1438,1816.1357,1094.6438,1833.0107" style="stroke:#425466;stroke-width:2.4375;"/></g><!--link CoinCapGateway to CoinCap--><g class="link" data-entity-1="ent0015" data-entity-2="ent0020" data-link-type="dependency" data-source-line="101" id="lnk34"><path d="M1373.9438,1659.7794 C1373.9438,1705.1357 1373.9438,1772.0919 1373.9438,1821.4607" fill="none" id="CoinCapGateway-to-CoinCap" style="stroke:#425466;stroke-width:2.4375;"/><polygon fill="#425466" points="1373.9438,1832.7107,1381.4438,1815.8357,1373.9438,1823.3357,1366.4438,1815.8357,1373.9438,1832.7107" style="stroke:#425466;stroke-width:2.4375;"/></g><!--link KvStore to KV--><g class="link" data-entity-1="ent0016" data-entity-2="ent0018" data-link-type="dependency" data-source-line="102" id="lnk35"><path d="M1638.825,1413.6669 C1638.825,1498.0044 1638.825,1701.5544 1638.825,1806.7044" fill="none" id="KvStore-to-KV" style="stroke:#425466;stroke-width:2.4375;"/><polygon fill="#425466" points="1638.825,1817.9544,1646.325,1801.0794,1638.825,1808.5794,1631.325,1801.0794,1638.825,1817.9544" style="stroke:#425466;stroke-width:2.4375;"/></g><!--link Back to GMN39--><g class="link" data-entity-1="ent0006" data-entity-2="ent0040" data-link-type="association" data-source-line="112" id="lnk41"><path d="M908.3625,838.4919 C908.3625,846.2357 908.3625,851.6732 908.3625,851.6732 C908.3625,851.6732 1450.0313,851.6732 1784.325,851.6732" fill="none" id="Back-GMN39" style="stroke:#425466;stroke-width:2.4375;stroke-dasharray:13.125,13.125;"/></g><?plantuml-src dLRVK-Cs47xNNx6JlhKN826_o4Ed9iGzXYlb9ZcUcEaija9qSIHNaiD1f_zxLueJAx6XSmSlZdQrtxVVxagoAWUhu55PgzQG2iqJAvHaPYLaZXhNO9QOgcSXds21cU619L7hN4akxSo-P1pSLfHFMUYI2SdjIyv1QRjKWI7D1NH6Py7A8oQh9wqAcKvKfZJy54_eFmhty0KMcOsLjBUuvX1fWLcpVIPUENJwWT4Ac_6zgTjjCfN0dS5vjnS73ZbHmoS-FmZH6RxZyJ-HBfLEkIwTXj4ekhXeSAe9qe-7yKLJ0U0V1X3clVsrOt7MZNhdj7O0sniD-gFEVdM-5CbAScEWSz9rgpLq_yV-3V25j5mlCE57-BtlmwyXZUBB8wGKBJwYuJ-Iw73IdtREtaXfU7Lv09HagaX_1EKi7bmDeoQKwKKj7KmiMGvH1jyXMXWhqbezxypTVcymE3Q6fJqFZ5AbtF0S1k4OQfGhjpZgC-O70-Bhsta4RVY4Zz1xa1ErBgH8C445r7gQLst83UH4OzyMXh5jfgqlfa0jL0lGm1V3DMDbaqDhWcjCaOONhjq-5xVbfQcwkxNG90oNQTkNPv6XvW_obd-p9ryD_09QMOfB8lluiNCcsQEuwsLlWehkhe73n24OqOJeJgDZm2NADEFQmCVv_Cv3kLet8-qbSMXNQYsag8FyjY2fy3JN8k7jlmkkNnxadVlnsNtFkDxGjmUgLWbk6e-cKqQXglbhNJVl2vQF_Fz0lUBsYkRgTxJy6L-s_hNbessV2sNvJ69kbehEVQLBdFhwWHvHYhbrqlaoBpHoOtLX2uqrKHBD2Rd6mpUUgrQ3pLFOcyj5FzvNyV0m-gN6N3G7yAPtDq-Ka1FCtyBtnlS3xBlfPlE6aZSR_xtV7wfug1nClv6aibHmVq86871p_o2ZsMmw_siIJJvEjm3tZfC_vhPgLCbNXZAPC377n8qkjDk_bZCsXi8WOD0Wp_oHRMtEou_764ufz2aQmwqv_PdvHMSDUhECP7pdAjSa2OqqpIKBdTh1630M6boqMbKegEPkgcgkTUahtufVhQ76bEXNRjq1ajFPm6KYi7BV5QxHYpNGQzSGM1EpzYuoOpL6NkImRSTWh4fMpPv77Jg6HB_aLb7AOOXzJ7Ra7uHWksHzulUCIQ8DMZmjBQX5MAO_mwAcstEGYYkNdBe5II0qZ7gikZBAEeWKpGcxHRMJqRzDBJtxoZFrvlx3bZUeOaVhX94dE2x7Z5oLY4jvgjDBzfNQDjaV_sCcfA77AvKA5DIEKk1ieRJqb8dhEi-uuu698hwKJEAO6ROHw6kVu3RRglurOkLxcvZvQI5gkolEnJDglHF70MwlDtVfi5JjSlX0mhg715thg27NQYFecM0OgO5wZQ-qsN5KeMu1ZVy0?></g></svg>