<svg xmlns="http://www.w3.org/2000/svg" xmlns:xlink="http://www.w3.org/1999/xlink" contentStyleType="text/css" height="579px" preserveAspectRatio="none" style="width:1744px;height:579px;background:#FFFFFF;" version="1.1" viewBox="0 0 1744 579" width="1744px" zoomAndPan="magnify"><title>Esquemas de Mensagens - Servi&#231;o de Integra&#231;&#227;o com Provedores de Mercado</title><defs/><g><text fill="#000000" font-family="sans-serif" font-size="14" font-weight="bold" lengthAdjust="spacing" textLength="539.2078" x="598.8961" y="24.9659">Esquemas de Mensagens - Servi&#231;o de Integra&#231;&#227;o com Provedores de Mercado</text><!--cluster Requisi??o--><g id="cluster_Requisi&#231;&#227;o"><rect fill="none" height="326.5" rx="2.5" ry="2.5" style="stroke:#181818;stroke-width:1.0;" width="364" x="968" y="246.5679"/><text fill="#000000" font-family="sans-serif" font-size="14" font-weight="bold" lengthAdjust="spacing" textLength="75.3897" x="1112.3051" y="263.5339">Requisi&#231;&#227;o</text></g><!--cluster Resposta (Sucesso)--><g id="cluster_Resposta (Sucesso)"><rect fill="none" height="397.5" rx="2.5" ry="2.5" style="stroke:#181818;stroke-width:1.0;" width="398" x="1340" y="53.5679"/><text fill="#000000" font-family="sans-serif" font-size="14" font-weight="bold" lengthAdjust="spacing" textLength="131.5855" x="1473.2072" y="70.5339">Resposta (Sucesso)</text></g><!--cluster Resposta (Erro)--><g id="cluster_Resposta (Erro)"><rect fill="none" height="352.5" rx="2.5" ry="2.5" style="stroke:#181818;stroke-width:1.0;" width="268" x="258" y="44.0679"/><text fill="#000000" font-family="sans-serif" font-size="14" font-weight="bold" lengthAdjust="spacing" textLength="105.8396" x="339.0802" y="61.0339">Resposta (Erro)</text></g><g id="elem_GMN15"><path d="M6,314.0679 L6,377.186 A0,0 0 0 0 6,377.186 L250.0802,377.186 A0,0 0 0 0 250.0802,377.186 L250.0802,324.0679 L240.0802,314.0679 L156.9984,314.0679 L1058.0249,276.3496 L148.9984,314.0679 L6,314.0679 A0,0 0 0 0 6,314.0679 " fill="#FEFFDD" style="stroke:#181818;stroke-width:0.5;"/><path d="M240.0802,314.0679 L240.0802,324.0679 L250.0802,324.0679 L240.0802,314.0679 " fill="#FEFFDD" style="stroke:#181818;stroke-width:0.5;"/><text fill="#000000" font-family="sans-serif" font-size="13" font-weight="bold" lengthAdjust="spacing" textLength="66.3001" x="12" y="332.9649">Opera&#231;&#227;o:</text><text fill="#000000" font-family="sans-serif" font-size="13" lengthAdjust="spacing" textLength="153.4001" x="81.6801" y="332.9649">consultarCotacaoExterna</text><text fill="#000000" font-family="sans-serif" font-size="13" lengthAdjust="spacing" textLength="208.7412" x="12" y="350.6709">Invocada pelo Servi&#231;o de Consulta</text><text fill="#000000" font-family="sans-serif" font-size="13" lengthAdjust="spacing" textLength="164.2421" x="12" y="368.377">de Cota&#231;&#227;o (orquestrador).</text></g><g id="elem_GMN18"><path d="M534.5,323.0679 L534.5,368.4799 A0,0 0 0 0 534.5,368.4799 L957.6409,368.4799 A0,0 0 0 0 957.6409,368.4799 L957.6409,333.0679 L947.6409,323.0679 L711.682,323.0679 L512.3422,212.2278 L703.682,323.0679 L534.5,323.0679 A0,0 0 0 0 534.5,323.0679 " fill="#FEFFDD" style="stroke:#181818;stroke-width:0.5;"/><path d="M947.6409,323.0679 L947.6409,333.0679 L957.6409,333.0679 L947.6409,323.0679 " fill="#FEFFDD" style="stroke:#181818;stroke-width:0.5;"/><text fill="#000000" font-family="sans-serif" font-size="13" lengthAdjust="spacing" textLength="344.4599" x="540.5" y="341.9649">404 ASSET_NOT_FOUND &#8594; ativo inexistente no provedor</text><text fill="#000000" font-family="sans-serif" font-size="13" lengthAdjust="spacing" textLength="402.1409" x="540.5" y="359.6709">502 EXTERNAL_SERVICE_ERROR &#8594; timeout/falha/indisponibilidade</text></g><!--class ConsultarCotacaoExternaRequest--><g id="elem_ConsultarCotacaoExternaRequest"><rect codeLine="13" fill="#F8F9FA" height="137.6837" id="ConsultarCotacaoExternaRequest" rx="2.5" ry="2.5" style="stroke:#2C3E50;stroke-width:0.5;" width="347.5087" x="976" y="276.5679"/><ellipse cx="1035.0798" cy="299.2739" fill="#ADD1B2" rx="11" ry="11" style="stroke:#181818;stroke-width:1.0;"/><path d="M1038.0485,304.9146 Q1037.4704,305.2114 1036.8298,305.3521 Q1036.1891,305.5083 1035.486,305.5083 Q1032.986,305.5083 1031.6579,303.8677 Q1030.3454,302.2114 1030.3454,299.0864 Q1030.3454,295.9614 1031.6579,294.3052 Q1032.986,292.6489 1035.486,292.6489 Q1036.1891,292.6489 1036.8298,292.8052 Q1037.486,292.9614 1038.0485,293.2583 L1038.0485,295.9771 Q1037.4235,295.3989 1036.8298,295.1333 Q1036.236,294.8521 1035.611,294.8521 Q1034.2673,294.8521 1033.5798,295.9302 Q1032.8923,296.9927 1032.8923,299.0864 Q1032.8923,301.1802 1033.5798,302.2583 Q1034.2673,303.3208 1035.611,303.3208 Q1036.236,303.3208 1036.8298,303.0552 Q1037.4235,302.7739 1038.0485,302.1958 L1038.0485,304.9146 Z " fill="#000000"/><text fill="#000000" font-family="sans-serif" font-size="12" font-style="italic" lengthAdjust="spacing" textLength="96.8767" x="1117.566" y="294.396">&#171;Message / Input&#187;</text><text fill="#000000" font-family="sans-serif" font-size="14" lengthAdjust="spacing" textLength="220.8492" x="1055.5798" y="312.878">ConsultarCotacaoExternaRequest</text><line style="stroke:#2C3E50;stroke-width:0.5;" x1="977" x2="1322.5087" y1="321.9799" y2="321.9799"/><text fill="#000000" font-family="sans-serif" font-size="14" lengthAdjust="spacing" textLength="231.8951" x="982" y="340.9459">+tipoAtivo : TipoAtivo  {obrigat&#243;rio}</text><text fill="#000000" font-family="sans-serif" font-size="14" lengthAdjust="spacing" textLength="335.5087" x="982" y="360.0138">+simbolo  : string      {obrigat&#243;rio, uppercase, 1..15}</text><line style="stroke:#2C3E50;stroke-width:1.0;" x1="977" x2="1322.5087" y1="368.1158" y2="368.1158"/><text fill="#000000" font-family="sans-serif" font-size="14" font-style="italic" lengthAdjust="spacing" textLength="215.6971" x="982" y="387.0817">Entrada j&#225; normalizada e validada</text><text fill="#000000" font-family="sans-serif" font-size="14" font-style="italic" lengthAdjust="spacing" textLength="203.9792" x="982" y="406.1496">pelo Servi&#231;o de Cota&#231;&#227;o de Ativo.</text></g><!--class TipoAtivo--><g id="elem_TipoAtivo"><rect codeLine="21" fill="#F8F9FA" height="86.1358" id="TipoAtivo" rx="2.5" ry="2.5" style="stroke:#2C3E50;stroke-width:0.5;" width="93.6698" x="1166" y="479.0679"/><ellipse cx="1181" cy="495.0679" fill="#EB937F" rx="11" ry="11" style="stroke:#181818;stroke-width:1.0;"/><path d="M1185.1094,501.0679 L1177.3906,501.0679 L1177.3906,488.6773 L1185.1094,488.6773 L1185.1094,490.8335 L1179.8438,490.8335 L1179.8438,493.5054 L1184.6094,493.5054 L1184.6094,495.6617 L1179.8438,495.6617 L1179.8438,498.9117 L1185.1094,498.9117 L1185.1094,501.0679 Z " fill="#000000"/><text fill="#000000" font-family="sans-serif" font-size="14" lengthAdjust="spacing" textLength="61.6698" x="1195" y="500.4999">TipoAtivo</text><line style="stroke:#2C3E50;stroke-width:0.5;" x1="1167" x2="1258.6698" y1="511.0679" y2="511.0679"/><text fill="#000000" font-family="sans-serif" font-size="14" lengthAdjust="spacing" textLength="37.6739" x="1172" y="530.0339">ACAO</text><text fill="#000000" font-family="sans-serif" font-size="14" lengthAdjust="spacing" textLength="49.4898" x="1172" y="549.1018">CRIPTO</text><line style="stroke:#2C3E50;stroke-width:0.5;" x1="1167" x2="1258.6698" y1="557.2038" y2="557.2038"/></g><!--class ConsultarCotacaoExternaResponse--><g id="elem_ConsultarCotacaoExternaResponse"><rect codeLine="32" fill="#F8F9FA" height="118.6158" id="ConsultarCotacaoExternaResponse" rx="2.5" ry="2.5" style="stroke:#2C3E50;stroke-width:0.5;" width="381.6826" x="1348" y="83.5679"/><ellipse cx="1419.1057" cy="106.2739" fill="#ADD1B2" rx="11" ry="11" style="stroke:#181818;stroke-width:1.0;"/><path d="M1422.0745,111.9146 Q1421.4964,112.2114 1420.8557,112.3521 Q1420.2151,112.5083 1419.512,112.5083 Q1417.012,112.5083 1415.6839,110.8677 Q1414.3714,109.2114 1414.3714,106.0864 Q1414.3714,102.9614 1415.6839,101.3052 Q1417.012,99.6489 1419.512,99.6489 Q1420.2151,99.6489 1420.8557,99.8052 Q1421.512,99.9614 1422.0745,100.2583 L1422.0745,102.9771 Q1421.4495,102.3989 1420.8557,102.1333 Q1420.262,101.8521 1419.637,101.8521 Q1418.2932,101.8521 1417.6057,102.9302 Q1416.9182,103.9927 1416.9182,106.0864 Q1416.9182,108.1802 1417.6057,109.2583 Q1418.2932,110.3208 1419.637,110.3208 Q1420.262,110.3208 1420.8557,110.0552 Q1421.4495,109.7739 1422.0745,109.1958 L1422.0745,111.9146 Z " fill="#000000"/><text fill="#000000" font-family="sans-serif" font-size="12" font-style="italic" lengthAdjust="spacing" textLength="105.6247" x="1502.2789" y="101.396">&#171;Message / Output&#187;</text><text fill="#000000" font-family="sans-serif" font-size="14" lengthAdjust="spacing" textLength="230.9711" x="1439.6057" y="119.878">ConsultarCotacaoExternaResponse</text><line style="stroke:#2C3E50;stroke-width:0.5;" x1="1349" x2="1728.6826" y1="128.9799" y2="128.9799"/><text fill="#000000" font-family="sans-serif" font-size="14" lengthAdjust="spacing" textLength="232.8891" x="1354" y="147.9459">+cotacao        : CotacaoNormalizada</text><text fill="#000000" font-family="sans-serif" font-size="14" lengthAdjust="spacing" textLength="369.6826" x="1354" y="167.0138">+provedorOrigem : string   {ex: "B3_API", "COINGECKO"}</text><text fill="#000000" font-family="sans-serif" font-size="14" lengthAdjust="spacing" textLength="275.7149" x="1354" y="186.0817">+timestamp      : datetime {ISO-8601, UTC}</text><line style="stroke:#2C3E50;stroke-width:0.5;" x1="1349" x2="1728.6826" y1="194.1837" y2="194.1837"/></g><!--class CotacaoNormalizada--><g id="elem_CotacaoNormalizada"><rect codeLine="38" fill="#F8F9FA" height="194.8874" id="CotacaoNormalizada" rx="2.5" ry="2.5" style="stroke:#2C3E50;stroke-width:0.5;" width="319.5928" x="1363" y="248.0679"/><ellipse cx="1449.9326" cy="270.7739" fill="#ADD1B2" rx="11" ry="11" style="stroke:#181818;stroke-width:1.0;"/><path d="M1452.9014,276.4146 Q1452.3233,276.7114 1451.6826,276.8521 Q1451.042,277.0083 1450.3389,277.0083 Q1447.8389,277.0083 1446.5108,275.3677 Q1445.1983,273.7114 1445.1983,270.5864 Q1445.1983,267.4614 1446.5108,265.8052 Q1447.8389,264.1489 1450.3389,264.1489 Q1451.042,264.1489 1451.6826,264.3052 Q1452.3389,264.4614 1452.9014,264.7583 L1452.9014,267.4771 Q1452.2764,266.8989 1451.6826,266.6333 Q1451.0889,266.3521 1450.4639,266.3521 Q1449.1201,266.3521 1448.4326,267.4302 Q1447.7451,268.4927 1447.7451,270.5864 Q1447.7451,272.6802 1448.4326,273.7583 Q1449.1201,274.8208 1450.4639,274.8208 Q1451.0889,274.8208 1451.6826,274.5552 Q1452.2764,274.2739 1452.9014,273.6958 L1452.9014,276.4146 Z " fill="#000000"/><text fill="#000000" font-family="sans-serif" font-size="12" font-style="italic" lengthAdjust="spacing" textLength="34.1162" x="1521.9883" y="265.896">&#171;DTO&#187;</text><text fill="#000000" font-family="sans-serif" font-size="14" lengthAdjust="spacing" textLength="137.2275" x="1470.4326" y="284.378">CotacaoNormalizada</text><line style="stroke:#2C3E50;stroke-width:0.5;" x1="1364" x2="1681.5928" y1="293.4799" y2="293.4799"/><text fill="#000000" font-family="sans-serif" font-size="14" lengthAdjust="spacing" textLength="157.8494" x="1369" y="312.4459">+tipoAtivo      : TipoAtivo</text><text fill="#000000" font-family="sans-serif" font-size="14" lengthAdjust="spacing" textLength="135.5055" x="1369" y="331.5138">+simbolo        : string</text><text fill="#000000" font-family="sans-serif" font-size="14" lengthAdjust="spacing" textLength="239.441" x="1369" y="350.5817">+moeda          : string         {ISO-4217}</text><text fill="#000000" font-family="sans-serif" font-size="14" lengthAdjust="spacing" textLength="307.5928" x="1369" y="369.6496">+dataReferencia : datetime       {ISO-8601, UTC}</text><line style="stroke:#2C3E50;stroke-width:0.5;" x1="1364" x2="1681.5928" y1="377.7516" y2="377.7516"/><text fill="#000000" font-family="sans-serif" font-size="14" lengthAdjust="spacing" textLength="176.8473" x="1369" y="396.7176">+preco          : decimal(18,8)</text><text fill="#000000" font-family="sans-serif" font-size="14" lengthAdjust="spacing" textLength="278.7529" x="1369" y="415.7855">+variacaoDia    : decimal(8,4)   {percentual}</text><text fill="#000000" font-family="sans-serif" font-size="14" lengthAdjust="spacing" textLength="184.5612" x="1369" y="434.8534">+volume         : decimal(20,2)</text></g><!--class ErroIntegracao--><g id="elem_ErroIntegracao"><rect codeLine="55" fill="#F8F9FA" height="137.6837" id="ErroIntegracao" rx="2.5" ry="2.5" style="stroke:#2C3E50;stroke-width:0.5;" width="250.7551" x="266.5" y="74.0679"/><ellipse cx="337.8997" cy="96.7739" fill="#ADD1B2" rx="11" ry="11" style="stroke:#181818;stroke-width:1.0;"/><path d="M340.8685,102.4146 Q340.2903,102.7114 339.6497,102.8521 Q339.0091,103.0083 338.306,103.0083 Q335.806,103.0083 334.4778,101.3677 Q333.1653,99.7114 333.1653,96.5864 Q333.1653,93.4614 334.4778,91.8052 Q335.806,90.1489 338.306,90.1489 Q339.0091,90.1489 339.6497,90.3052 Q340.306,90.4614 340.8685,90.7583 L340.8685,93.4771 Q340.2435,92.8989 339.6497,92.6333 Q339.056,92.3521 338.431,92.3521 Q337.0872,92.3521 336.3997,93.4302 Q335.7122,94.4927 335.7122,96.5864 Q335.7122,98.6802 336.3997,99.7583 Q337.0872,100.8208 338.431,100.8208 Q339.056,100.8208 339.6497,100.5552 Q340.2435,100.2739 340.8685,99.6958 L340.8685,102.4146 Z " fill="#000000"/><text fill="#000000" font-family="sans-serif" font-size="12" font-style="italic" lengthAdjust="spacing" textLength="95.4127" x="360.4212" y="91.896">&#171;Message / Error&#187;</text><text fill="#000000" font-family="sans-serif" font-size="14" lengthAdjust="spacing" textLength="99.4556" x="358.3997" y="110.378">ErroIntegracao</text><line style="stroke:#2C3E50;stroke-width:0.5;" x1="267.5" x2="516.2551" y1="119.4799" y2="119.4799"/><text fill="#000000" font-family="sans-serif" font-size="14" lengthAdjust="spacing" textLength="180.0113" x="272.5" y="138.4459">+codigo   : int     {404 | 502}</text><text fill="#000000" font-family="sans-serif" font-size="14" lengthAdjust="spacing" textLength="136.3734" x="272.5" y="157.5138">+chave    : ChaveErro</text><text fill="#000000" font-family="sans-serif" font-size="14" lengthAdjust="spacing" textLength="131.2495" x="272.5" y="176.5817">+mensagem : string</text><text fill="#000000" font-family="sans-serif" font-size="14" lengthAdjust="spacing" textLength="238.7551" x="272.5" y="195.6496">+detalhe  : string  {opcional - debug}</text><line style="stroke:#2C3E50;stroke-width:0.5;" x1="267.5" x2="516.2551" y1="203.7516" y2="203.7516"/></g><!--class ChaveErro--><g id="elem_ChaveErro"><rect codeLine="62" fill="#F8F9FA" height="86.1358" id="ChaveErro" rx="2.5" ry="2.5" style="stroke:#2C3E50;stroke-width:0.5;" width="190.4153" x="297" y="302.5679"/><ellipse cx="353.8678" cy="318.5679" fill="#EB937F" rx="11" ry="11" style="stroke:#181818;stroke-width:1.0;"/><path d="M357.9771,324.5679 L350.2584,324.5679 L350.2584,312.1773 L357.9771,312.1773 L357.9771,314.3335 L352.7115,314.3335 L352.7115,317.0054 L357.4771,317.0054 L357.4771,319.1617 L352.7115,319.1617 L352.7115,322.4117 L357.9771,322.4117 L357.9771,324.5679 Z " fill="#000000"/><text fill="#000000" font-family="sans-serif" font-size="14" lengthAdjust="spacing" textLength="68.1797" x="374.3678" y="323.9999">ChaveErro</text><line style="stroke:#2C3E50;stroke-width:0.5;" x1="298" x2="486.4153" y1="334.5679" y2="334.5679"/><text fill="#000000" font-family="sans-serif" font-size="14" lengthAdjust="spacing" textLength="130.9695" x="303" y="353.5339">ASSET_NOT_FOUND</text><text fill="#000000" font-family="sans-serif" font-size="14" lengthAdjust="spacing" textLength="178.4153" x="303" y="372.6018">EXTERNAL_SERVICE_ERROR</text><line style="stroke:#2C3E50;stroke-width:0.5;" x1="298" x2="486.4153" y1="380.7038" y2="380.7038"/></g><polygon fill="#181818" points="1197.7579,478.8498,1198.464,469.0263,1196.06,474.1469,1190.9394,471.7429,1197.7579,478.8498" style="stroke:#181818;stroke-width:1.0;"/><path d="M1174.6281,414.7839 C1182.4276,436.3873 1188.7805,453.9838 1195.7205,473.2063 " fill="none" style="stroke:#181818;stroke-width:1.0;"/><polygon fill="#181818" points="1534.3291,202.5998,1529.8645,208.2626,1533.3746,214.5618,1537.8392,208.899,1534.3291,202.5998" style="stroke:#181818;stroke-width:1.0;"/><path d="M1533.3746,214.5618 C1532.24,228.7789 1531.9513,232.3966 1530.7171,247.8635 " fill="none" style="stroke:#181818;stroke-width:1.0;"/><text fill="#000000" font-family="sans-serif" font-size="13" lengthAdjust="spacing" textLength="7.436" x="1522.7171" y="243.7605">1</text><text fill="#000000" font-family="sans-serif" font-size="13" lengthAdjust="spacing" textLength="7.436" x="1526.3291" y="217.4968">1</text><polygon fill="#181818" points="1260.0665,494.574,1269.8715,493.645,1264.4237,492.1214,1265.9472,486.6736,1260.0665,494.574" style="stroke:#181818;stroke-width:1.0;"/><path d="M1362.5518,436.8847 C1325.0262,458.008 1293.1556,475.9481 1265.2951,491.6308 " fill="none" style="stroke:#181818;stroke-width:1.0;"/><polygon fill="#181818" points="392,302.2963,396,293.2963,392,297.2963,388,293.2963,392,302.2963" style="stroke:#181818;stroke-width:1.0;"/><path d="M392,212.2278 C392,242.0852 392,270.1878 392,296.2963 " fill="none" style="stroke:#181818;stroke-width:1.0;"/><!--SRC=[dLRDSkD44BxhAHfp83Ps4dkTnQI2gxoAJAbWhM0v53VNMEeumqepsj78bLtZ4rLmvmqe3li0F8BVX2UXHp_-PmFeO8-bhtkwl-zJZpz959l732BsJcOQqXWr4ypIN4S8JlesmvYb42AyHf6oENr02tnK2xx-8CrzLsYSAxR-iFv3GY1Zk5DoWQ5KM8QfW8NIij8tN2HCiHY2YANfG6l5Pvb6Dv32v-yHBWyXhrZmPgva9a9RHbB1fyFUyClXu0WcLOYgX7Ji5yxLRgPKeqAftoLe7-LpUiFkyFOaU7Iy-N3OTLvQrcVmrVu5O-UxUzTtrx-kV_OE7re9vI7Qe3R6jnbFUSvJ3MvknXWGq_C8-trOMXOKpO0jHPf5cb53cWLCEazKas0c6bDDSQynDJh01J6VP3gF1he-1yqJET1y8U4Q9firBELCyJdJwpyLbwiIc_9uHdq1GLCIGimXl_QmJSYInCYNOXFQv-VjgoAwrSg_RdZV4LgnaC6Fwzz1I1MpYBytln4Mj0nfUNF1-nKwGTfmrpgcnS8tz2Elzhp4hmmXAB9ufv6YpO4zyFA5FNRl9bw5VOQsLgk_pMIjJglettd-P01d_htj-BvN_vYMQI9JpGYR1QI7hFyVHIc7I75FKY_J-ve6HGoKrpMKIKPRjajaKhvs7Wc8yQwkItowXjgh5zF1dLjhGitstD7NZlsDLrjjd1CJIonEgbr2fj7SXANhUwtUoyjs4-udzggYk-hii1PgvdRYdVHacNchme4HAq1HzgOf33RFyi8muBJPMRlNxDLBK2oHTeR359iRUG_TJlkBgjq5KzmKVilPVjPUirit0SRrA7J6eas8Z3AYuxYGpcMpKnL2h96i3pH3H42fTsZSAUIOpESCKclNeD5gvTydvJ-Xmtyol3CU_pktEqfzrEhcUNaU6DFkEjiyKdl63lbSvbHoeGjwkfTT-0ckBZiLwy4ZMs3fUxCqIIhHY-CeFdHCIETNz8YxDbZA9E1Ii8XEhX1dsNorDs4scQi9u_lEP3ho9jEXTp-wpUyvFqoSyMZmxTHtnj-xjZCrb8shD0Tj6-wtvH92I8r0h-MZ1ldmpAYYT8s6HmOi9kDreq5KdGmWf2iMCZ1odnYjHGo1zWRjcLJvDZIsfQgVMoX2CEMLHSwardI4KvNxFL4Q8yu1DV3NBxy1ozzkBl29q_594PHlCumeZkJy1_hoSFDwq1-FYmTIZLrm4NBZUZxZ-Vc1smB_1W00]--></g></svg>