<svg xmlns="http://www.w3.org/2000/svg" xmlns:xlink="http://www.w3.org/1999/xlink" contentStyleType="text/css" height="789px" preserveAspectRatio="none" style="width:1179px;height:789px;background:#FFFFFF;" version="1.1" viewBox="0 0 1179 789" width="1179px" zoomAndPan="magnify"><title>Interface - Servi&#231;o de Integra&#231;&#227;o com Provedores de Mercado</title><defs/><g><text fill="#000000" font-family="sans-serif" font-size="14" font-weight="bold" lengthAdjust="spacing" textLength="429.8123" x="370.5938" y="24.9659">Interface - Servi&#231;o de Integra&#231;&#227;o com Provedores de Mercado</text><!--class ISvc--><g id="elem_ISvc"><rect codeLine="9" fill="#F8F9FA" height="80.4799" id="ISvc" rx="2.5" ry="2.5" style="stroke:#2C3E50;stroke-width:0.5;" width="682.4996" x="64.5" y="52.5679"/><ellipse cx="303.1292" cy="75.2739" fill="#B4A7E5" rx="11" ry="11" style="stroke:#181818;stroke-width:1.0;"/><path d="M299.0511,71.0396 L299.0511,68.8833 L306.4417,68.8833 L306.4417,71.0396 L303.9729,71.0396 L303.9729,79.1177 L306.4417,79.1177 L306.4417,81.2739 L299.0511,81.2739 L299.0511,79.1177 L301.5198,79.1177 L301.5198,71.0396 L299.0511,71.0396 Z " fill="#000000"/><text fill="#000000" font-family="sans-serif" font-size="12" font-style="italic" lengthAdjust="spacing" textLength="99.1567" x="372.4215" y="70.396">&#171;Service Interface&#187;</text><text fill="#000000" font-family="sans-serif" font-size="14" font-style="italic" lengthAdjust="spacing" textLength="196.7413" x="323.6292" y="88.878">IIntegracaoProvedoresMercado</text><line style="stroke:#2C3E50;stroke-width:0.5;" x1="65.5" x2="745.9996" y1="97.9799" y2="97.9799"/><line style="stroke:#2C3E50;stroke-width:0.5;" x1="65.5" x2="745.9996" y1="105.9799" y2="105.9799"/><text fill="#000000" font-family="sans-serif" font-size="14" lengthAdjust="spacing" textLength="670.4996" x="70.5" y="124.9459">+consultarCotacaoExterna(req: ConsultarCotacaoExternaRequest): ConsultarCotacaoExternaResponse</text></g><!--class ConsultarCotacaoExternaRequest--><g id="elem_ConsultarCotacaoExternaRequest"><rect codeLine="13" fill="#F8F9FA" height="99.5479" id="ConsultarCotacaoExternaRequest" rx="2.5" ry="2.5" style="stroke:#2C3E50;stroke-width:0.5;" width="395.1225" x="6" y="346.0679"/><ellipse cx="88.8867" cy="368.7739" fill="#ADD1B2" rx="11" ry="11" style="stroke:#181818;stroke-width:1.0;"/><path d="M91.8554,374.4146 Q91.2773,374.7114 90.6367,374.8521 Q89.996,375.0083 89.2929,375.0083 Q86.7929,375.0083 85.4648,373.3677 Q84.1523,371.7114 84.1523,368.5864 Q84.1523,365.4614 85.4648,363.8052 Q86.7929,362.1489 89.2929,362.1489 Q89.996,362.1489 90.6367,362.3052 Q91.2929,362.4614 91.8554,362.7583 L91.8554,365.4771 Q91.2304,364.8989 90.6367,364.6333 Q90.0429,364.3521 89.4179,364.3521 Q88.0742,364.3521 87.3867,365.4302 Q86.6992,366.4927 86.6992,368.5864 Q86.6992,370.6802 87.3867,371.7583 Q88.0742,372.8208 89.4179,372.8208 Q90.0429,372.8208 90.6367,372.5552 Q91.2304,372.2739 91.8554,371.6958 L91.8554,374.4146 Z " fill="#000000"/><text fill="#000000" font-family="sans-serif" font-size="12" font-style="italic" lengthAdjust="spacing" textLength="87.0846" x="176.2689" y="363.896">&#171;DTO / Entrada&#187;</text><text fill="#000000" font-family="sans-serif" font-size="14" lengthAdjust="spacing" textLength="220.8492" x="109.3867" y="382.378">ConsultarCotacaoExternaRequest</text><line style="stroke:#2C3E50;stroke-width:0.5;" x1="7" x2="400.1225" y1="391.4799" y2="391.4799"/><text fill="#000000" font-family="sans-serif" font-size="14" lengthAdjust="spacing" textLength="305.4088" x="12" y="410.4459">+tipoAtivo : TipoAtivo  {enum: ACAO | CRIPTO}</text><text fill="#000000" font-family="sans-serif" font-size="14" lengthAdjust="spacing" textLength="383.1225" x="12" y="429.5138">+simbolo  : string      {normalizado, uppercase, 1..15 chars}</text><line style="stroke:#2C3E50;stroke-width:0.5;" x1="7" x2="400.1225" y1="437.6158" y2="437.6158"/></g><!--class ConsultarCotacaoExternaResponse--><g id="elem_ConsultarCotacaoExternaResponse"><rect codeLine="18" fill="#F8F9FA" height="118.6158" id="ConsultarCotacaoExternaResponse" rx="2.5" ry="2.5" style="stroke:#2C3E50;stroke-width:0.5;" width="285.4749" x="263" y="199.5679"/><ellipse cx="288.1267" cy="222.2739" fill="#ADD1B2" rx="11" ry="11" style="stroke:#181818;stroke-width:1.0;"/><path d="M291.0955,227.9146 Q290.5173,228.2114 289.8767,228.3521 Q289.2361,228.5083 288.533,228.5083 Q286.033,228.5083 284.7048,226.8677 Q283.3923,225.2114 283.3923,222.0864 Q283.3923,218.9614 284.7048,217.3052 Q286.033,215.6489 288.533,215.6489 Q289.2361,215.6489 289.8767,215.8052 Q290.533,215.9614 291.0955,216.2583 L291.0955,218.9771 Q290.4705,218.3989 289.8767,218.1333 Q289.283,217.8521 288.658,217.8521 Q287.3142,217.8521 286.6267,218.9302 Q285.9392,219.9927 285.9392,222.0864 Q285.9392,224.1802 286.6267,225.2583 Q287.3142,226.3208 288.658,226.3208 Q289.283,226.3208 289.8767,226.0552 Q290.4705,225.7739 291.0955,225.1958 L291.0955,227.9146 Z " fill="#000000"/><text fill="#000000" font-family="sans-serif" font-size="12" font-style="italic" lengthAdjust="spacing" textLength="74.3645" x="382.6804" y="217.396">&#171;DTO / Sa&#237;da&#187;</text><text fill="#000000" font-family="sans-serif" font-size="14" lengthAdjust="spacing" textLength="230.9711" x="304.3771" y="235.878">ConsultarCotacaoExternaResponse</text><line style="stroke:#2C3E50;stroke-width:0.5;" x1="264" x2="547.4749" y1="244.9799" y2="244.9799"/><text fill="#000000" font-family="sans-serif" font-size="14" lengthAdjust="spacing" textLength="232.8891" x="269" y="263.9459">+cotacao        : CotacaoNormalizada</text><text fill="#000000" font-family="sans-serif" font-size="14" lengthAdjust="spacing" textLength="168.1114" x="269" y="283.0138">+provedorOrigem : string</text><line style="stroke:#2C3E50;stroke-width:0.5;" x1="264" x2="547.4749" y1="291.1158" y2="291.1158"/><text fill="#000000" font-family="sans-serif" font-size="14" lengthAdjust="spacing" textLength="273.4749" x="269" y="310.0817">+timestamp      : datetime (ISO-8601, UTC)</text></g><!--class CotacaoNormalizada--><g id="elem_CotacaoNormalizada"><rect codeLine="24" fill="#F8F9FA" height="194.8874" id="CotacaoNormalizada" rx="2.5" ry="2.5" style="stroke:#2C3E50;stroke-width:0.5;" width="313.0828" x="253" y="464.0679"/><ellipse cx="336.6777" cy="486.7739" fill="#ADD1B2" rx="11" ry="11" style="stroke:#181818;stroke-width:1.0;"/><path d="M339.6464,492.4146 Q339.0683,492.7114 338.4277,492.8521 Q337.787,493.0083 337.0839,493.0083 Q334.5839,493.0083 333.2558,491.3677 Q331.9433,489.7114 331.9433,486.5864 Q331.9433,483.4614 333.2558,481.8052 Q334.5839,480.1489 337.0839,480.1489 Q337.787,480.1489 338.4277,480.3052 Q339.0839,480.4614 339.6464,480.7583 L339.6464,483.4771 Q339.0214,482.8989 338.4277,482.6333 Q337.8339,482.3521 337.2089,482.3521 Q335.8652,482.3521 335.1777,483.4302 Q334.4902,484.4927 334.4902,486.5864 Q334.4902,488.6802 335.1777,489.7583 Q335.8652,490.8208 337.2089,490.8208 Q337.8339,490.8208 338.4277,490.5552 Q339.0214,490.2739 339.6464,489.6958 L339.6464,492.4146 Z " fill="#000000"/><text fill="#000000" font-family="sans-serif" font-size="12" font-style="italic" lengthAdjust="spacing" textLength="34.1162" x="408.7333" y="481.896">&#171;DTO&#187;</text><text fill="#000000" font-family="sans-serif" font-size="14" lengthAdjust="spacing" textLength="137.2275" x="357.1777" y="500.378">CotacaoNormalizada</text><line style="stroke:#2C3E50;stroke-width:0.5;" x1="254" x2="565.0828" y1="509.4799" y2="509.4799"/><text fill="#000000" font-family="sans-serif" font-size="14" lengthAdjust="spacing" textLength="154.2094" x="259" y="528.4459">+tipoAtivo     : TipoAtivo</text><text fill="#000000" font-family="sans-serif" font-size="14" lengthAdjust="spacing" textLength="131.8655" x="259" y="547.5138">+simbolo       : string</text><text fill="#000000" font-family="sans-serif" font-size="14" lengthAdjust="spacing" textLength="301.0828" x="259" y="566.5817">+moeda         : string  {ISO-4217, ex: BRL, USD}</text><line style="stroke:#2C3E50;stroke-width:0.5;" x1="254" x2="565.0828" y1="574.6837" y2="574.6837"/><text fill="#000000" font-family="sans-serif" font-size="14" lengthAdjust="spacing" textLength="173.2073" x="259" y="593.6496">+preco         : decimal(18,8)</text><text fill="#000000" font-family="sans-serif" font-size="14" lengthAdjust="spacing" textLength="271.4729" x="259" y="612.7176">+variacaoDia   : decimal(8,4)  {percentual}</text><text fill="#000000" font-family="sans-serif" font-size="14" lengthAdjust="spacing" textLength="180.9212" x="259" y="631.7855">+volume        : decimal(20,2)</text><text fill="#000000" font-family="sans-serif" font-size="14" lengthAdjust="spacing" textLength="279.8729" x="259" y="650.8534">+dataReferencia: datetime (ISO-8601, UTC)</text></g><!--class ErroIntegracao--><g id="elem_ErroIntegracao"><rect codeLine="34" fill="#F8F9FA" height="137.6837" id="ErroIntegracao" rx="2.5" ry="2.5" style="stroke:#2C3E50;stroke-width:0.5;" width="464.5482" x="566" y="190.0679"/><ellipse cx="744.2963" cy="212.7739" fill="#ADD1B2" rx="11" ry="11" style="stroke:#181818;stroke-width:1.0;"/><path d="M747.265,218.4146 Q746.6869,218.7114 746.0463,218.8521 Q745.4056,219.0083 744.7025,219.0083 Q742.2025,219.0083 740.8744,217.3677 Q739.5619,215.7114 739.5619,212.5864 Q739.5619,209.4614 740.8744,207.8052 Q742.2025,206.1489 744.7025,206.1489 Q745.4056,206.1489 746.0463,206.3052 Q746.7025,206.4614 747.265,206.7583 L747.265,209.4771 Q746.64,208.8989 746.0463,208.6333 Q745.4525,208.3521 744.8275,208.3521 Q743.4838,208.3521 742.7963,209.4302 Q742.1088,210.4927 742.1088,212.5864 Q742.1088,214.6802 742.7963,215.7583 Q743.4838,216.8208 744.8275,216.8208 Q745.4525,216.8208 746.0463,216.5552 Q746.64,216.2739 747.265,215.6958 L747.265,218.4146 Z " fill="#000000"/><text fill="#000000" font-family="sans-serif" font-size="12" font-style="italic" lengthAdjust="spacing" textLength="67.1045" x="780.9719" y="207.896">&#171;DTO / Erro&#187;</text><text fill="#000000" font-family="sans-serif" font-size="14" lengthAdjust="spacing" textLength="99.4556" x="764.7963" y="226.378">ErroIntegracao</text><line style="stroke:#2C3E50;stroke-width:0.5;" x1="567" x2="1029.5482" y1="235.4799" y2="235.4799"/><text fill="#000000" font-family="sans-serif" font-size="14" lengthAdjust="spacing" textLength="176.0493" x="572" y="254.4459">+codigo  : int       {404, 502}</text><text fill="#000000" font-family="sans-serif" font-size="14" lengthAdjust="spacing" textLength="452.5482" x="572" y="273.5138">+chave   : string    {ASSET_NOT_FOUND | EXTERNAL_SERVICE_ERROR}</text><text fill="#000000" font-family="sans-serif" font-size="14" lengthAdjust="spacing" textLength="127.6095" x="572" y="292.5817">+mensagem: string</text><text fill="#000000" font-family="sans-serif" font-size="14" lengthAdjust="spacing" textLength="323.1608" x="572" y="311.6496">+detalhe : string    {opcional - corpo do provedor}</text><line style="stroke:#2C3E50;stroke-width:0.5;" x1="567" x2="1029.5482" y1="319.7516" y2="319.7516"/></g><!--class TipoAtivo--><g id="elem_TipoAtivo"><rect codeLine="41" fill="#F8F9FA" height="86.1358" id="TipoAtivo" rx="2.5" ry="2.5" style="stroke:#2C3E50;stroke-width:0.5;" width="93.6698" x="224.5" y="696.0679"/><ellipse cx="239.5" cy="712.0679" fill="#EB937F" rx="11" ry="11" style="stroke:#181818;stroke-width:1.0;"/><path d="M243.6094,718.0679 L235.8906,718.0679 L235.8906,705.6773 L243.6094,705.6773 L243.6094,707.8335 L238.3438,707.8335 L238.3438,710.5054 L243.1094,710.5054 L243.1094,712.6617 L238.3438,712.6617 L238.3438,715.9117 L243.6094,715.9117 L243.6094,718.0679 Z " fill="#000000"/><text fill="#000000" font-family="sans-serif" font-size="14" lengthAdjust="spacing" textLength="61.6698" x="253.5" y="717.4999">TipoAtivo</text><line style="stroke:#2C3E50;stroke-width:0.5;" x1="225.5" x2="317.1698" y1="728.0679" y2="728.0679"/><text fill="#000000" font-family="sans-serif" font-size="14" lengthAdjust="spacing" textLength="37.6739" x="230.5" y="747.0339">ACAO</text><text fill="#000000" font-family="sans-serif" font-size="14" lengthAdjust="spacing" textLength="49.4898" x="230.5" y="766.1018">CRIPTO</text><line style="stroke:#2C3E50;stroke-width:0.5;" x1="225.5" x2="317.1698" y1="774.2038" y2="774.2038"/></g><g id="elem_GMN14"><path d="M765,52.0679 L765,88.5679 L746.6538,92.5679 L765,96.5679 L765,132.892 A0,0 0 0 0 765,132.892 L1172.2043,132.892 A0,0 0 0 0 1172.2043,132.892 L1172.2043,62.0679 L1162.2043,52.0679 L765,52.0679 A0,0 0 0 0 765,52.0679 " fill="#FEFFDD" style="stroke:#181818;stroke-width:0.5;"/><path d="M1162.2043,52.0679 L1162.2043,62.0679 L1172.2043,62.0679 L1162.2043,52.0679 " fill="#FEFFDD" style="stroke:#181818;stroke-width:0.5;"/><text fill="#000000" font-family="sans-serif" font-size="13" font-weight="bold" lengthAdjust="spacing" textLength="66.3001" x="771" y="70.9649">Opera&#231;&#227;o:</text><text fill="#000000" font-family="sans-serif" font-size="13" lengthAdjust="spacing" textLength="153.4001" x="840.6801" y="70.9649">consultarCotacaoExterna</text><text fill="#000000" font-family="sans-serif" font-size="13" font-weight="bold" lengthAdjust="spacing" textLength="55.003" x="771" y="88.6709">Entrada:</text><text fill="#000000" font-family="sans-serif" font-size="13" lengthAdjust="spacing" textLength="179.5692" x="829.383" y="88.6709">tipoAtivo, simbolo (validados)</text><text fill="#000000" font-family="sans-serif" font-size="13" font-weight="bold" lengthAdjust="spacing" textLength="38.766" x="771" y="106.377">Sa&#237;da:</text><text fill="#000000" font-family="sans-serif" font-size="13" lengthAdjust="spacing" textLength="265.3432" x="813.146" y="106.377">cota&#231;&#227;o normalizada + origem + timestamp</text><text fill="#000000" font-family="sans-serif" font-size="13" font-weight="bold" lengthAdjust="spacing" textLength="37.297" x="771" y="124.083">Erros:</text><text fill="#000000" font-family="sans-serif" font-size="13" lengthAdjust="spacing" textLength="345.5273" x="811.677" y="124.083">404 ASSET_NOT_FOUND, 502 EXTERNAL_SERVICE_ERROR</text></g><polygon fill="#181818" points="205.2538,346.065,210.0069,337.439,205.6803,341.0833,202.036,336.7567,205.2538,346.065" style="stroke:#181818;stroke-width:1.0;"/><path d="M319.3142,132.6246 C294.8694,147.4574 270.3511,166.5726 253.5,190.0679 C220.4069,236.2095 209.5696,295.6498 205.7656,340.0869 " fill="none" style="stroke:#181818;stroke-width:1.0;stroke-dasharray:7.0,7.0;"/><text fill="#000000" font-family="sans-serif" font-size="13" lengthAdjust="spacing" textLength="55.718" x="292.5" y="166.9649">consome</text><polygon fill="#181818" points="405.5,199.3591,409.5,190.3591,405.5,194.3591,401.5,190.3591,405.5,199.3591" style="stroke:#181818;stroke-width:1.0;"/><path d="M405.5,132.9698 C405.5,152.8353 405.5,171.3276 405.5,193.3591 " fill="none" style="stroke:#181818;stroke-width:1.0;stroke-dasharray:7.0,7.0;"/><text fill="#000000" font-family="sans-serif" font-size="13" lengthAdjust="spacing" textLength="43.368" x="407.5" y="166.9649">produz</text><polygon fill="#181818" points="635.6685,189.9107,628.9109,182.7459,631.0563,187.9802,625.822,190.1255,635.6685,189.9107" style="stroke:#181818;stroke-width:1.0;"/><path d="M499.134,132.7608 C540.0001,149.8663 583.598,168.1153 630.1338,187.594 " fill="none" style="stroke:#181818;stroke-width:1.0;stroke-dasharray:7.0,7.0;"/><text fill="#000000" font-family="sans-serif" font-size="13" lengthAdjust="spacing" textLength="32.214" x="592.5" y="166.9649">lan&#231;a</text><polygon fill="#181818" points="254.8893,695.8809,255.648,686.0613,253.2166,691.169,248.109,688.7376,254.8893,695.8809" style="stroke:#181818;stroke-width:1.0;"/><path d="M208.2155,446.3885 C213.9411,499.4686 225.1748,586.1024 243.5,659.0679 C246.5482,671.2051 248.7012,678.4487 252.8821,690.2266 " fill="none" style="stroke:#181818;stroke-width:1.0;"/><polygon fill="#181818" points="408.2135,463.9219,412.0934,454.8695,408.147,458.9224,404.0941,454.976,408.2135,463.9219" style="stroke:#181818;stroke-width:1.0;"/><path d="M406.2807,318.7207 C406.8298,359.9696 407.4973,410.113 408.1337,457.9225 " fill="none" style="stroke:#181818;stroke-width:1.0;"/><polygon fill="#181818" points="304.5675,696.0147,313.2749,691.4124,307.6581,692.0843,306.9862,686.4675,304.5675,696.0147" style="stroke:#181818;stroke-width:1.0;"/><path d="M333.4358,659.3017 C323.3135,672.1746 317.1049,680.0704 308.2762,691.2982 " fill="none" style="stroke:#181818;stroke-width:1.0;"/><!--SRC=[ZLNHJjim57tFLzonbxO4rdPbwog4LDfKgiG8IigqDsGSKomIEzXE1NHypHvusbVqntQTP6bQOE2NLlRnlUSUdtlp8LLadX28oRtC3EY46IA8OxY96Ko5OUgAK0Px43AruAid2L6nFrTazRJwBO7A1CwKNB18AgRjyNUcA8cau-WRBbAYI08q9beFZL7yCZDiIgK8-GE3zZRacD2RkPAPY4OobWe-JlgJRvFXCvXK4LCbf3lwx1tK8sbapQIvJzdeMJolF-bDnex3gz9sfcKvbCXr7MKDEq0qJCC5XSF3N05QK-Ne29OEm2vA87GM6uACZ0tZtI52a8PYjmCOlNmOiDkCQTFy3q2dUCASHyV9YtuZ4Z8Sptpu19umYaIaOcTuAeU6BoGCO5RzXoKJMJA0uMZemoyO1TEpcV-ONz0ykKIr0F4QNqpC8LzB8LL2Olw0khYGfQcLI3CNEllxdGEWrqJfntUmBSggw8PazQV6bXPeA9UL9zyuhPAJ79UMJ-KhFcT9HRMiE451I9B-Yn4Hm-mcDAQXlzV_qkwuS3uRDUjijxCK15zGiGXPARafMNbQ8vCgHgjoB1T6EUPeTFfklvaZ4iam7MnTHi4jsLwtyzK5TZU0u-04MOVZuf4MH77BUCp9HjY-sslYLViuJ9YCn2LSnXdM_un5j-rs2nQe4JxE5RQEe9oyHpDFARdkdRN_SBlsd16VvrR2ZYkpBtljdWi7xMv13OspOB3fjkKm3BtPnQa_kvZuvwTZTAZtS-O5fyEJYz0BVan7teKN17vGX4YOq0Hji25yXACilcQRSMLAkHGaneb6fKfndCdAIhbvRLVKsiHMOLi4VueMiPXy8Epl7xtLaPZQZWQPi7TSATjYOEb4sSFwnfRCpzO0XxTOFH7dBJPxUqSrsxv5nA9VwBqN6cKphYEaOO1TUMr0NkN34yLhjNoqPF796BHQhutC75aEC0khkiwjMgonmBmHpY3TpD75_2XYclAR96hiTa4M8w8s5ueqgAkszz2EiEMtt9wlM0uj4e4jqlaB]--></g></svg>