<?plantuml 1.2026.2?><svg xmlns="http://www.w3.org/2000/svg" xmlns:xlink="http://www.w3.org/1999/xlink" contentStyleType="text/css" data-diagram-type="CLASS" height="237px" preserveAspectRatio="none" style="width:1871px;height:237px;background:#FFFFFF;" version="1.1" viewBox="0 0 1871 237" width="1871px" zoomAndPan="magnify"><defs/><g><!--class ServicoAutenticacao--><g class="entity" data-qualified-name="ServicoAutenticacao" data-source-line="4" id="ent0002"><rect fill="#F1F1F1" height="65.1094" rx="2.5" ry="2.5" style="stroke:#181818;stroke-width:0.5;" width="388.8447" x="7" y="157.36"/><ellipse cx="116.4912" cy="177.6705" fill="#ADD1B2" rx="11" ry="11" style="stroke:#181818;stroke-width:1;"/><path d="M118.9644,183.8136 Q118.3833,184.1124 117.7441,184.2619 Q117.105,184.4113 116.3994,184.4113 Q113.8926,184.4113 112.5728,182.7594 Q111.2529,181.1076 111.2529,177.9865 Q111.2529,174.8571 112.5728,173.2052 Q113.8926,171.5534 116.3994,171.5534 Q117.105,171.5534 117.7524,171.7028 Q118.3999,171.8522 118.9644,172.151 L118.9644,174.8737 Q118.3335,174.2926 117.74,174.0228 Q117.1465,173.7531 116.5156,173.7531 Q115.1709,173.7531 114.4861,174.8197 Q113.8013,175.8864 113.8013,177.9865 Q113.8013,180.0783 114.4861,181.1449 Q115.1709,182.2116 116.5156,182.2116 Q117.1465,182.2116 117.74,181.9418 Q118.3335,181.672 118.9644,181.091 Z " fill="#000000"/><text fill="#000000" font-family="sans-serif" font-size="12" font-style="italic" lengthAdjust="spacing" textLength="107.7012" x="163.8218" y="173.9616">&#171;Servi&#231;o Utilit&#225;rio&#187;</text><text fill="#000000" font-family="sans-serif" font-size="14" lengthAdjust="spacing" textLength="161.3623" x="136.9912" y="190.028">Servi&#231;o de Autentica&#231;&#227;o</text><line style="stroke:#181818;stroke-width:0.5;" x1="8" x2="394.8447" y1="197.9811" y2="197.9811"/><text fill="#000000" font-family="sans-serif" font-size="14" lengthAdjust="spacing" textLength="376.8447" x="13" y="215.5163">+validarAutenticacao(tokenBearer): UsuarioAutenticado</text></g><!--class ServicoCotacaoAtivo--><g class="entity" data-qualified-name="ServicoCotacaoAtivo" data-source-line="8" id="ent0003"><rect fill="#F1F1F1" height="65.1094" rx="2.5" ry="2.5" style="stroke:#181818;stroke-width:0.5;" width="512.2266" x="431.31" y="157.36"/><ellipse cx="588.8647" cy="177.6705" fill="#ADD1B2" rx="11" ry="11" style="stroke:#181818;stroke-width:1;"/><path d="M591.3378,183.8136 Q590.7568,184.1124 590.1176,184.2619 Q589.4785,184.4113 588.7729,184.4113 Q586.2661,184.4113 584.9462,182.7594 Q583.6264,181.1076 583.6264,177.9865 Q583.6264,174.8571 584.9462,173.2052 Q586.2661,171.5534 588.7729,171.5534 Q589.4785,171.5534 590.1259,171.7028 Q590.7734,171.8522 591.3378,172.151 L591.3378,174.8737 Q590.707,174.2926 590.1135,174.0228 Q589.52,173.7531 588.8891,173.7531 Q587.5444,173.7531 586.8596,174.8197 Q586.1747,175.8864 586.1747,177.9865 Q586.1747,180.0783 586.8596,181.1449 Q587.5444,182.2116 588.8891,182.2116 Q589.52,182.2116 590.1135,181.9418 Q590.707,181.672 591.3378,181.091 Z " fill="#000000"/><text fill="#000000" font-family="sans-serif" font-size="12" font-style="italic" lengthAdjust="spacing" textLength="125.9883" x="640.6791" y="173.9616">&#171;Servi&#231;o de Entidade&#187;</text><text fill="#000000" font-family="sans-serif" font-size="14" lengthAdjust="spacing" textLength="188.6172" x="609.3647" y="190.028">Servi&#231;o de Cota&#231;&#227;o de Ativo</text><line style="stroke:#181818;stroke-width:0.5;" x1="432.31" x2="942.5366" y1="197.9811" y2="197.9811"/><text fill="#000000" font-family="sans-serif" font-size="14" lengthAdjust="spacing" textLength="500.2266" x="437.31" y="215.5163">+validarAtivoConsulta(tipoAtivo, simboloInformado): ConsultaAtivoValida</text></g><!--class ServicoCacheCotacoes--><g class="entity" data-qualified-name="ServicoCacheCotacoes" data-source-line="12" id="ent0004"><rect fill="#F1F1F1" height="81.5977" rx="2.5" ry="2.5" style="stroke:#181818;stroke-width:0.5;" width="426.3467" x="978.25" y="149.11"/><ellipse cx="1086.1177" cy="169.4205" fill="#ADD1B2" rx="11" ry="11" style="stroke:#181818;stroke-width:1;"/><path d="M1088.5908,175.5636 Q1088.0098,175.8624 1087.3706,176.0119 Q1086.7314,176.1613 1086.0259,176.1613 Q1083.519,176.1613 1082.1992,174.5094 Q1080.8794,172.8576 1080.8794,169.7365 Q1080.8794,166.6071 1082.1992,164.9552 Q1083.519,163.3034 1086.0259,163.3034 Q1086.7314,163.3034 1087.3789,163.4528 Q1088.0264,163.6022 1088.5908,163.901 L1088.5908,166.6237 Q1087.96,166.0426 1087.3665,165.7728 Q1086.7729,165.5031 1086.1421,165.5031 Q1084.7974,165.5031 1084.1125,166.5697 Q1083.4277,167.6364 1083.4277,169.7365 Q1083.4277,171.8283 1084.1125,172.8949 Q1084.7974,173.9616 1086.1421,173.9616 Q1086.7729,173.9616 1087.3665,173.6918 Q1087.96,173.422 1088.5908,172.841 Z " fill="#000000"/><text fill="#000000" font-family="sans-serif" font-size="12" font-style="italic" lengthAdjust="spacing" textLength="107.7012" x="1153.8228" y="165.7116">&#171;Servi&#231;o Utilit&#225;rio&#187;</text><text fill="#000000" font-family="sans-serif" font-size="14" lengthAdjust="spacing" textLength="202.1113" x="1106.6177" y="181.778">Servi&#231;o de Cache de Cota&#231;&#245;es</text><line style="stroke:#181818;stroke-width:0.5;" x1="979.25" x2="1403.5967" y1="189.7311" y2="189.7311"/><text fill="#000000" font-family="sans-serif" font-size="14" lengthAdjust="spacing" textLength="414.3467" x="984.25" y="207.2663">+consultarCotacaoCache(tipoAtivo, simbolo): CotacaoCache?</text><text fill="#000000" font-family="sans-serif" font-size="14" lengthAdjust="spacing" textLength="398.3506" x="984.25" y="223.7545">+atualizarCotacaoCache(tipoAtivo, simbolo, cotacao): void</text></g><!--class ServicoIntegracaoMercado--><g class="entity" data-qualified-name="ServicoIntegracaoMercado" data-source-line="17" id="ent0005"><rect fill="#F1F1F1" height="65.1094" rx="2.5" ry="2.5" style="stroke:#181818;stroke-width:0.5;" width="425.082" x="1439.88" y="157.36"/><ellipse cx="1478.1767" cy="177.6705" fill="#ADD1B2" rx="11" ry="11" style="stroke:#181818;stroke-width:1;"/><path d="M1480.6499,183.8136 Q1480.0688,184.1124 1479.4297,184.2619 Q1478.7905,184.4113 1478.0849,184.4113 Q1475.5781,184.4113 1474.2583,182.7594 Q1472.9384,181.1076 1472.9384,177.9865 Q1472.9384,174.8571 1474.2583,173.2052 Q1475.5781,171.5534 1478.0849,171.5534 Q1478.7905,171.5534 1479.438,171.7028 Q1480.0854,171.8522 1480.6499,172.151 L1480.6499,174.8737 Q1480.019,174.2926 1479.4255,174.0228 Q1478.832,173.7531 1478.2011,173.7531 Q1476.8564,173.7531 1476.1716,174.8197 Q1475.4868,175.8864 1475.4868,177.9865 Q1475.4868,180.0783 1476.1716,181.1449 Q1476.8564,182.2116 1478.2011,182.2116 Q1478.832,182.2116 1479.4255,181.9418 Q1480.019,181.672 1480.6499,181.091 Z " fill="#000000"/><text fill="#000000" font-family="sans-serif" font-size="12" font-style="italic" lengthAdjust="spacing" textLength="107.7012" x="1614.159" y="173.9616">&#171;Servi&#231;o Utilit&#225;rio&#187;</text><text fill="#000000" font-family="sans-serif" font-size="14" lengthAdjust="spacing" textLength="341.3115" x="1497.3538" y="190.028">Servi&#231;o de Integra&#231;&#227;o com Provedores de Mercado</text><line style="stroke:#181818;stroke-width:0.5;" x1="1440.88" x2="1863.962" y1="197.9811" y2="197.9811"/><text fill="#000000" font-family="sans-serif" font-size="14" lengthAdjust="spacing" textLength="413.082" x="1445.88" y="215.5163">+consultarCotacaoExterna(tipoAtivo, simbolo): CotacaoBruta</text></g><!--class ServicoConsultaCotacao--><g class="entity" data-qualified-name="ServicoConsultaCotacao" data-source-line="21" id="ent0006"><rect fill="#F1F1F1" height="65.1094" rx="2.5" ry="2.5" style="stroke:#181818;stroke-width:0.5;" width="493.4961" x="692.67" y="7"/><ellipse cx="828.3463" cy="27.3105" fill="#ADD1B2" rx="11" ry="11" style="stroke:#181818;stroke-width:1;"/><path d="M830.8194,33.4536 Q830.2384,33.7524 829.5992,33.9019 Q828.96,34.0513 828.2545,34.0513 Q825.7476,34.0513 824.4278,32.3994 Q823.108,30.7476 823.108,27.6265 Q823.108,24.4971 824.4278,22.8452 Q825.7476,21.1934 828.2545,21.1934 Q828.96,21.1934 829.6075,21.3428 Q830.255,21.4922 830.8194,21.791 L830.8194,24.5137 Q830.1886,23.9326 829.595,23.6628 Q829.0015,23.3931 828.3707,23.3931 Q827.026,23.3931 826.3411,24.4597 Q825.6563,25.5264 825.6563,27.6265 Q825.6563,29.7183 826.3411,30.7849 Q827.026,31.8516 828.3707,31.8516 Q829.0015,31.8516 829.595,31.5818 Q830.1886,31.312 830.8194,30.731 Z " fill="#000000"/><text fill="#000000" font-family="sans-serif" font-size="12" font-style="italic" lengthAdjust="spacing" textLength="112.5117" x="899.4122" y="23.6016">&#171;Servi&#231;o de Tarefa&#187;</text><text fill="#000000" font-family="sans-serif" font-size="14" lengthAdjust="spacing" textLength="213.6436" x="848.8463" y="39.668">Servi&#231;o de Consulta de Cota&#231;&#227;o</text><line style="stroke:#181818;stroke-width:0.5;" x1="693.67" x2="1185.1661" y1="47.6211" y2="47.6211"/><text fill="#000000" font-family="sans-serif" font-size="14" lengthAdjust="spacing" textLength="481.4961" x="698.67" y="65.1563">+consultarCotacaoAtivo(tipoAtivo, simbolo, tokenBearer): CotacaoDTO</text></g><!--link ServicoConsultaCotacao to ServicoAutenticacao--><g class="link" data-entity-1="ent0006" data-entity-2="ent0002" data-link-type="dependency" data-source-line="25" id="lnk7"><path codeLine="25" d="M780.2,72.57 C656.15,97.5 490.6223,130.7775 366.5623,155.7175" fill="none" id="ServicoConsultaCotacao-to-ServicoAutenticacao" style="stroke:#181818;stroke-width:1;stroke-dasharray:7,7;"/><polygon fill="#181818" points="360.68,156.9,370.2918,159.0477,365.5819,155.9146,368.7151,151.2047,360.68,156.9" style="stroke:#181818;stroke-width:1;"/><text fill="#000000" font-family="sans-serif" font-size="13" lengthAdjust="spacing" textLength="87.9023" x="615.61" y="115.6784">valida usu&#225;rio</text></g><!--link ServicoConsultaCotacao to ServicoCotacaoAtivo--><g class="link" data-entity-1="ent0006" data-entity-2="ent0003" data-link-type="dependency" data-source-line="26" id="lnk8"><path codeLine="26" d="M885.05,72.57 C842.66,97.52 789.2307,128.9764 746.8607,153.9164" fill="none" id="ServicoConsultaCotacao-to-ServicoCotacaoAtivo" style="stroke:#181818;stroke-width:1;stroke-dasharray:7,7;"/><polygon fill="#181818" points="741.69,156.96,751.4752,155.8417,745.9989,154.4237,747.417,148.9474,741.69,156.96" style="stroke:#181818;stroke-width:1;"/><text fill="#000000" font-family="sans-serif" font-size="13" lengthAdjust="spacing" textLength="71.4111" x="829.51" y="115.6784">valida ativo</text></g><!--link ServicoConsultaCotacao to ServicoCacheCotacoes--><g class="link" data-entity-1="ent0006" data-entity-2="ent0004" data-link-type="dependency" data-source-line="27" id="lnk9"><path codeLine="27" d="M993.79,72.57 C1031.7,94.88 1077.3892,121.7865 1118.0292,145.7065" fill="none" id="ServicoConsultaCotacao-to-ServicoCacheCotacoes" style="stroke:#181818;stroke-width:1;stroke-dasharray:7,7;"/><polygon fill="#181818" points="1123.2,148.75,1117.4727,140.7376,1118.891,146.2138,1113.4148,147.632,1123.2,148.75" style="stroke:#181818;stroke-width:1;"/><text fill="#000000" font-family="sans-serif" font-size="13" lengthAdjust="spacing" textLength="149.3794" x="1066.42" y="115.6784">consulta/atualiza cache</text></g><!--link ServicoConsultaCotacao to ServicoIntegracaoMercado--><g class="link" data-entity-1="ent0006" data-entity-2="ent0005" data-link-type="dependency" data-source-line="28" id="lnk10"><path codeLine="28" d="M1093.25,72.57 C1213.1,97.5 1372.8258,130.7377 1492.6858,155.6777" fill="none" id="ServicoConsultaCotacao-to-ServicoIntegracaoMercado" style="stroke:#181818;stroke-width:1;stroke-dasharray:7,7;"/><polygon fill="#181818" points="1498.56,156.9,1490.5636,151.1505,1493.6648,155.8814,1488.9339,158.9827,1498.56,156.9" style="stroke:#181818;stroke-width:1;"/><text fill="#000000" font-family="sans-serif" font-size="13" lengthAdjust="spacing" textLength="145.0313" x="1296.92" y="115.6784">obt&#233;m cota&#231;&#227;o externa</text></g><?plantuml-src bPD1JiCm44NtESM8LH48M5Ue24eNNI2G2kodpXGiaanbJo8euZ281U80d20Nmt7SqD06oZAP_yTlFD_sGMTpD9Y2Ij3QKn6ZfxdGM74sqGk2e-XUnmIKpkK9KagdP6mKUJ7iJCWKkdndS8fJvyf4AopVopVU0RJWougRYaA6u-F6T2CwqLA-6is30Jn707jGOA9ZDAkMdl03PMU4Xink7sviZixHA6AENZO23Lbg5aydkcX1LLNNtFzVXNBQaUiROqnhK9Lso9dD4y6Uw7djtWUhqoadFCvcR587v2YNCg-uzVukJ5JtjCBxIRR5MPKzB9Fzw_PKEDM4wRnv0wa7_5QSU3DAxZWNVvhttJ5UuBeKhEEEkSQPq9q96r2SmfNXWc8sRWnNlY1JxMvrrE1mdKFnl-EE7eLCXhyEV6PowLn5wDTAJpiqjI3q-f6RQvVG6NRIUQADzzaEU92VNrzMc1qd7nmCDZwlVWWhv3RtbxL5WzPJQ1fWzRcDknNGVZFsuJ9Fe2h55ftMzzy7dahvaVh4rKcYUiTV?></g></svg>