<?plantuml 1.2026.2?><svg xmlns="http://www.w3.org/2000/svg" xmlns:xlink="http://www.w3.org/1999/xlink" contentStyleType="text/css" data-diagram-type="CLASS" height="840px" preserveAspectRatio="none" style="width:1164px;height:840px;background:#FFFFFF;" version="1.1" viewBox="0 0 1164 840" width="1164px" zoomAndPan="magnify"><defs/><g><!--class ServicoAutenticacao--><g class="entity" data-qualified-name="ServicoAutenticacao" data-source-line="5" id="ent0002"><rect fill="#F1F1F1" height="114.5742" rx="2.5" ry="2.5" style="stroke:#181818;stroke-width:0.5;" width="414.0488" x="7" y="165.6"/><ellipse cx="129.0933" cy="185.9105" fill="#ADD1B2" rx="11" ry="11" style="stroke:#181818;stroke-width:1;"/><path d="M131.5664,192.0536 Q130.9854,192.3524 130.3462,192.5019 Q129.707,192.6513 129.0015,192.6513 Q126.4946,192.6513 125.1748,190.9994 Q123.855,189.3476 123.855,186.2265 Q123.855,183.0971 125.1748,181.4452 Q126.4946,179.7934 129.0015,179.7934 Q129.707,179.7934 130.3545,179.9428 Q131.002,180.0922 131.5664,180.391 L131.5664,183.1137 Q130.9355,182.5326 130.342,182.2628 Q129.7485,181.9931 129.1177,181.9931 Q127.7729,181.9931 127.0881,183.0597 Q126.4033,184.1264 126.4033,186.2265 Q126.4033,188.3183 127.0881,189.3849 Q127.7729,190.4516 129.1177,190.4516 Q129.7485,190.4516 130.342,190.1818 Q130.9355,189.912 131.5664,189.331 Z " fill="#000000"/><text fill="#000000" font-family="sans-serif" font-size="12" font-style="italic" lengthAdjust="spacing" textLength="107.7012" x="176.4238" y="182.2016">&#171;Servi&#231;o Utilit&#225;rio&#187;</text><text fill="#000000" font-family="sans-serif" font-size="14" lengthAdjust="spacing" textLength="161.3623" x="149.5933" y="198.268">Servi&#231;o de Autentica&#231;&#227;o</text><line style="stroke:#181818;stroke-width:0.5;" x1="8" x2="420.0488" y1="206.2211" y2="206.2211"/><text fill="#000000" font-family="sans-serif" font-size="14" lengthAdjust="spacing" textLength="402.0488" x="13" y="223.7563">+realizarCadastro(nome, email, senha): UsuarioCadastrado</text><text fill="#000000" font-family="sans-serif" font-size="14" lengthAdjust="spacing" textLength="270.3682" x="13" y="240.2445">+realizarLogin(email, senha): TokenJWT</text><text fill="#000000" font-family="sans-serif" font-size="14" lengthAdjust="spacing" textLength="376.8447" x="13" y="256.7328">+validarAutenticacao(tokenBearer): UsuarioAutenticado</text><text fill="#000000" font-family="sans-serif" font-size="14" lengthAdjust="spacing" textLength="375.9355" x="13" y="273.2211">+permitirAcesso(usuarioAutenticado): AcessoPermitido</text></g><!--class ServicoCotacaoAtivo--><g class="entity" data-qualified-name="ServicoCotacaoAtivo" data-source-line="12" id="ent0003"><rect fill="#F1F1F1" height="65.1094" rx="2.5" ry="2.5" style="stroke:#181818;stroke-width:0.5;" width="512.2266" x="51.91" y="357.17"/><ellipse cx="209.4647" cy="377.4805" fill="#ADD1B2" rx="11" ry="11" style="stroke:#181818;stroke-width:1;"/><path d="M211.9378,383.6236 Q211.3568,383.9224 210.7176,384.0719 Q210.0785,384.2213 209.3729,384.2213 Q206.8661,384.2213 205.5462,382.5694 Q204.2264,380.9176 204.2264,377.7965 Q204.2264,374.6671 205.5462,373.0152 Q206.8661,371.3634 209.3729,371.3634 Q210.0785,371.3634 210.7259,371.5128 Q211.3734,371.6622 211.9378,371.961 L211.9378,374.6837 Q211.307,374.1026 210.7135,373.8328 Q210.12,373.5631 209.4891,373.5631 Q208.1444,373.5631 207.4596,374.6297 Q206.7747,375.6964 206.7747,377.7965 Q206.7747,379.8883 207.4596,380.9549 Q208.1444,382.0216 209.4891,382.0216 Q210.12,382.0216 210.7135,381.7518 Q211.307,381.482 211.9378,380.901 Z " fill="#000000"/><text fill="#000000" font-family="sans-serif" font-size="12" font-style="italic" lengthAdjust="spacing" textLength="125.9883" x="261.2791" y="373.7716">&#171;Servi&#231;o de Entidade&#187;</text><text fill="#000000" font-family="sans-serif" font-size="14" lengthAdjust="spacing" textLength="188.6172" x="229.9647" y="389.838">Servi&#231;o de Cota&#231;&#227;o de Ativo</text><line style="stroke:#181818;stroke-width:0.5;" x1="52.91" x2="563.1366" y1="397.7911" y2="397.7911"/><text fill="#000000" font-family="sans-serif" font-size="14" lengthAdjust="spacing" textLength="500.2266" x="57.91" y="415.3263">+validarAtivoConsulta(tipoAtivo, simboloInformado): ConsultaAtivoValida</text></g><!--class ServicoCacheCotacoes--><g class="entity" data-qualified-name="ServicoCacheCotacoes" data-source-line="16" id="ent0004"><rect fill="#F1F1F1" height="81.5977" rx="2.5" ry="2.5" style="stroke:#181818;stroke-width:0.5;" width="426.3467" x="311.85" y="499.28"/><ellipse cx="419.7177" cy="519.5905" fill="#ADD1B2" rx="11" ry="11" style="stroke:#181818;stroke-width:1;"/><path d="M422.1908,525.7336 Q421.6098,526.0324 420.9706,526.1819 Q420.3314,526.3313 419.6259,526.3313 Q417.119,526.3313 415.7992,524.6794 Q414.4794,523.0276 414.4794,519.9065 Q414.4794,516.7771 415.7992,515.1252 Q417.119,513.4734 419.6259,513.4734 Q420.3314,513.4734 420.9789,513.6228 Q421.6264,513.7722 422.1908,514.071 L422.1908,516.7937 Q421.56,516.2126 420.9665,515.9428 Q420.3729,515.6731 419.7421,515.6731 Q418.3974,515.6731 417.7125,516.7397 Q417.0277,517.8064 417.0277,519.9065 Q417.0277,521.9983 417.7125,523.0649 Q418.3974,524.1316 419.7421,524.1316 Q420.3729,524.1316 420.9665,523.8618 Q421.56,523.592 422.1908,523.011 Z " fill="#000000"/><text fill="#000000" font-family="sans-serif" font-size="12" font-style="italic" lengthAdjust="spacing" textLength="107.7012" x="487.4228" y="515.8816">&#171;Servi&#231;o Utilit&#225;rio&#187;</text><text fill="#000000" font-family="sans-serif" font-size="14" lengthAdjust="spacing" textLength="202.1113" x="440.2177" y="531.948">Servi&#231;o de Cache de Cota&#231;&#245;es</text><line style="stroke:#181818;stroke-width:0.5;" x1="312.85" x2="737.1967" y1="539.9011" y2="539.9011"/><text fill="#000000" font-family="sans-serif" font-size="14" lengthAdjust="spacing" textLength="414.3467" x="317.85" y="557.4363">+consultarCotacaoCache(tipoAtivo, simbolo): CotacaoCache?</text><text fill="#000000" font-family="sans-serif" font-size="14" lengthAdjust="spacing" textLength="398.3506" x="317.85" y="573.9245">+atualizarCotacaoCache(tipoAtivo, simbolo, cotacao): void</text></g><!--class ServicoIntegracaoMercado--><g class="entity" data-qualified-name="ServicoIntegracaoMercado" data-source-line="21" id="ent0005"><rect fill="#F1F1F1" height="65.1094" rx="2.5" ry="2.5" style="stroke:#181818;stroke-width:0.5;" width="425.082" x="512.48" y="641.88"/><ellipse cx="550.7767" cy="662.1905" fill="#ADD1B2" rx="11" ry="11" style="stroke:#181818;stroke-width:1;"/><path d="M553.2499,668.3336 Q552.6688,668.6324 552.0297,668.7819 Q551.3905,668.9313 550.6849,668.9313 Q548.1781,668.9313 546.8583,667.2794 Q545.5384,665.6276 545.5384,662.5065 Q545.5384,659.3771 546.8583,657.7252 Q548.1781,656.0734 550.6849,656.0734 Q551.3905,656.0734 552.038,656.2228 Q552.6854,656.3722 553.2499,656.671 L553.2499,659.3937 Q552.619,658.8126 552.0255,658.5428 Q551.432,658.2731 550.8011,658.2731 Q549.4564,658.2731 548.7716,659.3397 Q548.0868,660.4064 548.0868,662.5065 Q548.0868,664.5983 548.7716,665.6649 Q549.4564,666.7316 550.8011,666.7316 Q551.432,666.7316 552.0255,666.4618 Q552.619,666.192 553.2499,665.611 Z " fill="#000000"/><text fill="#000000" font-family="sans-serif" font-size="12" font-style="italic" lengthAdjust="spacing" textLength="107.7012" x="686.759" y="658.4816">&#171;Servi&#231;o Utilit&#225;rio&#187;</text><text fill="#000000" font-family="sans-serif" font-size="14" lengthAdjust="spacing" textLength="341.3115" x="569.9538" y="674.548">Servi&#231;o de Integra&#231;&#227;o com Provedores de Mercado</text><line style="stroke:#181818;stroke-width:0.5;" x1="513.48" x2="936.562" y1="682.5011" y2="682.5011"/><text fill="#000000" font-family="sans-serif" font-size="14" lengthAdjust="spacing" textLength="413.082" x="518.48" y="700.0363">+consultarCotacaoExterna(tipoAtivo, simbolo): CotacaoBruta</text></g><!--class ServicoRespostaErro--><g class="entity" data-qualified-name="ServicoRespostaErro" data-source-line="25" id="ent0006"><rect fill="#F1F1F1" height="65.1094" rx="2.5" ry="2.5" style="stroke:#181818;stroke-width:0.5;" width="398.1416" x="658.95" y="767.99"/><ellipse cx="759.7596" cy="788.3005" fill="#ADD1B2" rx="11" ry="11" style="stroke:#181818;stroke-width:1;"/><path d="M762.2327,794.4436 Q761.6517,794.7424 761.0125,794.8919 Q760.3733,795.0413 759.6678,795.0413 Q757.1609,795.0413 755.8411,793.3894 Q754.5213,791.7376 754.5213,788.6165 Q754.5213,785.4871 755.8411,783.8352 Q757.1609,782.1834 759.6678,782.1834 Q760.3733,782.1834 761.0208,782.3328 Q761.6683,782.4822 762.2327,782.781 L762.2327,785.5037 Q761.6019,784.9226 761.0083,784.6528 Q760.4148,784.3831 759.784,784.3831 Q758.4393,784.3831 757.7544,785.4497 Q757.0696,786.5164 757.0696,788.6165 Q757.0696,790.7083 757.7544,791.7749 Q758.4393,792.8416 759.784,792.8416 Q760.4148,792.8416 761.0083,792.5718 Q761.6019,792.302 762.2327,791.721 Z " fill="#000000"/><text fill="#000000" font-family="sans-serif" font-size="12" font-style="italic" lengthAdjust="spacing" textLength="107.7012" x="820.4202" y="784.5916">&#171;Servi&#231;o Utilit&#225;rio&#187;</text><text fill="#000000" font-family="sans-serif" font-size="14" lengthAdjust="spacing" textLength="188.0225" x="780.2596" y="800.658">Servi&#231;o de Resposta de Erro</text><line style="stroke:#181818;stroke-width:0.5;" x1="659.95" x2="1056.0916" y1="808.6111" y2="808.6111"/><text fill="#000000" font-family="sans-serif" font-size="14" lengthAdjust="spacing" textLength="386.1416" x="664.95" y="826.1463">+retornarErroConsulta(codigoErro, mensagem): ErroDTO</text></g><!--class ServicoConsultaCotacao--><g class="entity" data-qualified-name="ServicoConsultaCotacao" data-source-line="29" id="ent0007"><rect fill="#F1F1F1" height="81.5977" rx="2.5" ry="2.5" style="stroke:#181818;stroke-width:0.5;" width="640.6738" x="296.69" y="7"/><ellipse cx="505.9551" cy="27.3105" fill="#ADD1B2" rx="11" ry="11" style="stroke:#181818;stroke-width:1;"/><path d="M508.4283,33.4536 Q507.8472,33.7524 507.2081,33.9019 Q506.5689,34.0513 505.8633,34.0513 Q503.3565,34.0513 502.0367,32.3994 Q500.7169,30.7476 500.7169,27.6265 Q500.7169,24.4971 502.0367,22.8452 Q503.3565,21.1934 505.8633,21.1934 Q506.5689,21.1934 507.2164,21.3428 Q507.8638,21.4922 508.4283,21.791 L508.4283,24.5137 Q507.7974,23.9326 507.2039,23.6628 Q506.6104,23.3931 505.9796,23.3931 Q504.6348,23.3931 503.95,24.4597 Q503.2652,25.5264 503.2652,27.6265 Q503.2652,29.7183 503.95,30.7849 Q504.6348,31.8516 505.9796,31.8516 Q506.6104,31.8516 507.2039,31.5818 Q507.7974,31.312 508.4283,30.731 Z " fill="#000000"/><text fill="#000000" font-family="sans-serif" font-size="12" font-style="italic" lengthAdjust="spacing" textLength="112.5117" x="577.0211" y="23.6016">&#171;Servi&#231;o de Tarefa&#187;</text><text fill="#000000" font-family="sans-serif" font-size="14" lengthAdjust="spacing" textLength="213.6436" x="526.4551" y="39.668">Servi&#231;o de Consulta de Cota&#231;&#227;o</text><line style="stroke:#181818;stroke-width:0.5;" x1="297.69" x2="936.3638" y1="47.6211" y2="47.6211"/><text fill="#000000" font-family="sans-serif" font-size="14" lengthAdjust="spacing" textLength="628.6738" x="302.69" y="65.1563">+receberSolicitacaoConsulta(tipoAtivo, simboloInformado, tokenBearer): SolicitacaoConsulta</text><text fill="#000000" font-family="sans-serif" font-size="14" lengthAdjust="spacing" textLength="481.4961" x="302.69" y="81.6445">+consultarCotacaoAtivo(tipoAtivo, simbolo, tokenBearer): CotacaoDTO</text></g><!--link ServicoConsultaCotacao to ServicoAutenticacao--><g class="link" data-entity-1="ent0007" data-entity-2="ent0002" data-link-type="dependency" data-source-line="34" id="lnk8"><path codeLine="34" d="M344.2,89 C324.09,97.17 304.76,106.93 287.02,118.6 C269.32,130.25 257.9022,142.7871 246.4222,160.1271" fill="none" id="ServicoConsultaCotacao-to-ServicoAutenticacao" style="stroke:#181818;stroke-width:1;stroke-dasharray:7,7;"/><polygon fill="#181818" points="243.11,165.13,251.4136,159.8337,245.8702,160.9609,244.743,155.4175,243.11,165.13" style="stroke:#181818;stroke-width:1;"/><text fill="#000000" font-family="sans-serif" font-size="13" lengthAdjust="spacing" textLength="176.2681" x="288.02" y="132.1684">autentica e autoriza usu&#225;rio</text></g><!--link ServicoConsultaCotacao to ServicoCotacaoAtivo--><g class="link" data-entity-1="ent0007" data-entity-2="ent0003" data-link-type="dependency" data-source-line="35" id="lnk9"><path codeLine="35" d="M581.19,89.06 C561.91,111.21 538.06,139.43 518.02,165.6 C480.43,214.71 480.79,234.55 439.02,280.17 C412.9,308.72 383.9843,332.836 357.3143,353.136" fill="none" id="ServicoConsultaCotacao-to-ServicoCotacaoAtivo" style="stroke:#181818;stroke-width:1;stroke-dasharray:7,7;"/><polygon fill="#181818" points="352.54,356.77,362.1241,354.5019,356.5186,353.7417,357.2788,348.1361,352.54,356.77" style="stroke:#181818;stroke-width:1;"/><text fill="#000000" font-family="sans-serif" font-size="13" lengthAdjust="spacing" textLength="71.4111" x="519.02" y="227.9584">valida ativo</text></g><!--link ServicoConsultaCotacao to ServicoCacheCotacoes--><g class="link" data-entity-1="ent0007" data-entity-2="ent0004" data-link-type="dependency" data-source-line="36" id="lnk10"><path codeLine="36" d="M617.93,88.91 C618.48,158.24 615.12,304.41 582.02,422.28 C574.52,449 563.945,471.7436 551.995,493.6336" fill="none" id="ServicoConsultaCotacao-to-ServicoCacheCotacoes" style="stroke:#181818;stroke-width:1;stroke-dasharray:7,7;"/><polygon fill="#181818" points="549.12,498.9,556.9434,492.9171,551.5158,494.5114,549.9215,489.0838,549.12,498.9" style="stroke:#181818;stroke-width:1;"/><text fill="#000000" font-family="sans-serif" font-size="13" lengthAdjust="spacing" textLength="149.3794" x="605.12" y="323.7384">consulta/atualiza cache</text></g><!--link ServicoConsultaCotacao to ServicoIntegracaoMercado--><g class="link" data-entity-1="ent0007" data-entity-2="ent0005" data-link-type="dependency" data-source-line="37" id="lnk11"><path codeLine="37" d="M695.88,89.04 C741.92,118.71 791.02,163.94 791.02,221.89 C791.02,221.89 791.02,221.89 791.02,541.08 C791.02,578.44 773.2072,611.2218 754.8072,636.7618" fill="none" id="ServicoConsultaCotacao-to-ServicoIntegracaoMercado" style="stroke:#181818;stroke-width:1;stroke-dasharray:7,7;"/><polygon fill="#181818" points="751.3,641.63,759.8063,636.6659,754.2227,637.5732,753.3154,631.9896,751.3,641.63" style="stroke:#181818;stroke-width:1;"/><text fill="#000000" font-family="sans-serif" font-size="13" lengthAdjust="spacing" textLength="145.0313" x="792.02" y="394.7984">obt&#233;m cota&#231;&#227;o externa</text></g><!--link ServicoConsultaCotacao to ServicoRespostaErro--><g class="link" data-entity-1="ent0007" data-entity-2="ent0006" data-link-type="dependency" data-source-line="38" id="lnk12"><path codeLine="38" d="M878.81,89.03 C941.67,114.31 991.02,155.35 991.02,221.89 C991.02,221.89 991.02,221.89 991.02,675.44 C991.02,715.7 963.1035,743.4469 929.9835,764.3569" fill="none" id="ServicoConsultaCotacao-to-ServicoRespostaErro" style="stroke:#181818;stroke-width:1;stroke-dasharray:7,7;"/><polygon fill="#181818" points="924.91,767.56,934.6556,766.1377,929.1379,764.8908,930.3848,759.373,924.91,767.56" style="stroke:#181818;stroke-width:1;"/><text fill="#000000" font-family="sans-serif" font-size="13" lengthAdjust="spacing" textLength="164.4741" x="992.02" y="465.8484">retorna falhas da consulta</text></g><!--link ServicoAutenticacao to ServicoCotacaoAtivo--><!--link ServicoCotacaoAtivo to ServicoCacheCotacoes--><!--link ServicoCacheCotacoes to ServicoIntegracaoMercado--><!--link ServicoIntegracaoMercado to ServicoRespostaErro--><?plantuml-src bLNDRXD13BxlKunw2Y8jdAEgA2qz586eQ0e7nC6PTPDHTyUHnmbGnCCW3XKFm1FanV3E_dIttMt3BJl-Fe_z-VCaN3k_0eRSs0n2c8gmcwy5popv2tU3vcMoT2aQp5VotUIOpv538hGoGcPE8fIRr35QSUIJ92OnUnV86xUz9QFCgMRpuYniRxU_QSz0C35igObO87Dus90knMLEjh_OqT6H-P4OyzmmGkPkW4yWXI1C8qyvZhKiSDdO1FHBU3Onbs4Dogf0a5A7-vOMpe_kKMPqZVxDfrb4RXIO0hSB6qa1E4PWvBiR6aHrnGevT-9uQZ446gqVe9HQnivBfF9-zifrGb8g5RKJj-b8LaIrg7ZUbaonftfJ2YasajND5DWJyc6T2Op4hKgsAk3oEMLqvg-8yxB46XOH7oD_g4omIspL-nT3fyuY78ib34_DrbQtSjLT9FTK6WkyGxoAP91rvOp7oMEz9W8qouPSEj3NcHTSS3K1g-O-PzfWIgnjQFWTSZ7DTgiLGpDNmVzjz_IR87jujE5ZNilGA3vWM54GY2PWxXHNnuhpfrTCIElW0jlunLBg5bGSZNNxVO05vbfMSV1wzdxGmoMxu-UkZKj0rTqz9yzqrwwWLPT5VNKkA7FMbJFUmSrZqrtS7dhlD6AwNlzqyrNmIeI1lWuEZdeVkuc1-jDWyPjOBMpqsOWZsI5Tvo6OLBkkow2Vkx0xwpbfH7XHRvEn1MA7J0_TFp4qb-sVFEvRkKTOEdo7T1s_JcfBcYl8bkeUxR2kj96ye-l-P_spIj5_IUcht-yLA-aJS8ZNbYdfrMw0-K2MP52lWGnj9Vu1?></g></svg>