<?plantuml 1.2026.1?><svg xmlns="http://www.w3.org/2000/svg" xmlns:xlink="http://www.w3.org/1999/xlink" contentStyleType="text/css" data-diagram-type="DESCRIPTION" height="1214px" preserveAspectRatio="none" style="width:637px;height:1214px;background:#FFFFFF;" version="1.1" viewBox="0 0 637 1214" width="637px" zoomAndPan="magnify"><defs/><g><!--cluster Sistema FINTA--><g class="cluster" data-qualified-name="Sistema FINTA" data-source-line="11" id="ent0006"><rect fill="none" height="1190" rx="2.5" ry="2.5" style="stroke:#181818;stroke-width:1;" width="290.48" x="340.81" y="7"/><text fill="#000000" font-family="sans-serif" font-size="14" font-weight="bold" lengthAdjust="spacing" textLength="104.1729" x="433.9636" y="22.5352">Sistema FINTA</text></g><!--entity UC1--><g class="entity" data-qualified-name="Sistema FINTA.UC1" data-source-line="12" id="ent0007"><ellipse cx="486.0489" cy="718.9978" fill="#F1F1F1" rx="111.5889" ry="24.7178" style="stroke:#181818;stroke-width:0.5;"/><text fill="#000000" font-family="sans-serif" font-size="14" lengthAdjust="spacing" textLength="200.9219" x="385.5879" y="723.7419">Acessar dashboard financeiro</text></g><!--entity UC2--><g class="entity" data-qualified-name="Sistema FINTA.UC2" data-source-line="13" id="ent0008"><ellipse cx="486.0469" cy="531.9974" fill="#F1F1F1" rx="108.2869" ry="24.0574" style="stroke:#181818;stroke-width:0.5;"/><text fill="#000000" font-family="sans-serif" font-size="14" lengthAdjust="spacing" textLength="193.7646" x="389.1646" y="536.7415">Visualizar saldo consolidado</text></g><!--entity UC3--><g class="entity" data-qualified-name="Sistema FINTA.UC3" data-source-line="14" id="ent0009"><ellipse cx="486.0456" cy="616.9985" fill="#F1F1F1" rx="104.6956" ry="25.4985" style="stroke:#181818;stroke-width:0.5;"/><text fill="#000000" font-family="sans-serif" font-size="14" lengthAdjust="spacing" textLength="149.0576" x="411.5168" y="614.6793">Visualizar detalhes de</text><text fill="#000000" font-family="sans-serif" font-size="14" lengthAdjust="spacing" textLength="125.9111" x="423.0901" y="631.1676">indicadores/ativos</text></g><!--entity UC4--><g class="entity" data-qualified-name="Sistema FINTA.UC4" data-source-line="15" id="ent0010"><ellipse cx="486.0543" cy="454.9969" fill="#F1F1F1" rx="77.8843" ry="17.9769" style="stroke:#181818;stroke-width:0.5;"/><text fill="#000000" font-family="sans-serif" font-size="14" lengthAdjust="spacing" textLength="125.0361" x="423.5362" y="459.741">Autenticar usu&#225;rio</text></g><!--entity UC5--><g class="entity" data-qualified-name="Sistema FINTA.UC5" data-source-line="16" id="ent0011"><ellipse cx="486.0474" cy="157.9975" fill="#F1F1F1" rx="122.9874" ry="26.9975" style="stroke:#181818;stroke-width:0.5;"/><text fill="#000000" font-family="sans-serif" font-size="14" lengthAdjust="spacing" textLength="172.874" x="399.6104" y="154.3417">Exibir aviso de seguran&#231;a</text><text fill="#000000" font-family="sans-serif" font-size="14" lengthAdjust="spacing" textLength="175.8203" x="398.1372" y="170.83">(ap&#243;s tentativas inv&#225;lidas)</text></g><!--entity UC6--><g class="entity" data-qualified-name="Sistema FINTA.UC6" data-source-line="17" id="ent0012"><ellipse cx="486.0462" cy="896.9952" fill="#F1F1F1" rx="79.4262" ry="18.2852" style="stroke:#181818;stroke-width:0.5;"/><text fill="#000000" font-family="sans-serif" font-size="14" lengthAdjust="spacing" textLength="128.7139" x="421.6892" y="901.7394">Gerenciar favoritos</text></g><!--entity UC7--><g class="entity" data-qualified-name="Sistema FINTA.UC7" data-source-line="18" id="ent0013"><ellipse cx="486.0488" cy="802.9998" fill="#F1F1F1" rx="108.1988" ry="24.0398" style="stroke:#181818;stroke-width:0.5;"/><text fill="#000000" font-family="sans-serif" font-size="14" lengthAdjust="spacing" textLength="193.5732" x="389.2622" y="807.7439">Adicionar ativo aos favoritos</text></g><!--entity UC8--><g class="entity" data-qualified-name="Sistema FINTA.UC8" data-source-line="19" id="ent0014"><ellipse cx="486.047" cy="1154.9953" fill="#F1F1F1" rx="101.477" ry="26.0653" style="stroke:#181818;stroke-width:0.5;"/><text fill="#000000" font-family="sans-serif" font-size="14" lengthAdjust="spacing" textLength="134.5176" x="418.7882" y="1151.136">Listar favoritos com</text><text fill="#000000" font-family="sans-serif" font-size="14" lengthAdjust="spacing" textLength="140.793" x="415.6505" y="1167.6243">cota&#231;&#245;es atualizadas</text></g><!--entity UC9--><g class="entity" data-qualified-name="Sistema FINTA.UC9" data-source-line="20" id="ent0015"><ellipse cx="486.0455" cy="978.9971" fill="#F1F1F1" rx="129.2355" ry="28.2471" style="stroke:#181818;stroke-width:0.5;"/><text fill="#000000" font-family="sans-serif" font-size="14" lengthAdjust="spacing" textLength="232.4014" x="369.8449" y="982.1207">Consultar cota&#231;&#245;es em tempo real</text><text fill="#000000" font-family="sans-serif" font-size="14" lengthAdjust="spacing" textLength="101.6162" x="435.2374" y="998.609">(a&#231;&#245;es/criptos)</text></g><!--entity UC10--><g class="entity" data-qualified-name="Sistema FINTA.UC10" data-source-line="21" id="ent0016"><ellipse cx="486.0537" cy="1068.0047" fill="#F1F1F1" rx="115.4737" ry="25.4947" style="stroke:#181818;stroke-width:0.5;"/><text fill="#000000" font-family="sans-serif" font-size="14" lengthAdjust="spacing" textLength="209.2959" x="381.4058" y="1072.7489">Visualizar taxa Selic atualizada</text></g><!--entity UC11--><g class="entity" data-qualified-name="Sistema FINTA.UC11" data-source-line="22" id="ent0017"><ellipse cx="486.0511" cy="374.9982" fill="#F1F1F1" rx="125.1911" ry="27.4382" style="stroke:#181818;stroke-width:0.5;"/><text fill="#000000" font-family="sans-serif" font-size="14" lengthAdjust="spacing" textLength="230.0566" x="371.0228" y="379.7424">Comparar taxas de financiamento</text></g><!--entity UC12--><g class="entity" data-qualified-name="Sistema FINTA.UC12" data-source-line="23" id="ent0018"><ellipse cx="486.0535" cy="69.0007" fill="#F1F1F1" rx="122.6035" ry="26.9207" style="stroke:#181818;stroke-width:0.5;"/><text fill="#000000" font-family="sans-serif" font-size="14" lengthAdjust="spacing" textLength="189.3623" x="391.3724" y="67.3733">Simular financiamento e ver</text><text fill="#000000" font-family="sans-serif" font-size="14" lengthAdjust="spacing" textLength="153.3232" x="409.3919" y="83.8615">detalhamento de juros</text></g><!--entity U--><g class="entity" data-qualified-name="U" data-source-line="6" id="ent0002"><ellipse cx="119.9059" cy="277.26" fill="#F1F1F1" rx="8" ry="8" style="stroke:#181818;stroke-width:0.5;"/><path d="M119.9059,285.26 L119.9059,312.26 M106.9059,293.26 L132.9059,293.26 M119.9059,312.26 L106.9059,327.26 M119.9059,312.26 L132.9059,327.26" fill="none" style="stroke:#181818;stroke-width:0.5;"/><text fill="#000000" font-family="sans-serif" font-size="14" lengthAdjust="spacing" textLength="51.6318" x="94.09" y="342.2952">Usu&#225;rio</text></g><!--entity AM--><g class="entity" data-qualified-name="AM" data-source-line="7" id="ent0003"><ellipse cx="119.9109" cy="1024.26" fill="#F1F1F1" rx="8" ry="8" style="stroke:#181818;stroke-width:0.5;"/><path d="M119.9109,1032.26 L119.9109,1059.26 M106.9109,1040.26 L132.9109,1040.26 M119.9109,1059.26 L106.9109,1074.26 M119.9109,1059.26 L132.9109,1074.26" fill="none" style="stroke:#181818;stroke-width:0.5;"/><text fill="#000000" font-family="sans-serif" font-size="14" lengthAdjust="spacing" textLength="104.8018" x="67.51" y="1089.2952">API de Mercado</text></g><!--entity ABC--><g class="entity" data-qualified-name="ABC" data-source-line="8" id="ent0004"><ellipse cx="119.9056" cy="1141.26" fill="#F1F1F1" rx="8" ry="8" style="stroke:#181818;stroke-width:0.5;"/><path d="M119.9056,1149.26 L119.9056,1176.26 M106.9056,1157.26 L132.9056,1157.26 M119.9056,1176.26 L106.9056,1191.26 M119.9056,1176.26 L132.9056,1191.26" fill="none" style="stroke:#181818;stroke-width:0.5;"/><text fill="#000000" font-family="sans-serif" font-size="14" lengthAdjust="spacing" textLength="119.4512" x="60.18" y="1206.2952">API Banco Central</text></g><!--entity ATF--><g class="entity" data-qualified-name="ATF" data-source-line="9" id="ent0005"><ellipse cx="119.9072" cy="84.26" fill="#F1F1F1" rx="8" ry="8" style="stroke:#181818;stroke-width:0.5;"/><path d="M119.9072,92.26 L119.9072,119.26 M106.9072,100.26 L132.9072,100.26 M119.9072,119.26 L106.9072,134.26 M119.9072,119.26 L132.9072,134.26" fill="none" style="stroke:#181818;stroke-width:0.5;"/><text fill="#000000" font-family="sans-serif" font-size="14" lengthAdjust="spacing" textLength="227.8145" x="6" y="149.2952">Fonte de Taxas de Financiamento</text></g><!--link U to UC1--><g class="link" data-entity-1="ent0002" data-entity-2="ent0007" data-link-type="association" data-source-line="26" id="lnk19"><path d="M146.13,300.56 C189.82,291.09 279.25,279.47 324.81,329 C337.27,342.54 322.24,644.95 332.81,660 C347.97,681.57 372.21,695.25 396.93,703.93" fill="none" id="U-UC1" style="stroke:#181818;stroke-width:1;"/></g><!--link U to UC4--><g class="link" data-entity-1="ent0002" data-entity-2="ent0010" data-link-type="association" data-source-line="27" id="lnk20"><path d="M146.12,293.99 C188.99,273.91 276.14,242.19 324.81,288 C346.21,308.14 313.82,397.57 332.81,420 C351.22,441.73 380.13,451.52 407.84,455.51" fill="none" id="U-UC4" style="stroke:#181818;stroke-width:1;"/></g><!--link U to UC6--><g class="link" data-entity-1="ent0002" data-entity-2="ent0012" data-link-type="association" data-source-line="28" id="lnk21"><path d="M125.07,345.63 C137.63,443.38 183.98,702.87 332.81,845 C355.94,867.09 388.84,879.82 418.13,887.14" fill="none" id="U-UC6" style="stroke:#181818;stroke-width:1;"/></g><!--link U to UC9--><g class="link" data-entity-1="ent0002" data-entity-2="ent0015" data-link-type="association" data-source-line="29" id="lnk22"><path d="M125.96,345.42 C138.94,435.88 178.6,667.76 263.81,842 C286.11,887.59 291.15,904.02 332.81,933 C349.59,944.67 369.38,953.43 389.05,960" fill="none" id="U-UC9" style="stroke:#181818;stroke-width:1;"/></g><!--link U to UC10--><g class="link" data-entity-1="ent0002" data-entity-2="ent0016" data-link-type="association" data-source-line="30" id="lnk23"><path d="M122.88,345.61 C130.65,481.59 163.76,935.23 263.81,1032 C292.83,1060.07 334.67,1071.3 374.17,1074.73" fill="none" id="U-UC10" style="stroke:#181818;stroke-width:1;"/></g><!--link U to UC11--><g class="link" data-entity-1="ent0002" data-entity-2="ent0017" data-link-type="association" data-source-line="31" id="lnk24"><path d="M145.96,289.5 C184.69,264.71 261.26,224.73 324.81,247 C381.6,266.9 433.24,316.31 461.79,347.59" fill="none" id="U-UC11" style="stroke:#181818;stroke-width:1;"/></g><!--link U to UC12--><g class="link" data-entity-1="ent0002" data-entity-2="ent0018" data-link-type="association" data-source-line="32" id="lnk25"><path d="M146.09,276.56 C182.85,234.07 255.28,157.34 332.81,114 C352.54,102.97 375.25,94.39 397.01,87.82" fill="none" id="U-UC12" style="stroke:#181818;stroke-width:1;"/></g><!--link UC1 to UC2--><g class="link" data-entity-1="ent0007" data-entity-2="ent0008" data-link-type="dependency" data-source-line="34" id="lnk26"><path d="M391.88,705.38 C335.44,692.07 277.79,666.34 295.77,617.5 C310.6,577.23 346.688,557.5225 387.388,546.2425" fill="none" id="UC1-to-UC2" style="stroke:#181818;stroke-width:1;stroke-dasharray:7,7;"/><polygon fill="#181818" points="393.17,544.64,383.4286,543.189,388.3516,545.9754,385.5653,550.8984,393.17,544.64" style="stroke:#181818;stroke-width:1;"/><text fill="#000000" font-family="sans-serif" font-size="13" lengthAdjust="spacing" textLength="59.3569" x="264.81" y="631.0684">&#171;include&#187;</text></g><!--link UC1 to UC3--><g class="link" data-entity-1="ent0007" data-entity-2="ent0009" data-link-type="dependency" data-source-line="35" id="lnk27"><path d="M486.05,693.79 C486.05,678.33 486.05,664.59 486.05,648.99" fill="none" id="UC1-to-UC3" style="stroke:#181818;stroke-width:1;stroke-dasharray:7,7;"/><polygon fill="#181818" points="486.05,642.99,482.05,651.99,486.05,647.99,490.05,651.99,486.05,642.99" style="stroke:#181818;stroke-width:1;"/><text fill="#000000" font-family="sans-serif" font-size="13" lengthAdjust="spacing" textLength="59.3569" x="445.05" y="673.4584">&#171;include&#187;</text></g><!--link UC6 to UC7--><g class="link" data-entity-1="ent0012" data-entity-2="ent0013" data-link-type="dependency" data-source-line="36" id="lnk28"><path d="M486.05,878.43 C486.05,863.77 486.05,849.2 486.05,833.24" fill="none" id="UC6-to-UC7" style="stroke:#181818;stroke-width:1;stroke-dasharray:7,7;"/><polygon fill="#181818" points="486.05,827.24,482.05,836.24,486.05,832.24,490.05,836.24,486.05,827.24" style="stroke:#181818;stroke-width:1;"/><text fill="#000000" font-family="sans-serif" font-size="13" lengthAdjust="spacing" textLength="59.3569" x="445.05" y="857.9484">&#171;include&#187;</text></g><!--link UC6 to UC8--><g class="link" data-entity-1="ent0012" data-entity-2="ent0014" data-link-type="dependency" data-source-line="37" id="lnk29"><path d="M406.48,895.42 C365.78,899.34 319.85,912.21 295.77,947.5 C253.77,1009.04 280.98,1057.48 332.81,1111 C348.8,1127.5 364.768,1136.2229 386.838,1142.7729" fill="none" id="UC6-to-UC8" style="stroke:#181818;stroke-width:1;stroke-dasharray:7,7;"/><polygon fill="#181818" points="392.59,1144.48,385.1,1138.0847,387.7966,1143.0574,382.8239,1145.754,392.59,1144.48" style="stroke:#181818;stroke-width:1;"/><text fill="#000000" font-family="sans-serif" font-size="13" lengthAdjust="spacing" textLength="59.3569" x="264.81" y="961.0684">&#171;include&#187;</text></g><!--link UC8 to UC9--><g class="link" data-entity-1="ent0014" data-entity-2="ent0015" data-link-type="dependency" data-source-line="38" id="lnk30"><path d="M395.49,1143.05 C373.01,1136.52 350.35,1126.47 332.81,1111 C296.18,1078.68 263.88,1044.52 295.77,1007.5 C312.01,988.65 329.0387,979.5861 353.3587,974.4661" fill="none" id="UC8-to-UC9" style="stroke:#181818;stroke-width:1;stroke-dasharray:7,7;"/><polygon fill="#181818" points="359.23,973.23,349.599,971.1699,354.3373,974.2601,351.2471,978.9983,359.23,973.23" style="stroke:#181818;stroke-width:1;"/><text fill="#000000" font-family="sans-serif" font-size="13" lengthAdjust="spacing" textLength="59.3569" x="264.81" y="1021.0684">&#171;include&#187;</text></g><!--link UC4 to UC5--><g class="link" data-entity-1="ent0010" data-entity-2="ent0011" data-link-type="dependency" data-source-line="39" id="lnk31"><path d="M407.91,454.38 C380.64,450.14 352.07,440.47 332.81,420 C296.54,381.44 262.03,224.45 296.77,184.5 C314.95,163.59 335.4761,154.3979 362.8761,150.2979" fill="none" id="UC4-to-UC5" style="stroke:#181818;stroke-width:1;stroke-dasharray:7,7;"/><polygon fill="#181818" points="368.81,149.41,359.3171,146.7859,363.8651,150.1499,360.501,154.6978,368.81,149.41" style="stroke:#181818;stroke-width:1;"/><text fill="#000000" font-family="sans-serif" font-size="13" lengthAdjust="spacing" textLength="57.1924" x="265.81" y="198.0684">&#171;extend&#187;</text></g><!--link UC11 to UC12--><g class="link" data-entity-1="ent0017" data-entity-2="ent0018" data-link-type="dependency" data-source-line="40" id="lnk32"><path d="M365.18,382.59 C338.7,378.07 313.36,367.81 295.77,347.5 C290.19,341.05 267,187.94 332.81,114 C345.53,99.71 356.9125,91.9581 374.9525,85.1881" fill="none" id="UC11-to-UC12" style="stroke:#181818;stroke-width:1;stroke-dasharray:7,7;"/><polygon fill="#181818" points="380.57,83.08,370.7384,82.4972,375.8888,84.8368,373.5492,89.9871,380.57,83.08" style="stroke:#181818;stroke-width:1;"/><text fill="#000000" font-family="sans-serif" font-size="13" lengthAdjust="spacing" textLength="59.3569" x="264.81" y="344.0684">&#171;include&#187;</text></g><!--link AM to UC9--><g class="link" data-entity-1="ent0003" data-entity-2="ent0015" data-link-type="association" data-source-line="42" id="lnk33"><path d="M172.39,1049.07 C213.84,1044.6 273.45,1037 324.81,1026 C354.01,1019.75 385.66,1010.92 413.05,1002.6" fill="none" id="AM-UC9" style="stroke:#181818;stroke-width:1;"/></g><!--link AM to UC8--><g class="link" data-entity-1="ent0003" data-entity-2="ent0014" data-link-type="association" data-source-line="43" id="lnk34"><path d="M172.53,1075.68 C199.41,1086.41 233.02,1098.97 263.81,1108 C308.65,1121.15 359.61,1132.23 401.31,1140.32" fill="none" id="AM-UC8" style="stroke:#181818;stroke-width:1;"/></g><!--link ABC to UC10--><g class="link" data-entity-1="ent0004" data-entity-2="ent0016" data-link-type="association" data-source-line="44" id="lnk35"><path d="M179.89,1158.04 C221.14,1148.2 277.16,1133.25 324.81,1115 C328.53,1113.58 329.11,1112.44 332.81,1111 C356.5,1101.83 382.95,1093.67 407.07,1086.99" fill="none" id="ABC-UC10" style="stroke:#181818;stroke-width:1;"/></g><!--link ATF to UC11--><g class="link" data-entity-1="ent0005" data-entity-2="ent0017" data-link-type="association" data-source-line="45" id="lnk36"><path d="M234.23,129.54 C266.92,138.92 300.33,153.95 324.81,178 C332.83,185.88 327.21,192.25 332.81,202 C366.21,260.1 421.08,316.23 455.02,348.1" fill="none" id="ATF-UC11" style="stroke:#181818;stroke-width:1;"/></g><!--link ATF to UC12--><g class="link" data-entity-1="ent0005" data-entity-2="ent0018" data-link-type="association" data-source-line="46" id="lnk37"><path d="M233.96,96.98 C244.05,95.59 254.11,94.24 263.81,93 C299.55,88.44 338.61,84.01 373.82,80.23" fill="none" id="ATF-UC12" style="stroke:#181818;stroke-width:1;"/></g><?plantuml-src TLDBRXin3Dth58HNxI9Dd8_Z5440Pr0N0UgYWEEkl65cQ9kDHZ8aZPksw66ooW6Adi0NApM_Z6juCo3q-CX7yescHO1WmV5o5I1ZHsbWQvJoZspMw307lyBCVcUpX0LgJnraZUaZBcaQVcY2o4IprAGKfi4wwCryiNrsR7k07cRDw-ZB7MG44tAfr2snqQGBtg99BIHaWaDTuRT9ap2s9b3at-EJ81ACsGY1CHT2NUv-h5Gh1tfJze5oXF7Tv_jH3tufWC9JYbwmKKhUeuCC_Uh1eijWKTOZThNkfD_D_yg-GCq_XU9HPnPIQxpLd3Mpp9BJ0_aP1TGhYgBdXat6SNv7_XW3RwolsMSxweeWKqcYaxVkCfFpRjg79tvW1xXXR-DAF2qBXsRxWdFp1jVRFnvYdTX7o6mss-UesB-jYrrqYtqaHt6VJiwziOv3Assm8qtqYr4ahPGFQFqUuR9B-2HNw1QLpULpkNJ0xSlshwm5GxKf4LRpXrr-8eikT2pHuL0ka-LhyI-XZiDMxyUfuxNqQ0QyEd2I82Q2AMbEEzsRiv_iTi-ZvojAwRl5dk-4i-ELAUU5ZYDtCu5WGsvkAZVKRrBkM-7QlVLFrM-bPd1qLDgl3iwROD04LstEIHkrwL94oHVUtKHFmdkulcQJwYAZcvjNu6mF65J0vI5Wk0SCA-1g3pYlW8iIe2VnO5Rrhflt_vUbHfDciYOQAldxsodbrsxdV8rF_m40?></g></svg>