<?plantuml 1.2026.2?><svg xmlns="http://www.w3.org/2000/svg" xmlns:xlink="http://www.w3.org/1999/xlink" contentStyleType="text/css" data-diagram-type="DESCRIPTION" height="1379px" preserveAspectRatio="none" style="width:547px;height:1379px;background:#FFFFFF;" version="1.1" viewBox="0 0 547 1379" width="547px" zoomAndPan="magnify"><title>FINTA - Casos de Uso Consolidados</title><defs/><g><g class="title" data-source-line="10"><text fill="#000000" font-family="sans-serif" font-size="14" font-weight="bold" lengthAdjust="spacing" textLength="260.7568" x="136.4466" y="23.5352">FINTA - Casos de Uso Consolidados</text></g><!--cluster Sistema FINTA--><g class="cluster" data-qualified-name="Sistema FINTA" data-source-line="18" id="ent0007"><rect fill="none" height="1285" rx="2.5" ry="2.5" style="stroke:#181818;stroke-width:1;" width="316.54" x="225.11" y="88.7283"/><text fill="#000000" font-family="sans-serif" font-size="14" font-weight="bold" lengthAdjust="spacing" textLength="104.1729" x="331.2936" y="104.2634">Sistema FINTA</text></g><!--cluster Acesso--><g class="cluster" data-qualified-name="Sistema FINTA.Acesso" data-source-line="19" id="ent0008"><rect fill="none" height="182" rx="2.5" ry="2.5" style="stroke:#181818;stroke-width:1;" width="167.24" x="299.76" y="680.7283"/><text fill="#000000" font-family="sans-serif" font-size="14" font-weight="bold" lengthAdjust="spacing" textLength="50.7363" x="358.0118" y="696.2634">Acesso</text></g><!--cluster Mercado e favoritos--><g class="cluster" data-qualified-name="Sistema FINTA.Mercado e favoritos" data-source-line="24" id="ent0011"><rect fill="none" height="525" rx="2.5" ry="2.5" style="stroke:#181818;stroke-width:1;" width="268.54" x="249.11" y="131.7283"/><text fill="#000000" font-family="sans-serif" font-size="14" font-weight="bold" lengthAdjust="spacing" textLength="143.3359" x="311.712" y="147.2634">Mercado e favoritos</text></g><!--cluster Macroeconomia e credito--><g class="cluster" data-qualified-name="Sistema FINTA.Macroeconomia e credito" data-source-line="33" id="ent0018"><rect fill="none" height="463" rx="2.5" ry="2.5" style="stroke:#181818;stroke-width:1;" width="239.12" x="263.82" y="886.7283"/><text fill="#000000" font-family="sans-serif" font-size="14" font-weight="bold" lengthAdjust="spacing" textLength="180.6807" x="293.0397" y="902.2634">Macroeconomia e credito</text></g><!--entity UC3--><g class="entity" data-qualified-name="Sistema FINTA.Acesso.UC3" data-source-line="20" id="ent0009"><ellipse cx="383.3835" cy="739.729" fill="#FFFFFF" rx="67.6235" ry="24.4907" style="stroke:#444444;stroke-width:0.5;"/><text fill="#000000" font-family="sans-serif" font-size="14" lengthAdjust="spacing" textLength="99.1621" x="333.8025" y="738.9337">UC3 - Realizar</text><text fill="#000000" font-family="sans-serif" font-size="14" lengthAdjust="spacing" textLength="58.1465" x="354.3103" y="755.422">cadastro</text></g><!--entity UC4--><g class="entity" data-qualified-name="Sistema FINTA.Acesso.UC4" data-source-line="21" id="ent0010"><ellipse cx="383.3773" cy="822.7249" fill="#FFFFFF" rx="65.8673" ry="23.9067" style="stroke:#444444;stroke-width:0.5;"/><text fill="#000000" font-family="sans-serif" font-size="14" lengthAdjust="spacing" textLength="99.1621" x="333.7963" y="822.8592">UC4 - Realizar</text><text fill="#000000" font-family="sans-serif" font-size="14" lengthAdjust="spacing" textLength="34.1113" x="366.3217" y="839.3475">login</text></g><!--entity UC1--><g class="entity" data-qualified-name="Sistema FINTA.Mercado e favoritos.UC1" data-source-line="25" id="ent0012"><ellipse cx="383.379" cy="360.7278" fill="#FFFFFF" rx="99.939" ry="25.1796" style="stroke:#444444;stroke-width:0.5;"/><text fill="#000000" font-family="sans-serif" font-size="14" lengthAdjust="spacing" textLength="111.5352" x="327.6114" y="355.5743">UC1 - Visualizar</text><text fill="#000000" font-family="sans-serif" font-size="14" lengthAdjust="spacing" textLength="144.1289" x="311.3145" y="372.0626">dashboard financeiro</text></g><!--entity UC2--><g class="entity" data-qualified-name="Sistema FINTA.Mercado e favoritos.UC2" data-source-line="26" id="ent0013"><ellipse cx="383.3795" cy="446.7322" fill="#FFFFFF" rx="118.2695" ry="26.0539" style="stroke:#444444;stroke-width:0.5;"/><text fill="#000000" font-family="sans-serif" font-size="14" lengthAdjust="spacing" textLength="173.2158" x="296.7716" y="444.5071">UC2 - Visualizar detalhes</text><text fill="#000000" font-family="sans-serif" font-size="14" lengthAdjust="spacing" textLength="146.9521" x="309.9034" y="460.9954">de indicadores/ativos</text></g><!--entity UC5--><g class="entity" data-qualified-name="Sistema FINTA.Mercado e favoritos.UC5" data-source-line="27" id="ent0014"><ellipse cx="383.3834" cy="531.7278" fill="#FFFFFF" rx="74.0434" ry="24.3595" style="stroke:#444444;stroke-width:0.5;"/><text fill="#000000" font-family="sans-serif" font-size="14" lengthAdjust="spacing" textLength="109.6826" x="328.5421" y="531.138">UC5 - Adicionar</text><text fill="#000000" font-family="sans-serif" font-size="14" lengthAdjust="spacing" textLength="59.4727" x="353.6471" y="547.6262">favoritos</text></g><!--entity UC6--><g class="entity" data-qualified-name="Sistema FINTA.Mercado e favoritos.UC6" data-source-line="28" id="ent0015"><ellipse cx="383.3761" cy="615.7298" fill="#FFFFFF" rx="59.0161" ry="24.9016" style="stroke:#444444;stroke-width:0.5;"/><text fill="#000000" font-family="sans-serif" font-size="14" lengthAdjust="spacing" textLength="84.3418" x="341.2052" y="614.3023">UC6 - Editar</text><text fill="#000000" font-family="sans-serif" font-size="14" lengthAdjust="spacing" textLength="59.4727" x="353.6397" y="630.7906">favoritos</text></g><!--entity UC7--><g class="entity" data-qualified-name="Sistema FINTA.Mercado e favoritos.UC7" data-source-line="29" id="ent0016"><ellipse cx="383.3833" cy="275.7297" fill="#FFFFFF" rx="70.8133" ry="24.4414" style="stroke:#444444;stroke-width:0.5;"/><text fill="#000000" font-family="sans-serif" font-size="14" lengthAdjust="spacing" textLength="104.2959" x="331.2353" y="275.0114">UC7 - Remover</text><text fill="#000000" font-family="sans-serif" font-size="14" lengthAdjust="spacing" textLength="59.4727" x="353.6469" y="291.4997">favoritos</text></g><!--entity UC8--><g class="entity" data-qualified-name="Sistema FINTA.Mercado e favoritos.UC8" data-source-line="30" id="ent0017"><ellipse cx="383.3846" cy="191.7312" fill="#FFFFFF" rx="112.8646" ry="24.9729" style="stroke:#444444;stroke-width:0.5;"/><text fill="#000000" font-family="sans-serif" font-size="14" lengthAdjust="spacing" textLength="174.6172" x="296.076" y="191.3817">UC8 - Consultar cotacoes</text><text fill="#000000" font-family="sans-serif" font-size="14" lengthAdjust="spacing" textLength="98.5537" x="334.1077" y="207.8699">em tempo real</text></g><!--entity UC9--><g class="entity" data-qualified-name="Sistema FINTA.Macroeconomia e credito.UC9" data-source-line="34" id="ent0019"><ellipse cx="383.3801" cy="1120.7238" fill="#FFFFFF" rx="99.7501" ry="24.9655" style="stroke:#444444;stroke-width:0.5;"/><text fill="#000000" font-family="sans-serif" font-size="14" lengthAdjust="spacing" textLength="145.25" x="310.7551" y="1119.1993">UC9 - Visualizar taxa</text><text fill="#000000" font-family="sans-serif" font-size="14" lengthAdjust="spacing" textLength="104.8154" x="330.9724" y="1135.6876">Selic atualizada</text></g><!--entity UC10--><g class="entity" data-qualified-name="Sistema FINTA.Macroeconomia e credito.UC10" data-source-line="35" id="ent0020"><ellipse cx="383.3805" cy="1308.7315" fill="#FFFFFF" rx="103.5605" ry="24.6332" style="stroke:#444444;stroke-width:0.5;"/><text fill="#000000" font-family="sans-serif" font-size="14" lengthAdjust="spacing" textLength="153.2891" x="306.736" y="1307.715">UC10 - Listar taxas de</text><text fill="#000000" font-family="sans-serif" font-size="14" lengthAdjust="spacing" textLength="96.6465" x="335.0573" y="1324.2033">financiamento</text></g><!--entity UC11--><g class="entity" data-qualified-name="Sistema FINTA.Macroeconomia e credito.UC11" data-source-line="36" id="ent0021"><ellipse cx="383.3797" cy="1206.7297" fill="#FFFFFF" rx="75.7897" ry="25.8814" style="stroke:#444444;stroke-width:0.5;"/><text fill="#000000" font-family="sans-serif" font-size="14" lengthAdjust="spacing" textLength="104.9043" x="330.9276" y="1203.8531">UC11 - Simular</text><text fill="#000000" font-family="sans-serif" font-size="14" lengthAdjust="spacing" textLength="96.6465" x="335.0565" y="1220.3414">financiamento</text></g><!--entity UC12--><g class="entity" data-qualified-name="Sistema FINTA.Macroeconomia e credito.UC12" data-source-line="37" id="ent0022"><ellipse cx="383.3818" cy="947.7322" fill="#FFFFFF" rx="88.3918" ry="26.2939" style="stroke:#444444;stroke-width:0.5;"/><text fill="#000000" font-family="sans-serif" font-size="14" lengthAdjust="spacing" textLength="120.3877" x="323.188" y="944.1983">UC12 - Visualizar</text><text fill="#000000" font-family="sans-serif" font-size="14" lengthAdjust="spacing" textLength="120.8867" x="322.9385" y="960.6865">simulacoes salvas</text></g><!--entity UC13--><g class="entity" data-qualified-name="Sistema FINTA.Macroeconomia e credito.UC13" data-source-line="38" id="ent0023"><ellipse cx="383.3829" cy="1034.7283" fill="#FFFFFF" rx="81.8829" ry="25.99" style="stroke:#444444;stroke-width:0.5;"/><text fill="#000000" font-family="sans-serif" font-size="14" lengthAdjust="spacing" textLength="113.1484" x="326.8087" y="1031.6954">UC13 - Remover</text><text fill="#000000" font-family="sans-serif" font-size="14" lengthAdjust="spacing" textLength="106.5449" x="330.1104" y="1048.1837">simulacao salva</text></g><!--entity User--><g class="entity" data-qualified-name="User" data-source-line="12" id="ent0002"><ellipse cx="62.05" cy="717.4883" fill="#F1F1F1" rx="16" ry="16" style="stroke:#181818;stroke-width:0.5;"/><path d="M62.05,737.4883 C66.05,737.4883 69.05,737.4883 73.05,733.4883 C81.05,733.4883 89.05,741.4883 89.05,749.4883 L89.05,753.4883 C89.05,757.4883 85.05,761.4883 81.05,761.4883 L43.05,761.4883 C39.05,761.4883 35.05,757.4883 35.05,753.4883 L35.05,749.4883 C35.05,741.4883 43.05,733.4883 51.05,733.4883 C55.05,737.4883 58.05,737.4883 62.05,737.4883" fill="#F1F1F1" style="stroke:#181818;stroke-width:0.5;"/><text fill="#000000" font-family="sans-serif" font-size="14" lengthAdjust="spacing" textLength="51.6318" x="36.2341" y="775.5234">Usuario</text></g><!--entity FinanceApi--><g class="entity" data-qualified-name="FinanceApi" data-source-line="13" id="ent0003"><ellipse cx="62.0595" cy="59.4883" fill="#F1F1F1" rx="16" ry="16" style="stroke:#181818;stroke-width:0.5;"/><path d="M62.0595,79.4883 C66.0595,79.4883 69.0595,79.4883 73.0595,75.4883 C81.0595,75.4883 89.0595,83.4883 89.0595,91.4883 L89.0595,95.4883 C89.0595,99.4883 85.0595,103.4883 81.0595,103.4883 L43.0595,103.4883 C39.0595,103.4883 35.0595,99.4883 35.0595,95.4883 L35.0595,91.4883 C35.0595,83.4883 43.0595,75.4883 51.0595,75.4883 C55.0595,79.4883 58.0595,79.4883 62.0595,79.4883" fill="#F1F1F1" style="stroke:#181818;stroke-width:0.5;"/><text fill="#000000" font-family="sans-serif" font-size="14" lengthAdjust="spacing" textLength="94.999" x="14.56" y="117.5234">API Financeira</text></g><!--entity CryptoApi--><g class="entity" data-qualified-name="CryptoApi" data-source-line="14" id="ent0004"><ellipse cx="62.0549" cy="171.4883" fill="#F1F1F1" rx="16" ry="16" style="stroke:#181818;stroke-width:0.5;"/><path d="M62.0549,191.4883 C66.0549,191.4883 69.0549,191.4883 73.0549,187.4883 C81.0549,187.4883 89.0549,195.4883 89.0549,203.4883 L89.0549,207.4883 C89.0549,211.4883 85.0549,215.4883 81.0549,215.4883 L43.0549,215.4883 C39.0549,215.4883 35.0549,211.4883 35.0549,207.4883 L35.0549,203.4883 C35.0549,195.4883 43.0549,187.4883 51.0549,187.4883 C55.0549,191.4883 58.0549,191.4883 62.0549,191.4883" fill="#F1F1F1" style="stroke:#181818;stroke-width:0.5;"/><text fill="#000000" font-family="sans-serif" font-size="14" lengthAdjust="spacing" textLength="67.9697" x="28.07" y="229.5234">API Cripto</text></g><!--entity SelicApi--><g class="entity" data-qualified-name="SelicApi" data-source-line="15" id="ent0005"><ellipse cx="62.0547" cy="1098.4883" fill="#F1F1F1" rx="16" ry="16" style="stroke:#181818;stroke-width:0.5;"/><path d="M62.0547,1118.4883 C66.0547,1118.4883 69.0547,1118.4883 73.0547,1114.4883 C81.0547,1114.4883 89.0547,1122.4883 89.0547,1130.4883 L89.0547,1134.4883 C89.0547,1138.4883 85.0547,1142.4883 81.0547,1142.4883 L43.0547,1142.4883 C39.0547,1142.4883 35.0547,1138.4883 35.0547,1134.4883 L35.0547,1130.4883 C35.0547,1122.4883 43.0547,1114.4883 51.0547,1114.4883 C55.0547,1118.4883 58.0547,1118.4883 62.0547,1118.4883" fill="#F1F1F1" style="stroke:#181818;stroke-width:0.5;"/><text fill="#000000" font-family="sans-serif" font-size="14" lengthAdjust="spacing" textLength="112.1094" x="6" y="1156.5234">API Selic / Bacen</text></g><!--entity FundingApi--><g class="entity" data-qualified-name="FundingApi" data-source-line="16" id="ent0006"><ellipse cx="62.0524" cy="1249.2383" fill="#F1F1F1" rx="16" ry="16" style="stroke:#181818;stroke-width:0.5;"/><path d="M62.0524,1269.2383 C66.0524,1269.2383 69.0524,1269.2383 73.0524,1265.2383 C81.0524,1265.2383 89.0524,1273.2383 89.0524,1281.2383 L89.0524,1285.2383 C89.0524,1289.2383 85.0524,1293.2383 81.0524,1293.2383 L43.0524,1293.2383 C39.0524,1293.2383 35.0524,1289.2383 35.0524,1285.2383 L35.0524,1281.2383 C35.0524,1273.2383 43.0524,1265.2383 51.0524,1265.2383 C55.0524,1269.2383 58.0524,1269.2383 62.0524,1269.2383" fill="#F1F1F1" style="stroke:#181818;stroke-width:0.5;"/><text fill="#000000" font-family="sans-serif" font-size="14" lengthAdjust="spacing" textLength="86.9395" x="12.55" y="1307.2734">API Taxas de</text><text fill="#000000" font-family="sans-serif" font-size="14" lengthAdjust="spacing" textLength="99.0049" x="12.55" y="1323.7617">Financiamento</text></g><!--link User to UC1--><g class="link" data-entity-1="ent0002" data-entity-2="ent0012" data-link-type="association" data-source-line="42" id="lnk24"><path d="M63.69,700.5383 C66.74,637.1283 81.45,511.3083 148.11,433.7283 C182.33,393.9083 237.9,375.5083 286.33,367.1383" fill="none" id="User-UC1" style="stroke:#181818;stroke-width:1;"/></g><!--link User to UC2--><g class="link" data-entity-1="ent0002" data-entity-2="ent0013" data-link-type="association" data-source-line="43" id="lnk25"><path d="M63.14,700.9183 C65.56,641.7883 79.57,530.0683 148.11,473.7283 C183.45,444.6783 232.58,435.8383 276.72,435.1083" fill="none" id="User-UC2" style="stroke:#181818;stroke-width:1;"/></g><!--link User to UC3--><g class="link" data-entity-1="ent0002" data-entity-2="ent0009" data-link-type="association" data-source-line="44" id="lnk26"><path d="M90,739.7283 C139.32,739.7283 245.44,739.7283 315.35,739.7283" fill="none" id="User-UC3" style="stroke:#181818;stroke-width:1;"/></g><!--link User to UC4--><g class="link" data-entity-1="ent0002" data-entity-2="ent0010" data-link-type="association" data-source-line="45" id="lnk27"><path d="M90,762.2183 C105.91,774.2183 127.01,788.0583 148.11,795.7283 C202.85,815.6183 269.09,821.7383 317.15,823.2483" fill="none" id="User-UC4" style="stroke:#181818;stroke-width:1;"/></g><!--link User to UC5--><g class="link" data-entity-1="ent0002" data-entity-2="ent0014" data-link-type="association" data-source-line="46" id="lnk28"><path d="M88.98,700.7583 C116.36,662.6583 163.02,605.8483 217.11,573.7283 C246.26,556.4183 282.39,546.1983 313.43,540.1783" fill="none" id="User-UC5" style="stroke:#181818;stroke-width:1;"/></g><!--link User to UC6--><g class="link" data-entity-1="ent0002" data-entity-2="ent0015" data-link-type="association" data-source-line="47" id="lnk29"><path d="M90,729.2583 C145.34,707.7783 272.17,658.5283 339.14,632.5183" fill="none" id="User-UC6" style="stroke:#181818;stroke-width:1;"/></g><!--link User to UC7--><g class="link" data-entity-1="ent0002" data-entity-2="ent0016" data-link-type="association" data-source-line="48" id="lnk30"><path d="M64.93,700.6583 C70.45,603.7883 90.03,356.4683 148.11,302.7283 C193.63,260.5983 267.32,258.8783 319.9,264.4983" fill="none" id="User-UC7" style="stroke:#181818;stroke-width:1;"/></g><!--link User to UC8--><g class="link" data-entity-1="ent0002" data-entity-2="ent0017" data-link-type="association" data-source-line="49" id="lnk31"><path d="M65.16,700.4883 C71.38,598.4783 92.82,328.1683 148.11,260.7283 C178.49,223.6783 227.69,205.8883 273.18,197.5883" fill="none" id="User-UC8" style="stroke:#181818;stroke-width:1;"/></g><!--link User to UC9--><g class="link" data-entity-1="ent0002" data-entity-2="ent0019" data-link-type="association" data-source-line="50" id="lnk32"><path d="M67.58,778.9483 C78.4,852.4483 113.15,1009.5883 217.11,1077.7283 C240.17,1092.8383 268.29,1102.6483 294.74,1109.0083" fill="none" id="User-UC9" style="stroke:#181818;stroke-width:1;"/></g><!--link User to UC10--><g class="link" data-entity-1="ent0002" data-entity-2="ent0020" data-link-type="association" data-source-line="51" id="lnk33"><path d="M68.45,778.9583 C81.42,870.5483 115.72,1095.8683 148.11,1164.7283 C168.82,1208.7583 177.39,1221.6183 217.11,1249.7283 C244.09,1268.8283 277.89,1282.3283 307.88,1291.5583" fill="none" id="User-UC10" style="stroke:#181818;stroke-width:1;"/></g><!--link User to UC11--><g class="link" data-entity-1="ent0002" data-entity-2="ent0021" data-link-type="association" data-source-line="52" id="lnk34"><path d="M67.11,778.9183 C75.1,844.3283 96.78,978.5183 148.11,1079.7283 C169.81,1122.5083 176.69,1136.8883 217.11,1162.7283 C245.38,1180.7983 280.89,1191.4883 311.75,1197.7983" fill="none" id="User-UC11" style="stroke:#181818;stroke-width:1;"/></g><!--link User to UC12--><g class="link" data-entity-1="ent0002" data-entity-2="ent0022" data-link-type="association" data-source-line="53" id="lnk35"><path d="M89.9,767.0283 C106.1,782.8883 127.54,802.8283 148.11,818.7283 C206.7,864.0183 283.22,902.9483 332.59,925.8683" fill="none" id="User-UC12" style="stroke:#181818;stroke-width:1;"/></g><!--link User to UC13--><g class="link" data-entity-1="ent0002" data-entity-2="ent0023" data-link-type="association" data-source-line="54" id="lnk36"><path d="M76.13,778.6283 C96.93,834.4883 142.98,936.7283 217.11,991.7283 C242.35,1010.4583 275.02,1021.0483 304.64,1027.0283" fill="none" id="User-UC13" style="stroke:#181818;stroke-width:1;"/></g><!--link UC1 to UC8--><g class="link" data-entity-1="ent0012" data-entity-2="ent0017" data-link-type="dependency" data-source-line="56" id="lnk37"><path d="M288.59,369.0683 C249.7,367.0083 207.87,356.6383 182.24,326.2283 C159.38,299.1183 154.98,285.2983 217.11,233.7283 C235.32,218.6083 252.473,210.413 275.443,204.123" fill="none" id="UC1-to-UC8" style="stroke:#181818;stroke-width:1;stroke-dasharray:7,7;"/><polygon fill="#181818" points="281.23,202.5383,271.4931,201.0573,276.4075,203.8588,273.606,208.7733,281.23,202.5383" style="stroke:#181818;stroke-width:1;"/><text fill="#000000" font-family="sans-serif" font-size="13" lengthAdjust="spacing" textLength="59.3569" x="149.11" y="322.7966">&#171;include&#187;</text></g><!--link UC1 to UC9--><g class="link" data-entity-1="ent0012" data-entity-2="ent0019" data-link-type="dependency" data-source-line="57" id="lnk38"><path d="M285.01,365.4483 C259.42,371.5283 234.26,382.7283 217.11,402.7283 C104.85,533.6683 171.87,617.0683 182.24,789.2283 C190,918.1483 132.04,980.5483 217.11,1077.7283 C234.59,1097.6983 254.178,1107.5684 279.908,1113.7884" fill="none" id="UC1-to-UC9" style="stroke:#181818;stroke-width:1;stroke-dasharray:7,7;"/><polygon fill="#181818" points="285.74,1115.1983,277.9319,1109.1955,280.88,1114.0234,276.0521,1116.9715,285.74,1115.1983" style="stroke:#181818;stroke-width:1;"/><text fill="#000000" font-family="sans-serif" font-size="13" lengthAdjust="spacing" textLength="59.3569" x="149.11" y="785.7966">&#171;include&#187;</text></g><!--link UC2 to UC8--><g class="link" data-entity-1="ent0013" data-entity-2="ent0017" data-link-type="dependency" data-source-line="58" id="lnk39"><path d="M276.55,435.2483 C236.56,424.4783 197.18,403.9883 182.24,365.2283 C165.39,321.5383 147.2,300.3483 217.11,233.7283 C233.92,217.7083 250.1482,209.1871 272.6182,202.8071" fill="none" id="UC2-to-UC8" style="stroke:#181818;stroke-width:1;stroke-dasharray:7,7;"/><polygon fill="#181818" points="278.39,201.1683,268.6397,199.7786,273.5801,202.534,270.8248,207.4744,278.39,201.1683" style="stroke:#181818;stroke-width:1;"/><text fill="#000000" font-family="sans-serif" font-size="13" lengthAdjust="spacing" textLength="59.3569" x="149.11" y="361.7966">&#171;include&#187;</text></g><!--link UC5 to UC8--><g class="link" data-entity-1="ent0014" data-entity-2="ent0017" data-link-type="dependency" data-source-line="59" id="lnk40"><path d="M313.68,540.3483 C268.93,541.6083 213.52,534.3383 182.24,497.2283 C176.04,489.8783 132.31,328.1083 217.11,233.7283 C232.43,216.6783 247.8228,207.7679 269.9028,201.2879" fill="none" id="UC5-to-UC8" style="stroke:#181818;stroke-width:1;stroke-dasharray:7,7;"/><polygon fill="#181818" points="275.66,199.5983,265.8978,198.2946,270.8623,201.0063,268.1506,205.9708,275.66,199.5983" style="stroke:#181818;stroke-width:1;"/><text fill="#000000" font-family="sans-serif" font-size="13" lengthAdjust="spacing" textLength="59.3569" x="149.11" y="493.7966">&#171;include&#187;</text></g><!--link UC6 to UC8--><g class="link" data-entity-1="ent0015" data-entity-2="ent0017" data-link-type="dependency" data-source-line="60" id="lnk41"><path d="M324.43,617.3783 C275.93,615.0683 210.71,602.5683 182.24,555.2283 C176.05,544.9383 111.42,354.5483 217.11,233.7283 C232.2,216.4783 247.5037,207.491 269.5737,201.001" fill="none" id="UC6-to-UC8" style="stroke:#181818;stroke-width:1;stroke-dasharray:7,7;"/><polygon fill="#181818" points="275.33,199.3083,265.5671,198.0098,270.5331,200.7189,267.8241,205.6849,275.33,199.3083" style="stroke:#181818;stroke-width:1;"/><text fill="#000000" font-family="sans-serif" font-size="13" lengthAdjust="spacing" textLength="59.3569" x="149.11" y="551.7966">&#171;include&#187;</text></g><!--link UC11 to UC10--><g class="link" data-entity-1="ent0021" data-entity-2="ent0020" data-link-type="dependency" data-source-line="61" id="lnk42"><path d="M383.38,1232.8483 C383.38,1248.5083 383.38,1262.3283 383.38,1277.7783" fill="none" id="UC11-to-UC10" style="stroke:#181818;stroke-width:1;stroke-dasharray:7,7;"/><polygon fill="#181818" points="383.38,1283.7783,387.38,1274.7783,383.38,1278.7783,379.38,1274.7783,383.38,1283.7783" style="stroke:#181818;stroke-width:1;"/><text fill="#000000" font-family="sans-serif" font-size="13" lengthAdjust="spacing" textLength="59.3569" x="342.38" y="1263.4166">&#171;include&#187;</text></g><!--link FinanceApi to UC8--><g class="link" data-entity-1="ent0003" data-entity-2="ent0017" data-link-type="association" data-source-line="63" id="lnk43"><path d="M109.83,97.8383 C165.7,117.0883 259.32,149.3383 320.97,170.5783" fill="none" id="FinanceApi-UC8" style="stroke:#181818;stroke-width:1;"/></g><!--link CryptoApi to UC8--><g class="link" data-entity-1="ent0004" data-entity-2="ent0017" data-link-type="association" data-source-line="64" id="lnk44"><path d="M96.32,193.5183 C137.3,193.2583 209.01,192.8183 270.38,192.4283" fill="none" id="CryptoApi-UC8" style="stroke:#181818;stroke-width:1;"/></g><!--link SelicApi to UC9--><g class="link" data-entity-1="ent0005" data-entity-2="ent0019" data-link-type="association" data-source-line="65" id="lnk45"><path d="M118.31,1120.7283 C163.65,1120.7283 229,1120.7283 283.34,1120.7283" fill="none" id="SelicApi-UC9" style="stroke:#181818;stroke-width:1;"/></g><!--link FundingApi to UC10--><g class="link" data-entity-1="ent0006" data-entity-2="ent0020" data-link-type="association" data-source-line="66" id="lnk46"><path d="M111.9,1284.1683 C158.02,1288.3483 228.5,1294.7483 285.94,1299.9683" fill="none" id="FundingApi-UC10" style="stroke:#181818;stroke-width:1;"/></g><!--link FundingApi to UC11--><g class="link" data-entity-1="ent0006" data-entity-2="ent0021" data-link-type="association" data-source-line="67" id="lnk47"><path d="M111.9,1268.5583 C167.55,1255.8383 258.63,1235.0183 319.53,1221.0983" fill="none" id="FundingApi-UC11" style="stroke:#181818;stroke-width:1;"/></g><?plantuml-src TLHDRzim3BtxLn3PkMkThoP3KI0pLg30DWnBkrCldCmaGcKfa9HqtT3_Fags4yLEVQB9zqZgaPAYbGTlmChrnaCfBGalZSxSizHRj5Y1ss1fNgHUmmgLeoIoHV6CQrhwLqKGYAZNAWNi70bq1FyoWCyCNbkpqsLXbB7mif6UWj_Oacpj-p2EN_QMv43XZQrBu0ivKr6MUUdvz-x--yC2Bg10PnoK18_EG66qCqgMtBFBiaY6mQFRePLc0EWOHBRrBtxSmvtKg0L9Yp7S_2wsCWKLLcvzpI_iAvkT-9AK570P3aawmgAdWth0FnWQVT9r5OaLwIRj7Gl36WT6Tf0I1alfF5LOdtKGXMnKvvI2d3Er4mvQ3nwB4Oloar39lsYVjC0IdRVDwOjH5pq-GIkpbhg1ZXdwbgKblv7bT0Q8Ts5lhFJ6dQcVSyPVaZLlSdBzpM-3jeHLAtRRJTxb3a-uB9P7jI77IGWaInJAMtANwEK-58zPXjqi4ywoO31lScWWQJRY9rtybF5VIkdFWQTTy7KKh39xEeE-xg9dOKDvANUAiuCm7eK9vw4AUB9RldciVKEUzGL7OGq9eqqbaMKNbhZDSqEVdmhdUTUUTBsNw6jlYKsTUMzYLyp-ohlMCEijNVMsD21xt33kfQnsAgftZjERSZxih8YB_A0CE5HxRENCUwFDHwdy3GzDJMjPeoWaInbkErnSn4qxsiF47YNsEB4dYJrDxEl4dYNsFArrbVwabVEqDBUPXTloyJRaWazmSoErKBkIRc-FWNalC7oFCNalC7stHbE45-0qb1qVmlQiXvUlTRHlN2l0yGqxoD1pvTb_?></g></svg>