<?plantuml 1.2026.2?><svg xmlns="http://www.w3.org/2000/svg" xmlns:xlink="http://www.w3.org/1999/xlink" contentStyleType="text/css" data-diagram-type="DESCRIPTION" height="825px" preserveAspectRatio="none" style="width:425px;height:825px;background:#FFFFFF;" version="1.1" viewBox="0 0 425 825" width="425px" zoomAndPan="magnify"><title>FINTA - Casos de Uso Implementados</title><defs/><g><g class="title" data-source-line="10"><text fill="#000000" font-family="sans-serif" font-size="14" font-weight="bold" lengthAdjust="spacing" textLength="274.3057" x="68.6872" y="23.5352">FINTA - Casos de Uso Implementados</text></g><!--cluster Sistema FINTA--><g class="cluster" data-qualified-name="Sistema FINTA" data-source-line="16" id="ent0005"><rect fill="none" height="644" rx="2.5" ry="2.5" style="stroke:#181818;stroke-width:1;" width="309.43" x="110.25" y="175.7983"/><text fill="#000000" font-family="sans-serif" font-size="14" font-weight="bold" lengthAdjust="spacing" textLength="104.1729" x="212.8786" y="191.3334">Sistema FINTA</text></g><!--cluster Acesso--><g class="cluster" data-qualified-name="Sistema FINTA.Acesso" data-source-line="17" id="ent0006"><rect fill="none" height="266" rx="2.5" ry="2.5" style="stroke:#181818;stroke-width:1;" width="167.25" x="181.34" y="529.7983"/><text fill="#000000" font-family="sans-serif" font-size="14" font-weight="bold" lengthAdjust="spacing" textLength="50.7363" x="239.5968" y="545.3334">Acesso</text></g><!--cluster Consulta de ativos--><g class="cluster" data-qualified-name="Sistema FINTA.Consulta de ativos" data-source-line="23" id="ent0010"><rect fill="none" height="287" rx="2.5" ry="2.5" style="stroke:#181818;stroke-width:1;" width="261.43" x="134.25" y="218.7983"/><text fill="#000000" font-family="sans-serif" font-size="14" font-weight="bold" lengthAdjust="spacing" textLength="134.0049" x="197.9626" y="234.3334">Consulta de ativos</text></g><!--entity UC3--><g class="entity" data-qualified-name="Sistema FINTA.Acesso.UC3" data-source-line="18" id="ent0007"><ellipse cx="264.9635" cy="755.799" fill="#FFFFFF" rx="67.6235" ry="24.4907" style="stroke:#444444;stroke-width:0.5;"/><text fill="#000000" font-family="sans-serif" font-size="14" lengthAdjust="spacing" textLength="99.1621" x="215.3825" y="755.0037">UC3 - Realizar</text><text fill="#000000" font-family="sans-serif" font-size="14" lengthAdjust="spacing" textLength="58.1465" x="235.8903" y="771.492">cadastro</text></g><!--entity UC4--><g class="entity" data-qualified-name="Sistema FINTA.Acesso.UC4" data-source-line="19" id="ent0008"><ellipse cx="264.9573" cy="588.7949" fill="#FFFFFF" rx="65.8673" ry="23.9067" style="stroke:#444444;stroke-width:0.5;"/><text fill="#000000" font-family="sans-serif" font-size="14" lengthAdjust="spacing" textLength="99.1621" x="215.3763" y="588.9292">UC4 - Realizar</text><text fill="#000000" font-family="sans-serif" font-size="14" lengthAdjust="spacing" textLength="34.1113" x="247.9017" y="605.4175">login</text></g><!--entity UC5--><g class="entity" data-qualified-name="Sistema FINTA.Acesso.UC5" data-source-line="20" id="ent0009"><ellipse cx="264.9637" cy="671.8033" fill="#FFFFFF" rx="66.4637" ry="24.105" style="stroke:#444444;stroke-width:0.5;"/><text fill="#000000" font-family="sans-serif" font-size="14" lengthAdjust="spacing" textLength="99.1621" x="215.3827" y="671.6174">UC5 - Realizar</text><text fill="#000000" font-family="sans-serif" font-size="14" lengthAdjust="spacing" textLength="43.9004" x="243.0135" y="688.1057">logout</text></g><!--entity UC6--><g class="entity" data-qualified-name="Sistema FINTA.Consulta de ativos.UC6" data-source-line="24" id="ent0011"><ellipse cx="264.9559" cy="379.8015" fill="#FFFFFF" rx="109.8159" ry="24.3632" style="stroke:#444444;stroke-width:0.5;"/><text fill="#000000" font-family="sans-serif" font-size="14" lengthAdjust="spacing" textLength="173.2158" x="178.348" y="380.2858">UC6 - Visualizar detalhes</text><text fill="#000000" font-family="sans-serif" font-size="14" lengthAdjust="spacing" textLength="61.0381" x="234.4368" y="396.7741">de ativos</text></g><!--entity UC8--><g class="entity" data-qualified-name="Sistema FINTA.Consulta de ativos.UC8" data-source-line="25" id="ent0012"><ellipse cx="264.9646" cy="278.8012" fill="#FFFFFF" rx="112.8646" ry="24.9729" style="stroke:#444444;stroke-width:0.5;"/><text fill="#000000" font-family="sans-serif" font-size="14" lengthAdjust="spacing" textLength="174.6172" x="177.656" y="278.4517">UC8 - Consultar cotacoes</text><text fill="#000000" font-family="sans-serif" font-size="14" lengthAdjust="spacing" textLength="98.5537" x="215.6877" y="294.9399">em tempo real</text></g><!--entity UC9--><g class="entity" data-qualified-name="Sistema FINTA.Consulta de ativos.UC9" data-source-line="26" id="ent0013"><ellipse cx="264.9626" cy="464.8008" fill="#FFFFFF" rx="114.7126" ry="25.3425" style="stroke:#444444;stroke-width:0.5;"/><text fill="#000000" font-family="sans-serif" font-size="14" lengthAdjust="spacing" textLength="175.2188" x="177.3532" y="463.9265">UC9 - Visualizar historico</text><text fill="#000000" font-family="sans-serif" font-size="14" lengthAdjust="spacing" textLength="115.6914" x="207.1169" y="480.4147">recente de ativos</text></g><!--entity User--><g class="entity" data-qualified-name="User" data-source-line="12" id="ent0002"><ellipse cx="34.63" cy="518.5583" fill="#F1F1F1" rx="16" ry="16" style="stroke:#181818;stroke-width:0.5;"/><path d="M34.63,538.5583 C38.63,538.5583 41.63,538.5583 45.63,534.5583 C53.63,534.5583 61.63,542.5583 61.63,550.5583 L61.63,554.5583 C61.63,558.5583 57.63,562.5583 53.63,562.5583 L15.63,562.5583 C11.63,562.5583 7.63,558.5583 7.63,554.5583 L7.63,550.5583 C7.63,542.5583 15.63,534.5583 23.63,534.5583 C27.63,538.5583 30.63,538.5583 34.63,538.5583" fill="#F1F1F1" style="stroke:#181818;stroke-width:0.5;"/><text fill="#000000" font-family="sans-serif" font-size="14" lengthAdjust="spacing" textLength="51.6318" x="8.8141" y="576.5934">Usuario</text></g><!--entity Brapi--><g class="entity" data-qualified-name="Brapi" data-source-line="13" id="ent0003"><ellipse cx="34.63" cy="217.5583" fill="#F1F1F1" rx="16" ry="16" style="stroke:#181818;stroke-width:0.5;"/><path d="M34.63,237.5583 C38.63,237.5583 41.63,237.5583 45.63,233.5583 C53.63,233.5583 61.63,241.5583 61.63,249.5583 L61.63,253.5583 C61.63,257.5583 57.63,261.5583 53.63,261.5583 L15.63,261.5583 C11.63,261.5583 7.63,257.5583 7.63,253.5583 L7.63,249.5583 C7.63,241.5583 15.63,233.5583 23.63,233.5583 C27.63,237.5583 30.63,237.5583 34.63,237.5583" fill="#F1F1F1" style="stroke:#181818;stroke-width:0.5;"/><text fill="#000000" font-family="sans-serif" font-size="14" lengthAdjust="spacing" textLength="34.3711" x="17.4445" y="275.5934">Brapi</text></g><!--entity CoinCap--><g class="entity" data-qualified-name="CoinCap" data-source-line="14" id="ent0004"><ellipse cx="34.6255" cy="329.5583" fill="#F1F1F1" rx="16" ry="16" style="stroke:#181818;stroke-width:0.5;"/><path d="M34.6255,349.5583 C38.6255,349.5583 41.6255,349.5583 45.6255,345.5583 C53.6255,345.5583 61.6255,353.5583 61.6255,361.5583 L61.6255,365.5583 C61.6255,369.5583 57.6255,373.5583 53.6255,373.5583 L15.6255,373.5583 C11.6255,373.5583 7.6255,369.5583 7.6255,365.5583 L7.6255,361.5583 C7.6255,353.5583 15.6255,345.5583 23.6255,345.5583 C27.6255,349.5583 30.6255,349.5583 34.6255,349.5583" fill="#F1F1F1" style="stroke:#181818;stroke-width:0.5;"/><text fill="#000000" font-family="sans-serif" font-size="14" lengthAdjust="spacing" textLength="57.251" x="6" y="387.5934">CoinCap</text></g><g class="entity" data-qualified-name="GMN23" data-source-line="43" id="ent0024"><path d="M136.36,119.4883 L136.36,160.1094 L393.5626,160.1094 L393.5626,129.4883 L383.5626,119.4883 L136.36,119.4883" fill="#FEFFDD" style="stroke:#181818;stroke-width:0.5;"/><path d="M383.5626,119.4883 L383.5626,129.4883 L393.5626,129.4883 L383.5626,119.4883" fill="#FEFFDD" style="stroke:#181818;stroke-width:1;"/><text fill="#000000" font-family="sans-serif" font-size="13" lengthAdjust="spacing" textLength="236.2026" x="142.36" y="137.0566">Exibido na busca autenticada quando</text><text fill="#000000" font-family="sans-serif" font-size="13" lengthAdjust="spacing" textLength="155.7651" x="142.36" y="152.3672">nao ha ticker informado.</text></g><g class="entity" data-qualified-name="GMN26" data-source-line="48" id="ent0027"><path d="M136.08,43.4883 L136.08,84.1094 L393.8539,84.1094 L393.8539,53.4883 L383.8539,43.4883 L136.08,43.4883" fill="#FEFFDD" style="stroke:#181818;stroke-width:0.5;"/><path d="M383.8539,43.4883 L383.8539,53.4883 L393.8539,53.4883 L383.8539,43.4883" fill="#FEFFDD" style="stroke:#181818;stroke-width:1;"/><text fill="#000000" font-family="sans-serif" font-size="13" lengthAdjust="spacing" textLength="212.3481" x="142.08" y="61.0566">Ao abrir o detalhe do ativo, o app</text><text fill="#000000" font-family="sans-serif" font-size="13" lengthAdjust="spacing" textLength="236.7739" x="142.08" y="76.3672">registra a selecao recente do usuario.</text></g><!--link User to UC3--><g class="link" data-entity-1="ent0002" data-entity-2="ent0007" data-link-type="association" data-source-line="30" id="lnk14"><path d="M40.31,579.9683 C47.1,619.3983 63.47,679.1883 102.25,713.7983 C128.22,736.9783 165.38,747.6483 197.52,752.4583" fill="none" id="User-UC3" style="stroke:#181818;stroke-width:1;"/></g><!--link User to UC4--><g class="link" data-entity-1="ent0002" data-entity-2="ent0008" data-link-type="association" data-source-line="31" id="lnk15"><path d="M62.27,546.3983 C97.68,553.8383 161.16,567.1883 207.47,576.9183" fill="none" id="User-UC4" style="stroke:#181818;stroke-width:1;"/></g><!--link User to UC5--><g class="link" data-entity-1="ent0002" data-entity-2="ent0009" data-link-type="association" data-source-line="32" id="lnk16"><path d="M56.64,579.8883 C67.97,597.5383 83.5,617.2083 102.25,629.7983 C131.27,649.2783 168.8,659.7283 200.4,665.3283" fill="none" id="User-UC5" style="stroke:#181818;stroke-width:1;"/></g><!--link User to UC6--><g class="link" data-entity-1="ent0002" data-entity-2="ent0011" data-link-type="association" data-source-line="33" id="lnk17"><path d="M48.21,501.8283 C58.67,475.4983 76.1,441.9783 102.25,421.7983 C121.2,407.1783 144.73,397.6183 167.92,391.3783" fill="none" id="User-UC6" style="stroke:#181818;stroke-width:1;"/></g><!--link User to UC8--><g class="link" data-entity-1="ent0002" data-entity-2="ent0012" data-link-type="association" data-source-line="34" id="lnk18"><path d="M44.12,501.9183 C56.18,449.8983 79.36,361.4583 102.25,337.7983 C122.31,317.0783 150.22,303.5883 177.22,294.8383" fill="none" id="User-UC8" style="stroke:#181818;stroke-width:1;"/></g><!--link User to UC9--><g class="link" data-entity-1="ent0002" data-entity-2="ent0013" data-link-type="association" data-source-line="35" id="lnk19"><path d="M62.27,531.9283 C95.79,520.7683 154.49,501.2383 199.95,486.1083" fill="none" id="User-UC9" style="stroke:#181818;stroke-width:1;"/></g><!--link UC6 to UC8--><g class="link" data-entity-1="ent0011" data-entity-2="ent0012" data-link-type="dependency" data-source-line="37" id="lnk20"><path d="M264.96,355.0883 C264.96,339.5583 264.96,325.5683 264.96,309.9483" fill="none" id="UC6-to-UC8" style="stroke:#181818;stroke-width:1;stroke-dasharray:7,7;"/><polygon fill="#181818" points="264.96,303.9483,260.96,312.9483,264.96,308.9483,268.96,312.9483,264.96,303.9483" style="stroke:#181818;stroke-width:1;"/><text fill="#000000" font-family="sans-serif" font-size="13" lengthAdjust="spacing" textLength="59.3569" x="223.96" y="334.6666">&#171;include&#187;</text></g><!--link Brapi to UC8--><g class="link" data-entity-1="ent0003" data-entity-2="ent0012" data-link-type="association" data-source-line="39" id="lnk21"><path d="M62.27,244.3483 C89.79,249.0483 134.29,256.6483 174.49,263.5183" fill="none" id="Brapi-UC8" style="stroke:#181818;stroke-width:1;"/></g><!--link CoinCap to UC8--><g class="link" data-entity-1="ent0004" data-entity-2="ent0012" data-link-type="association" data-source-line="40" id="lnk22"><path d="M63.62,342.8483 C97.21,332.1083 154.57,313.7683 199.33,299.4583" fill="none" id="CoinCap-UC8" style="stroke:#181818;stroke-width:1;"/></g><!--link UC9 to GMN23--><g class="link" data-entity-1="ent0013" data-entity-2="ent0024" data-link-type="association" data-source-line="43" id="lnk25"><path d="M154.72,457.4183 C124.07,448.9983 95.65,433.2183 82.75,404.2983 C69.26,374.0583 69.26,285.5383 82.75,255.2983 C103.89,207.9283 155.49,178.0083 198.4,160.5183" fill="none" id="UC9-GMN23" style="stroke:#181818;stroke-width:1;stroke-dasharray:7,7;"/></g><!--link UC6 to GMN26--><g class="link" data-entity-1="ent0011" data-entity-2="ent0027" data-link-type="association" data-source-line="48" id="lnk28"><path d="M170.26,367.3083 C134.26,356.9083 98.2,337.9183 82.75,303.2983 C66.09,265.9583 66.09,156.6383 82.75,119.2983 C92.86,96.6483 112.68,82.5083 135.66,73.8283" fill="none" id="UC6-GMN26" style="stroke:#181818;stroke-width:1;stroke-dasharray:7,7;"/></g><?plantuml-src RLCzRzj03DtlLn3gMcU9RTX5OC0H6Y1BXwRkv8MMQ8dmwQZSdUf-8F-zr5bE526QgAT7yl6HidIC40KyLtM4aZqLaSMPS6BNeiS6GesbdDbLS4GRQFIbnUA45Jt5FvQWJqHNsJ6X2rHW8FXd0EwLN7dfN9cB5G_dcYFrkFYI_0NxD4-FUHdLm2AAlxJ0CmLfo9Z8KLyV7h_zsC8CSWmIe2JO1O77fhNKa8igEXYJiY7RXGuzImOOb4N-YjzxR3cXARh2kR3BiKqVXjYOrm4XU-8GgS6BWYoDDtW1sRQW4EG2mgi3sIw_LQdV2It_HRzt1POOeXyavRTJzlmTsqh5Rg3EfzJ5b2fT7BWBvRwOiRnSNEXinDulZFnBmWTIbrhn9wjdgQPI8zgQmjwDabBzvJHprUzZQE6Xa8Y5z8dKW3hMwfsfq25vDKrUlszRgylYkP2zK-zrfGJJ_kiqdqxOBnLci-JaMpmVnOjHl1p5gr6yra8w_Cscn-4BtDsnAsnNqcPZJBgGQyvm5TTNuqJL7IH6QK2EgTJNttpWKi0X7BfG860NTGZkDm_F7RfIZ4E16a71asfWTnJVwE7U678bz3K_gBmqMm4yUFOWrzM0zad6V5OCsrQFjLBtl3Q5G5OTxfqVF1JrFFqEepR_0G00?></g></svg>