<?plantuml 1.2026.2?><svg xmlns="http://www.w3.org/2000/svg" xmlns:xlink="http://www.w3.org/1999/xlink" contentStyleType="text/css" data-diagram-type="DESCRIPTION" height="1773.75px" preserveAspectRatio="none" style="width:3774px;height:1773px;background:#FCFCFA;" version="1.1" viewBox="0 0 3774 1773" width="3774.375px" zoomAndPan="magnify"><title>FINTA - Componentes Implementados</title><defs/><g><rect fill="#FCFCFA" height="1773.75" style="stroke:none;stroke-width:1.875;" width="3774.375" x="0" y="0"/><g class="title" data-source-line="50"><text fill="#16324F" font-family="Arial" font-size="45" font-weight="bold" lengthAdjust="spacing" textLength="815.0537" x="1466.6985" y="60.9595">FINTA - Componentes Implementados</text></g><!--cluster Camada 1 - Interacao--><g class="cluster" data-qualified-name="Camada 1 - Interacao" data-source-line="54" id="ent0003"><path d="M2314.6875,359.0581 L2599.4879,359.0581 A7.0313,7.0313 0 0 1 2604.1754,363.7456 L2617.3004,402.6491 L2699.0625,402.6491 A4.6875,4.6875 0 0 1 2703.75,407.3366 L2703.75,554.0394 A4.6875,4.6875 0 0 1 2699.0625,558.7269 L2314.6875,558.7269 A4.6875,4.6875 0 0 1 2310,554.0394 L2310,363.7456 A4.6875,4.6875 0 0 1 2314.6875,359.0581" fill="#F5F7F9" style="stroke:#7A8A99;stroke-width:2.8125;"/><line style="stroke:#7A8A99;stroke-width:2.8125;" x1="2310" x2="2617.3004" y1="402.6491" y2="402.6491"/><text fill="#000000" font-family="Arial" font-size="28.125" font-weight="bold" lengthAdjust="spacing" textLength="282.9254" x="2317.5" y="389.189">Camada 1 - Interacao</text></g><!--cluster Camada 2 - API / Composicao--><g class="cluster" data-qualified-name="Camada 2 - API . Composicao" data-source-line="58" id="ent0005"><path d="M1776.5625,639.3519 L2175.4147,639.3519 A7.0313,7.0313 0 0 1 2180.1022,644.0394 L2193.2272,682.9429 L2192.8125,682.9429 A4.6875,4.6875 0 0 1 2197.5,687.6304 L2197.5,834.3519 A4.6875,4.6875 0 0 1 2192.8125,839.0394 L1776.5625,839.0394 A4.6875,4.6875 0 0 1 1771.875,834.3519 L1771.875,644.0394 A4.6875,4.6875 0 0 1 1776.5625,639.3519" fill="#F5F7F9" style="stroke:#7A8A99;stroke-width:2.8125;"/><line style="stroke:#7A8A99;stroke-width:2.8125;" x1="1771.875" x2="2193.2272" y1="682.9429" y2="682.9429"/><text fill="#000000" font-family="Arial" font-size="28.125" font-weight="bold" lengthAdjust="spacing" textLength="396.9772" x="1779.375" y="669.4828">Camada 2 - API / Composicao</text></g><!--cluster Camada 3 - Servicos de dominio--><g class="cluster" data-qualified-name="Camada 3 - Servicos de dominio" data-source-line="62" id="ent0007"><path d="M1165.3125,919.6644 L1600.1312,919.6644 A7.0313,7.0313 0 0 1 1604.8187,924.3519 L1617.9437,963.2554 L2470.3125,963.2554 A4.6875,4.6875 0 0 1 2475,967.9429 L2475,1147.0081 A4.6875,4.6875 0 0 1 2470.3125,1151.6956 L1165.3125,1151.6956 A4.6875,4.6875 0 0 1 1160.625,1147.0081 L1160.625,924.3519 A4.6875,4.6875 0 0 1 1165.3125,919.6644" fill="#F5F7F9" style="stroke:#7A8A99;stroke-width:2.8125;"/><line style="stroke:#7A8A99;stroke-width:2.8125;" x1="1160.625" x2="1617.9437" y1="963.2554" y2="963.2554"/><text fill="#000000" font-family="Arial" font-size="28.125" font-weight="bold" lengthAdjust="spacing" textLength="432.9437" x="1168.125" y="949.7953">Camada 3 - Servicos de dominio</text></g><!--cluster Camada 4 - Adapters--><g class="cluster" data-qualified-name="Camada 4 - Adapters" data-source-line="68" id="ent0011"><path d="M15.9375,1232.3206 L297.5931,1232.3206 A7.0313,7.0313 0 0 1 302.2806,1237.0081 L315.4056,1275.9116 L2792.8125,1275.9116 A4.6875,4.6875 0 0 1 2797.5,1280.5991 L2797.5,1459.6456 A4.6875,4.6875 0 0 1 2792.8125,1464.3331 L15.9375,1464.3331 A4.6875,4.6875 0 0 1 11.25,1459.6456 L11.25,1237.0081 A4.6875,4.6875 0 0 1 15.9375,1232.3206" fill="#F5F7F9" style="stroke:#7A8A99;stroke-width:2.8125;"/><line style="stroke:#7A8A99;stroke-width:2.8125;" x1="11.25" x2="315.4056" y1="1275.9116" y2="1275.9116"/><text fill="#000000" font-family="Arial" font-size="28.125" font-weight="bold" lengthAdjust="spacing" textLength="279.7806" x="18.75" y="1262.4515">Camada 4 - Adapters</text></g><!--cluster Camada 5 - Infraestrutura externa--><g class="cluster" data-qualified-name="Camada 5 - Infraestrutura externa" data-source-line="77" id="ent0018"><path d="M167.8125,1544.9581 L618.2867,1544.9581 A7.0313,7.0313 0 0 1 622.9742,1549.6456 L636.0992,1588.5491 L1583.4375,1588.5491 A4.6875,4.6875 0 0 1 1588.125,1593.2366 L1588.125,1756.8331 A4.6875,4.6875 0 0 1 1583.4375,1761.5206 L167.8125,1761.5206 A4.6875,4.6875 0 0 1 163.125,1756.8331 L163.125,1549.6456 A4.6875,4.6875 0 0 1 167.8125,1544.9581" fill="#F5F7F9" style="stroke:#7A8A99;stroke-width:2.8125;"/><line style="stroke:#7A8A99;stroke-width:2.8125;" x1="163.125" x2="636.0992" y1="1588.5491" y2="1588.5491"/><text fill="#000000" font-family="Arial" font-size="28.125" font-weight="bold" lengthAdjust="spacing" textLength="448.5992" x="170.625" y="1575.089">Camada 5 - Infraestrutura externa</text></g><!--cluster Base compartilhada--><g class="cluster" data-qualified-name="Base compartilhada" data-source-line="84" id="ent0023"><path d="M2873.4375,1248.4831 L3142.5961,1248.4831 A7.0313,7.0313 0 0 1 3147.2836,1253.1706 L3160.4086,1292.0741 L3224.0625,1292.0741 A4.6875,4.6875 0 0 1 3228.75,1296.7616 L3228.75,1443.4831 A4.6875,4.6875 0 0 1 3224.0625,1448.1706 L2873.4375,1448.1706 A4.6875,4.6875 0 0 1 2868.75,1443.4831 L2868.75,1253.1706 A4.6875,4.6875 0 0 1 2873.4375,1248.4831" fill="#F5F7F9" style="stroke:#7A8A99;stroke-width:2.8125;"/><line style="stroke:#7A8A99;stroke-width:2.8125;" x1="2868.75" x2="3160.4086" y1="1292.0741" y2="1292.0741"/><text fill="#000000" font-family="Arial" font-size="28.125" font-weight="bold" lengthAdjust="spacing" textLength="267.2836" x="2876.25" y="1278.614">Base compartilhada</text></g><!--entity Front--><g class="entity" data-qualified-name="Camada 1 - Interacao.Front" data-source-line="55" id="ent0004"><rect fill="#EAF2FF" height="102.182" rx="4.6875" ry="4.6875" style="stroke:#486581;stroke-width:2.25;" width="332.1259" x="2340.8063" y="426.5581"/><text fill="#102A43" font-family="Arial" font-size="28.125" lengthAdjust="spacing" textLength="234.5169" x="2359.5563" y="471.689">frontend-cloudflare</text><text fill="#102A43" font-family="Arial" font-size="28.125" lengthAdjust="spacing" textLength="294.6259" x="2359.5563" y="504.03">Next.js Web App + BFF</text></g><!--entity Back--><g class="entity" data-qualified-name="Camada 2 - API . Composicao.Back" data-source-line="59" id="ent0006"><rect fill="#EAF2FF" height="102.182" rx="4.6875" ry="4.6875" style="stroke:#486581;stroke-width:2.25;" width="317.2806" x="1825.1063" y="706.8519"/><text fill="#102A43" font-family="Arial" font-size="28.125" lengthAdjust="spacing" textLength="237.648" x="1843.8563" y="751.9828">backend-cloudflare</text><text fill="#102A43" font-family="Arial" font-size="28.125" lengthAdjust="spacing" textLength="279.7806" x="1843.8563" y="784.3238">Cloudflare Worker API</text></g><!--entity Identity--><g class="entity" data-qualified-name="Camada 3 - Servicos de dominio.Identity" data-source-line="63" id="ent0008"><rect fill="#EEF8EE" height="134.523" rx="4.6875" ry="4.6875" style="stroke:#486581;stroke-width:2.25;" width="313.0371" x="2132.85" y="987.1644"/><text fill="#102A43" font-family="Arial" font-size="28.125" lengthAdjust="spacing" textLength="275.5371" x="2151.6" y="1032.2953">@finta/identity-access</text><text fill="#102A43" font-family="Arial" font-size="28.125" lengthAdjust="spacing" textLength="243.8553" x="2151.6" y="1064.6363">RegistrationService</text><text fill="#102A43" font-family="Arial" font-size="28.125" lengthAdjust="spacing" textLength="272.0352" x="2151.6" y="1096.9773">AuthenticationService</text></g><!--entity PriceQuery--><g class="entity" data-qualified-name="Camada 3 - Servicos de dominio.PriceQuery" data-source-line="64" id="ent0009"><rect fill="#EEF8EE" height="102.182" rx="4.6875" ry="4.6875" style="stroke:#486581;stroke-width:2.25;" width="271.9482" x="1191.525" y="1003.3456"/><text fill="#102A43" font-family="Arial" font-size="28.125" lengthAdjust="spacing" textLength="230.2048" x="1210.275" y="1048.4765">@finta/price-query</text><text fill="#102A43" font-family="Arial" font-size="28.125" lengthAdjust="spacing" textLength="234.4482" x="1210.275" y="1080.8175">PriceQueryService</text></g><!--entity UserAssets--><g class="entity" data-qualified-name="Camada 3 - Servicos de dominio.UserAssets" data-source-line="65" id="ent0010"><rect fill="#EEF8EE" height="102.182" rx="4.6875" ry="4.6875" style="stroke:#486581;stroke-width:2.25;" width="406.4346" x="1594.9125" y="1003.3456"/><text fill="#102A43" font-family="Arial" font-size="28.125" lengthAdjust="spacing" textLength="234.8877" x="1613.6625" y="1048.4765">@finta/user-assets</text><text fill="#102A43" font-family="Arial" font-size="28.125" lengthAdjust="spacing" textLength="368.9346" x="1613.6625" y="1080.8175">RecentAssetSelectionService</text></g><!--entity D1UserRepo--><g class="entity" data-qualified-name="Camada 4 - Adapters.D1UserRepo" data-source-line="69" id="ent0012"><rect fill="#FFFDF7" height="69.841" rx="4.6875" ry="4.6875" style="stroke:#486581;stroke-width:2.25;" width="267.2653" x="2500.7438" y="1332.1644"/><text fill="#102A43" font-family="Arial" font-size="28.125" lengthAdjust="spacing" textLength="229.7653" x="2519.4938" y="1377.2953">D1UserRepository</text></g><!--entity PasswordHasher--><g class="entity" data-qualified-name="Camada 4 - Adapters.PasswordHasher" data-source-line="70" id="ent0013"><rect fill="#FFFDF7" height="69.841" rx="4.6875" ry="4.6875" style="stroke:#486581;stroke-width:2.25;" width="350.1572" x="1638.0375" y="1332.1644"/><text fill="#102A43" font-family="Arial" font-size="28.125" lengthAdjust="spacing" textLength="312.6572" x="1656.7875" y="1377.2953">PasswordHasherAdapter</text></g><!--entity JwtToken--><g class="entity" data-qualified-name="Camada 4 - Adapters.JwtToken" data-source-line="71" id="ent0014"><rect fill="#FFFDF7" height="69.841" rx="4.6875" ry="4.6875" style="stroke:#486581;stroke-width:2.25;" width="251.6373" x="2118.5625" y="1332.1644"/><text fill="#102A43" font-family="Arial" font-size="28.125" lengthAdjust="spacing" textLength="214.1373" x="2137.3125" y="1377.2953">JwtTokenService</text></g><!--entity QuoteStore--><g class="entity" data-qualified-name="Camada 4 - Adapters.QuoteStore" data-source-line="72" id="ent0015"><rect fill="#FFFDF7" height="69.841" rx="4.6875" ry="4.6875" style="stroke:#486581;stroke-width:2.25;" width="461.2015" x="41.2688" y="1332.1644"/><text fill="#102A43" font-family="Arial" font-size="28.125" lengthAdjust="spacing" textLength="423.7015" x="60.0188" y="1377.2953">CloudflareKvQuoteSnapshotStore</text></g><!--entity MarketGateway--><g class="entity" data-qualified-name="Camada 4 - Adapters.MarketGateway" data-source-line="73" id="ent0016"><rect fill="#FFFDF7" height="134.523" rx="4.6875" ry="4.6875" style="stroke:#486581;stroke-width:2.25;" width="403.2898" x="634.6125" y="1299.8206"/><text fill="#102A43" font-family="Arial" font-size="28.125" lengthAdjust="spacing" textLength="334.52" x="653.3625" y="1344.9515">createMarketDataGateway</text><text fill="#102A43" font-family="Arial" font-size="28.125" lengthAdjust="spacing" textLength="322.0093" x="653.3625" y="1377.2925">BrapiMarketDataGateway</text><text fill="#102A43" font-family="Arial" font-size="28.125" lengthAdjust="spacing" textLength="365.7898" x="653.3625" y="1409.6335">CoinCapMarketDataGateway</text></g><!--entity D1UserAssetRepo--><g class="entity" data-qualified-name="Camada 4 - Adapters.D1UserAssetRepo" data-source-line="74" id="ent0017"><rect fill="#FFFDF7" height="69.841" rx="4.6875" ry="4.6875" style="stroke:#486581;stroke-width:2.25;" width="337.6053" x="1169.9438" y="1332.1644"/><text fill="#102A43" font-family="Arial" font-size="28.125" lengthAdjust="spacing" textLength="300.1053" x="1188.6938" y="1377.2953">D1UserAssetRepository</text></g><!--entity D1--><g class="entity" data-qualified-name="Camada 5 - Infraestrutura externa.D1" data-source-line="78" id="ent0019"><path d="M1118.7188,1631.2081 C1118.7188,1612.4581 1338.752,1612.4581 1338.752,1612.4581 C1338.752,1612.4581 1558.7853,1612.4581 1558.7853,1631.2081 L1558.7853,1712.7651 C1558.7853,1731.5151 1338.752,1731.5151 1338.752,1731.5151 C1338.752,1731.5151 1118.7188,1731.5151 1118.7188,1712.7651 L1118.7188,1631.2081" fill="#FFF7DB" style="stroke:#7C5E10;stroke-width:0.9375;"/><path d="M1118.7188,1631.2081 C1118.7188,1649.9581 1338.752,1649.9581 1338.752,1649.9581 C1338.752,1649.9581 1558.7853,1649.9581 1558.7853,1631.2081" fill="none" style="stroke:#7C5E10;stroke-width:0.9375;"/><text fill="#102A43" font-family="Arial" font-size="28.125" lengthAdjust="spacing" textLength="171.9635" x="1137.4688" y="1683.839">Cloudflare D1</text><text fill="#102A43" font-family="Arial" font-size="28.125" lengthAdjust="spacing" textLength="402.5665" x="1137.4688" y="1716.18">users + recent_asset_selections</text></g><!--entity KV--><g class="entity" data-qualified-name="Camada 5 - Infraestrutura externa.KV" data-source-line="79" id="ent0020"><path d="M193.0875,1631.2081 C193.0875,1612.4581 314.9923,1612.4581 314.9923,1612.4581 C314.9923,1612.4581 436.897,1612.4581 436.897,1631.2081 L436.897,1712.7651 C436.897,1731.5151 314.9923,1731.5151 314.9923,1731.5151 C314.9923,1731.5151 193.0875,1731.5151 193.0875,1712.7651 L193.0875,1631.2081" fill="#FFF7DB" style="stroke:#7C5E10;stroke-width:0.9375;"/><path d="M193.0875,1631.2081 C193.0875,1649.9581 314.9923,1649.9581 314.9923,1649.9581 C314.9923,1649.9581 436.897,1649.9581 436.897,1631.2081" fill="none" style="stroke:#7C5E10;stroke-width:0.9375;"/><text fill="#102A43" font-family="Arial" font-size="28.125" lengthAdjust="spacing" textLength="173.5291" x="211.8375" y="1683.839">Cloudflare KV</text><text fill="#102A43" font-family="Arial" font-size="28.125" lengthAdjust="spacing" textLength="206.3095" x="211.8375" y="1716.18">ASSET_CACHE</text></g><!--entity Brapi--><g class="entity" data-qualified-name="Camada 5 - Infraestrutura externa.Brapi" data-source-line="80" id="ent0021"><path d="M883.7722,1643.4109 C887.5029,1633.2429 896.4208,1630.5774 904.0776,1639.159 C908.0574,1625.0095 917.8163,1623.9052 927.1333,1634.1055 C938.5074,1625.7661 946.4322,1627.2659 952.4036,1640.449 C960.4414,1632.8805 966.6907,1631.6045 972.2509,1643.0369 C994.5818,1642.3754 1000.4566,1656.4067 993.6011,1675.1498 C999.7639,1690.3697 993.3678,1702.2712 975.9312,1701.9058 C971.7116,1716.5414 962.7858,1717.5589 951.965,1708.6155 C948.3101,1720.1925 937.2738,1721.9478 929.4534,1713.2378 C919.1673,1721.8676 911.6622,1722.1658 905.887,1708.4751 C896.339,1717.3285 886.1893,1714.9307 882.0509,1702.4352 C864.5115,1700.8279 858.9394,1687.9908 869.4945,1673.9844 C858.1876,1659.2851 863.6058,1643.4122 883.7722,1643.4109" fill="#E9FBFF" style="stroke:#0F6D7A;stroke-width:0.9375;"/><text fill="#102A43" font-family="Arial" font-size="28.125" lengthAdjust="spacing" textLength="65.657" x="893.4188" y="1682.2078">Brapi</text></g><!--entity CoinCap--><g class="entity" data-qualified-name="Camada 5 - Infraestrutura externa.CoinCap" data-source-line="81" id="ent0022"><path d="M586.8941,1644.0235 C592.0025,1633.8182 598.8513,1631.7402 606.5746,1641.4378 C611.4445,1629.5633 623.2529,1625.9172 631.5241,1637.8774 C637.4208,1626.9868 645.5533,1625.0432 654.7385,1634.0384 C661.6686,1627.1994 669.3906,1629.1904 673.3113,1637.6839 C681.774,1625.1334 693.1852,1625.9151 699.9365,1639.4319 C709.7032,1633.3228 716.5498,1635.3932 720.6716,1646.3075 C735.3484,1649.7556 736.3288,1662.2543 727.6248,1672.0241 C738.8997,1684.2896 736.6355,1694.9731 722.435,1702.9657 C717.6356,1715.6573 706.1822,1719.4591 696.0433,1709.0714 C693.9833,1719.7809 685.3709,1725.0946 676.2035,1716.3019 C671.7145,1730.5167 663.6864,1729.399 653.7715,1721.9099 C641.6092,1732.0706 632.7151,1727.3247 629.0711,1713.234 C620.2981,1721.268 612.8669,1718.3197 608.1927,1708.4533 C599.6317,1719.3654 589.1051,1715.1309 584.9252,1703.8583 C568.9429,1697.0969 566.6126,1684.9205 580.5173,1673.7794 C568.8378,1661.0447 570.2648,1650.6915 586.8941,1644.0235" fill="#E9FBFF" style="stroke:#0F6D7A;stroke-width:0.9375;"/><text fill="#102A43" font-family="Arial" font-size="28.125" lengthAdjust="spacing" textLength="109.4376" x="595.9125" y="1682.2078">CoinCap</text></g><!--entity SharedKernel--><g class="entity" data-qualified-name="Base compartilhada.SharedKernel" data-source-line="85" id="ent0024"><rect fill="#F4EEFF" height="102.182" rx="4.6875" ry="4.6875" style="stroke:#486581;stroke-width:2.25;" width="298.9883" x="2899.2563" y="1315.9831"/><text fill="#102A43" font-family="Arial" font-size="28.125" lengthAdjust="spacing" textLength="261.4883" x="2918.0063" y="1361.114">@finta/shared-kernel</text><text fill="#102A43" font-family="Arial" font-size="28.125" lengthAdjust="spacing" textLength="219.603" x="2918.0063" y="1393.455">contracts + errors</text></g><!--entity User--><g class="entity" data-qualified-name="User" data-source-line="52" id="ent0002"><ellipse cx="2506.8683" cy="117.3706" fill="#F1F1F1" rx="15" ry="15" style="stroke:#486581;stroke-width:0.9375;"/><path d="M2506.8683,132.3706 L2506.8683,182.9956 M2482.4933,147.3706 L2531.2433,147.3706 M2506.8683,182.9956 L2482.4933,211.1206 M2506.8683,182.9956 L2531.2433,211.1206" fill="none" style="stroke:#486581;stroke-width:0.9375;"/><text fill="#102A43" font-family="Arial" font-size="30" lengthAdjust="spacing" textLength="103.374" x="2455.1813" y="242.0728">Usuario</text></g><g class="entity" data-qualified-name="GMN56" data-source-line="130" id="ent0057"><path d="M2803.875,453.1831 L2803.875,469.6456 L2673.4688,477.1456 L2803.875,484.6456 L2803.875,502.118 A0,0 0 0 0 2803.875,502.118 L3151.1235,502.118 A0,0 0 0 0 3151.1235,502.118 L3151.1235,471.9331 L3132.3735,453.1831 L2803.875,453.1831 A0,0 0 0 0 2803.875,453.1831" fill="#F8FAFB" style="stroke:#A0AEC0;stroke-width:0.9375;"/><path d="M3132.3735,453.1831 L3132.3735,471.9331 L3151.1235,471.9331 L3132.3735,453.1831" fill="#F8FAFB" style="stroke:#A0AEC0;stroke-width:0.9375;"/><text fill="#102A43" font-family="Arial" font-size="26.25" lengthAdjust="spacing" textLength="307.8735" x="2815.125" y="487.1803">Entrada do usuario e BFF.</text></g><g class="entity" data-qualified-name="GMN59" data-source-line="134" id="ent0060"><path d="M2273.1187,733.4769 L2273.1187,750.8956 L2143.0875,758.3956 L2273.1187,765.8956 L2273.1187,782.4118 A0,0 0 0 0 2273.1187,782.4118 L2849.3883,782.4118 A0,0 0 0 0 2849.3883,782.4118 L2849.3883,752.2269 L2830.6383,733.4769 L2273.1187,733.4769 A0,0 0 0 0 2273.1187,733.4769" fill="#F8FAFB" style="stroke:#A0AEC0;stroke-width:0.9375;"/><path d="M2830.6383,733.4769 L2830.6383,752.2269 L2849.3883,752.2269 L2830.6383,733.4769" fill="#F8FAFB" style="stroke:#A0AEC0;stroke-width:0.9375;"/><text fill="#102A43" font-family="Arial" font-size="26.25" lengthAdjust="spacing" textLength="536.8945" x="2284.3687" y="767.474">Compoe os servicos e expone as rotas HTTP.</text></g><g class="entity" data-qualified-name="GMN62" data-source-line="138" id="ent0063"><path d="M3329.6812,1327.5144 L3329.6812,1360.2706 L3199.1813,1367.7706 L3329.6812,1375.2706 L3329.6812,1406.6342 A0,0 0 0 0 3329.6812,1406.6342 L3761.5758,1406.6342 A0,0 0 0 0 3761.5758,1406.6342 L3761.5758,1346.2644 L3742.8258,1327.5144 L3329.6812,1327.5144 A0,0 0 0 0 3329.6812,1327.5144" fill="#F8FAFB" style="stroke:#A0AEC0;stroke-width:0.9375;"/><path d="M3742.8258,1327.5144 L3742.8258,1346.2644 L3761.5758,1346.2644 L3742.8258,1327.5144" fill="#F8FAFB" style="stroke:#A0AEC0;stroke-width:0.9375;"/><text fill="#102A43" font-family="Arial" font-size="26.25" lengthAdjust="spacing" textLength="392.5195" x="3340.9312" y="1361.5115">Biblioteca compartilhada de tipos,</text><text fill="#102A43" font-family="Arial" font-size="26.25" lengthAdjust="spacing" textLength="204.2578" x="3340.9312" y="1391.6965">contratos e erros.</text></g><!--link User to Front--><g class="link" data-entity-1="ent0002" data-entity-2="ent0004" data-link-type="dependency" data-source-line="88" id="lnk25"><path d="M2506.875,248.9769 C2506.875,303.9519 2506.875,366.2394 2506.875,414.9144" fill="none" id="User-to-Front" style="stroke:#425466;stroke-width:2.4375;"/><polygon fill="#425466" points="2506.875,426.1644,2514.375,409.2894,2506.875,416.7894,2499.375,409.2894,2506.875,426.1644" style="stroke:#425466;stroke-width:2.4375;"/><text fill="#000000" font-family="Arial" font-size="28.125" lengthAdjust="spacing" textLength="104.7409" x="2401.875" y="330.2015">usa a UI</text></g><!--link Front to Back--><g class="link" data-entity-1="ent0004" data-entity-2="ent0006" data-link-type="dependency" data-source-line="89" id="lnk26"><path d="M2506.875,529.2331 C2506.875,600.6331 2506.875,720.8956 2506.875,720.8956 C2506.875,720.8956 2307.9938,720.8956 2154.0938,720.8956" fill="none" id="Front-to-Back" style="stroke:#425466;stroke-width:2.4375;"/><polygon fill="#425466" points="2142.8438,720.8956,2159.7188,728.3956,2152.2188,720.8956,2159.7188,713.3956,2142.8438,720.8956" style="stroke:#425466;stroke-width:2.4375;"/><text fill="#000000" font-family="Arial" font-size="28.125" lengthAdjust="spacing" textLength="304.0466" x="2422.5563" y="713.5265">/api/* + fetch server-side</text></g><!--link Back to Identity--><g class="link" data-entity-1="ent0006" data-entity-2="ent0008" data-link-type="dependency" data-source-line="91" id="lnk27"><path d="M2128.0875,809.5269 C2128.0875,880.1769 2128.0875,998.3956 2128.0875,998.3956 C2128.0875,998.3956 2118.2625,998.3956 2120.8312,998.3956" fill="none" id="Back-to-Identity" style="stroke:#425466;stroke-width:2.4375;"/><polygon fill="#425466" points="2132.0812,998.3956,2115.2062,990.8956,2122.7062,998.3956,2115.2062,1005.8956,2132.0812,998.3956" style="stroke:#425466;stroke-width:2.4375;"/><text fill="#000000" font-family="Arial" font-size="28.125" lengthAdjust="spacing" textLength="54.7394" x="2071.8375" y="898.589">auth</text></g><!--link Back to PriceQuery--><g class="link" data-entity-1="ent0006" data-entity-2="ent0009" data-link-type="dependency" data-source-line="92" id="lnk28"><path d="M1824.5438,758.3956 C1617.5625,758.3956 1282.1813,758.3956 1282.1813,758.3956 C1282.1813,758.3956 1282.1813,906.8019 1282.1813,991.6081" fill="none" id="Back-to-PriceQuery" style="stroke:#425466;stroke-width:2.4375;"/><polygon fill="#425466" points="1282.1813,1002.8581,1289.6813,985.9831,1282.1813,993.4831,1274.6813,985.9831,1282.1813,1002.8581" style="stroke:#425466;stroke-width:2.4375;"/><text fill="#000000" font-family="Arial" font-size="28.125" lengthAdjust="spacing" textLength="84.4437" x="1344.8813" y="751.0265">quotes</text></g><!--link Back to UserAssets--><g class="link" data-entity-1="ent0006" data-entity-2="ent0010" data-link-type="dependency" data-source-line="93" id="lnk29"><path d="M1913.2313,809.6019 C1913.2313,863.8456 1913.2313,937.4206 1913.2313,991.6269" fill="none" id="Back-to-UserAssets" style="stroke:#425466;stroke-width:2.4375;"/><polygon fill="#425466" points="1913.2313,1002.8769,1920.7313,986.0019,1913.2313,993.5019,1905.7313,986.0019,1913.2313,1002.8769" style="stroke:#425466;stroke-width:2.4375;"/><text fill="#000000" font-family="Arial" font-size="28.125" lengthAdjust="spacing" textLength="107.872" x="1804.4813" y="898.8703">recentes</text></g><!--link Identity to D1UserRepo--><g class="link" data-entity-1="ent0008" data-entity-2="ent0012" data-link-type="dependency" data-source-line="95" id="lnk30"><path d="M2395.425,1122.4269 C2395.425,1214.5831 2395.425,1367.7706 2395.425,1367.7706 C2395.425,1367.7706 2434.5188,1367.7706 2488.9875,1367.7706" fill="none" id="Identity-to-D1UserRepo" style="stroke:#425466;stroke-width:2.4375;"/><polygon fill="#425466" points="2500.2375,1367.7706,2483.3625,1360.2706,2490.8625,1367.7706,2483.3625,1375.2706,2500.2375,1367.7706" style="stroke:#425466;stroke-width:2.4375;"/><text fill="#000000" font-family="Arial" font-size="28.125" lengthAdjust="spacing" textLength="201.6266" x="2192.925" y="1290.1265">IUserRepository</text></g><!--link Identity to PasswordHasher--><g class="link" data-entity-1="ent0008" data-entity-2="ent0013" data-link-type="dependency" data-source-line="96" id="lnk31"><path d="M2132.5875,1112.7706 C1974.8438,1112.7706 1754.7563,1112.7706 1754.7563,1112.7706 C1754.7563,1112.7706 1754.7563,1250.5831 1754.7563,1320.4644" fill="none" id="Identity-to-PasswordHasher" style="stroke:#425466;stroke-width:2.4375;"/><polygon fill="#425466" points="1754.7563,1331.7144,1762.2563,1314.8394,1754.7563,1322.3394,1747.2563,1314.8394,1754.7563,1331.7144" style="stroke:#425466;stroke-width:2.4375;"/><text fill="#000000" font-family="Arial" font-size="28.125" lengthAdjust="spacing" textLength="221.965" x="1611.075" y="1141.0265">IPasswordHasher</text></g><!--link Identity to JwtToken--><g class="link" data-entity-1="ent0008" data-entity-2="ent0014" data-link-type="dependency" data-source-line="97" id="lnk32"><path d="M2251.5187,1122.2769 C2251.5187,1186.5706 2251.5187,1269.3894 2251.5187,1320.1644" fill="none" id="Identity-to-JwtToken" style="stroke:#425466;stroke-width:2.4375;"/><polygon fill="#425466" points="2251.5187,1331.4144,2259.0187,1314.5394,2251.5187,1322.0394,2244.0187,1314.5394,2251.5187,1331.4144" style="stroke:#425466;stroke-width:2.4375;"/><text fill="#000000" font-family="Arial" font-size="28.125" lengthAdjust="spacing" textLength="179.7638" x="2071.5187" y="1219.4765">ITokenService</text></g><!--link PriceQuery to QuoteStore--><g class="link" data-entity-1="ent0009" data-entity-2="ent0015" data-link-type="dependency" data-source-line="99" id="lnk33"><path d="M1191.1125,1054.6456 C905.7563,1054.6456 271.875,1054.6456 271.875,1054.6456 C271.875,1054.6456 271.875,1237.9269 271.875,1319.9956" fill="none" id="PriceQuery-to-QuoteStore" style="stroke:#425466;stroke-width:2.4375;"/><polygon fill="#425466" points="271.875,1331.2456,279.375,1314.3706,271.875,1321.8706,264.375,1314.3706,271.875,1331.2456" style="stroke:#425466;stroke-width:2.4375;"/><text fill="#000000" font-family="Arial" font-size="28.125" lengthAdjust="spacing" textLength="270.4971" x="321.3188" y="1047.2765">IQuoteSnapshotStore</text></g><!--link PriceQuery to MarketGateway--><g class="link" data-entity-1="ent0009" data-entity-2="ent0016" data-link-type="dependency" data-source-line="100" id="lnk34"><path d="M1282.1813,1106.3019 C1282.1813,1180.4206 1282.1813,1307.7706 1282.1813,1307.7706 C1282.1813,1307.7706 1167.5813,1307.7706 1049.5875,1307.7706" fill="none" id="PriceQuery-to-MarketGateway" style="stroke:#425466;stroke-width:2.4375;"/><polygon fill="#425466" points="1038.3375,1307.7706,1055.2125,1315.2706,1047.7125,1307.7706,1055.2125,1300.2706,1038.3375,1307.7706" style="stroke:#425466;stroke-width:2.4375;"/><text fill="#000000" font-family="Arial" font-size="28.125" lengthAdjust="spacing" textLength="264.1663" x="1262.8687" y="1300.4015">IMarketDataGateway</text></g><!--link UserAssets to D1UserAssetRepo--><g class="link" data-entity-1="ent0010" data-entity-2="ent0017" data-link-type="dependency" data-source-line="102" id="lnk35"><path d="M1616.475,1106.1706 C1616.475,1195.1769 1616.475,1367.7706 1616.475,1367.7706 C1616.475,1367.7706 1577.3813,1367.7706 1519.5562,1367.7706" fill="none" id="UserAssets-to-D1UserAssetRepo" style="stroke:#425466;stroke-width:2.4375;"/><polygon fill="#425466" points="1508.3062,1367.7706,1525.1812,1375.2706,1517.6812,1367.7706,1525.1812,1360.2706,1508.3062,1367.7706" style="stroke:#425466;stroke-width:2.4375;"/><text fill="#000000" font-family="Arial" font-size="28.125" lengthAdjust="spacing" textLength="271.9666" x="1618.35" y="1283.6953">IUserAssetRepository</text></g><!--link D1UserRepo to D1--><g class="link" data-entity-1="ent0012" data-entity-2="ent0019" data-link-type="dependency" data-source-line="104" id="lnk36"><path d="M2634.375,1402.5894 C2634.375,1482.9144 2634.375,1671.5206 2634.375,1671.5206 C2634.375,1671.5206 1940.3625,1671.5206 1570.5188,1671.5206" fill="none" id="D1UserRepo-to-D1" style="stroke:#425466;stroke-width:2.4375;"/><polygon fill="#425466" points="1559.2688,1671.5206,1576.1438,1679.0206,1568.6438,1671.5206,1576.1438,1664.0206,1559.2688,1671.5206" style="stroke:#425466;stroke-width:2.4375;"/></g><!--link D1UserAssetRepo to D1--><g class="link" data-entity-1="ent0017" data-entity-2="ent0019" data-link-type="dependency" data-source-line="105" id="lnk37"><path d="M1338.75,1402.6456 C1338.75,1454.0206 1338.75,1538.3956 1338.75,1600.7769" fill="none" id="D1UserAssetRepo-to-D1" style="stroke:#425466;stroke-width:2.4375;"/><polygon fill="#425466" points="1338.75,1612.0269,1346.25,1595.1519,1338.75,1602.6519,1331.25,1595.1519,1338.75,1612.0269" style="stroke:#425466;stroke-width:2.4375;"/></g><!--link QuoteStore to KV--><g class="link" data-entity-1="ent0015" data-entity-2="ent0020" data-link-type="dependency" data-source-line="106" id="lnk38"><path d="M315,1402.6456 C315,1454.0206 315,1538.3956 315,1600.7769" fill="none" id="QuoteStore-to-KV" style="stroke:#425466;stroke-width:2.4375;"/><polygon fill="#425466" points="315,1612.0269,322.5,1595.1519,315,1602.6519,307.5,1595.1519,315,1612.0269" style="stroke:#425466;stroke-width:2.4375;"/></g><!--link MarketGateway to Brapi--><g class="link" data-entity-1="ent0016" data-entity-2="ent0021" data-link-type="dependency" data-source-line="107" id="lnk39"><path d="M946.575,1434.7456 C946.575,1493.3394 946.575,1565.2081 946.575,1615.9081" fill="none" id="MarketGateway-to-Brapi" style="stroke:#425466;stroke-width:2.4375;"/><polygon fill="#425466" points="946.575,1627.1581,954.075,1610.2831,946.575,1617.7831,939.075,1610.2831,946.575,1627.1581" style="stroke:#425466;stroke-width:2.4375;"/></g><!--link MarketGateway to CoinCap--><g class="link" data-entity-1="ent0016" data-entity-2="ent0022" data-link-type="dependency" data-source-line="108" id="lnk40"><path d="M684.0375,1434.7456 C684.0375,1493.3394 684.0375,1565.2081 684.0375,1615.9081" fill="none" id="MarketGateway-to-CoinCap" style="stroke:#425466;stroke-width:2.4375;"/><polygon fill="#425466" points="684.0375,1627.1581,691.5375,1610.2831,684.0375,1617.7831,676.5375,1610.2831,684.0375,1627.1581" style="stroke:#425466;stroke-width:2.4375;"/></g><!--link Identity to SharedKernel--><g class="link" data-entity-1="ent0008" data-entity-2="ent0024" data-link-type="dependency" data-source-line="110" id="lnk41"><path d="M2420.6625,1122.5769 C2420.6625,1200.9706 2420.6625,1319.0206 2420.6625,1319.0206 C2420.6625,1319.0206 2702.0812,1319.0206 2887.8563,1319.0206" fill="none" id="Identity-to-SharedKernel" style="stroke:#425466;stroke-width:2.4375;stroke-dasharray:13.125,13.125;"/><polygon fill="#425466" points="2899.1063,1319.0206,2882.2313,1311.5206,2889.7313,1319.0206,2882.2313,1326.5206,2899.1063,1319.0206" style="stroke:#425466;stroke-width:2.4375;"/></g><!--link PriceQuery to SharedKernel--><g class="link" data-entity-1="ent0009" data-entity-2="ent0024" data-link-type="dependency" data-source-line="111" id="lnk42"><path d="M1372.8188,1106.2456 C1372.8188,1185.2019 1372.8188,1326.5206 1372.8188,1326.5206 C1372.8188,1326.5206 2475.9375,1326.5206 2887.2938,1326.5206" fill="none" id="PriceQuery-to-SharedKernel" style="stroke:#425466;stroke-width:2.4375;stroke-dasharray:13.125,13.125;"/><polygon fill="#425466" points="2898.5438,1326.5206,2881.6688,1319.0206,2889.1688,1326.5206,2881.6688,1334.0206,2898.5438,1326.5206" style="stroke:#425466;stroke-width:2.4375;"/></g><!--link UserAssets to SharedKernel--><g class="link" data-entity-1="ent0010" data-entity-2="ent0024" data-link-type="dependency" data-source-line="112" id="lnk43"><path d="M1994.775,1105.8894 C1994.775,1184.2831 1994.775,1324.6456 1994.775,1324.6456 C1994.775,1324.6456 2596.6313,1324.6456 2887.6125,1324.6456" fill="none" id="UserAssets-to-SharedKernel" style="stroke:#425466;stroke-width:2.4375;stroke-dasharray:13.125,13.125;"/><polygon fill="#425466" points="2898.8625,1324.6456,2881.9875,1317.1456,2889.4875,1324.6456,2881.9875,1332.1456,2898.8625,1324.6456" style="stroke:#425466;stroke-width:2.4375;"/></g><!--link Back to SharedKernel--><g class="link" data-entity-1="ent0006" data-entity-2="ent0024" data-link-type="dependency" data-source-line="113" id="lnk44"><path d="M2123.325,809.9019 C2123.325,949.2706 2123.325,1320.8956 2123.325,1320.8956 C2123.325,1320.8956 2625.1875,1320.8956 2887.275,1320.8956" fill="none" id="Back-to-SharedKernel" style="stroke:#425466;stroke-width:2.4375;stroke-dasharray:13.125,13.125;"/><polygon fill="#425466" points="2898.525,1320.8956,2881.65,1313.3956,2889.15,1320.8956,2881.65,1328.3956,2898.525,1320.8956" style="stroke:#425466;stroke-width:2.4375;"/></g><!--link Front to SharedKernel--><g class="link" data-entity-1="ent0004" data-entity-2="ent0024" data-link-type="dependency" data-source-line="114" id="lnk45"><path d="M2673.7313,514.6456 C2825.25,514.6456 3025.1813,514.6456 3025.1813,514.6456 C3025.1813,514.6456 3025.1813,1120.1206 3025.1813,1304.4144" fill="none" id="Front-to-SharedKernel" style="stroke:#425466;stroke-width:2.4375;stroke-dasharray:13.125,13.125;"/><polygon fill="#425466" points="3025.1813,1315.6644,3032.6813,1298.7894,3025.1813,1306.2894,3017.6813,1298.7894,3025.1813,1315.6644" style="stroke:#425466;stroke-width:2.4375;"/></g><!--link Identity to PriceQuery--><!--link PriceQuery to UserAssets--><!--link D1UserRepo to PasswordHasher--><!--link PasswordHasher to JwtToken--><!--link JwtToken to QuoteStore--><!--link QuoteStore to MarketGateway--><!--link MarketGateway to D1UserAssetRepo--><!--link D1 to KV--><!--link KV to Brapi--><!--link Brapi to CoinCap--><?plantuml-src dLTRK-Cs57xNhz3GjxO14d8Z3pir9YxPJ1bs4zY7qc64hIGgZkILP2ZjzB_tI7PioJQqNPXXx7C-dUjtZeKM6TO2FmgjnHudJD9OCy6HUc8y8vBiiTgHHBmmliKRaYhgQ6AnpmIdNA_qQqgnEKhuDdKXAUDKlsOK2wbtmb4a6SFzwQaZUIJnqrQAd2UXI8N4tqKX_0Rk6ReXUQeZmVKrsLCSI4RIRlsA_KbnV-GeDTCfhLI3OPUgTDmVdms6aGF883IofMlFH7_w3k9VB5q8cL1PWYR1D3W_xm2r2ZAA9j5vLmFmNmXZD-_YxH35wI0Ode7CSpkSZaVJVYLTxrZynAbIk7yyCDAMT_k3_dOBJZHv98f-Y_j9E9htJzzmDBcyy1p5gSYJR_5o6eql9q6Nb_bvTD58XyGQDBwNyVyefMkB2zqio_2_c0fEWtdONPPf54H-MG8fnSiXXi5eE1utbMvNpxpm4gfeXYVk14h2dupmV8IGdGaSBQxN0UxXy40qgl1YdwLq3y-m5XH2HT6ERbLE91D7c2XygwX4g6GnFWh9dYG4zy7E0Yn84XF0cThK_3tQIAWCvKdFjdgJ4adl-JNzGn__hl0N-eY3BCC_O6YPTH4PE3GnY0QsYIrl0_0Mt2pmIH6xObrEpSff-WohP_n5o2SgZHdhqtJaFPTdu795vJEBXO9TX1EnPvorlVwqOL2y4vR06zElFHB7qA1x_fbkcTAIcFrRs85mWbpl32vsnJQSHNaUGff7q_cyqqac0TxxcbFvUizlpCidy-pQgQNlMigXgJsY5DKsr1XqWNbRqRJuPBWs3GEiLbKsEmesD3rAI0QSKAqgNVQDaS_Kz0uOzchjraAx9YwZYN_e1W9yWN6w8ce74HIsYomzJVVfZozwBO0GRYO7MVU9cYpBvqyvZFoAaqpj17mHXImC56BpscqYbfHe-Wi1gkbBsAS_mziBWMvTI9An3dae60z9rj9ORuMqb7GxB6fekzDPtKfJ7UzetSWEyqOI2epDTIu9XbcbafEYaTMNmIaHsB_dXaOA1bbQ1ZrOGZse0uTK6STR5fPtC16hrNpz40RXrToYbtScF_k1EB8rAuRLFDMAicXMLJvxQLqOJwP8H6gMmes7l3MsS1sIDEd1Ok0qlUSnx27OQDhaH67ZoYA5bKKjBGZgE8GXi3l351ZtUX_A1JR3kIAOuDi5AWH6PVVC39z00YVVWzaDrV4Emy5dc405QmCX2p7OQWdCC85DKIkSgPxXhuQ3gbOwupahEm5gL1ap66VKPdZXpwAFR8mMe7s9Zwu62d3kj27aX6o0pk00j3rTJRnFVJZIcf2Y_6NYTOuruSj46xE1a5EBuXXgdYp5Jin60jJqexBjjSniom-qhCjrVFp18vARSKldfDRIsSQtf0NZMcAdNR_kM08llqcstMcFL5xncx0w5BzqBNC-JHeyQi4Fp44LXLgGklvUAvemh_ZDLZJ1ZLQRbDeWwFJohYqkUct_jfLLm-rTqKgns1IR0StDMe55cmXO4VPgXQcv_HmZkB3OssNpd6aoifST-6zBsNrXRo8KDhFPOMOjIQ7XxzLwVVEs7Pyvx35be8w9lntD_KOpc90VKR41TU49Dg1oJFy3?></g></svg>