<?plantuml 1.2026.2?><svg xmlns="http://www.w3.org/2000/svg" xmlns:xlink="http://www.w3.org/1999/xlink" contentStyleType="text/css" data-diagram-type="DESCRIPTION" height="677px" preserveAspectRatio="none" style="width:1476px;height:677px;background:#FFFFFF;" version="1.1" viewBox="0 0 1476 677" width="1476px" zoomAndPan="magnify"><title>FINTA - Diagrama Final Consolidado</title><defs/><g><g class="title" data-source-line="6"><text fill="#000000" font-family="sans-serif" font-size="14" font-weight="bold" lengthAdjust="spacing" textLength="264.6943" x="598.824" y="23.5352">FINTA - Diagrama Final Consolidado</text></g><!--entity User--><g class="entity" data-qualified-name="User" data-source-line="8" id="ent0002"><ellipse cx="518.9959" cy="51.4883" fill="#F1F1F1" rx="8" ry="8" style="stroke:#181818;stroke-width:0.5;"/><path d="M518.9959,59.4883 L518.9959,86.4883 M505.9959,67.4883 L531.9959,67.4883 M518.9959,86.4883 L505.9959,101.4883 M518.9959,86.4883 L531.9959,101.4883" fill="none" style="stroke:#181818;stroke-width:0.5;"/><text fill="#000000" font-family="sans-serif" font-size="14" lengthAdjust="spacing" textLength="51.6318" x="493.18" y="116.5234">Usuario</text></g><!--entity Front--><g class="entity" data-qualified-name="Front" data-source-line="10" id="ent0003"><rect fill="#F1F1F1" height="52.9766" rx="2.5" ry="2.5" style="stroke:#181818;stroke-width:0.5;" width="155.7754" x="441.11" y="179.4783"/><text fill="#000000" font-family="sans-serif" font-size="14" lengthAdjust="spacing" textLength="135.7754" x="451.11" y="203.0134">Frontend Cloudflare</text><text fill="#000000" font-family="sans-serif" font-size="14" lengthAdjust="spacing" textLength="103.3525" x="451.11" y="219.5017">Web App + BFF</text></g><!--entity Identity--><g class="entity" data-qualified-name="Identity" data-source-line="11" id="ent0004"><rect fill="#F1F1F1" height="36.4883" rx="2.5" ry="2.5" style="stroke:#181818;stroke-width:0.5;" width="121.6709" x="773.16" y="317.4883"/><text fill="#000000" font-family="sans-serif" font-size="14" lengthAdjust="spacing" textLength="101.6709" x="783.16" y="341.0234">Identity Access</text></g><!--entity Market--><g class="entity" data-qualified-name="Market" data-source-line="12" id="ent0005"><rect fill="#F1F1F1" height="36.4883" rx="2.5" ry="2.5" style="stroke:#181818;stroke-width:0.5;" width="145.5898" x="220.21" y="471.6983"/><text fill="#000000" font-family="sans-serif" font-size="14" lengthAdjust="spacing" textLength="125.5898" x="230.21" y="495.2334">Market Monitoring</text></g><!--entity Favorites--><g class="entity" data-qualified-name="Favorites" data-source-line="13" id="ent0006"><rect fill="#F1F1F1" height="36.4883" rx="2.5" ry="2.5" style="stroke:#181818;stroke-width:0.5;" width="81.0313" x="478.48" y="317.4883"/><text fill="#000000" font-family="sans-serif" font-size="14" lengthAdjust="spacing" textLength="61.0313" x="488.48" y="341.0234">Favorites</text></g><!--entity Macro--><g class="entity" data-qualified-name="Macro" data-source-line="14" id="ent0007"><rect fill="#F1F1F1" height="36.4883" rx="2.5" ry="2.5" style="stroke:#181818;stroke-width:0.5;" width="132.9023" x="25.55" y="317.4883"/><text fill="#000000" font-family="sans-serif" font-size="14" lengthAdjust="spacing" textLength="112.9023" x="35.55" y="341.0234">Macro Indicators</text></g><!--entity Financing--><g class="entity" data-qualified-name="Financing" data-source-line="15" id="ent0008"><rect fill="#F1F1F1" height="36.4883" rx="2.5" ry="2.5" style="stroke:#181818;stroke-width:0.5;" width="85.2969" x="1108.35" y="317.4883"/><text fill="#000000" font-family="sans-serif" font-size="14" lengthAdjust="spacing" textLength="65.2969" x="1118.35" y="341.0234">Financing</text></g><!--entity D1--><g class="entity" data-qualified-name="D1" data-source-line="17" id="ent0009"><path d="M619.97,619.6183 C619.97,609.6183 676.9978,609.6183 676.9978,609.6183 C676.9978,609.6183 734.0257,609.6183 734.0257,619.6183 L734.0257,645.1066 C734.0257,655.1066 676.9978,655.1066 676.9978,655.1066 C676.9978,655.1066 619.97,655.1066 619.97,645.1066 L619.97,619.6183" fill="#F1F1F1" style="stroke:#181818;stroke-width:0.5;"/><path d="M619.97,619.6183 C619.97,629.6183 676.9978,629.6183 676.9978,629.6183 C676.9978,629.6183 734.0257,629.6183 734.0257,619.6183" fill="none" style="stroke:#181818;stroke-width:0.5;"/><text fill="#000000" font-family="sans-serif" font-size="14" lengthAdjust="spacing" textLength="94.0557" x="629.97" y="647.1534">Cloudflare D1</text></g><!--entity KV--><g class="entity" data-qualified-name="KV" data-source-line="18" id="ent0010"><path d="M82.5,619.6183 C82.5,609.6183 139.0049,609.6183 139.0049,609.6183 C139.0049,609.6183 195.5098,609.6183 195.5098,619.6183 L195.5098,645.1066 C195.5098,655.1066 139.0049,655.1066 139.0049,655.1066 C139.0049,655.1066 82.5,655.1066 82.5,645.1066 L82.5,619.6183" fill="#F1F1F1" style="stroke:#181818;stroke-width:0.5;"/><path d="M82.5,619.6183 C82.5,629.6183 139.0049,629.6183 139.0049,629.6183 C139.0049,629.6183 195.5098,629.6183 195.5098,619.6183" fill="none" style="stroke:#181818;stroke-width:0.5;"/><text fill="#000000" font-family="sans-serif" font-size="14" lengthAdjust="spacing" textLength="93.0098" x="92.5" y="647.1534">Cloudflare KV</text></g><!--entity FinanceApi--><g class="entity" data-qualified-name="FinanceApi" data-source-line="19" id="ent0011"><path d="M240.256,609.8041 C244.7137,604.0049 249.7677,603.273 254.3141,609.7022 C258.1097,603.8145 263.163,602.9755 267.7279,608.8229 C270.8312,602.8414 277.217,602.82 280.9939,608.0241 C285.4062,602.2665 290.1806,602.94 293.8821,608.8118 C298.7203,602.1741 303.9301,601.828 308.3173,609.2741 C312.4121,604.112 317.6125,604.3884 321.2923,609.7841 C324.6738,602.7603 330.3806,603.6257 334.1633,609.3799 C338.7945,603.4557 344.3246,603.1105 348.7945,609.5706 C356.0465,611.6735 356.8645,617.2388 351.8796,622.306 C357.8705,624.4737 357.8578,628.7881 354.036,632.9447 C358.561,638.6465 356.2881,643.0042 349.9814,645.0899 C355.7215,650.2182 355.1985,654.6549 347.9306,657.6611 C344.8609,663.2004 339.8976,664.613 335.8795,658.6552 C332.7578,666.9884 325.6489,665.9585 320.9349,660.3639 C317.4311,667.9235 312.5555,668.9418 306.8642,662.574 C303.8547,668.8658 299.2515,669.0154 294.4555,664.6551 C288.994,670.9445 282.6939,670.6937 279.3851,662.4265 C274.609,668.7422 269.5724,668.2688 265.8977,661.3076 C259.6556,667.6211 255.6976,666.0365 252.5482,658.3571 C247.3861,664.2051 242.9574,662.8178 239.8456,656.2582 C233.4011,655.3783 231.6214,651.0879 236.0771,646.1459 C228.4804,645.248 225.3376,640.6427 229.9823,633.7339 C226.0138,628.5713 227.9055,623.6324 234.4394,622.72 C229.604,616.195 231.5305,610.2221 240.256,609.8041" fill="#F1F1F1" style="stroke:#181818;stroke-width:0.5;"/><text fill="#000000" font-family="sans-serif" font-size="14" lengthAdjust="spacing" textLength="94.999" x="245.5" y="629.4034">API Financeira</text><text fill="#000000" font-family="sans-serif" font-size="14" lengthAdjust="spacing" textLength="43.4766" x="245.5" y="645.8917">(Brapi)</text></g><!--entity CryptoApi--><g class="entity" data-qualified-name="CryptoApi" data-source-line="20" id="ent0012"><path d="M399.441,609.4774 C403.5909,603.3052 409.3134,602.4562 413.6759,609.2439 C417.2121,603.3426 421.586,603.5463 425.9232,608.3254 C429.5946,601.8915 436.5104,601.3157 440.1294,608.3805 C443.815,601.1592 449.9227,602.4462 453.5033,608.4864 C458.1658,600.7346 464.4137,602.7251 468.2258,609.3569 C472.552,603.298 476.907,602.9166 481.3583,609.224 C487.1347,611.4554 489.3077,615.4997 484.824,620.8022 C491.1382,621.6778 494.6162,627.1291 489.7618,632.6568 C493.7665,637.6176 491.4127,643.5617 485.3499,644.8923 C489.3044,651.0384 487.6721,655.5683 480.4677,657.3364 C476.6278,662.7559 472.4655,663.0556 468.4518,657.5272 C464.542,664.9715 457.1615,664.2387 453.5955,657.1752 C450.8284,663.206 444.6706,664.8115 440.1505,659.1996 C435.553,666.2741 431.1422,666.3452 426.7147,659.0407 C421.8971,665.9685 414.715,664.6201 412.1174,656.8377 C408.5773,662.9382 402.1439,663.1997 398.5266,656.9224 C393.282,653.9157 392.4796,649.7064 397.7909,645.9894 C390.1296,643.6989 389.5948,637.8745 394.3292,632.4214 C389.3267,627.6958 392.1631,622.8563 397.5736,621.1201 C393.1112,616.9202 393.7754,612.0528 399.441,609.4774" fill="#F1F1F1" style="stroke:#181818;stroke-width:0.5;"/><text fill="#000000" font-family="sans-serif" font-size="14" lengthAdjust="spacing" textLength="67.9697" x="405.02" y="629.4034">API Cripto</text><text fill="#000000" font-family="sans-serif" font-size="14" lengthAdjust="spacing" textLength="66.3564" x="405.02" y="645.8917">(CoinCap)</text></g><!--entity SelicApi--><g class="entity" data-qualified-name="SelicApi" data-source-line="21" id="ent0013"><path d="M30.5872,475.1213 C34.2517,468.9095 39.4927,468.3925 43.5269,474.7403 C47.3168,469.077 50.9537,469.8108 54.7171,474.7682 C57.9886,467.3123 64.1651,468.1488 68.6209,473.4805 C72.3705,466.8938 76.6018,467.6753 81.2781,472.4479 C84.7604,467.0341 90.4574,467.1208 93.3904,473.0352 C97.7845,467.7784 102.6213,467.0252 106.7133,473.3818 C110.1822,467.7801 113.9705,468.8727 117.3287,473.4967 C122.3385,466.7116 126.8784,467.7467 131.4005,474.0223 C135.467,467.3717 141.1825,469.1273 144.4793,474.8367 C147.7926,469.2575 153.2266,468.2589 156.5189,474.8574 C166.1164,476.1083 170.3355,481.8914 165.3737,491.0861 C170.4502,499.4171 165.0038,505.5936 156.6435,506.1239 C153.3391,513.0256 148.3517,512.8673 143.8449,507.3645 C140.2967,513.9988 135.7585,515.0676 130.82,508.7641 C127.0862,515.0937 123.0832,515.1895 117.9457,510.3877 C114.0212,516.5856 109.4379,516.2969 104.742,511.2973 C100.8541,517.5691 97.0544,517.927 92.7893,511.6568 C89.5191,517.4207 84.3293,517.7527 81.1722,511.5471 C77.0968,516.1985 70.4507,516.9532 68.2829,509.5135 C64.8553,514.618 58.8752,514.0519 56.2204,508.6282 C52.5202,514.1054 45.978,513.7175 43.0852,507.7051 C38.3628,514.3466 32.3326,512.7078 29.5199,505.7939 C21.0966,504.3802 19.8021,498.557 24.0252,492.0773 C17.6412,483.4589 20.8181,477.4885 30.5872,475.1213" fill="#F1F1F1" style="stroke:#181818;stroke-width:0.5;"/><text fill="#000000" font-family="sans-serif" font-size="14" lengthAdjust="spacing" textLength="112.1094" x="35.95" y="495.2334">API Selic / Bacen</text></g><!--entity FundingApi--><g class="entity" data-qualified-name="FundingApi" data-source-line="22" id="ent0014"><path d="M976.6569,467.6064 C979.9901,461.593 985.6539,459.8536 989.8673,466.7023 C993.0304,462.3082 998.3996,461.6234 1000.8531,467.464 C1003.5055,462.7446 1007.4907,463.0891 1010.5597,466.9952 C1013.3623,461.7794 1018.2274,460.0934 1022.2454,465.6804 C1025.4269,459.9156 1031.3504,459.4068 1034.8911,465.2905 C1038.9485,461.0066 1042.619,462.0861 1045.0822,467.0477 C1049.6535,460.8972 1053.7115,461.3252 1057.7049,467.6332 C1059.7209,463.0899 1064.1754,462.16 1067.1184,466.6692 C1071.2393,461.4029 1077.1423,462.4934 1079.8915,468.2577 C1082.3739,462.8111 1087.1164,462.2105 1090.338,467.541 C1096.8771,469.597 1097.7634,475.0524 1093.092,479.6566 C1099.1776,481.4107 1100.0596,486.027 1095.3152,490.089 C1099.8598,495.2776 1099.2559,499.5718 1092.8512,502.6047 C1096.836,507.0758 1095.9532,511.7147 1090.4258,514.1953 C1087.8325,518.63 1082.5714,518.9359 1079.895,514.2919 C1076.321,519.6847 1072.3988,521.3423 1067.983,515.158 C1065.3946,522.2417 1060.5958,522.8925 1056.0302,516.9758 C1053.5786,522.1094 1048.7962,523.8418 1045.0121,518.3587 C1041.9121,523.1631 1037.9274,523.2671 1034.7329,518.4597 C1030.5678,523.5233 1026.5228,523.5406 1023.307,517.4842 C1019.0846,522.8889 1014.661,522.2194 1012.1907,515.8325 C1008.6977,520.6684 1003.1674,521.7355 1000.1051,515.3679 C996.4101,520.635 992.9672,519.4986 989.7935,514.8271 C985.7934,520.405 981.2627,522.0618 976.6472,515.4931 C970.9753,511.9421 970.5867,507.5619 976.4624,503.828 C969.8819,500.6063 969.4918,494.9371 975.1816,490.5334 C970.2526,486.4845 970.7188,481.8983 975.9009,478.4514 C971.2579,474.3507 970.9917,470.9885 976.6569,467.6064" fill="#F1F1F1" style="stroke:#181818;stroke-width:0.5;"/><text fill="#000000" font-family="sans-serif" font-size="14" lengthAdjust="spacing" textLength="86.9395" x="983.5" y="486.9834">API Taxas de</text><text fill="#000000" font-family="sans-serif" font-size="14" lengthAdjust="spacing" textLength="99.0049" x="983.5" y="503.4717">Financiamento</text></g><!--entity SecurityInfra--><g class="entity" data-qualified-name="SecurityInfra" data-source-line="23" id="ent0015"><path d="M774.3919,467.9331 C776.9793,462.7607 782.2961,462.1885 785.6455,467.0811 C790.2955,461.8532 794.2326,461.4426 798.2177,467.8026 C801.2674,461.7514 805.2155,461.5773 809.6042,466.4004 C813.6871,460.8567 817.4826,460.6242 821.2243,466.7405 C824.2338,461.0995 830.4272,460.0333 834.0026,466.1241 C837.8822,460.834 843.0193,461.758 846.0661,467.0716 C849.2664,461.3749 853.1372,460.5985 857.7213,465.558 C861.9396,460.4754 865.1239,461.5573 868.3369,466.6109 C872.3392,459.6975 877.1753,459.841 881.143,466.6432 C884.8298,460.2251 888.5818,460.3739 892.818,466.1157 C896.8606,461.0739 901.1633,462.1503 903.6243,467.7255 C906.7569,462.6139 912.1121,462.9097 914.6965,468.3033 C920.1122,471.6344 920.5695,476.1105 915.2792,479.9761 C921.2298,482.4183 921.5192,486.3024 916.6201,490.1716 C923.4534,493.9349 923.3373,498.85 917.1828,503.1752 C922.7802,507.6314 922.0241,511.5874 915.8892,514.7301 C912.6737,520.7617 907.4253,520.032 903.981,514.9759 C900.9402,521.5804 896.3881,521.8484 891.906,516.4225 C889.1981,521.0593 883.8801,522.0235 881.1428,516.4534 C878.8707,523.896 872.3976,523.8416 868.3224,518.2233 C865.8461,523.3101 860.6036,524.3853 857.468,518.9004 C853.4025,523.956 849.5284,523.9498 845.4447,518.9222 C841.5946,523.9412 837.0223,525.3214 833.2772,518.8114 C829.1725,524.1202 824.7771,522.3406 822.2327,517.1674 C819.7918,523.5147 813.9594,522.5129 810.7008,518.0388 C805.7355,523.9419 800.101,523.0403 797.8177,515.4736 C793.7086,519.7129 790.3911,519.1284 787.1033,514.4832 C783.4866,520.2189 779.3469,519.0949 776.0733,514.1295 C770.2515,512.4799 768.2794,506.903 772.7282,502.3393 C765.6604,500.438 764.5523,495.8752 769.0095,490.3879 C765.305,485.4146 765.8798,479.5572 773.3033,478.657 C768.3118,475.0375 768.3296,470.4305 774.3919,467.9331" fill="#F1F1F1" style="stroke:#181818;stroke-width:0.5;"/><text fill="#000000" font-family="sans-serif" font-size="14" lengthAdjust="spacing" textLength="126.2051" x="780.9" y="486.9834">Infra de seguranca</text><text fill="#000000" font-family="sans-serif" font-size="14" lengthAdjust="spacing" textLength="88.1221" x="780.9" y="503.4717">(Hash + JWT)</text></g><g class="entity" data-qualified-name="GMN33" data-source-line="51" id="ent0034"><path d="M930.2,300.1083 L930.2,331.8483 L895.13,335.8483 L930.2,339.8483 L930.2,371.3505 A0,0 0 0 0 930.2,371.3505 L1073.7986,371.3505 A0,0 0 0 0 1073.7986,371.3505 L1073.7986,310.1083 L1063.7986,300.1083 L930.2,300.1083 A0,0 0 0 0 930.2,300.1083" fill="#FEFFDD" style="stroke:#181818;stroke-width:0.5;"/><path d="M1063.7986,300.1083 L1063.7986,310.1083 L1073.7986,310.1083 L1063.7986,300.1083" fill="#FEFFDD" style="stroke:#181818;stroke-width:0.5;"/><text fill="#000000" font-family="sans-serif" font-size="13" lengthAdjust="spacing" textLength="114.4863" x="936.2" y="317.6766">Responsabilidade:</text><text fill="#000000" font-family="sans-serif" font-size="13" lengthAdjust="spacing" textLength="65.6284" x="936.2" y="332.9872">- cadastro</text><text fill="#000000" font-family="sans-serif" font-size="13" lengthAdjust="spacing" textLength="43.3101" x="936.2" y="348.2977">- login</text><text fill="#000000" font-family="sans-serif" font-size="13" lengthAdjust="spacing" textLength="122.5986" x="936.2" y="363.6083">- emissao de token</text></g><g class="entity" data-qualified-name="GMN36" data-source-line="58" id="ent0037"><path d="M400.56,439.0083 L400.56,479.8483 L366.21,483.8483 L400.56,487.8483 L400.56,540.8716 A0,0 0 0 0 400.56,540.8716 L589.4492,540.8716 A0,0 0 0 0 589.4492,540.8716 L589.4492,449.0083 L579.4492,439.0083 L400.56,439.0083 A0,0 0 0 0 400.56,439.0083" fill="#FEFFDD" style="stroke:#181818;stroke-width:0.5;"/><path d="M579.4492,439.0083 L579.4492,449.0083 L589.4492,449.0083 L579.4492,439.0083" fill="#FEFFDD" style="stroke:#181818;stroke-width:0.5;"/><text fill="#000000" font-family="sans-serif" font-size="13" lengthAdjust="spacing" textLength="114.4863" x="406.56" y="456.5766">Responsabilidade:</text><text fill="#000000" font-family="sans-serif" font-size="13" lengthAdjust="spacing" textLength="135.0591" x="406.56" y="471.8872">- cotacoes live/cache</text><text fill="#000000" font-family="sans-serif" font-size="13" lengthAdjust="spacing" textLength="109.1416" x="406.56" y="487.1977">- busca de ativos</text><text fill="#000000" font-family="sans-serif" font-size="13" lengthAdjust="spacing" textLength="118.9614" x="406.56" y="502.5083">- detalhes de ativo</text><text fill="#000000" font-family="sans-serif" font-size="13" lengthAdjust="spacing" textLength="117.4063" x="406.56" y="517.8188">- historico recente</text><text fill="#000000" font-family="sans-serif" font-size="13" lengthAdjust="spacing" textLength="167.8892" x="406.56" y="533.1294">- agregacao do dashboard</text></g><g class="entity" data-qualified-name="GMN39" data-source-line="67" id="ent0040"><path d="M594.28,292.4583 L594.28,331.8483 L559.95,335.8483 L594.28,339.8483 L594.28,379.011 A0,0 0 0 0 594.28,379.011 L737.7136,379.011 A0,0 0 0 0 737.7136,379.011 L737.7136,302.4583 L727.7136,292.4583 L594.28,292.4583 A0,0 0 0 0 594.28,292.4583" fill="#FEFFDD" style="stroke:#181818;stroke-width:0.5;"/><path d="M727.7136,292.4583 L727.7136,302.4583 L737.7136,302.4583 L727.7136,292.4583" fill="#FEFFDD" style="stroke:#181818;stroke-width:0.5;"/><text fill="#000000" font-family="sans-serif" font-size="13" lengthAdjust="spacing" textLength="114.4863" x="600.28" y="310.0266">Responsabilidade:</text><text fill="#000000" font-family="sans-serif" font-size="13" lengthAdjust="spacing" textLength="122.4336" x="600.28" y="325.3372">- adicionar favorito</text><text fill="#000000" font-family="sans-serif" font-size="13" lengthAdjust="spacing" textLength="100.8896" x="600.28" y="340.6477">- editar favorito</text><text fill="#000000" font-family="sans-serif" font-size="13" lengthAdjust="spacing" textLength="116.3208" x="600.28" y="355.9583">- remover favorito</text><text fill="#000000" font-family="sans-serif" font-size="13" lengthAdjust="spacing" textLength="102.4766" x="600.28" y="371.2688">- listar favoritos</text></g><g class="entity" data-qualified-name="GMN42" data-source-line="75" id="ent0043"><path d="M264.08,307.7683 L264.08,331.8483 L158.79,335.8483 L264.08,339.8483 L264.08,363.6999 A0,0 0 0 0 264.08,363.6999 L443.9111,363.6999 A0,0 0 0 0 443.9111,363.6999 L443.9111,317.7683 L433.9111,307.7683 L264.08,307.7683 A0,0 0 0 0 264.08,307.7683" fill="#FEFFDD" style="stroke:#181818;stroke-width:0.5;"/><path d="M433.9111,307.7683 L433.9111,317.7683 L443.9111,317.7683 L433.9111,307.7683" fill="#FEFFDD" style="stroke:#181818;stroke-width:0.5;"/><text fill="#000000" font-family="sans-serif" font-size="13" lengthAdjust="spacing" textLength="114.4863" x="270.08" y="325.3366">Responsabilidade:</text><text fill="#000000" font-family="sans-serif" font-size="13" lengthAdjust="spacing" textLength="102.6924" x="270.08" y="340.6472">- consultar Selic</text><text fill="#000000" font-family="sans-serif" font-size="13" lengthAdjust="spacing" textLength="158.8311" x="270.08" y="355.9577">- normalizar fonte oficial</text></g><g class="entity" data-qualified-name="GMN45" data-source-line="81" id="ent0046"><path d="M1228.65,300.1083 L1228.65,331.8483 L1193.96,335.8483 L1228.65,339.8483 L1228.65,371.3505 A0,0 0 0 0 1228.65,371.3505 L1469.3424,371.3505 A0,0 0 0 0 1469.3424,371.3505 L1469.3424,310.1083 L1459.3424,300.1083 L1228.65,300.1083 A0,0 0 0 0 1228.65,300.1083" fill="#FEFFDD" style="stroke:#181818;stroke-width:0.5;"/><path d="M1459.3424,300.1083 L1459.3424,310.1083 L1469.3424,310.1083 L1459.3424,300.1083" fill="#FEFFDD" style="stroke:#181818;stroke-width:0.5;"/><text fill="#000000" font-family="sans-serif" font-size="13" lengthAdjust="spacing" textLength="114.4863" x="1234.65" y="317.6766">Responsabilidade:</text><text fill="#000000" font-family="sans-serif" font-size="13" lengthAdjust="spacing" textLength="81.0723" x="1234.65" y="332.9872">- listar taxas</text><text fill="#000000" font-family="sans-serif" font-size="13" lengthAdjust="spacing" textLength="152.3374" x="1234.65" y="348.2977">- simular financiamento</text><text fill="#000000" font-family="sans-serif" font-size="13" lengthAdjust="spacing" textLength="219.6924" x="1234.65" y="363.6083">- salvar/listar/remover simulacoes</text></g><!--link User to Front--><g class="link" data-entity-1="ent0002" data-entity-2="ent0003" data-link-type="dependency" data-source-line="25" id="lnk16"><path d="M519,119.6783 C519,139.0083 519,155.9383 519,173.3083" fill="none" id="User-to-Front" style="stroke:#181818;stroke-width:1;"/><polygon fill="#181818" points="519,179.3083,523,170.3083,519,174.3083,515,170.3083,519,179.3083" style="stroke:#181818;stroke-width:1;"/></g><!--link Front to Identity--><g class="link" data-entity-1="ent0003" data-entity-2="ent0004" data-link-type="dependency" data-source-line="27" id="lnk17"><path d="M597.27,214.8483 C690.56,214.8483 834,214.8483 834,214.8483 C834,214.8483 834,277.1983 834,311.1083" fill="none" id="Front-to-Identity" style="stroke:#181818;stroke-width:1;"/><polygon fill="#181818" points="834,317.1083,838,308.1083,834,312.1083,830,308.1083,834,317.1083" style="stroke:#181818;stroke-width:1;"/><text fill="#000000" font-family="sans-serif" font-size="13" lengthAdjust="spacing" textLength="94.0405" x="671.77" y="211.4166">IIdentityAccess</text></g><!--link Front to Market--><g class="link" data-entity-1="ent0003" data-entity-2="ent0005" data-link-type="dependency" data-source-line="28" id="lnk18"><path d="M440.77,214.8483 C358.91,214.8483 242.14,214.8483 242.14,214.8483 C242.14,214.8483 242.14,403.7883 242.14,465.4683" fill="none" id="Front-to-Market" style="stroke:#181818;stroke-width:1;"/><polygon fill="#181818" points="242.14,471.4683,246.14,462.4683,242.14,466.4683,238.14,462.4683,242.14,471.4683" style="stroke:#181818;stroke-width:1;"/><text fill="#000000" font-family="sans-serif" font-size="13" lengthAdjust="spacing" textLength="109.7256" x="132.14" y="257.4066">IDashboardQuery</text><text fill="#000000" font-family="sans-serif" font-size="13" lengthAdjust="spacing" textLength="75.5942" x="149.2057" y="272.7172">IAssetQuery</text><text fill="#000000" font-family="sans-serif" font-size="13" lengthAdjust="spacing" textLength="109.2432" x="132.3812" y="288.0277">IRecentSelections</text></g><!--link Front to Favorites--><g class="link" data-entity-1="ent0003" data-entity-2="ent0006" data-link-type="dependency" data-source-line="29" id="lnk19"><path d="M519,232.8583 C519,258.0983 519,289.1783 519,311.2483" fill="none" id="Front-to-Favorites" style="stroke:#181818;stroke-width:1;"/><polygon fill="#181818" points="519,317.2483,523,308.2483,519,312.2483,515,308.2483,519,317.2483" style="stroke:#181818;stroke-width:1;"/><text fill="#000000" font-family="sans-serif" font-size="13" lengthAdjust="spacing" textLength="60.417" x="458" y="271.6166">IFavorites</text></g><!--link Front to Macro--><g class="link" data-entity-1="ent0003" data-entity-2="ent0007" data-link-type="dependency" data-source-line="30" id="lnk20"><path d="M440.68,196.8483 C317.41,196.8483 92,196.8483 92,196.8483 C92,196.8483 92,273.0883 92,310.9983" fill="none" id="Front-to-Macro" style="stroke:#181818;stroke-width:1;"/><polygon fill="#181818" points="92,316.9983,96,307.9983,92,311.9983,88,307.9983,92,316.9983" style="stroke:#181818;stroke-width:1;"/><text fill="#000000" font-family="sans-serif" font-size="13" lengthAdjust="spacing" textLength="104.4697" x="101.26" y="193.4166">IMacroIndicators</text></g><!--link Front to Financing--><g class="link" data-entity-1="ent0003" data-entity-2="ent0008" data-link-type="dependency" data-source-line="31" id="lnk21"><path d="M597.13,196.8483 C766.22,196.8483 1151,196.8483 1151,196.8483 C1151,196.8483 1151,273.0883 1151,310.9983" fill="none" id="Front-to-Financing" style="stroke:#181818;stroke-width:1;"/><polygon fill="#181818" points="1151,316.9983,1155,307.9983,1151,311.9983,1147,307.9983,1151,316.9983" style="stroke:#181818;stroke-width:1;"/><text fill="#000000" font-family="sans-serif" font-size="13" lengthAdjust="spacing" textLength="98.5093" x="819.3614" y="178.4166">IFinancingRates</text><text fill="#000000" font-family="sans-serif" font-size="13" lengthAdjust="spacing" textLength="130.9521" x="803.14" y="193.7272">IFinancingSimulation</text></g><!--link Favorites to Market--><g class="link" data-entity-1="ent0006" data-entity-2="ent0005" data-link-type="dependency" data-source-line="33" id="lnk22"><path d="M505.49,354.1783 C505.49,378.6683 505.49,418.8483 505.49,418.8483 C505.49,418.8483 314.94,418.8483 314.94,418.8483 C314.94,418.8483 314.94,444.1983 314.94,465.2583" fill="none" id="Favorites-to-Market" style="stroke:#181818;stroke-width:1;"/><polygon fill="#181818" points="314.94,471.2583,318.94,462.2583,314.94,466.2583,310.94,462.2583,314.94,471.2583" style="stroke:#181818;stroke-width:1;"/><text fill="#000000" font-family="sans-serif" font-size="13" lengthAdjust="spacing" textLength="75.5942" x="340.35" y="415.4166">IAssetQuery</text></g><!--link Identity to D1--><g class="link" data-entity-1="ent0004" data-entity-2="ent0009" data-link-type="dependency" data-source-line="35" id="lnk23"><path d="M772.97,335.8483 C760.87,335.8483 751.81,335.8483 751.81,335.8483 C751.81,335.8483 751.81,624.8483 751.81,624.8483 C751.81,624.8483 750.5,624.8483 740.46,624.8483" fill="none" id="Identity-to-D1" style="stroke:#181818;stroke-width:1;"/><polygon fill="#181818" points="734.46,624.8483,743.46,628.8483,739.46,624.8483,743.46,620.8483,734.46,624.8483" style="stroke:#181818;stroke-width:1;"/><text fill="#000000" font-family="sans-serif" font-size="13" lengthAdjust="spacing" textLength="98.9155" x="652.81" y="475.0066">IUserRepository</text></g><!--link Identity to SecurityInfra--><g class="link" data-entity-1="ent0004" data-entity-2="ent0015" data-link-type="dependency" data-source-line="36" id="lnk24"><path d="M834,354.3283 C834,380.0483 834,420.8183 834,452.1383" fill="none" id="Identity-to-SecurityInfra" style="stroke:#181818;stroke-width:1;"/><polygon fill="#181818" points="834,458.1383,838,449.1383,834,453.1383,830,449.1383,834,458.1383" style="stroke:#181818;stroke-width:1;"/><text fill="#000000" font-family="sans-serif" font-size="13" lengthAdjust="spacing" textLength="106.8564" x="727" y="419.8066">IPasswordHasher</text><text fill="#000000" font-family="sans-serif" font-size="13" lengthAdjust="spacing" textLength="86.8105" x="737.0229" y="435.1172">ITokenService</text></g><!--link Market to FinanceApi--><g class="link" data-entity-1="ent0005" data-entity-2="ent0011" data-link-type="dependency" data-source-line="38" id="lnk25"><path d="M293,508.5583 C293,531.8583 293,566.1283 293,594.3983" fill="none" id="Market-to-FinanceApi" style="stroke:#181818;stroke-width:1;"/><polygon fill="#181818" points="293,600.3983,297,591.3983,293,595.3983,289,591.3983,293,600.3983" style="stroke:#181818;stroke-width:1;"/><text fill="#000000" font-family="sans-serif" font-size="13" lengthAdjust="spacing" textLength="128.7686" x="164" y="551.0466">IMarketDataGateway</text></g><!--link Market to CryptoApi--><g class="link" data-entity-1="ent0005" data-entity-2="ent0012" data-link-type="dependency" data-source-line="39" id="lnk26"><path d="M366.25,495.8483 C382.64,495.8483 395.29,495.8483 395.29,495.8483 C395.29,495.8483 395.29,554.3683 395.29,594.6983" fill="none" id="Market-to-CryptoApi" style="stroke:#181818;stroke-width:1;"/><polygon fill="#181818" points="395.29,600.6983,399.29,591.6983,395.29,595.6983,391.29,591.6983,395.29,600.6983" style="stroke:#181818;stroke-width:1;"/><text fill="#000000" font-family="sans-serif" font-size="13" lengthAdjust="spacing" textLength="128.7686" x="266.29" y="530.3266">IMarketDataGateway</text></g><!--link Market to KV--><g class="link" data-entity-1="ent0005" data-entity-2="ent0010" data-link-type="dependency" data-source-line="40" id="lnk27"><path d="M225.35,508.6183 C225.35,547.3583 225.35,632.8483 225.35,632.8483 C225.35,632.8483 217.91,632.8483 201.64,632.8483" fill="none" id="Market-to-KV" style="stroke:#181818;stroke-width:1;"/><polygon fill="#181818" points="195.64,632.8483,204.64,636.8483,200.64,632.8483,204.64,628.8483,195.64,632.8483" style="stroke:#181818;stroke-width:1;"/><text fill="#000000" font-family="sans-serif" font-size="13" lengthAdjust="spacing" textLength="132.3867" x="92.35" y="582.1666">IQuoteSnapshotStore</text></g><!--link Market to D1--><g class="link" data-entity-1="ent0005" data-entity-2="ent0009" data-link-type="dependency" data-source-line="41" id="lnk28"><path d="M360.65,508.2983 C360.65,532.1683 360.65,570.8483 360.65,570.8483 C360.65,570.8483 657.99,570.8483 657.99,570.8483 C657.99,570.8483 657.99,585.9683 657.99,603.4583" fill="none" id="Market-to-D1" style="stroke:#181818;stroke-width:1;"/><polygon fill="#181818" points="657.99,609.4583,661.99,600.4583,657.99,604.4583,653.99,600.4583,657.99,609.4583" style="stroke:#181818;stroke-width:1;"/><text fill="#000000" font-family="sans-serif" font-size="13" lengthAdjust="spacing" textLength="133.2437" x="363.35" y="567.4166">IUserAssetRepository</text></g><!--link Favorites to D1--><g class="link" data-entity-1="ent0006" data-entity-2="ent0009" data-link-type="dependency" data-source-line="43" id="lnk29"><path d="M532.51,354.3283 C532.51,372.9483 532.51,398.8483 532.51,398.8483 C532.51,398.8483 696.01,398.8483 696.01,398.8483 C696.01,398.8483 696.01,544.0483 696.01,603.1183" fill="none" id="Favorites-to-D1" style="stroke:#181818;stroke-width:1;"/><polygon fill="#181818" points="696.01,609.1183,700.01,600.1183,696.01,604.1183,692.01,600.1183,696.01,609.1183" style="stroke:#181818;stroke-width:1;"/><text fill="#000000" font-family="sans-serif" font-size="13" lengthAdjust="spacing" textLength="127.3911" x="568.01" y="396.5366">IFavoritesRepository</text></g><!--link Macro to SelicApi--><g class="link" data-entity-1="ent0007" data-entity-2="ent0013" data-link-type="dependency" data-source-line="45" id="lnk30"><path d="M92,354.3283 C92,382.3683 92,429.4483 92,460.2283" fill="none" id="Macro-to-SelicApi" style="stroke:#181818;stroke-width:1;"/><polygon fill="#181818" points="92,466.2283,96,457.2283,92,461.2283,88,457.2283,92,466.2283" style="stroke:#181818;stroke-width:1;"/><text fill="#000000" font-family="sans-serif" font-size="13" lengthAdjust="spacing" textLength="84.8301" x="7" y="406.8466">ISelicGateway</text></g><!--link Financing to FundingApi--><g class="link" data-entity-1="ent0008" data-entity-2="ent0014" data-link-type="dependency" data-source-line="47" id="lnk31"><path d="M1108.14,335.8483 C1095.82,335.8483 1085.65,335.8483 1085.65,335.8483 C1085.65,335.8483 1085.65,406.8783 1085.65,452.0083" fill="none" id="Financing-to-FundingApi" style="stroke:#181818;stroke-width:1;"/><polygon fill="#181818" points="1085.65,458.0083,1089.65,449.0083,1085.65,453.0083,1081.65,449.0083,1085.65,458.0083" style="stroke:#181818;stroke-width:1;"/><text fill="#000000" font-family="sans-serif" font-size="13" lengthAdjust="spacing" textLength="151.1758" x="933.65" y="399.2566">IFinancingRatesGateway</text></g><!--link Financing to D1--><g class="link" data-entity-1="ent0008" data-entity-2="ent0009" data-link-type="dependency" data-source-line="48" id="lnk32"><path d="M1151,354.2983 C1151,420.3283 1151,639.8483 1151,639.8483 C1151,639.8483 866.25,639.8483 740.18,639.8483" fill="none" id="Financing-to-D1" style="stroke:#181818;stroke-width:1;"/><polygon fill="#181818" points="734.18,639.8483,743.18,643.8483,739.18,639.8483,743.18,635.8483,734.18,639.8483" style="stroke:#181818;stroke-width:1;"/><text fill="#000000" font-family="sans-serif" font-size="13" lengthAdjust="spacing" textLength="197.9263" x="887.36" y="636.4166">IFinancingSimulationRepository</text></g><?plantuml-src XLLDRziu4BtpLmnysc1X1Bdsi81ZmwqtoAADq_IIovYQs4HeZa1Ipdf__GwfBofnMq20nCV7DvySHQuXCkmuHZv2PJpfQDYfy6fSZHwF40vOyPjnUtX16wZOqNoisP6BstYs1EaekhqjATOuYkUQW7qyi5BHH66kD_yyBc0EAuDxOI6iZKCBItQ1hQd4dbAe8tkOVGyDUiCpm03V0tcb1gimMtjsaLm5IyjDzMBHqxFxGJjOr3Ny2RVhTJwNQUMvJIKl4y-mq9f2oAGUAtdtw5yfmZqx8yv82ZApHIT-u4cs8xLAmsegfJt3nbL6esY5Jad0YP3amUdUqB1IgiA8Emm4ip5KMDraskhcylRTKzw-Ur8wWJ1RVDrqccGyFhi_RZtMvggmHOlQbEobDtLaOIxPk2NMBNVfpuA-esx96WtNS8kQNAPbv1th4V-LdKhAr0M7HmcyBU-waUouVN5Yuruy2Xi2xHilzEJq5mm7AUxVFnwlEZEwaNIVCrcfr2Gmd__LLLtbLmQ6gd-2JV_TDa11waekb9NOsJ7wwbj3_lpiDeiGAFQB1zAfyScszwMK6EgVLCPcA6saNf3D_37sHAdHbpvhz8i7524nFW1RSsmivWkhHhFJE4QtbHfIa2YhcxITylL0DOVKukSfOvBQHFwA8Ronhr8Do8idZ_nARal-P3GfrHaT0qZzr0QQDbRIfPybX3SybzIXdNxBl7jAb6yDHzewhCE1PVImfv8pHfK3Bq9xbw6ME60biIrGcu6sXnCrV_TUgR52EToXTpyMh3yoFT6P_rZ9qX4daO8t-qC4VXb7r0C5cHW1ToPFI_gavg2nmX1bdCp1yjuuUTFHX82SBb1CTL9fL2R9zyBTHBieon4rIygiET6rHdqWGNTDqFbYYiSd3e9K5D4UA0oWO0SJqjZKd7uDudewAGEVzgYJL_BqL-oddetNvv9pA3T7CePUVasPbwnIPU8KyNJa4qqWAwuLfF2BrAGHVJapBZGsgUJ64CInFw8r_oNXz6EIy-8Vsfz7DmpuImOw7sCQcR8CkKD4kXoS2KTxGd_Tig_xM5jsgjne_Ny0?></g></svg>