<?plantuml 1.2026.2?><svg xmlns="http://www.w3.org/2000/svg" xmlns:xlink="http://www.w3.org/1999/xlink" contentStyleType="text/css" data-diagram-type="DESCRIPTION" height="1153.125px" preserveAspectRatio="none" style="width:1578px;height:1153px;background:#FCFCFA;" version="1.1" viewBox="0 0 1578 1153" width="1578.75px" zoomAndPan="magnify"><title>FINTA - Casos de Uso do Processo "Acompanhar cotacao de um ativo"</title><defs/><g><rect fill="#FCFCFA" height="1153.125" style="stroke:none;stroke-width:1.875;" width="1578.75" x="0" y="0"/><g class="title" data-source-line="35"><text fill="#16324F" font-family="Arial" font-size="45" font-weight="bold" lengthAdjust="spacing" textLength="1528.0005" x="18.75" y="60.9595">FINTA - Casos de Uso do Processo "Acompanhar cotacao de um ativo"</text></g><!--cluster Sistema FINTA--><g class="cluster" data-qualified-name="Sistema FINTA" data-source-line="41" id="ent0005"><rect fill="#F8FAFB" height="939.375" rx="4.6875" ry="4.6875" style="stroke:#7A8A99;stroke-width:1.875;" width="607.1625" x="594.7252" y="104.2456"/><text fill="#000000" font-family="Arial" font-size="30" font-weight="bold" lengthAdjust="spacing" textLength="211.7139" x="792.4496" y="136.1353">Sistema FINTA</text></g><!--cluster Acesso--><g class="cluster" data-qualified-name="Sistema FINTA.Acesso" data-source-line="42" id="ent0006"><rect fill="#F8FAFB" height="363.75" rx="4.6875" ry="4.6875" style="stroke:#7A8A99;stroke-width:1.875;" width="327.6" x="734.5065" y="188.6206"/><text fill="#000000" font-family="Arial" font-size="30" font-weight="bold" lengthAdjust="spacing" textLength="106.7285" x="844.9422" y="220.5103">Acesso</text></g><!--cluster Consulta de ativos--><g class="cluster" data-qualified-name="Sistema FINTA.Consulta de ativos" data-source-line="47" id="ent0009"><rect fill="#F8FAFB" height="401.25" rx="4.6875" ry="4.6875" style="stroke:#7A8A99;stroke-width:1.875;" width="517.1625" x="639.7252" y="597.3706"/><text fill="#000000" font-family="Arial" font-size="30" font-weight="bold" lengthAdjust="spacing" textLength="266.7188" x="764.9471" y="629.2603">Consulta de ativos</text></g><!--entity UC3--><g class="entity" data-qualified-name="Sistema FINTA.Acesso.UC3" data-source-line="43" id="ent0007"><ellipse cx="898.3023" cy="308.6119" fill="#FFFFFF" rx="133.7958" ry="50.5788" style="stroke:#486581;stroke-width:2.25;"/><text fill="#102A43" font-family="Arial" font-size="30" lengthAdjust="spacing" textLength="196.7139" x="799.9453" y="307.7229">UC3 - Realizar</text><text fill="#102A43" font-family="Arial" font-size="30" lengthAdjust="spacing" textLength="115.0635" x="840.7705" y="342.22">cadastro</text></g><!--entity UC4--><g class="entity" data-qualified-name="Sistema FINTA.Acesso.UC4" data-source-line="44" id="ent0008"><ellipse cx="898.3011" cy="473.6163" fill="#FFFFFF" rx="130.1197" ry="49.2894" style="stroke:#486581;stroke-width:2.25;"/><text fill="#102A43" font-family="Arial" font-size="30" lengthAdjust="spacing" textLength="196.7139" x="799.9442" y="474.7827">UC4 - Realizar</text><text fill="#102A43" font-family="Arial" font-size="30" lengthAdjust="spacing" textLength="63.3838" x="866.6093" y="509.2798">login</text></g><!--entity UC6--><g class="entity" data-qualified-name="Sistema FINTA.Consulta de ativos.UC6" data-source-line="48" id="ent0010"><ellipse cx="898.313" cy="715.4955" fill="#FFFFFF" rx="220.4128" ry="49.4061" style="stroke:#486581;stroke-width:2.25;"/><text fill="#102A43" font-family="Arial" font-size="30" lengthAdjust="spacing" textLength="338.4814" x="729.0723" y="716.472">UC6 - Visualizar detalhes</text><text fill="#102A43" font-family="Arial" font-size="30" lengthAdjust="spacing" textLength="120.0732" x="838.2764" y="750.969">de ativos</text></g><!--entity UC8--><g class="entity" data-qualified-name="Sistema FINTA.Consulta de ativos.UC8" data-source-line="49" id="ent0011"><ellipse cx="898.3086" cy="917.9875" fill="#FFFFFF" rx="228.5833" ry="50.4106" style="stroke:#486581;stroke-width:2.25;"/><text fill="#102A43" font-family="Arial" font-size="30" lengthAdjust="spacing" textLength="343.4766" x="726.5703" y="917.3615">UC8 - Consultar cotacoes</text><text fill="#102A43" font-family="Arial" font-size="30" lengthAdjust="spacing" textLength="191.748" x="802.4345" y="951.8586">em tempo real</text></g><!--entity User--><g class="entity" data-qualified-name="User" data-source-line="37" id="ent0002"><ellipse cx="448.2248" cy="430.1206" fill="#F1F1F1" rx="30" ry="30" style="stroke:#486581;stroke-width:0.9375;"/><path d="M448.2248,467.6206 C455.7248,467.6206 461.3498,467.6206 468.8498,460.1206 C483.8498,460.1206 498.8498,475.1206 498.8498,490.1206 L498.8498,497.6206 C498.8498,505.1206 491.3498,512.6206 483.8498,512.6206 L412.5998,512.6206 C405.0998,512.6206 397.5998,505.1206 397.5998,497.6206 L397.5998,490.1206 C397.5998,475.1206 412.5998,460.1206 427.5998,460.1206 C435.0998,467.6206 440.7248,467.6206 448.2248,467.6206" fill="#F1F1F1" style="stroke:#486581;stroke-width:0.9375;"/><text fill="#102A43" font-family="Arial" font-size="30" lengthAdjust="spacing" textLength="103.374" x="396.5377" y="541.6978">Usuario</text></g><!--entity Brapi--><g class="entity" data-qualified-name="Brapi" data-source-line="38" id="ent0003"><ellipse cx="448.2315" cy="812.6206" fill="#F1F1F1" rx="30" ry="30" style="stroke:#486581;stroke-width:0.9375;"/><path d="M448.2315,850.1206 C455.7315,850.1206 461.3565,850.1206 468.8565,842.6206 C483.8565,842.6206 498.8565,857.6206 498.8565,872.6206 L498.8565,880.1206 C498.8565,887.6206 491.3565,895.1206 483.8565,895.1206 L412.6065,895.1206 C405.1065,895.1206 397.6065,887.6206 397.6065,880.1206 L397.6065,872.6206 C397.6065,857.6206 412.6065,842.6206 427.6065,842.6206 C435.1065,850.1206 440.7315,850.1206 448.2315,850.1206" fill="#F1F1F1" style="stroke:#486581;stroke-width:0.9375;"/><text fill="#102A43" font-family="Arial" font-size="30" lengthAdjust="spacing" textLength="70.0342" x="413.2144" y="924.1978">Brapi</text></g><!--entity CoinCap--><g class="entity" data-qualified-name="CoinCap" data-source-line="39" id="ent0004"><ellipse cx="448.2294" cy="1026.3706" fill="#F1F1F1" rx="30" ry="30" style="stroke:#486581;stroke-width:0.9375;"/><path d="M448.2294,1063.8706 C455.7294,1063.8706 461.3544,1063.8706 468.8544,1056.3706 C483.8544,1056.3706 498.8544,1071.3706 498.8544,1086.3706 L498.8544,1093.8706 C498.8544,1101.3706 491.3544,1108.8706 483.8544,1108.8706 L412.6044,1108.8706 C405.1044,1108.8706 397.6044,1101.3706 397.6044,1093.8706 L397.6044,1086.3706 C397.6044,1071.3706 412.6044,1056.3706 427.6044,1056.3706 C435.1044,1063.8706 440.7294,1063.8706 448.2294,1063.8706" fill="#F1F1F1" style="stroke:#486581;stroke-width:0.9375;"/><text fill="#102A43" font-family="Arial" font-size="30" lengthAdjust="spacing" textLength="116.7334" x="389.8627" y="1137.9478">CoinCap</text></g><!--link User to UC3--><g class="link" data-entity-1="ent0002" data-entity-2="ent0007" data-link-type="association" data-source-line="53" id="lnk12"><path d="M500.394,436.4206 C523.5877,420.6519 552.0877,403.1581 579.7252,391.1206 C642.5002,363.7831 716.3377,343.8894 776.9377,330.5206" fill="none" id="User-UC3" style="stroke:#425466;stroke-width:2.4375;"/></g><!--link User to UC4--><g class="link" data-entity-1="ent0002" data-entity-2="ent0008" data-link-type="association" data-source-line="54" id="lnk13"><path d="M500.4315,473.6206 C564.7252,473.6206 678.3315,473.6206 767.4127,473.6206" fill="none" id="User-UC4" style="stroke:#425466;stroke-width:2.4375;"/></g><!--link User to UC6--><g class="link" data-entity-1="ent0002" data-entity-2="ent0010" data-link-type="association" data-source-line="55" id="lnk14"><path d="M500.7127,505.4956 C524.469,520.1769 553.3065,537.5769 579.7252,552.3706 C654.1815,594.0894 740.394,638.2456 804.0502,670.0644" fill="none" id="User-UC6" style="stroke:#425466;stroke-width:2.4375;"/></g><!--link UC6 to UC8--><g class="link" data-entity-1="ent0010" data-entity-2="ent0011" data-link-type="dependency" data-source-line="57" id="lnk15"><path d="M898.3065,765.1831 C898.3065,796.0831 898.3065,824.4894 898.3065,855.6519" fill="none" id="UC6-to-UC8" style="stroke:#425466;stroke-width:2.4375;stroke-dasharray:13.125,13.125;"/><polygon fill="#425466" points="898.3065,866.9019,905.8065,850.0269,898.3065,857.5269,890.8065,850.0269,898.3065,866.9019" style="stroke:#425466;stroke-width:2.4375;"/><text fill="#000000" font-family="Arial" font-size="30" lengthAdjust="spacing" textLength="128.4375" x="810.1815" y="827.504">&#171;include&#187;</text></g><!--link Brapi to UC8--><g class="link" data-entity-1="ent0003" data-entity-2="ent0011" data-link-type="association" data-source-line="59" id="lnk16"><path d="M500.4315,863.0956 C549.9127,869.9581 628.569,880.8706 702.8002,891.1456" fill="none" id="Brapi-UC8" style="stroke:#425466;stroke-width:2.4375;"/></g><!--link CoinCap to UC8--><g class="link" data-entity-1="ent0004" data-entity-2="ent0011" data-link-type="association" data-source-line="60" id="lnk17"><path d="M506.6377,1050.6331 C572.7877,1028.1331 684.3127,990.1831 771.1627,960.6144" fill="none" id="CoinCap-UC8" style="stroke:#425466;stroke-width:2.4375;"/></g><?plantuml-src ZLHDRvj04BtlhnZHiwE0CI5LP0bJ8VKILRNJKovJMEELOGVjBhMQAl-zouUT3KPfuR8xxytCcm-e-Dw08L2YF1WeXEAv4IIPFWhPeC8Qz04BEWbPmXuhpHsamVo89T-QtnM7pX5bMRa4p0sf0SOJrrIxOD48yEDRn_BJnYiLjR98gI85dxBKledhm_VOLYOZQHwnvf0eWTKylXKl7Fp80Oqm5Rz0GJW7ZOdzQ1c4sNMfktSX_FW3nZyYRKWLN8sakoHExkzdI5SD2R9LTkSGBrt_EDuRxIfYd2NPng5ACaw5uGIvzi-orPTeodB5f76S-873I9IYqmY6mIgCeYcuEuZyABdMuDyi7R3LF4VDuGy3S6SytCuTlmsIS6bjSrhjqo6klZ2ELh5_iRgv0_OwtUR_pJsJuPMnViyW-_guIs01AMhITcVXIHCK1DyKvJOnWPVaL3Se3wWW9uCvKaThhGOZVf77sA35Uz8jAa4UeBP1k3hRDmeRqLlxqzcSaf0fDZqmdXcxx0PuMw4Dht4GwFMbZflOIUga3KQuJC9xIfUsakySA_62wbdcMA0sQfIKBgViy1sxebB8aHfQgcsHap8bgUtNZ5tjVU5w9dra0_uGjWzzI4irM1suVfQEKny_cdh6tGZ656EVgNFazd_0wyR-4wtEqJdknLbvNPTXiUXBUpk7pZco9AlgPjsvmMTuU10ohzg2hzUCzUCOU34RHt2-_WK0?></g></svg>