<?plantuml 1.2026.1?><svg xmlns="http://www.w3.org/2000/svg" xmlns:xlink="http://www.w3.org/1999/xlink" contentStyleType="text/css" data-diagram-type="DESCRIPTION" height="644px" preserveAspectRatio="none" style="width:591px;height:644px;background:#FFFFFF;" version="1.1" viewBox="0 0 591 644" width="591px" zoomAndPan="magnify"><title>Casos de Uso - Acesso e Mercado</title><defs/><g><g class="title" data-source-line="5"><text fill="#000000" font-family="sans-serif" font-size="14" font-weight="bold" lengthAdjust="spacing" textLength="244.3643" x="166.4229" y="23.5352">Casos de Uso - Acesso e Mercado</text></g><!--cluster Sistema FINTA--><g class="cluster" data-qualified-name="Sistema FINTA" data-source-line="12" id="ent0006"><rect fill="none" height="534" rx="2.5" ry="2.5" style="stroke:#181818;stroke-width:1;" width="310.85" x="274.36" y="44.4883"/><text fill="#000000" font-family="sans-serif" font-size="14" font-weight="bold" lengthAdjust="spacing" textLength="104.1729" x="377.6986" y="60.0234">Sistema FINTA</text></g><!--entity UC1--><g class="entity" data-qualified-name="Sistema FINTA.UC1" data-source-line="13" id="ent0007"><ellipse cx="429.7934" cy="444.493" fill="#F1F1F1" rx="139.4234" ry="30.2847" style="stroke:#181818;stroke-width:0.5;"/><text fill="#000000" font-family="sans-serif" font-size="14" lengthAdjust="spacing" textLength="260.0938" x="299.7465" y="449.2371">UC1 - Visualizar dashboard financeiro</text></g><!--entity UC2--><g class="entity" data-qualified-name="Sistema FINTA.UC2" data-source-line="14" id="ent0008"><ellipse cx="429.7876" cy="536.4878" fill="#F1F1F1" rx="120.3476" ry="26.4695" style="stroke:#181818;stroke-width:0.5;"/><text fill="#000000" font-family="sans-serif" font-size="14" lengthAdjust="spacing" textLength="194.2568" x="332.6591" y="536.3056">UC2 - Visualizar detalhes de</text><text fill="#000000" font-family="sans-serif" font-size="14" lengthAdjust="spacing" textLength="125.9111" x="366.832" y="552.7939">indicadores/ativos</text></g><!--entity UC3--><g class="entity" data-qualified-name="Sistema FINTA.UC3" data-source-line="15" id="ent0009"><ellipse cx="429.7887" cy="358.492" fill="#F1F1F1" rx="93.7687" ry="21.1537" style="stroke:#181818;stroke-width:0.5;"/><text fill="#000000" font-family="sans-serif" font-size="14" lengthAdjust="spacing" textLength="161.7383" x="348.9196" y="363.2362">UC3 - Realizar cadastro</text></g><!--entity UC4--><g class="entity" data-qualified-name="Sistema FINTA.UC4" data-source-line="16" id="ent0010"><ellipse cx="429.7876" cy="171.4878" fill="#F1F1F1" rx="83.2476" ry="19.0495" style="stroke:#181818;stroke-width:0.5;"/><text fill="#000000" font-family="sans-serif" font-size="14" lengthAdjust="spacing" textLength="137.7031" x="360.9361" y="176.232">UC4 - Realizar login</text></g><!--entity UC_VAL_DADOS--><g class="entity" data-qualified-name="Sistema FINTA.UC_VAL_DADOS" data-source-line="18" id="ent0011"><ellipse cx="429.7936" cy="263.489" fill="#F1F1F1" rx="97.4536" ry="21.8907" style="stroke:#181818;stroke-width:0.5;"/><text fill="#000000" font-family="sans-serif" font-size="14" lengthAdjust="spacing" textLength="169.9688" x="344.8093" y="268.2332">Validar dados de entrada</text></g><!--entity UC_VAL_AUTH--><g class="entity" data-qualified-name="Sistema FINTA.UC_VAL_AUTH" data-source-line="19" id="ent0012"><ellipse cx="429.7855" cy="98.4914" fill="#F1F1F1" rx="83.1655" ry="19.0331" style="stroke:#181818;stroke-width:0.5;"/><text fill="#000000" font-family="sans-serif" font-size="14" lengthAdjust="spacing" textLength="137.5117" x="361.0297" y="103.2355">Validar autenticacao</text></g><!--entity U--><g class="entity" data-qualified-name="U" data-source-line="7" id="ent0002"><ellipse cx="86.6859" cy="336.7383" fill="#F1F1F1" rx="8" ry="8" style="stroke:#181818;stroke-width:0.5;"/><path d="M86.6859,344.7383 L86.6859,371.7383 M73.6859,352.7383 L99.6859,352.7383 M86.6859,371.7383 L73.6859,386.7383 M86.6859,371.7383 L99.6859,386.7383" fill="none" style="stroke:#181818;stroke-width:0.5;"/><text fill="#000000" font-family="sans-serif" font-size="14" lengthAdjust="spacing" textLength="51.6318" x="60.87" y="401.7734">Usuario</text></g><!--entity AUTH--><g class="entity" data-qualified-name="AUTH" data-source-line="8" id="ent0003"><ellipse cx="86.6812" cy="141.7383" fill="#F1F1F1" rx="8" ry="8" style="stroke:#181818;stroke-width:0.5;"/><path d="M86.6812,149.7383 L86.6812,176.7383 M73.6812,157.7383 L99.6812,157.7383 M86.6812,176.7383 L73.6812,191.7383 M86.6812,176.7383 L99.6812,191.7383" fill="none" style="stroke:#181818;stroke-width:0.5;"/><text fill="#000000" font-family="sans-serif" font-size="14" lengthAdjust="spacing" textLength="161.3623" x="6" y="206.7734">Servico de Autenticacao</text></g><!--entity FIN--><g class="entity" data-qualified-name="FIN" data-source-line="9" id="ent0004"><ellipse cx="86.6795" cy="456.7383" fill="#F1F1F1" rx="8" ry="8" style="stroke:#181818;stroke-width:0.5;"/><path d="M86.6795,464.7383 L86.6795,491.7383 M73.6795,472.7383 L99.6795,472.7383 M86.6795,491.7383 L73.6795,506.7383 M86.6795,491.7383 L99.6795,506.7383" fill="none" style="stroke:#181818;stroke-width:0.5;"/><text fill="#000000" font-family="sans-serif" font-size="14" lengthAdjust="spacing" textLength="94.999" x="39.18" y="521.7734">API Financeira</text></g><!--entity CRYPTO--><g class="entity" data-qualified-name="CRYPTO" data-source-line="10" id="ent0005"><ellipse cx="86.6849" cy="570.7383" fill="#F1F1F1" rx="8" ry="8" style="stroke:#181818;stroke-width:0.5;"/><path d="M86.6849,578.7383 L86.6849,605.7383 M73.6849,586.7383 L99.6849,586.7383 M86.6849,605.7383 L73.6849,620.7383 M86.6849,605.7383 L99.6849,620.7383" fill="none" style="stroke:#181818;stroke-width:0.5;"/><text fill="#000000" font-family="sans-serif" font-size="14" lengthAdjust="spacing" textLength="67.9697" x="52.7" y="635.7734">API Cripto</text></g><!--link U to UC1--><g class="link" data-entity-1="ent0002" data-entity-2="ent0007" data-link-type="association" data-source-line="22" id="lnk13"><path d="M112.76,372.2183 C158.46,382.6683 257.48,405.3083 332.58,422.4883" fill="none" id="U-UC1" style="stroke:#181818;stroke-width:1;"/></g><!--link U to UC2--><g class="link" data-entity-1="ent0002" data-entity-2="ent0008" data-link-type="association" data-source-line="23" id="lnk14"><path d="M112.81,379.7083 C147.95,398.9783 212.59,437.3283 258.36,481.4883 C262.71,485.6783 261.38,489.0583 266.36,492.4883 C285.37,505.5783 308.11,514.7783 330.48,521.2483" fill="none" id="U-UC2" style="stroke:#181818;stroke-width:1;"/></g><!--link U to UC3--><g class="link" data-entity-1="ent0002" data-entity-2="ent0009" data-link-type="association" data-source-line="24" id="lnk15"><path d="M112.76,365.8983 C159.23,364.8083 260.83,362.4283 336.35,360.6483" fill="none" id="U-UC3" style="stroke:#181818;stroke-width:1;"/></g><!--link U to UC4--><g class="link" data-entity-1="ent0002" data-entity-2="ent0010" data-link-type="association" data-source-line="25" id="lnk16"><path d="M112.73,341.4683 C145.44,310.0683 205.72,256.4583 266.36,224.4883 C299.29,207.1183 338.97,194.0483 370.87,185.2283" fill="none" id="U-UC4" style="stroke:#181818;stroke-width:1;"/></g><!--link UC1 to UC_VAL_AUTH--><g class="link" data-entity-1="ent0007" data-entity-2="ent0012" data-link-type="dependency" data-source-line="27" id="lnk17"><path d="M315.54,426.8283 C297.49,419.9883 280.23,410.5283 266.36,397.4883 C232.18,365.3283 238.99,344.2283 231.02,297.9883 C220.37,236.2283 220.91,179.0383 266.36,134.4883 C287.52,113.7383 311.8404,104.725 340.5604,100.285" fill="none" id="UC1-to-UC_VAL_AUTH" style="stroke:#181818;stroke-width:1;stroke-dasharray:7,7;"/><polygon fill="#181818" points="346.49,99.3683,336.9845,96.7903,341.5487,100.1322,338.2068,104.6964,346.49,99.3683" style="stroke:#181818;stroke-width:1;"/><text fill="#000000" font-family="sans-serif" font-size="13" lengthAdjust="spacing" textLength="59.3569" x="198.36" y="294.5566">&#171;include&#187;</text></g><!--link UC2 to UC_VAL_AUTH--><g class="link" data-entity-1="ent0008" data-entity-2="ent0012" data-link-type="dependency" data-source-line="28" id="lnk18"><path d="M320.83,524.9183 C300.46,518.1883 281.01,507.9583 266.36,492.4883 C208.97,431.8483 222.64,391.0583 231.02,307.9883 C238.91,229.6883 211.16,190.5683 266.36,134.4883 C287.25,113.2583 311.6771,104.1533 340.5771,99.7933" fill="none" id="UC2-to-UC_VAL_AUTH" style="stroke:#181818;stroke-width:1;stroke-dasharray:7,7;"/><polygon fill="#181818" points="346.51,98.8983,337.014,96.2856,341.5659,99.6442,338.2074,104.1961,346.51,98.8983" style="stroke:#181818;stroke-width:1;"/><text fill="#000000" font-family="sans-serif" font-size="13" lengthAdjust="spacing" textLength="59.3569" x="198.36" y="321.5566">&#171;include&#187;</text></g><!--link UC3 to UC_VAL_DADOS--><g class="link" data-entity-1="ent0009" data-entity-2="ent0011" data-link-type="dependency" data-source-line="29" id="lnk19"><path d="M429.79,336.9283 C429.79,321.5983 429.79,307.0683 429.79,291.6183" fill="none" id="UC3-to-UC_VAL_DADOS" style="stroke:#181818;stroke-width:1;stroke-dasharray:7,7;"/><polygon fill="#181818" points="429.79,285.6183,425.79,294.6183,429.79,290.6183,433.79,294.6183,429.79,285.6183" style="stroke:#181818;stroke-width:1;"/><text fill="#000000" font-family="sans-serif" font-size="13" lengthAdjust="spacing" textLength="59.3569" x="388.79" y="316.4166">&#171;include&#187;</text></g><!--link UC4 to UC_VAL_DADOS--><g class="link" data-entity-1="ent0010" data-entity-2="ent0011" data-link-type="dependency" data-source-line="30" id="lnk20"><path d="M429.79,190.7483 C429.79,205.4683 429.79,219.7883 429.79,235.2183" fill="none" id="UC4-to-UC_VAL_DADOS" style="stroke:#181818;stroke-width:1;stroke-dasharray:7,7;"/><polygon fill="#181818" points="429.79,241.2183,433.79,232.2183,429.79,236.2183,425.79,232.2183,429.79,241.2183" style="stroke:#181818;stroke-width:1;"/><text fill="#000000" font-family="sans-serif" font-size="13" lengthAdjust="spacing" textLength="59.3569" x="388.79" y="221.1366">&#171;include&#187;</text></g><!--link AUTH to UC3--><g class="link" data-entity-1="ent0003" data-entity-2="ent0009" data-link-type="association" data-source-line="32" id="lnk21"><path d="M167.71,202.6683 C200.12,218.9883 235.28,242.0283 258.36,272.4883 C266.7,283.4783 256.96,292.3883 266.36,302.4883 C288.01,325.7383 319.75,339.3283 349.45,347.2783" fill="none" id="AUTH-UC3" style="stroke:#181818;stroke-width:1;"/></g><!--link AUTH to UC4--><g class="link" data-entity-1="ent0003" data-entity-2="ent0010" data-link-type="association" data-source-line="33" id="lnk22"><path d="M167.65,171.4883 C221.31,171.4883 291.82,171.4883 346.05,171.4883" fill="none" id="AUTH-UC4" style="stroke:#181818;stroke-width:1;"/></g><!--link AUTH to UC_VAL_AUTH--><g class="link" data-entity-1="ent0003" data-entity-2="ent0012" data-link-type="association" data-source-line="34" id="lnk23"><path d="M167.58,152.2283 C177.6,149.9083 187.71,147.6083 197.36,145.4883 C254.02,133.0183 318.75,119.9783 365.31,110.7983" fill="none" id="AUTH-UC_VAL_AUTH" style="stroke:#181818;stroke-width:1;"/></g><!--link FIN to UC1--><g class="link" data-entity-1="ent0004" data-entity-2="ent0007" data-link-type="association" data-source-line="35" id="lnk24"><path d="M134.4,480.7283 C178.82,475.2583 247.58,466.7983 307.47,459.4183" fill="none" id="FIN-UC1" style="stroke:#181818;stroke-width:1;"/></g><!--link FIN to UC2--><g class="link" data-entity-1="ent0004" data-entity-2="ent0008" data-link-type="association" data-source-line="36" id="lnk25"><path d="M134.4,493.3283 C184.21,500.6283 264.6,512.4183 328.79,521.8283" fill="none" id="FIN-UC2" style="stroke:#181818;stroke-width:1;"/></g><!--link CRYPTO to UC1--><g class="link" data-entity-1="ent0005" data-entity-2="ent0007" data-link-type="association" data-source-line="37" id="lnk26"><path d="M120.86,576.8583 C155.71,552.9083 212.8,516.1183 266.36,492.4883 C288.42,482.7483 313.01,474.3283 336.25,467.3783" fill="none" id="CRYPTO-UC1" style="stroke:#181818;stroke-width:1;"/></g><!--link CRYPTO to UC2--><g class="link" data-entity-1="ent0005" data-entity-2="ent0008" data-link-type="association" data-source-line="38" id="lnk27"><path d="M120.93,598.2383 C155.49,595.5683 211.03,590.3183 258.36,581.4883 C291.15,575.3683 326.91,566.2983 357.18,557.9083" fill="none" id="CRYPTO-UC2" style="stroke:#181818;stroke-width:1;"/></g><?plantuml-src XL9XQy8m4FsUNt7utGrRFmqHIcLii4rHAmm6SalEUgmcaaJ7DlRVbzPMgnlisqlklNVlBYbevS4Ri9olFIYs93qRBTmRworQt81RepBlh7DOOU6eLTcYVCESPlwZ82Y5gFE2XF3imqMApZXG19apq8L4aWk0u96i38v2eFJ6GYTpExHiEe0EikPoHdRFqfJoPET9UvOeyK1AilbTmqiczt3B6hKajbYLR--VsjNKyjOVXEdqUJ8V2t6C6lgmyxJ1KZHFEl0b07QE9BfGoz9UoBtWaA_WJxIWqArV3Le5gwPb7JljdGkZ2o5vBDPKRkD5irPSBi2IkqRFU-DgZ-ZS8muUKweTWW2TFxQBpwdzDhKmEUkQrnTjuY8mL3M7EhnCsAiDnZLvkKWUbgDaD9xz9SBBPwW5rMjy2v51jrijeWPH0-86X33bIg-6RIdSm630MXOxHSEXA5Vt3o5k4QgqlnZzVnYYygt3dN2_XK-ZXP_HJ7Q4aJXyfQRGFaK_?></g></svg>