<?plantuml 1.2026.1?><svg xmlns="http://www.w3.org/2000/svg" xmlns:xlink="http://www.w3.org/1999/xlink" contentStyleType="text/css" data-diagram-type="DESCRIPTION" height="668px" preserveAspectRatio="none" style="width:570px;height:668px;background:#FFFFFF;" version="1.1" viewBox="0 0 570 668" width="570px" zoomAndPan="magnify"><title>Casos de Uso - Favoritos e Cotacoes</title><defs/><g><g class="title" data-source-line="46"><text fill="#000000" font-family="sans-serif" font-size="14" font-weight="bold" lengthAdjust="spacing" textLength="264.749" x="145.6905" y="23.5352">Casos de Uso - Favoritos e Cotacoes</text></g><!--cluster Sistema FINTA--><g class="cluster" data-qualified-name="Sistema FINTA" data-source-line="54" id="ent0007"><rect fill="none" height="446" rx="2.5" ry="2.5" style="stroke:#181818;stroke-width:1;" width="289.77" x="274.36" y="175.2383"/><text fill="#000000" font-family="sans-serif" font-size="14" font-weight="bold" lengthAdjust="spacing" textLength="104.1729" x="367.1586" y="190.7734">Sistema FINTA</text></g><!--entity UC5--><g class="entity" data-qualified-name="Sistema FINTA.UC5" data-source-line="55" id="ent0008"><ellipse cx="419.2437" cy="508.235" fill="#F1F1F1" rx="99.0837" ry="22.2167" style="stroke:#181818;stroke-width:0.5;"/><text fill="#000000" font-family="sans-serif" font-size="14" lengthAdjust="spacing" textLength="173.585" x="332.4512" y="512.9792">UC5 - Adicionar favoritos</text></g><!--entity UC6--><g class="entity" data-qualified-name="Sistema FINTA.UC6" data-source-line="56" id="ent0009"><ellipse cx="419.2429" cy="585.2409" fill="#F1F1F1" rx="87.8129" ry="19.9626" style="stroke:#181818;stroke-width:0.5;"/><text fill="#000000" font-family="sans-serif" font-size="14" lengthAdjust="spacing" textLength="148.2441" x="345.1208" y="589.985">UC6 - Editar favoritos</text></g><!--entity UC7--><g class="entity" data-qualified-name="Sistema FINTA.UC7" data-source-line="57" id="ent0010"><ellipse cx="419.2379" cy="429.2399" fill="#F1F1F1" rx="96.6579" ry="21.7316" style="stroke:#181818;stroke-width:0.5;"/><text fill="#000000" font-family="sans-serif" font-size="14" lengthAdjust="spacing" textLength="168.1982" x="335.1388" y="433.984">UC7 - Remover favoritos</text></g><!--entity UC8--><g class="entity" data-qualified-name="Sistema FINTA.UC8" data-source-line="58" id="ent0011"><ellipse cx="419.2414" cy="328.2346" fill="#F1F1F1" rx="128.8814" ry="28.1763" style="stroke:#181818;stroke-width:0.5;"/><text fill="#000000" font-family="sans-serif" font-size="14" lengthAdjust="spacing" textLength="199.917" x="319.2829" y="325.92">UC8 - Consultar cotacoes em</text><text fill="#000000" font-family="sans-serif" font-size="14" lengthAdjust="spacing" textLength="179.2998" x="329.5915" y="342.4083">tempo real (acoes/criptos)</text></g><!--entity UC_VAL_AUTH--><g class="entity" data-qualified-name="Sistema FINTA.UC_VAL_AUTH" data-source-line="60" id="ent0012"><ellipse cx="419.2355" cy="229.2414" fill="#F1F1F1" rx="83.1655" ry="19.0331" style="stroke:#181818;stroke-width:0.5;"/><text fill="#000000" font-family="sans-serif" font-size="14" lengthAdjust="spacing" textLength="137.5117" x="350.4797" y="233.9855">Validar autenticacao</text></g><!--entity U--><g class="entity" data-qualified-name="U" data-source-line="48" id="ent0002"><ellipse cx="86.6859" cy="417.4883" fill="#F1F1F1" rx="8" ry="8" style="stroke:#181818;stroke-width:0.5;"/><path d="M86.6859,425.4883 L86.6859,452.4883 M73.6859,433.4883 L99.6859,433.4883 M86.6859,452.4883 L73.6859,467.4883 M86.6859,452.4883 L99.6859,467.4883" fill="none" style="stroke:#181818;stroke-width:0.5;"/><text fill="#000000" font-family="sans-serif" font-size="14" lengthAdjust="spacing" textLength="51.6318" x="60.87" y="482.5234">Usuario</text></g><!--entity AUTH--><g class="entity" data-qualified-name="AUTH" data-source-line="49" id="ent0003"><ellipse cx="86.6812" cy="51.4883" fill="#F1F1F1" rx="8" ry="8" style="stroke:#181818;stroke-width:0.5;"/><path d="M86.6812,59.4883 L86.6812,86.4883 M73.6812,67.4883 L99.6812,67.4883 M86.6812,86.4883 L73.6812,101.4883 M86.6812,86.4883 L99.6812,101.4883" fill="none" style="stroke:#181818;stroke-width:0.5;"/><text fill="#000000" font-family="sans-serif" font-size="14" lengthAdjust="spacing" textLength="161.3623" x="6" y="116.5234">Servico de Autenticacao</text></g><!--entity FIN--><g class="entity" data-qualified-name="FIN" data-source-line="50" id="ent0004"><ellipse cx="86.6795" cy="273.4883" fill="#F1F1F1" rx="8" ry="8" style="stroke:#181818;stroke-width:0.5;"/><path d="M86.6795,281.4883 L86.6795,308.4883 M73.6795,289.4883 L99.6795,289.4883 M86.6795,308.4883 L73.6795,323.4883 M86.6795,308.4883 L99.6795,323.4883" fill="none" style="stroke:#181818;stroke-width:0.5;"/><text fill="#000000" font-family="sans-serif" font-size="14" lengthAdjust="spacing" textLength="94.999" x="39.18" y="338.5234">API Financeira</text></g><!--entity CRYPTO--><g class="entity" data-qualified-name="CRYPTO" data-source-line="51" id="ent0005"><ellipse cx="86.6849" cy="162.4883" fill="#F1F1F1" rx="8" ry="8" style="stroke:#181818;stroke-width:0.5;"/><path d="M86.6849,170.4883 L86.6849,197.4883 M73.6849,178.4883 L99.6849,178.4883 M86.6849,197.4883 L73.6849,212.4883 M86.6849,197.4883 L99.6849,212.4883" fill="none" style="stroke:#181818;stroke-width:0.5;"/><text fill="#000000" font-family="sans-serif" font-size="14" lengthAdjust="spacing" textLength="67.9697" x="52.7" y="227.5234">API Cripto</text></g><!--entity DB_FAV--><g class="entity" data-qualified-name="DB_FAV" data-source-line="52" id="ent0006"><ellipse cx="86.6825" cy="594.4883" fill="#F1F1F1" rx="8" ry="8" style="stroke:#181818;stroke-width:0.5;"/><path d="M86.6825,602.4883 L86.6825,629.4883 M73.6825,610.4883 L99.6825,610.4883 M86.6825,629.4883 L73.6825,644.4883 M86.6825,629.4883 L99.6825,644.4883" fill="none" style="stroke:#181818;stroke-width:0.5;"/><text fill="#000000" font-family="sans-serif" font-size="14" lengthAdjust="spacing" textLength="127.5449" x="22.91" y="659.5234">Banco de Favoritos</text></g><!--link U to UC5--><g class="link" data-entity-1="ent0002" data-entity-2="ent0008" data-link-type="association" data-source-line="63" id="lnk13"><path d="M112.91,457.8383 C134.83,466.5983 167.66,478.6383 197.36,485.2383 C237.82,494.2283 283.25,499.7183 322.34,503.0683" fill="none" id="U-UC5" style="stroke:#181818;stroke-width:1;"/></g><!--link U to UC6--><g class="link" data-entity-1="ent0002" data-entity-2="ent0009" data-link-type="association" data-source-line="64" id="lnk14"><path d="M112.9,464.4683 C146.53,486.7383 208.54,525.3583 266.36,548.2383 C292.86,558.7183 323.17,566.8283 349.71,572.7383" fill="none" id="U-UC6" style="stroke:#181818;stroke-width:1;"/></g><!--link U to UC7--><g class="link" data-entity-1="ent0002" data-entity-2="ent0010" data-link-type="association" data-source-line="65" id="lnk15"><path d="M112.92,444.5383 C135.13,442.2583 168.36,439.0783 197.36,437.2383 C238.43,434.6183 283.86,432.7883 322.78,431.5483" fill="none" id="U-UC7" style="stroke:#181818;stroke-width:1;"/></g><!--link U to UC8--><g class="link" data-entity-1="ent0002" data-entity-2="ent0011" data-link-type="association" data-source-line="66" id="lnk16"><path d="M112.69,417.0183 C133.01,394.7583 163.73,365.9083 197.36,351.2383 C226.07,338.7083 258.81,331.8183 290.13,328.2483" fill="none" id="U-UC8" style="stroke:#181818;stroke-width:1;"/></g><!--link UC5 to UC_VAL_AUTH--><g class="link" data-entity-1="ent0008" data-entity-2="ent0012" data-link-type="dependency" data-source-line="68" id="lnk17"><path d="M328.13,499.2183 C305.83,493.2683 283.49,483.6583 266.36,468.2383 C231.6,436.9283 237.64,415.7583 229.26,369.7383 C221.69,328.1783 234.33,309.7683 266.36,282.2383 C290.54,261.4483 317.5347,250.232 346.5547,242.452" fill="none" id="UC5-to-UC_VAL_AUTH" style="stroke:#181818;stroke-width:1;stroke-dasharray:7,7;"/><polygon fill="#181818" points="352.35,240.8983,342.6212,239.3652,347.5205,242.193,344.6928,247.0924,352.35,240.8983" style="stroke:#181818;stroke-width:1;"/><text fill="#000000" font-family="sans-serif" font-size="13" lengthAdjust="spacing" textLength="59.3569" x="198.36" y="366.3066">&#171;include&#187;</text></g><!--link UC6 to UC_VAL_AUTH--><g class="link" data-entity-1="ent0009" data-entity-2="ent0012" data-link-type="dependency" data-source-line="69" id="lnk18"><path d="M333.23,581.0583 C308.82,575.8283 284.09,566.0383 266.36,548.2383 C215.93,497.5683 237.56,462.7383 229.26,391.7383 C223.29,340.6983 229.17,317.6883 266.36,282.2383 C289.13,260.5283 315.437,249.1933 344.357,241.5933" fill="none" id="UC6-to-UC_VAL_AUTH" style="stroke:#181818;stroke-width:1;stroke-dasharray:7,7;"/><polygon fill="#181818" points="350.16,240.0683,340.4389,238.4871,345.3242,241.3391,342.4722,246.2244,350.16,240.0683" style="stroke:#181818;stroke-width:1;"/><text fill="#000000" font-family="sans-serif" font-size="13" lengthAdjust="spacing" textLength="59.3569" x="198.36" y="388.3066">&#171;include&#187;</text></g><!--link UC7 to UC_VAL_AUTH--><g class="link" data-entity-1="ent0010" data-entity-2="ent0012" data-link-type="dependency" data-source-line="70" id="lnk19"><path d="M346.26,414.6683 C318.86,406.3783 288.93,393.6283 266.36,374.2383 C234.94,347.2383 204.73,322.1183 229.26,288.7383 C254.12,254.8883 292.2609,240.75 331.6909,234.21" fill="none" id="UC7-to-UC_VAL_AUTH" style="stroke:#181818;stroke-width:1;stroke-dasharray:7,7;"/><polygon fill="#181818" points="337.61,233.2283,328.0768,230.7548,332.6774,234.0464,329.3858,238.647,337.61,233.2283" style="stroke:#181818;stroke-width:1;"/><text fill="#000000" font-family="sans-serif" font-size="13" lengthAdjust="spacing" textLength="59.3569" x="198.36" y="302.3066">&#171;include&#187;</text></g><!--link UC8 to UC_VAL_AUTH--><g class="link" data-entity-1="ent0011" data-entity-2="ent0012" data-link-type="dependency" data-source-line="71" id="lnk20"><path d="M419.24,299.5983 C419.24,283.2683 419.24,269.2283 419.24,254.7183" fill="none" id="UC8-to-UC_VAL_AUTH" style="stroke:#181818;stroke-width:1;stroke-dasharray:7,7;"/><polygon fill="#181818" points="419.24,248.7183,415.24,257.7183,419.24,253.7183,423.24,257.7183,419.24,248.7183" style="stroke:#181818;stroke-width:1;"/><text fill="#000000" font-family="sans-serif" font-size="13" lengthAdjust="spacing" textLength="59.3569" x="378.24" y="279.2266">&#171;include&#187;</text></g><!--link UC5 to UC8--><g class="link" data-entity-1="ent0008" data-entity-2="ent0011" data-link-type="dependency" data-source-line="73" id="lnk21"><path d="M320.8,505.4483 C285.95,498.9883 250.22,484.9183 229.26,455.7383 C193.92,406.5383 262.3826,372.528 328.1426,351.598" fill="none" id="UC5-to-UC8" style="stroke:#181818;stroke-width:1;stroke-dasharray:7,7;"/><polygon fill="#181818" points="333.86,349.7783,324.0708,348.6963,329.0955,351.2947,326.4971,356.3195,333.86,349.7783" style="stroke:#181818;stroke-width:1;"/><text fill="#000000" font-family="sans-serif" font-size="13" lengthAdjust="spacing" textLength="59.3569" x="198.36" y="452.3066">&#171;include&#187;</text></g><!--link UC6 to UC8--><g class="link" data-entity-1="ent0009" data-entity-2="ent0011" data-link-type="dependency" data-source-line="74" id="lnk22"><path d="M336.6,578.3183 C312.05,572.9983 286.4,563.8383 266.36,548.2383 C238.43,526.4683 237.75,512.1083 229.26,477.7383 C219.13,436.7283 235.05,418.5883 266.36,390.2383 C286,372.4483 305.8092,361.5802 330.2492,352.1902" fill="none" id="UC6-to-UC8" style="stroke:#181818;stroke-width:1;stroke-dasharray:7,7;"/><polygon fill="#181818" points="335.85,350.0383,326.0142,349.5322,331.1826,351.8315,328.8833,357,335.85,350.0383" style="stroke:#181818;stroke-width:1;"/><text fill="#000000" font-family="sans-serif" font-size="13" lengthAdjust="spacing" textLength="59.3569" x="198.36" y="474.3066">&#171;include&#187;</text></g><!--link UC7 to UC8--><g class="link" data-entity-1="ent0010" data-entity-2="ent0011" data-link-type="dependency" data-source-line="75" id="lnk23"><path d="M419.24,407.3183 C419.24,392.4683 419.24,378.6983 419.24,362.6383" fill="none" id="UC7-to-UC8" style="stroke:#181818;stroke-width:1;stroke-dasharray:7,7;"/><polygon fill="#181818" points="419.24,356.6383,415.24,365.6383,419.24,361.6383,423.24,365.6383,419.24,356.6383" style="stroke:#181818;stroke-width:1;"/><text fill="#000000" font-family="sans-serif" font-size="13" lengthAdjust="spacing" textLength="59.3569" x="378.24" y="387.0266">&#171;include&#187;</text></g><!--link AUTH to UC_VAL_AUTH--><g class="link" data-entity-1="ent0003" data-entity-2="ent0012" data-link-type="association" data-source-line="77" id="lnk24"><path d="M167.7,117.0583 C234.96,147.1783 328.16,188.8983 379.84,212.0383" fill="none" id="AUTH-UC_VAL_AUTH" style="stroke:#181818;stroke-width:1;"/></g><!--link FIN to UC8--><g class="link" data-entity-1="ent0004" data-entity-2="ent0011" data-link-type="association" data-source-line="78" id="lnk25"><path d="M134.49,294.8783 C153.87,291.8183 176.63,288.7383 197.36,287.2383 C224.4,285.2683 231.46,283.8383 258.36,287.2383 C286.65,290.8083 317.1,297.7883 343.76,304.9983" fill="none" id="FIN-UC8" style="stroke:#181818;stroke-width:1;"/></g><!--link CRYPTO to UC8--><g class="link" data-entity-1="ent0005" data-entity-2="ent0011" data-link-type="association" data-source-line="79" id="lnk26"><path d="M120.94,202.5683 C156.22,214.1783 213.02,234.7883 258.36,260.2383 C262.24,262.4083 262.5,264.0383 266.36,266.2383 C292.26,280.9083 322.32,293.9283 348.83,304.2083" fill="none" id="CRYPTO-UC8" style="stroke:#181818;stroke-width:1;"/></g><!--link DB_FAV to UC5--><g class="link" data-entity-1="ent0006" data-entity-2="ent0008" data-link-type="association" data-source-line="80" id="lnk27"><path d="M150.9,594.6983 C184.7,579.5883 227.29,561.6083 266.36,548.2383 C292.93,539.1383 322.71,530.8883 348.81,524.2683" fill="none" id="DB_FAV-UC5" style="stroke:#181818;stroke-width:1;"/></g><!--link DB_FAV to UC6--><g class="link" data-entity-1="ent0006" data-entity-2="ent0009" data-link-type="association" data-source-line="81" id="lnk28"><path d="M150.95,637.0983 C166.09,639.6483 182.25,641.9383 197.36,643.2383 C224.37,645.5583 231.66,647.9283 258.36,643.2383 C301.4,635.6683 348.11,617.4683 379.87,603.4483" fill="none" id="DB_FAV-UC6" style="stroke:#181818;stroke-width:1;"/></g><!--link DB_FAV to UC7--><g class="link" data-entity-1="ent0006" data-entity-2="ent0010" data-link-type="association" data-source-line="82" id="lnk29"><path d="M135.61,585.6583 C178.49,550.7683 237.68,501.5483 258.36,479.2383 C262.47,474.7983 261.36,471.6283 266.36,468.2383 C286.4,454.6183 310.87,445.7583 334.26,439.9883" fill="none" id="DB_FAV-UC7" style="stroke:#181818;stroke-width:1;"/></g><?plantuml-src XP9FImCn4CNl-HH3Jtgedkmk8eLrjIY8YdOBWb26xBGTt2OboLP4_ExEfbtT-lUMvFtcPUOb5Sq210kEvui09JlIWQrH_edD2XqkmI-mjCzivZ33obD7MQ5-mZdTXvUAe2b4Cwz8gS113dBqraD9K7WBVHZXsZeESYII3QWjUQLG1-kWL_WQ7TiUe8UYFRmdjsPj6uki3cG2QzIuWR9YVD5osUqbZDYWqSGEepowlEwgkUDLs1JcTm-tuvjMF9MYUC57Tn4wEvsEiebI7pD9C-m3BR5n7cSzU5K0jIUDNhGYFv81ivAr98TESkgQYReB3mG-BpdyG0vsoKJ8ErhQDNr7arqq5JItnjTLuwkt0GCj7utqlP879gnWBvuUwfY7tzzQfQhhDS6AI_70hvaN-NIINKrZz6zA5T3ln-6sYq6xIDg5-3RH70oxfN0C9oTiT5MND1og9ev_WEG_8FqR-6mY_UtozBTBlmeg-iVfFiEGFz4ElFbUxMxpZzgSkhl1pYvv1m00?></g></svg>