<?plantuml 1.2026.1?><svg xmlns="http://www.w3.org/2000/svg" xmlns:xlink="http://www.w3.org/1999/xlink" contentStyleType="text/css" data-diagram-type="DESCRIPTION" height="761px" preserveAspectRatio="none" style="width:635px;height:761px;background:#FFFFFF;" version="1.1" viewBox="0 0 635 761" width="635px" zoomAndPan="magnify"><title>Casos de Uso - Selic e Financiamento</title><defs/><g><g class="title" data-source-line="90"><text fill="#000000" font-family="sans-serif" font-size="14" font-weight="bold" lengthAdjust="spacing" textLength="270.2451" x="175.8424" y="23.5352">Casos de Uso - Selic e Financiamento</text></g><!--cluster Sistema FINTA--><g class="cluster" data-qualified-name="Sistema FINTA" data-source-line="98" id="ent0007"><rect fill="none" height="653" rx="2.5" ry="2.5" style="stroke:#181818;stroke-width:1;" width="305.51" x="324.42" y="44.4883"/><text fill="#000000" font-family="sans-serif" font-size="14" font-weight="bold" lengthAdjust="spacing" textLength="104.1729" x="425.0886" y="60.0234">Sistema FINTA</text></g><!--entity UC9--><g class="entity" data-qualified-name="Sistema FINTA.UC9" data-source-line="99" id="ent0008"><ellipse cx="477.1676" cy="280.4898" fill="#F1F1F1" rx="136.7576" ry="29.7515" style="stroke:#181818;stroke-width:0.5;"/><text fill="#000000" font-family="sans-serif" font-size="14" lengthAdjust="spacing" textLength="254.4951" x="349.92" y="285.2339">UC9 - Visualizar taxa Selic atualizada</text></g><!--entity UC10--><g class="entity" data-qualified-name="Sistema FINTA.UC10" data-source-line="100" id="ent0009"><ellipse cx="477.1663" cy="190.4875" fill="#F1F1F1" rx="114.7463" ry="25.3493" style="stroke:#181818;stroke-width:0.5;"/><text fill="#000000" font-family="sans-serif" font-size="14" lengthAdjust="spacing" textLength="183.0322" x="385.6502" y="190.6508">UC10 - Comparar taxas de</text><text fill="#000000" font-family="sans-serif" font-size="14" lengthAdjust="spacing" textLength="96.6465" x="428.8431" y="207.1391">financiamento</text></g><!--entity UC11--><g class="entity" data-qualified-name="Sistema FINTA.UC11" data-source-line="101" id="ent0010"><ellipse cx="477.173" cy="104.4849" fill="#F1F1F1" rx="113.933" ry="25.1866" style="stroke:#181818;stroke-width:0.5;"/><text fill="#000000" font-family="sans-serif" font-size="14" lengthAdjust="spacing" textLength="205.9805" x="374.1828" y="109.229">UC11 - Simular financiamento</text></g><!--entity UC12--><g class="entity" data-qualified-name="Sistema FINTA.UC12" data-source-line="102" id="ent0011"><ellipse cx="477.1714" cy="566.4886" fill="#F1F1F1" rx="115.7514" ry="25.5503" style="stroke:#181818;stroke-width:0.5;"/><text fill="#000000" font-family="sans-serif" font-size="14" lengthAdjust="spacing" textLength="195.1523" x="379.5952" y="568.1777">UC12 - Salvar financiamento</text><text fill="#000000" font-family="sans-serif" font-size="14" lengthAdjust="spacing" textLength="62.1318" x="446.1054" y="584.666">simulado</text></g><!--entity UC13--><g class="entity" data-qualified-name="Sistema FINTA.UC13" data-source-line="103" id="ent0012"><ellipse cx="477.1702" cy="478.4843" fill="#F1F1F1" rx="125.7802" ry="27.556" style="stroke:#181818;stroke-width:0.5;"/><text fill="#000000" font-family="sans-serif" font-size="14" lengthAdjust="spacing" textLength="221.4639" x="366.4383" y="480.8643">UC13 - Visualizar financiamento</text><text fill="#000000" font-family="sans-serif" font-size="14" lengthAdjust="spacing" textLength="101.3223" x="426.5091" y="497.3525">simulado salvo</text></g><!--entity UC14--><g class="entity" data-qualified-name="Sistema FINTA.UC14" data-source-line="104" id="ent0013"><ellipse cx="477.1662" cy="372.4895" fill="#F1F1F1" rx="123.6062" ry="27.1212" style="stroke:#181818;stroke-width:0.5;"/><text fill="#000000" font-family="sans-serif" font-size="14" lengthAdjust="spacing" textLength="214.2246" x="370.0539" y="374.3912">UC14 - Remover financiamento</text><text fill="#000000" font-family="sans-serif" font-size="14" lengthAdjust="spacing" textLength="101.3223" x="426.505" y="390.8795">simulado salvo</text></g><!--entity UC_VAL_AUTH--><g class="entity" data-qualified-name="Sistema FINTA.UC_VAL_AUTH" data-source-line="106" id="ent0014"><ellipse cx="477.1655" cy="662.4914" fill="#F1F1F1" rx="83.1655" ry="19.0331" style="stroke:#181818;stroke-width:0.5;"/><text fill="#000000" font-family="sans-serif" font-size="14" lengthAdjust="spacing" textLength="137.5117" x="408.4097" y="667.2355">Validar autenticacao</text></g><!--entity U--><g class="entity" data-qualified-name="U" data-source-line="92" id="ent0002"><ellipse cx="111.7059" cy="297.7383" fill="#F1F1F1" rx="8" ry="8" style="stroke:#181818;stroke-width:0.5;"/><path d="M111.7059,305.7383 L111.7059,332.7383 M98.7059,313.7383 L124.7059,313.7383 M111.7059,332.7383 L98.7059,347.7383 M111.7059,332.7383 L124.7059,347.7383" fill="none" style="stroke:#181818;stroke-width:0.5;"/><text fill="#000000" font-family="sans-serif" font-size="14" lengthAdjust="spacing" textLength="51.6318" x="85.89" y="362.7734">Usuario</text></g><!--entity AUTH--><g class="entity" data-qualified-name="AUTH" data-source-line="93" id="ent0003"><ellipse cx="111.7112" cy="687.7383" fill="#F1F1F1" rx="8" ry="8" style="stroke:#181818;stroke-width:0.5;"/><path d="M111.7112,695.7383 L111.7112,722.7383 M98.7112,703.7383 L124.7112,703.7383 M111.7112,722.7383 L98.7112,737.7383 M111.7112,722.7383 L124.7112,737.7383" fill="none" style="stroke:#181818;stroke-width:0.5;"/><text fill="#000000" font-family="sans-serif" font-size="14" lengthAdjust="spacing" textLength="161.3623" x="31.03" y="752.7734">Servico de Autenticacao</text></g><!--entity SELIC--><g class="entity" data-qualified-name="SELIC" data-source-line="94" id="ent0004"><ellipse cx="111.7124" cy="168.7383" fill="#F1F1F1" rx="8" ry="8" style="stroke:#181818;stroke-width:0.5;"/><path d="M111.7124,176.7383 L111.7124,203.7383 M98.7124,184.7383 L124.7124,184.7383 M111.7124,203.7383 L98.7124,218.7383 M111.7124,203.7383 L124.7124,218.7383" fill="none" style="stroke:#181818;stroke-width:0.5;"/><text fill="#000000" font-family="sans-serif" font-size="14" lengthAdjust="spacing" textLength="56.4648" x="83.48" y="233.7734">API Selic</text></g><!--entity TAXAS--><g class="entity" data-qualified-name="TAXAS" data-source-line="95" id="ent0005"><ellipse cx="111.7075" cy="51.7383" fill="#F1F1F1" rx="8" ry="8" style="stroke:#181818;stroke-width:0.5;"/><path d="M111.7075,59.7383 L111.7075,86.7383 M98.7075,67.7383 L124.7075,67.7383 M111.7075,86.7383 L98.7075,101.7383 M111.7075,86.7383 L124.7075,101.7383" fill="none" style="stroke:#181818;stroke-width:0.5;"/><text fill="#000000" font-family="sans-serif" font-size="14" lengthAdjust="spacing" textLength="211.415" x="6" y="116.7734">API de Taxas de Financiamento</text></g><!--entity DB_SIM--><g class="entity" data-qualified-name="DB_SIM" data-source-line="96" id="ent0006"><ellipse cx="111.7125" cy="576.7383" fill="#F1F1F1" rx="8" ry="8" style="stroke:#181818;stroke-width:0.5;"/><path d="M111.7125,584.7383 L111.7125,611.7383 M98.7125,592.7383 L124.7125,592.7383 M111.7125,611.7383 L98.7125,626.7383 M111.7125,611.7383 L124.7125,626.7383" fill="none" style="stroke:#181818;stroke-width:0.5;"/><text fill="#000000" font-family="sans-serif" font-size="14" lengthAdjust="spacing" textLength="141.5449" x="40.94" y="641.7734">Banco de Simulacoes</text></g><!--link U to UC9--><g class="link" data-entity-1="ent0002" data-entity-2="ent0008" data-link-type="association" data-source-line="109" id="lnk15"><path d="M137.92,322.1183 C164.91,316.5383 209.02,307.8783 247.42,302.4883 C280.01,297.8983 315.35,293.9883 348.29,290.7883" fill="none" id="U-UC9" style="stroke:#181818;stroke-width:1;"/></g><!--link U to UC10--><g class="link" data-entity-1="ent0002" data-entity-2="ent0009" data-link-type="association" data-source-line="110" id="lnk16"><path d="M137.85,314.1883 C175.75,294.5483 250.13,257.4983 316.42,233.4883 C342.2,224.1383 370.99,215.7783 396.94,208.9783" fill="none" id="U-UC10" style="stroke:#181818;stroke-width:1;"/></g><!--link U to UC11--><g class="link" data-entity-1="ent0002" data-entity-2="ent0010" data-link-type="association" data-source-line="111" id="lnk17"><path d="M137.93,312.0783 C159.86,298.1983 192.01,276.6083 217.42,254.4883 C266.27,211.9383 260.96,180.9883 316.42,147.4883 C337.19,134.9283 361.65,125.9783 385.11,119.6183" fill="none" id="U-UC11" style="stroke:#181818;stroke-width:1;"/></g><!--link U to UC12--><g class="link" data-entity-1="ent0002" data-entity-2="ent0011" data-link-type="association" data-source-line="112" id="lnk18"><path d="M130.11,365.9483 C151.51,408.7383 191.93,476.6683 247.42,513.4883 C283,537.0983 327.76,550.2583 368.24,557.5683" fill="none" id="U-UC12" style="stroke:#181818;stroke-width:1;"/></g><!--link U to UC13--><g class="link" data-entity-1="ent0002" data-entity-2="ent0012" data-link-type="association" data-source-line="113" id="lnk19"><path d="M137.93,333.3983 C177.31,343.5383 254.47,367.1483 308.42,407.4883 C312.97,410.8883 311.82,414.1283 316.42,417.4883 C340.04,434.7183 369.13,447.7283 395.99,457.1983" fill="none" id="U-UC13" style="stroke:#181818;stroke-width:1;"/></g><!--link U to UC14--><g class="link" data-entity-1="ent0002" data-entity-2="ent0013" data-link-type="association" data-source-line="114" id="lnk20"><path d="M137.98,330.6083 C184.99,336.4283 288.38,349.2283 368.55,359.1583" fill="none" id="U-UC14" style="stroke:#181818;stroke-width:1;"/></g><!--link UC9 to UC_VAL_AUTH--><g class="link" data-entity-1="ent0008" data-entity-2="ent0014" data-link-type="dependency" data-source-line="116" id="lnk21"><path d="M362.9,297.1283 C345.46,304.0883 329.08,313.8483 316.42,327.4883 C243.72,405.7583 268.52,443.8583 280.62,511.9883 C288.7,557.4283 283.23,577.3883 316.42,609.4883 C340.18,632.4683 368.2671,644.0821 398.8371,651.4521" fill="none" id="UC9-to-UC_VAL_AUTH" style="stroke:#181818;stroke-width:1;stroke-dasharray:7,7;"/><polygon fill="#181818" points="404.67,652.8583,396.8582,646.8604,399.8093,651.6864,394.9832,654.6375,404.67,652.8583" style="stroke:#181818;stroke-width:1;"/><text fill="#000000" font-family="sans-serif" font-size="13" lengthAdjust="spacing" textLength="59.3569" x="248.42" y="508.5566">&#171;include&#187;</text></g><!--link UC10 to UC_VAL_AUTH--><g class="link" data-entity-1="ent0009" data-entity-2="ent0014" data-link-type="dependency" data-source-line="117" id="lnk22"><path d="M370.95,200.4683 C350.36,207.0783 330.75,217.4283 316.42,233.4883 C244.73,313.7683 288.6,365.6583 280.62,472.9883 C275.98,535.5283 272.68,564.5283 316.42,609.4883 C339.37,633.0783 367.1727,644.7805 397.7527,652.0505" fill="none" id="UC10-to-UC_VAL_AUTH" style="stroke:#181818;stroke-width:1;stroke-dasharray:7,7;"/><polygon fill="#181818" points="403.59,653.4383,395.7592,647.4651,398.7256,652.2818,393.9089,655.2482,403.59,653.4383" style="stroke:#181818;stroke-width:1;"/><text fill="#000000" font-family="sans-serif" font-size="13" lengthAdjust="spacing" textLength="59.3569" x="248.42" y="486.5566">&#171;include&#187;</text></g><!--link UC11 to UC_VAL_AUTH--><g class="link" data-entity-1="ent0010" data-entity-2="ent0014" data-link-type="dependency" data-source-line="118" id="lnk23"><path d="M371.63,114.0683 C350.74,120.6783 330.84,131.1283 316.42,147.4883 C202.13,277.0683 270.12,317.2983 280.62,425.9883 C288.62,508.6883 261.47,547.1483 316.42,609.4883 C337.98,633.9583 365.2265,645.8068 395.7865,652.9268" fill="none" id="UC11-to-UC_VAL_AUTH" style="stroke:#181818;stroke-width:1;stroke-dasharray:7,7;"/><polygon fill="#181818" points="401.63,654.2883,393.7724,648.3505,396.7604,653.1537,391.9571,656.1418,401.63,654.2883" style="stroke:#181818;stroke-width:1;"/><text fill="#000000" font-family="sans-serif" font-size="13" lengthAdjust="spacing" textLength="59.3569" x="248.42" y="422.5566">&#171;include&#187;</text></g><!--link UC12 to UC_VAL_AUTH--><g class="link" data-entity-1="ent0011" data-entity-2="ent0014" data-link-type="dependency" data-source-line="119" id="lnk24"><path d="M477.17,592.4383 C477.17,608.3883 477.17,622.4883 477.17,637.0583" fill="none" id="UC12-to-UC_VAL_AUTH" style="stroke:#181818;stroke-width:1;stroke-dasharray:7,7;"/><polygon fill="#181818" points="477.17,643.0583,481.17,634.0583,477.17,638.0583,473.17,634.0583,477.17,643.0583" style="stroke:#181818;stroke-width:1;"/><text fill="#000000" font-family="sans-serif" font-size="13" lengthAdjust="spacing" textLength="59.3569" x="436.17" y="622.8066">&#171;include&#187;</text></g><!--link UC13 to UC_VAL_AUTH--><g class="link" data-entity-1="ent0012" data-entity-2="ent0014" data-link-type="dependency" data-source-line="120" id="lnk25"><path d="M367.71,492.3183 C330.91,503.4683 295.44,523.4183 280.62,558.9883 C257.12,615.4083 332.1563,640.5677 397.2263,652.3677" fill="none" id="UC13-to-UC_VAL_AUTH" style="stroke:#181818;stroke-width:1;stroke-dasharray:7,7;"/><polygon fill="#181818" points="403.13,653.4383,394.9882,647.8966,398.2102,652.5461,393.5607,655.7682,403.13,653.4383" style="stroke:#181818;stroke-width:1;"/><text fill="#000000" font-family="sans-serif" font-size="13" lengthAdjust="spacing" textLength="59.3569" x="248.42" y="572.5566">&#171;include&#187;</text></g><!--link UC14 to UC_VAL_AUTH--><g class="link" data-entity-1="ent0013" data-entity-2="ent0014" data-link-type="dependency" data-source-line="121" id="lnk26"><path d="M384.48,390.7583 C359.34,399.8183 334.19,413.3383 316.42,433.4883 C210.54,553.4583 265.99,577.7883 280.62,597.9883 C306.96,634.3383 348.5249,649.5623 390.2149,656.6523" fill="none" id="UC14-to-UC_VAL_AUTH" style="stroke:#181818;stroke-width:1;stroke-dasharray:7,7;"/><polygon fill="#181818" points="396.13,657.6583,387.928,652.206,391.2008,656.82,386.5868,660.0927,396.13,657.6583" style="stroke:#181818;stroke-width:1;"/><text fill="#000000" font-family="sans-serif" font-size="13" lengthAdjust="spacing" textLength="59.3569" x="248.42" y="594.5566">&#171;include&#187;</text></g><!--link UC12 to UC11--><g class="link" data-entity-1="ent0011" data-entity-2="ent0010" data-link-type="dependency" data-source-line="123" id="lnk27"><path d="M370.86,556.0783 C350.39,549.4783 330.87,539.2383 316.42,523.4883 C249.61,450.6383 269.54,402.2083 280.62,303.9883 C288.63,233.0783 266.89,198.8483 316.42,147.4883 C331.65,131.6783 346.2797,123.2471 367.3797,116.6971" fill="none" id="UC12-to-UC11" style="stroke:#181818;stroke-width:1;stroke-dasharray:7,7;"/><polygon fill="#181818" points="373.11,114.9183,363.3287,113.7663,368.3348,116.4006,365.7005,121.4067,373.11,114.9183" style="stroke:#181818;stroke-width:1;"/><text fill="#000000" font-family="sans-serif" font-size="13" lengthAdjust="spacing" textLength="59.3569" x="248.42" y="317.5566">&#171;include&#187;</text></g><!--link UC14 to UC13--><g class="link" data-entity-1="ent0013" data-entity-2="ent0012" data-link-type="dependency" data-source-line="124" id="lnk28"><path d="M477.17,399.7783 C477.17,415.3983 477.17,428.9283 477.17,444.6383" fill="none" id="UC14-to-UC13" style="stroke:#181818;stroke-width:1;stroke-dasharray:7,7;"/><polygon fill="#181818" points="477.17,450.6383,481.17,441.6383,477.17,445.6383,473.17,441.6383,477.17,450.6383" style="stroke:#181818;stroke-width:1;"/><text fill="#000000" font-family="sans-serif" font-size="13" lengthAdjust="spacing" textLength="59.3569" x="436.17" y="430.3366">&#171;include&#187;</text></g><!--link AUTH to UC_VAL_AUTH--><g class="link" data-entity-1="ent0003" data-entity-2="ent0014" data-link-type="association" data-source-line="126" id="lnk29"><path d="M192.47,705.4183 C256.52,695.7183 345.55,682.2483 406.7,672.9983" fill="none" id="AUTH-UC_VAL_AUTH" style="stroke:#181818;stroke-width:1;"/></g><!--link SELIC to UC9--><g class="link" data-entity-1="ent0004" data-entity-2="ent0008" data-link-type="association" data-source-line="127" id="lnk30"><path d="M140.32,204.7183 C190.94,216.1283 300.72,240.8983 381.04,259.0183" fill="none" id="SELIC-UC9" style="stroke:#181818;stroke-width:1;"/></g><!--link TAXAS to UC10--><g class="link" data-entity-1="ent0005" data-entity-2="ent0009" data-link-type="association" data-source-line="128" id="lnk31"><path d="M217.86,116.6683 C249.44,126.9383 284.25,137.9483 316.42,147.4883 C343.95,155.6483 374.36,163.9883 401.18,171.1383" fill="none" id="TAXAS-UC10" style="stroke:#181818;stroke-width:1;"/></g><!--link TAXAS to UC11--><g class="link" data-entity-1="ent0005" data-entity-2="ent0010" data-link-type="association" data-source-line="129" id="lnk32"><path d="M217.84,88.1383 C264.7,91.0983 319.87,94.5983 367.17,97.5883" fill="none" id="TAXAS-UC11" style="stroke:#181818;stroke-width:1;"/></g><!--link DB_SIM to UC12--><g class="link" data-entity-1="ent0006" data-entity-2="ent0011" data-link-type="association" data-source-line="130" id="lnk33"><path d="M182.64,640.6783 C222.02,654.7583 270.71,663.1083 308.42,640.4883 C314.89,636.5983 310.72,630.4483 316.42,625.4883 C338.25,606.4383 366.78,593.3283 393.68,584.3983" fill="none" id="DB_SIM-UC12" style="stroke:#181818;stroke-width:1;"/></g><!--link DB_SIM to UC13--><g class="link" data-entity-1="ent0006" data-entity-2="ent0012" data-link-type="association" data-source-line="131" id="lnk34"><path d="M182.88,624.6983 C224.6,631.0083 275.6,630.0983 308.42,599.4883 C320.83,587.8983 305.47,536.4683 316.42,523.4883 C329.14,508.3983 346.49,498.1583 365.09,491.2583" fill="none" id="DB_SIM-UC13" style="stroke:#181818;stroke-width:1;"/></g><!--link DB_SIM to UC14--><g class="link" data-entity-1="ent0006" data-entity-2="ent0013" data-link-type="association" data-source-line="132" id="lnk35"><path d="M145.62,568.0283 C171.45,539.2783 209.31,500.1483 247.42,471.4883 C294.01,436.4283 354.94,410.8483 402.19,394.4783" fill="none" id="DB_SIM-UC14" style="stroke:#181818;stroke-width:1;"/></g><?plantuml-src ZLDBRzim3BxhLn2vPvZZN3eK0LntnGAqnJ37GGy50a9MKgAoL5XoziB--sYvTcslRNQZnEz1VhQqsdlm5YewF7Weg5BIapN2FP9vmWfBS0zOsEza3h17xTIWyuJo4Gygyp-rWeQ8vg2L49uyNwJeh8D2GUuip25JcYGek2A3HXAModWh14flAvZbhiQAx0pGGTvTPgewahIDHb9xnfD4YIqeoJTVEbpoTTtAXqxs-NgT3bjCt-0F3BECt0DyazmbMGU_u6RmowYiDKghN01TNkoozOqG_P8y73clIeIhzUqccS5l0L0x9T5nBq_FUECjyLAQVc45dlsV4q3VNXROBfkUZPdHHwQcjcmYRedDuFTc_y_a3NR2ZPgWm-WLl4g89eH5Gq1zdEBlZGioHSzSJ9ZnUCCtsE1OlDU89nfBrlYcIdjK_ocm54E5BNiNx8tJdoDFTzlaUXV-aJz2v32VXw2V2uwjgwA-MlHLt5TirtpA3wkX8do2ytCoKjU5Mgr4-6Ad4D59nE8a8Zw9MBwF6DZmG6-nsMT22r8Xa9TKmoFhOWrFg8zsU8f4-tBwZ4V7U7nS_WK0?></g></svg>