<?plantuml 1.2026.1?><svg xmlns="http://www.w3.org/2000/svg" xmlns:xlink="http://www.w3.org/1999/xlink" contentStyleType="text/css" data-diagram-type="DESCRIPTION" height="2137px" preserveAspectRatio="none" style="width:689px;height:2137px;background:#FFFFFF;" version="1.1" viewBox="0 0 689 2137" width="689px" zoomAndPan="magnify"><title>Casos de Uso - Sistema FINTA (Consolidado)</title><defs/><g><g class="title" data-source-line="5"><text fill="#000000" font-family="sans-serif" font-size="14" font-weight="bold" lengthAdjust="spacing" textLength="323.9824" x="175.6388" y="23.5352">Casos de Uso - Sistema FINTA (Consolidado)</text></g><!--cluster Sistema FINTA--><g class="cluster" data-qualified-name="Sistema FINTA" data-source-line="16" id="ent0010"><rect fill="none" height="1932" rx="2.5" ry="2.5" style="stroke:#181818;stroke-width:1;" width="358.84" x="324.42" y="44.4883"/><text fill="#000000" font-family="sans-serif" font-size="14" font-weight="bold" lengthAdjust="spacing" textLength="104.1729" x="451.7536" y="60.0234">Sistema FINTA</text></g><!--cluster Acesso e Mercado--><g class="cluster" data-qualified-name="Sistema FINTA.Acesso e Mercado" data-source-line="17" id="ent0011"><rect fill="none" height="350" rx="2.5" ry="2.5" style="stroke:#181818;stroke-width:1;" width="310.84" x="348.42" y="479.4883"/><text fill="#000000" font-family="sans-serif" font-size="14" font-weight="bold" lengthAdjust="spacing" textLength="129.3428" x="439.1686" y="495.0234">Acesso e Mercado</text></g><!--cluster Favoritos e Cotacoes--><g class="cluster" data-qualified-name="Sistema FINTA.Favoritos e Cotacoes" data-source-line="24" id="ent0016"><rect fill="none" height="388" rx="2.5" ry="2.5" style="stroke:#181818;stroke-width:1;" width="289.76" x="358.96" y="853.4883"/><text fill="#000000" font-family="sans-serif" font-size="14" font-weight="bold" lengthAdjust="spacing" textLength="149.7275" x="428.9762" y="869.0234">Favoritos e Cotacoes</text></g><!--cluster Selic e Financiamento--><g class="cluster" data-qualified-name="Sistema FINTA.Selic e Financiamento" data-source-line="31" id="ent0021"><rect fill="none" height="593" rx="2.5" ry="2.5" style="stroke:#181818;stroke-width:1;" width="305.52" x="351.08" y="1359.4883"/><text fill="#000000" font-family="sans-serif" font-size="14" font-weight="bold" lengthAdjust="spacing" textLength="155.2236" x="426.2282" y="1375.0234">Selic e Financiamento</text></g><!--entity UC_VAL_DADOS--><g class="entity" data-qualified-name="Sistema FINTA.UC_VAL_DADOS" data-source-line="40" id="ent0028"><ellipse cx="503.8436" cy="174.489" fill="#F1F1F1" rx="97.4536" ry="21.8907" style="stroke:#181818;stroke-width:0.5;"/><text fill="#000000" font-family="sans-serif" font-size="14" lengthAdjust="spacing" textLength="169.9688" x="418.8593" y="179.2332">Validar dados de entrada</text></g><!--entity UC_VAL_AUTH--><g class="entity" data-qualified-name="Sistema FINTA.UC_VAL_AUTH" data-source-line="41" id="ent0029"><ellipse cx="503.8355" cy="98.4914" fill="#F1F1F1" rx="83.1655" ry="19.0331" style="stroke:#181818;stroke-width:0.5;"/><text fill="#000000" font-family="sans-serif" font-size="14" lengthAdjust="spacing" textLength="137.5117" x="435.0797" y="103.2355">Validar autenticacao</text></g><!--entity UC1--><g class="entity" data-qualified-name="Sistema FINTA.Acesso e Mercado.UC1" data-source-line="18" id="ent0012"><ellipse cx="503.8434" cy="617.493" fill="#F1F1F1" rx="139.4234" ry="30.2847" style="stroke:#181818;stroke-width:0.5;"/><text fill="#000000" font-family="sans-serif" font-size="14" lengthAdjust="spacing" textLength="260.0938" x="373.7965" y="622.2371">UC1 - Visualizar dashboard financeiro</text></g><!--entity UC2--><g class="entity" data-qualified-name="Sistema FINTA.Acesso e Mercado.UC2" data-source-line="19" id="ent0013"><ellipse cx="503.8376" cy="709.4878" fill="#F1F1F1" rx="120.3476" ry="26.4695" style="stroke:#181818;stroke-width:0.5;"/><text fill="#000000" font-family="sans-serif" font-size="14" lengthAdjust="spacing" textLength="194.2568" x="406.7091" y="709.3056">UC2 - Visualizar detalhes de</text><text fill="#000000" font-family="sans-serif" font-size="14" lengthAdjust="spacing" textLength="125.9111" x="440.882" y="725.7939">indicadores/ativos</text></g><!--entity UC3--><g class="entity" data-qualified-name="Sistema FINTA.Acesso e Mercado.UC3" data-source-line="20" id="ent0014"><ellipse cx="503.8387" cy="792.492" fill="#F1F1F1" rx="93.7687" ry="21.1537" style="stroke:#181818;stroke-width:0.5;"/><text fill="#000000" font-family="sans-serif" font-size="14" lengthAdjust="spacing" textLength="161.7383" x="422.9696" y="797.2362">UC3 - Realizar cadastro</text></g><!--entity UC4--><g class="entity" data-qualified-name="Sistema FINTA.Acesso e Mercado.UC4" data-source-line="21" id="ent0015"><ellipse cx="503.8376" cy="533.4878" fill="#F1F1F1" rx="83.2476" ry="19.0495" style="stroke:#181818;stroke-width:0.5;"/><text fill="#000000" font-family="sans-serif" font-size="14" lengthAdjust="spacing" textLength="137.7031" x="434.9861" y="538.232">UC4 - Realizar login</text></g><!--entity UC5--><g class="entity" data-qualified-name="Sistema FINTA.Favoritos e Cotacoes.UC5" data-source-line="25" id="ent0017"><ellipse cx="503.8437" cy="1124.485" fill="#F1F1F1" rx="99.0837" ry="22.2167" style="stroke:#181818;stroke-width:0.5;"/><text fill="#000000" font-family="sans-serif" font-size="14" lengthAdjust="spacing" textLength="173.585" x="417.0512" y="1129.2292">UC5 - Adicionar favoritos</text></g><!--entity UC6--><g class="entity" data-qualified-name="Sistema FINTA.Favoritos e Cotacoes.UC6" data-source-line="26" id="ent0018"><ellipse cx="503.8429" cy="1047.4909" fill="#F1F1F1" rx="87.8129" ry="19.9626" style="stroke:#181818;stroke-width:0.5;"/><text fill="#000000" font-family="sans-serif" font-size="14" lengthAdjust="spacing" textLength="148.2441" x="429.7208" y="1052.235">UC6 - Editar favoritos</text></g><!--entity UC7--><g class="entity" data-qualified-name="Sistema FINTA.Favoritos e Cotacoes.UC7" data-source-line="27" id="ent0019"><ellipse cx="503.8379" cy="1203.4899" fill="#F1F1F1" rx="96.6579" ry="21.7316" style="stroke:#181818;stroke-width:0.5;"/><text fill="#000000" font-family="sans-serif" font-size="14" lengthAdjust="spacing" textLength="168.1982" x="419.7388" y="1208.234">UC7 - Remover favoritos</text></g><!--entity UC8--><g class="entity" data-qualified-name="Sistema FINTA.Favoritos e Cotacoes.UC8" data-source-line="28" id="ent0020"><ellipse cx="503.8414" cy="916.4846" fill="#F1F1F1" rx="128.8814" ry="28.1763" style="stroke:#181818;stroke-width:0.5;"/><text fill="#000000" font-family="sans-serif" font-size="14" lengthAdjust="spacing" textLength="199.917" x="403.8829" y="914.17">UC8 - Consultar cotacoes em</text><text fill="#000000" font-family="sans-serif" font-size="14" lengthAdjust="spacing" textLength="179.2998" x="414.1915" y="930.6583">tempo real (acoes/criptos)</text></g><!--entity UC9--><g class="entity" data-qualified-name="Sistema FINTA.Selic e Financiamento.UC9" data-source-line="32" id="ent0022"><ellipse cx="503.8376" cy="1821.4898" fill="#F1F1F1" rx="136.7576" ry="29.7515" style="stroke:#181818;stroke-width:0.5;"/><text fill="#000000" font-family="sans-serif" font-size="14" lengthAdjust="spacing" textLength="254.4951" x="376.59" y="1826.2339">UC9 - Visualizar taxa Selic atualizada</text></g><!--entity UC10--><g class="entity" data-qualified-name="Sistema FINTA.Selic e Financiamento.UC10" data-source-line="33" id="ent0023"><ellipse cx="503.8363" cy="1911.4875" fill="#F1F1F1" rx="114.7463" ry="25.3493" style="stroke:#181818;stroke-width:0.5;"/><text fill="#000000" font-family="sans-serif" font-size="14" lengthAdjust="spacing" textLength="183.0322" x="412.3202" y="1911.6508">UC10 - Comparar taxas de</text><text fill="#000000" font-family="sans-serif" font-size="14" lengthAdjust="spacing" textLength="96.6465" x="455.5131" y="1928.1391">financiamento</text></g><!--entity UC11--><g class="entity" data-qualified-name="Sistema FINTA.Selic e Financiamento.UC11" data-source-line="34" id="ent0024"><ellipse cx="503.843" cy="1731.4849" fill="#F1F1F1" rx="113.933" ry="25.1866" style="stroke:#181818;stroke-width:0.5;"/><text fill="#000000" font-family="sans-serif" font-size="14" lengthAdjust="spacing" textLength="205.9805" x="400.8528" y="1736.229">UC11 - Simular financiamento</text></g><!--entity UC12--><g class="entity" data-qualified-name="Sistema FINTA.Selic e Financiamento.UC12" data-source-line="35" id="ent0025"><ellipse cx="503.8414" cy="1510.4886" fill="#F1F1F1" rx="115.7514" ry="25.5503" style="stroke:#181818;stroke-width:0.5;"/><text fill="#000000" font-family="sans-serif" font-size="14" lengthAdjust="spacing" textLength="195.1523" x="406.2652" y="1512.1777">UC12 - Salvar financiamento</text><text fill="#000000" font-family="sans-serif" font-size="14" lengthAdjust="spacing" textLength="62.1318" x="472.7754" y="1528.666">simulado</text></g><!--entity UC13--><g class="entity" data-qualified-name="Sistema FINTA.Selic e Financiamento.UC13" data-source-line="36" id="ent0026"><ellipse cx="503.8402" cy="1422.4843" fill="#F1F1F1" rx="125.7802" ry="27.556" style="stroke:#181818;stroke-width:0.5;"/><text fill="#000000" font-family="sans-serif" font-size="14" lengthAdjust="spacing" textLength="221.4639" x="393.1083" y="1424.8643">UC13 - Visualizar financiamento</text><text fill="#000000" font-family="sans-serif" font-size="14" lengthAdjust="spacing" textLength="101.3223" x="453.1791" y="1441.3525">simulado salvo</text></g><!--entity UC14--><g class="entity" data-qualified-name="Sistema FINTA.Selic e Financiamento.UC14" data-source-line="37" id="ent0027"><ellipse cx="503.8362" cy="1644.4895" fill="#F1F1F1" rx="123.6062" ry="27.1212" style="stroke:#181818;stroke-width:0.5;"/><text fill="#000000" font-family="sans-serif" font-size="14" lengthAdjust="spacing" textLength="214.2246" x="396.7239" y="1646.3912">UC14 - Remover financiamento</text><text fill="#000000" font-family="sans-serif" font-size="14" lengthAdjust="spacing" textLength="101.3223" x="453.175" y="1662.8795">simulado salvo</text></g><!--entity U--><g class="entity" data-qualified-name="U" data-source-line="7" id="ent0002"><ellipse cx="111.7059" cy="1462.7383" fill="#F1F1F1" rx="8" ry="8" style="stroke:#181818;stroke-width:0.5;"/><path d="M111.7059,1470.7383 L111.7059,1497.7383 M98.7059,1478.7383 L124.7059,1478.7383 M111.7059,1497.7383 L98.7059,1512.7383 M111.7059,1497.7383 L124.7059,1512.7383" fill="none" style="stroke:#181818;stroke-width:0.5;"/><text fill="#000000" font-family="sans-serif" font-size="14" lengthAdjust="spacing" textLength="51.6318" x="85.89" y="1527.7734">Usuario</text></g><!--entity AUTH--><g class="entity" data-qualified-name="AUTH" data-source-line="8" id="ent0003"><ellipse cx="111.7112" cy="120.7383" fill="#F1F1F1" rx="8" ry="8" style="stroke:#181818;stroke-width:0.5;"/><path d="M111.7112,128.7383 L111.7112,155.7383 M98.7112,136.7383 L124.7112,136.7383 M111.7112,155.7383 L98.7112,170.7383 M111.7112,155.7383 L124.7112,170.7383" fill="none" style="stroke:#181818;stroke-width:0.5;"/><text fill="#000000" font-family="sans-serif" font-size="14" lengthAdjust="spacing" textLength="161.3623" x="31.03" y="185.7734">Servico de Autenticacao</text></g><!--entity FIN--><g class="entity" data-qualified-name="FIN" data-source-line="9" id="ent0004"><ellipse cx="111.7095" cy="288.7383" fill="#F1F1F1" rx="8" ry="8" style="stroke:#181818;stroke-width:0.5;"/><path d="M111.7095,296.7383 L111.7095,323.7383 M98.7095,304.7383 L124.7095,304.7383 M111.7095,323.7383 L98.7095,338.7383 M111.7095,323.7383 L124.7095,338.7383" fill="none" style="stroke:#181818;stroke-width:0.5;"/><text fill="#000000" font-family="sans-serif" font-size="14" lengthAdjust="spacing" textLength="94.999" x="64.21" y="353.7734">API Financeira</text></g><!--entity CRYPTO--><g class="entity" data-qualified-name="CRYPTO" data-source-line="10" id="ent0005"><ellipse cx="111.7049" cy="411.7383" fill="#F1F1F1" rx="8" ry="8" style="stroke:#181818;stroke-width:0.5;"/><path d="M111.7049,419.7383 L111.7049,446.7383 M98.7049,427.7383 L124.7049,427.7383 M111.7049,446.7383 L98.7049,461.7383 M111.7049,446.7383 L124.7049,461.7383" fill="none" style="stroke:#181818;stroke-width:0.5;"/><text fill="#000000" font-family="sans-serif" font-size="14" lengthAdjust="spacing" textLength="67.9697" x="77.72" y="476.7734">API Cripto</text></g><!--entity DB_FAV--><g class="entity" data-qualified-name="DB_FAV" data-source-line="11" id="ent0006"><ellipse cx="111.7125" cy="891.7383" fill="#F1F1F1" rx="8" ry="8" style="stroke:#181818;stroke-width:0.5;"/><path d="M111.7125,899.7383 L111.7125,926.7383 M98.7125,907.7383 L124.7125,907.7383 M111.7125,926.7383 L98.7125,941.7383 M111.7125,926.7383 L124.7125,941.7383" fill="none" style="stroke:#181818;stroke-width:0.5;"/><text fill="#000000" font-family="sans-serif" font-size="14" lengthAdjust="spacing" textLength="127.5449" x="47.94" y="956.7734">Banco de Favoritos</text></g><!--entity SELIC--><g class="entity" data-qualified-name="SELIC" data-source-line="12" id="ent0007"><ellipse cx="111.7124" cy="2063.7383" fill="#F1F1F1" rx="8" ry="8" style="stroke:#181818;stroke-width:0.5;"/><path d="M111.7124,2071.7383 L111.7124,2098.7383 M98.7124,2079.7383 L124.7124,2079.7383 M111.7124,2098.7383 L98.7124,2113.7383 M111.7124,2098.7383 L124.7124,2113.7383" fill="none" style="stroke:#181818;stroke-width:0.5;"/><text fill="#000000" font-family="sans-serif" font-size="14" lengthAdjust="spacing" textLength="56.4648" x="83.48" y="2128.7734">API Selic</text></g><!--entity TAXAS--><g class="entity" data-qualified-name="TAXAS" data-source-line="13" id="ent0008"><ellipse cx="111.7075" cy="1952.7383" fill="#F1F1F1" rx="8" ry="8" style="stroke:#181818;stroke-width:0.5;"/><path d="M111.7075,1960.7383 L111.7075,1987.7383 M98.7075,1968.7383 L124.7075,1968.7383 M111.7075,1987.7383 L98.7075,2002.7383 M111.7075,1987.7383 L124.7075,2002.7383" fill="none" style="stroke:#181818;stroke-width:0.5;"/><text fill="#000000" font-family="sans-serif" font-size="14" lengthAdjust="spacing" textLength="211.415" x="6" y="2017.7734">API de Taxas de Financiamento</text></g><!--entity DB_SIM--><g class="entity" data-qualified-name="DB_SIM" data-source-line="14" id="ent0009"><ellipse cx="111.7125" cy="1841.7383" fill="#F1F1F1" rx="8" ry="8" style="stroke:#181818;stroke-width:0.5;"/><path d="M111.7125,1849.7383 L111.7125,1876.7383 M98.7125,1857.7383 L124.7125,1857.7383 M111.7125,1876.7383 L98.7125,1891.7383 M111.7125,1876.7383 L124.7125,1891.7383" fill="none" style="stroke:#181818;stroke-width:0.5;"/><text fill="#000000" font-family="sans-serif" font-size="14" lengthAdjust="spacing" textLength="141.5449" x="40.94" y="1906.7734">Banco de Simulacoes</text></g><!--link U to UC1--><g class="link" data-entity-1="ent0002" data-entity-2="ent0012" data-link-type="association" data-source-line="44" id="lnk30"><path d="M132.65,1453.8083 C156.22,1410.4283 198.49,1339.4683 247.42,1288.4883 C270.56,1264.3683 292.98,1274.1383 308.42,1244.4883 C323.27,1215.9483 296.53,690.7683 316.42,665.4883 C330.67,647.3583 350.78,635.5083 372.56,627.8883" fill="none" id="U-UC1" style="stroke:#181818;stroke-width:1;"/></g><!--link U to UC2--><g class="link" data-entity-1="ent0002" data-entity-2="ent0013" data-link-type="association" data-source-line="45" id="lnk31"><path d="M137.96,1456.8683 C163.42,1422.2583 204.94,1369.2583 247.42,1329.4883 C271.82,1306.6383 292.96,1315.1283 308.42,1285.4883 C322.08,1259.2683 297.9,776.5283 316.42,753.4883 C333.39,732.3583 358.46,720.2283 384.74,713.4983" fill="none" id="U-UC2" style="stroke:#181818;stroke-width:1;"/></g><!--link U to UC3--><g class="link" data-entity-1="ent0002" data-entity-2="ent0014" data-link-type="association" data-source-line="46" id="lnk32"><path d="M137.79,1468.2283 C164.29,1442.9583 207.68,1402.6383 247.42,1370.4883 C273.4,1349.4583 292.93,1356.1083 308.42,1326.4883 C320.1,1304.1283 302.35,893.4283 316.42,872.4883 C341.26,835.4983 387.07,815.5383 427.06,804.7983" fill="none" id="U-UC3" style="stroke:#181818;stroke-width:1;"/></g><!--link U to UC4--><g class="link" data-entity-1="ent0002" data-entity-2="ent0015" data-link-type="association" data-source-line="47" id="lnk33"><path d="M127.55,1453.9683 C148.61,1402.7583 190.97,1311.2883 247.42,1247.4883 C269.57,1222.4483 293,1233.1483 308.42,1203.4883 C316.54,1187.8583 305.12,582.9983 316.42,569.4883 C342.21,538.6283 385.76,529.0083 424.28,527.3883" fill="none" id="U-UC4" style="stroke:#181818;stroke-width:1;"/></g><!--link U to UC5--><g class="link" data-entity-1="ent0002" data-entity-2="ent0017" data-link-type="association" data-source-line="48" id="lnk34"><path d="M137.97,1495.6583 C180.72,1499.4383 266.72,1499.8683 308.42,1449.4883 C328.61,1425.0783 296.16,1188.8383 316.42,1164.4883 C338,1138.5283 371.98,1126.8983 405.06,1122.3083" fill="none" id="U-UC5" style="stroke:#181818;stroke-width:1;"/></g><!--link U to UC6--><g class="link" data-entity-1="ent0002" data-entity-2="ent0018" data-link-type="association" data-source-line="49" id="lnk35"><path d="M137.68,1485.4283 C185.76,1471.2783 288.26,1438.2583 308.42,1408.4883 C318.51,1393.5683 304.82,1098.2583 316.42,1084.4883 C341.07,1055.2083 381.65,1044.8583 418.67,1042.3083" fill="none" id="U-UC6" style="stroke:#181818;stroke-width:1;"/></g><!--link U to UC7--><g class="link" data-entity-1="ent0002" data-entity-2="ent0019" data-link-type="association" data-source-line="50" id="lnk36"><path d="M137.94,1501.7183 C179.48,1515.1183 262.26,1533.9083 308.42,1490.4883 C326.59,1473.3883 305.69,1401.0183 316.42,1378.4883 C349.7,1308.5383 424.23,1252.6383 468.31,1224.1283" fill="none" id="U-UC7" style="stroke:#181818;stroke-width:1;"/></g><!--link U to UC8--><g class="link" data-entity-1="ent0002" data-entity-2="ent0020" data-link-type="association" data-source-line="51" id="lnk37"><path d="M137.93,1477.2483 C189.7,1445.8483 303.54,1376.1583 308.42,1367.4883 C327.87,1332.8983 295.24,1044.0383 316.42,1010.4883 C339.05,974.6183 379.94,951.9083 417.66,937.8083" fill="none" id="U-UC8" style="stroke:#181818;stroke-width:1;"/></g><!--link U to UC9--><g class="link" data-entity-1="ent0002" data-entity-2="ent0022" data-link-type="association" data-source-line="52" id="lnk38"><path d="M128.22,1531.2083 C155.71,1594.2183 219.38,1717.5883 316.42,1774.4883 C339.16,1787.8183 365.62,1797.3983 391.34,1804.2783" fill="none" id="U-UC9" style="stroke:#181818;stroke-width:1;"/></g><!--link U to UC10--><g class="link" data-entity-1="ent0002" data-entity-2="ent0023" data-link-type="association" data-source-line="53" id="lnk39"><path d="M120.99,1531.1783 C140.08,1609.8383 195.12,1787.7683 316.42,1868.4883 C340.75,1884.6783 370.38,1894.8183 398.8,1901.1583" fill="none" id="U-UC10" style="stroke:#181818;stroke-width:1;"/></g><!--link U to UC11--><g class="link" data-entity-1="ent0002" data-entity-2="ent0024" data-link-type="association" data-source-line="54" id="lnk40"><path d="M135.26,1531.1483 C158.98,1568.8783 199.47,1625.6683 247.42,1661.4883 C291.34,1694.2983 349.77,1711.7383 399.65,1720.9983" fill="none" id="U-UC11" style="stroke:#181818;stroke-width:1;"/></g><!--link U to UC12--><g class="link" data-entity-1="ent0002" data-entity-2="ent0025" data-link-type="association" data-source-line="55" id="lnk41"><path d="M137.98,1527.9283 C162.11,1558.4583 201.55,1600.3783 247.42,1618.4883 C272.63,1628.4383 285.83,1633.4783 308.42,1618.4883 C316.05,1613.4183 310.09,1606.1083 316.42,1599.4883 C347.61,1566.7883 393.26,1544.7183 431.58,1530.7383" fill="none" id="U-UC12" style="stroke:#181818;stroke-width:1;"/></g><!--link U to UC13--><g class="link" data-entity-1="ent0002" data-entity-2="ent0026" data-link-type="association" data-source-line="56" id="lnk42"><path d="M137.95,1514.1383 C178.75,1546.4683 259.57,1599.0383 308.42,1554.4883 C322.76,1541.3983 303.72,1482.1683 316.42,1467.4883 C333.18,1448.0883 356.73,1436.2883 381.46,1429.2683" fill="none" id="U-UC13" style="stroke:#181818;stroke-width:1;"/></g><!--link U to UC14--><g class="link" data-entity-1="ent0002" data-entity-2="ent0027" data-link-type="association" data-source-line="57" id="lnk43"><path d="M136.35,1531.1783 C159.78,1565.5483 199.1,1613.6083 247.42,1635.4883 C293.6,1656.3983 349.43,1660.4383 397.1,1658.4983" fill="none" id="U-UC14" style="stroke:#181818;stroke-width:1;"/></g><!--link UC1 to UC_VAL_AUTH--><g class="link" data-entity-1="ent0012" data-entity-2="ent0029" data-link-type="dependency" data-source-line="59" id="lnk44"><path d="M372.62,628.0983 C339.44,623.7983 307.03,612.2283 285.07,586.9883 C219.04,511.1183 249.8,210.8383 316.42,135.4883 C342.67,105.7883 379.2606,96.115 417.2106,93.855" fill="none" id="UC1-to-UC_VAL_AUTH" style="stroke:#181818;stroke-width:1;stroke-dasharray:7,7;"/><polygon fill="#181818" points="423.2,93.4983,413.9781,90.0404,418.2088,93.7955,414.4537,98.0262,423.2,93.4983" style="stroke:#181818;stroke-width:1;"/><text fill="#000000" font-family="sans-serif" font-size="13" lengthAdjust="spacing" textLength="59.3569" x="248.42" y="583.5566">&#171;include&#187;</text></g><!--link UC2 to UC_VAL_AUTH--><g class="link" data-entity-1="ent0013" data-entity-2="ent0029" data-link-type="dependency" data-source-line="60" id="lnk45"><path d="M384.89,704.7383 C358.8,697.9783 333.81,686.0083 316.42,665.4883 C245.65,581.9983 248.4,277.0983 285.07,173.9883 C303.78,121.3683 360.6983,104.2101 414.2783,98.9901" fill="none" id="UC2-to-UC_VAL_AUTH" style="stroke:#181818;stroke-width:1;stroke-dasharray:7,7;"/><polygon fill="#181818" points="420.25,98.4083,410.9045,95.2998,415.2736,98.8931,411.6803,103.2621,420.25,98.4083" style="stroke:#181818;stroke-width:1;"/><text fill="#000000" font-family="sans-serif" font-size="13" lengthAdjust="spacing" textLength="59.3569" x="248.42" y="187.5566">&#171;include&#187;</text></g><!--link UC3 to UC_VAL_DADOS--><g class="link" data-entity-1="ent0014" data-entity-2="ent0028" data-link-type="dependency" data-source-line="61" id="lnk46"><path d="M410.88,795.5983 C376.2,791.6383 339.64,780.4083 316.42,753.4883 C275.89,706.5083 243.4,241.9483 285.07,195.9883 C320.95,156.3983 377.06,152.9868 425.93,158.6568" fill="none" id="UC3-to-UC_VAL_DADOS" style="stroke:#181818;stroke-width:1;stroke-dasharray:7,7;"/><polygon fill="#181818" points="431.89,159.3483,423.411,154.3377,426.9233,158.772,422.489,162.2844,431.89,159.3483" style="stroke:#181818;stroke-width:1;"/><text fill="#000000" font-family="sans-serif" font-size="13" lengthAdjust="spacing" textLength="59.3569" x="248.42" y="209.5566">&#171;include&#187;</text></g><!--link UC4 to UC_VAL_DADOS--><g class="link" data-entity-1="ent0015" data-entity-2="ent0028" data-link-type="dependency" data-source-line="62" id="lnk47"><path d="M503.84,514.1783 C503.84,452.7183 503.84,267.8083 503.84,202.5883" fill="none" id="UC4-to-UC_VAL_DADOS" style="stroke:#181818;stroke-width:1;stroke-dasharray:7,7;"/><polygon fill="#181818" points="503.84,196.5883,499.84,205.5883,503.84,201.5883,507.84,205.5883,503.84,196.5883" style="stroke:#181818;stroke-width:1;"/><text fill="#000000" font-family="sans-serif" font-size="13" lengthAdjust="spacing" textLength="59.3569" x="462.84" y="360.4766">&#171;include&#187;</text></g><!--link UC5 to UC_VAL_AUTH--><g class="link" data-entity-1="ent0017" data-entity-2="ent0029" data-link-type="dependency" data-source-line="63" id="lnk48"><path d="M404.9,1126.3683 C372,1121.6683 338.22,1110.0483 316.42,1084.4883 C226.96,979.6183 278.53,602.6683 285.07,464.9883 C292.04,318.0483 217.73,244.5783 316.42,135.4883 C342.89,106.2183 379.2618,96.5341 417.0218,94.1641" fill="none" id="UC5-to-UC_VAL_AUTH" style="stroke:#181818;stroke-width:1;stroke-dasharray:7,7;"/><polygon fill="#181818" points="423.01,93.7883,413.7771,90.3599,418.0198,94.1015,414.2782,98.3442,423.01,93.7883" style="stroke:#181818;stroke-width:1;"/><text fill="#000000" font-family="sans-serif" font-size="13" lengthAdjust="spacing" textLength="59.3569" x="248.42" y="478.5566">&#171;include&#187;</text></g><!--link UC6 to UC_VAL_AUTH--><g class="link" data-entity-1="ent0018" data-entity-2="ent0029" data-link-type="dependency" data-source-line="64" id="lnk49"><path d="M441.73,1062.0083 C391.69,1069.6283 323.55,1070.0483 285.07,1027.9883 C218.09,954.7683 252.05,210.9983 316.42,135.4883 C342.34,105.0683 379.3885,95.4073 417.6985,93.3673" fill="none" id="UC6-to-UC_VAL_AUTH" style="stroke:#181818;stroke-width:1;stroke-dasharray:7,7;"/><polygon fill="#181818" points="423.69,93.0483,414.49,89.5325,418.6971,93.3142,414.9154,97.5212,423.69,93.0483" style="stroke:#181818;stroke-width:1;"/><text fill="#000000" font-family="sans-serif" font-size="13" lengthAdjust="spacing" textLength="59.3569" x="248.42" y="1024.5566">&#171;include&#187;</text></g><!--link UC7 to UC_VAL_AUTH--><g class="link" data-entity-1="ent0019" data-entity-2="ent0029" data-link-type="dependency" data-source-line="65" id="lnk50"><path d="M407.6,1200.9283 C375.73,1195.8183 341.92,1185.2783 316.42,1164.4883 C283.75,1137.8583 284.37,1117.1283 285.07,1074.9883 C288.55,866.1183 181.11,294.6283 316.42,135.4883 C342.3,105.0383 379.3585,95.3773 417.6685,93.3373" fill="none" id="UC7-to-UC_VAL_AUTH" style="stroke:#181818;stroke-width:1;stroke-dasharray:7,7;"/><polygon fill="#181818" points="423.66,93.0183,414.46,89.5025,418.6671,93.2842,414.8854,97.4912,423.66,93.0183" style="stroke:#181818;stroke-width:1;"/><text fill="#000000" font-family="sans-serif" font-size="13" lengthAdjust="spacing" textLength="59.3569" x="248.42" y="1088.5566">&#171;include&#187;</text></g><!--link UC8 to UC_VAL_AUTH--><g class="link" data-entity-1="ent0020" data-entity-2="ent0029" data-link-type="dependency" data-source-line="66" id="lnk51"><path d="M423.01,894.2783 C386.4,880.7083 345.02,859.9583 316.42,829.4883 C285.26,796.2983 283.87,777.4883 285.07,731.9883 C288.55,599.2883 229.47,235.7883 316.42,135.4883 C342.48,105.4083 379.3094,95.7345 417.4394,93.5945" fill="none" id="UC8-to-UC_VAL_AUTH" style="stroke:#181818;stroke-width:1;stroke-dasharray:7,7;"/><polygon fill="#181818" points="423.43,93.2583,414.22,89.7689,418.4379,93.5385,414.6683,97.7563,423.43,93.2583" style="stroke:#181818;stroke-width:1;"/><text fill="#000000" font-family="sans-serif" font-size="13" lengthAdjust="spacing" textLength="59.3569" x="248.42" y="745.5566">&#171;include&#187;</text></g><!--link UC9 to UC_VAL_AUTH--><g class="link" data-entity-1="ent0022" data-entity-2="ent0029" data-link-type="dependency" data-source-line="67" id="lnk52"><path d="M374.43,1811.8083 C352.12,1804.3383 331.34,1792.6083 316.42,1774.4883 C232.32,1672.3583 288.55,1312.2283 285.07,1179.9883 C282.01,1063.9183 241.33,224.0483 316.42,135.4883 C342.26,104.9983 379.3084,95.3357 417.6284,93.3057" fill="none" id="UC9-to-UC_VAL_AUTH" style="stroke:#181818;stroke-width:1;stroke-dasharray:7,7;"/><polygon fill="#181818" points="423.62,92.9883,414.421,89.47,418.627,93.2528,414.8442,97.4588,423.62,92.9883" style="stroke:#181818;stroke-width:1;"/><text fill="#000000" font-family="sans-serif" font-size="13" lengthAdjust="spacing" textLength="59.3569" x="248.42" y="1176.5566">&#171;include&#187;</text></g><!--link UC10 to UC_VAL_AUTH--><g class="link" data-entity-1="ent0023" data-entity-2="ent0029" data-link-type="dependency" data-source-line="68" id="lnk53"><path d="M389.53,1908.8183 C361.7,1902.4583 334.72,1890.3883 316.42,1868.4883 C221.33,1754.7083 288.55,1350.2183 285.07,1201.9883 C282.28,1083.4683 239.78,225.9383 316.42,135.4883 C342.25,104.9883 379.2984,95.3257 417.6184,93.2957" fill="none" id="UC10-to-UC_VAL_AUTH" style="stroke:#181818;stroke-width:1;stroke-dasharray:7,7;"/><polygon fill="#181818" points="423.61,92.9783,414.411,89.46,418.617,93.2428,414.8342,97.4488,423.61,92.9783" style="stroke:#181818;stroke-width:1;"/><text fill="#000000" font-family="sans-serif" font-size="13" lengthAdjust="spacing" textLength="59.3569" x="248.42" y="1198.5566">&#171;include&#187;</text></g><!--link UC11 to UC_VAL_AUTH--><g class="link" data-entity-1="ent0024" data-entity-2="ent0029" data-link-type="dependency" data-source-line="69" id="lnk54"><path d="M390.23,1729.4183 C362.24,1723.2383 334.99,1711.3283 316.42,1689.4883 C239.78,1599.3483 288.55,1276.2483 285.07,1157.9883 C281.72,1044.3683 242.88,222.1583 316.42,135.4883 C342.27,105.0083 379.3184,95.3457 417.6384,93.3157" fill="none" id="UC11-to-UC_VAL_AUTH" style="stroke:#181818;stroke-width:1;stroke-dasharray:7,7;"/><polygon fill="#181818" points="423.63,92.9983,414.431,89.48,418.637,93.2628,414.8542,97.4688,423.63,92.9983" style="stroke:#181818;stroke-width:1;"/><text fill="#000000" font-family="sans-serif" font-size="13" lengthAdjust="spacing" textLength="59.3569" x="248.42" y="1154.5566">&#171;include&#187;</text></g><!--link UC12 to UC_VAL_AUTH--><g class="link" data-entity-1="ent0025" data-entity-2="ent0029" data-link-type="dependency" data-source-line="70" id="lnk55"><path d="M388.66,1506.9683 C361.35,1500.5183 334.84,1488.6283 316.42,1467.4883 C212.79,1348.5783 292.04,1271.5583 285.07,1113.9883 C280.26,1005.3083 245.99,218.3883 316.42,135.4883 C342.29,105.0283 379.3385,95.3672 417.6585,93.3272" fill="none" id="UC12-to-UC_VAL_AUTH" style="stroke:#181818;stroke-width:1;stroke-dasharray:7,7;"/><polygon fill="#181818" points="423.65,93.0083,414.4501,89.4924,418.6571,93.2741,414.8754,97.4811,423.65,93.0083" style="stroke:#181818;stroke-width:1;"/><text fill="#000000" font-family="sans-serif" font-size="13" lengthAdjust="spacing" textLength="59.3569" x="248.42" y="1110.5566">&#171;include&#187;</text></g><!--link UC13 to UC_VAL_AUTH--><g class="link" data-entity-1="ent0026" data-entity-2="ent0029" data-link-type="dependency" data-source-line="71" id="lnk56"><path d="M463.04,1396.0283 C418.75,1364.8483 349.88,1308.6983 316.42,1241.4883 C265.03,1138.2783 292.05,1099.0583 285.07,983.9883 C273.65,795.6483 193.89,278.9683 316.42,135.4883 C342.37,105.0883 379.4286,95.4391 417.7186,93.3891" fill="none" id="UC13-to-UC_VAL_AUTH" style="stroke:#181818;stroke-width:1;stroke-dasharray:7,7;"/><polygon fill="#181818" points="423.71,93.0683,414.509,89.5552,418.7172,93.3356,414.9367,97.5437,423.71,93.0683" style="stroke:#181818;stroke-width:1;"/><text fill="#000000" font-family="sans-serif" font-size="13" lengthAdjust="spacing" textLength="59.3569" x="248.42" y="980.5566">&#171;include&#187;</text></g><!--link UC14 to UC_VAL_AUTH--><g class="link" data-entity-1="ent0027" data-entity-2="ent0029" data-link-type="dependency" data-source-line="72" id="lnk57"><path d="M419.6,1624.2683 C381.75,1610.6883 340.3,1588.6383 316.42,1553.4883 C211.83,1399.5783 292.04,1321.9283 285.07,1135.9883 C280.9,1024.8383 244.44,220.2683 316.42,135.4883 C342.28,105.0183 379.3285,95.3572 417.6485,93.3172" fill="none" id="UC14-to-UC_VAL_AUTH" style="stroke:#181818;stroke-width:1;stroke-dasharray:7,7;"/><polygon fill="#181818" points="423.64,92.9983,414.4401,89.4824,418.6471,93.2641,414.8654,97.4711,423.64,92.9983" style="stroke:#181818;stroke-width:1;"/><text fill="#000000" font-family="sans-serif" font-size="13" lengthAdjust="spacing" textLength="59.3569" x="248.42" y="1132.5566">&#171;include&#187;</text></g><!--link UC5 to UC8--><g class="link" data-entity-1="ent0017" data-entity-2="ent0020" data-link-type="dependency" data-source-line="74" id="lnk58"><path d="M404.66,1123.3983 C372.91,1118.2283 339.93,1107.0683 316.42,1084.4883 C270.59,1040.4683 243.14,992.7283 285.07,944.9883 C310.78,915.6983 344.6283,905.5028 383.2983,903.4728" fill="none" id="UC5-to-UC8" style="stroke:#181818;stroke-width:1;stroke-dasharray:7,7;"/><polygon fill="#181818" points="389.29,903.1583,380.0927,899.6356,384.2969,903.4204,380.5121,907.6246,389.29,903.1583" style="stroke:#181818;stroke-width:1;"/><text fill="#000000" font-family="sans-serif" font-size="13" lengthAdjust="spacing" textLength="59.3569" x="248.42" y="958.5566">&#171;include&#187;</text></g><!--link UC6 to UC8--><g class="link" data-entity-1="ent0018" data-entity-2="ent0020" data-link-type="dependency" data-source-line="75" id="lnk59"><path d="M503.84,1027.2983 C503.84,1005.1983 503.84,975.5883 503.84,950.7183" fill="none" id="UC6-to-UC8" style="stroke:#181818;stroke-width:1;stroke-dasharray:7,7;"/><polygon fill="#181818" points="503.84,944.7183,499.84,953.7183,503.84,949.7183,507.84,953.7183,503.84,944.7183" style="stroke:#181818;stroke-width:1;"/><text fill="#000000" font-family="sans-serif" font-size="13" lengthAdjust="spacing" textLength="59.3569" x="462.84" y="991.1566">&#171;include&#187;</text></g><!--link UC7 to UC8--><g class="link" data-entity-1="ent0019" data-entity-2="ent0020" data-link-type="dependency" data-source-line="76" id="lnk60"><path d="M406.89,1204.1383 C374.19,1199.4383 340.03,1188.3383 316.42,1164.4883 C260.67,1108.1783 238.68,1053.2183 285.07,988.9883 C308.61,956.3783 341.5757,939.7281 379.9957,929.6681" fill="none" id="UC7-to-UC8" style="stroke:#181818;stroke-width:1;stroke-dasharray:7,7;"/><polygon fill="#181818" points="385.8,928.1483,376.0803,926.5585,380.9631,929.4148,378.1067,934.2976,385.8,928.1483" style="stroke:#181818;stroke-width:1;"/><text fill="#000000" font-family="sans-serif" font-size="13" lengthAdjust="spacing" textLength="59.3569" x="248.42" y="1002.5566">&#171;include&#187;</text></g><!--link UC12 to UC11--><g class="link" data-entity-1="ent0025" data-entity-2="ent0024" data-link-type="dependency" data-source-line="77" id="lnk61"><path d="M409.21,1495.3883 C364.93,1494.0683 315.39,1501.9283 285.07,1535.9883 C238.77,1587.9883 267.05,1640.3783 316.42,1689.4883 C336.51,1709.4783 358.0671,1719.4979 385.7271,1725.7379" fill="none" id="UC12-to-UC11" style="stroke:#181818;stroke-width:1;stroke-dasharray:7,7;"/><polygon fill="#181818" points="391.58,1727.0583,383.6809,1721.1757,386.7026,1725.958,381.9204,1728.9796,391.58,1727.0583" style="stroke:#181818;stroke-width:1;"/><text fill="#000000" font-family="sans-serif" font-size="13" lengthAdjust="spacing" textLength="59.3569" x="248.42" y="1549.5566">&#171;include&#187;</text></g><!--link UC14 to UC13--><g class="link" data-entity-1="ent0027" data-entity-2="ent0026" data-link-type="dependency" data-source-line="78" id="lnk62"><path d="M397.3,1658.6383 C356.23,1657.8583 312.61,1648.1983 285.07,1616.9883 C269.71,1599.5683 215.14,1569.0983 316.42,1467.4883 C334.6,1449.2383 353.0295,1439.4962 377.9795,1432.5562" fill="none" id="UC14-to-UC13" style="stroke:#181818;stroke-width:1;stroke-dasharray:7,7;"/><polygon fill="#181818" points="383.76,1430.9483,374.0173,1429.5064,378.9429,1432.2882,376.1611,1437.2138,383.76,1430.9483" style="stroke:#181818;stroke-width:1;"/><text fill="#000000" font-family="sans-serif" font-size="13" lengthAdjust="spacing" textLength="59.3569" x="248.42" y="1613.5566">&#171;include&#187;</text></g><!--link AUTH to UC3--><g class="link" data-entity-1="ent0003" data-entity-2="ent0014" data-link-type="association" data-source-line="80" id="lnk63"><path d="M158.92,189.1283 C207.62,233.3083 280.99,310.7183 308.42,396.4883 C314.46,415.3783 303.73,738.2283 316.42,753.4883 C339.24,780.9483 375.99,792.1783 410.85,795.9883" fill="none" id="AUTH-UC3" style="stroke:#181818;stroke-width:1;"/></g><!--link AUTH to UC4--><g class="link" data-entity-1="ent0003" data-entity-2="ent0015" data-link-type="association" data-source-line="81" id="lnk64"><path d="M192.81,137.0283 C233.35,135.1183 279.9,141.3383 308.42,172.4883 C321.1,186.3383 303.81,496.5583 316.42,510.4883 C345.75,542.8783 395.45,547.6583 436.16,544.8583" fill="none" id="AUTH-UC4" style="stroke:#181818;stroke-width:1;"/></g><!--link AUTH to UC_VAL_AUTH--><g class="link" data-entity-1="ent0003" data-entity-2="ent0029" data-link-type="association" data-source-line="82" id="lnk65"><path d="M192.7,135.3183 C210.66,132.1683 229.66,129.0383 247.42,126.4883 C307.25,117.8883 375.3,110.5483 426.11,105.5383" fill="none" id="AUTH-UC_VAL_AUTH" style="stroke:#181818;stroke-width:1;"/></g><!--link FIN to UC1--><g class="link" data-entity-1="ent0004" data-entity-2="ent0012" data-link-type="association" data-source-line="83" id="lnk66"><path d="M159.36,295.9183 C203.82,278.0583 269.6,261.7983 308.42,299.4883 C330.03,320.4683 297.55,546.9983 316.42,570.4883 C330.63,588.1783 350.44,599.7883 371.88,607.2983" fill="none" id="FIN-UC1" style="stroke:#181818;stroke-width:1;"/></g><!--link FIN to UC2--><g class="link" data-entity-1="ent0004" data-entity-2="ent0013" data-link-type="association" data-source-line="84" id="lnk67"><path d="M159.46,308.3683 C204.67,301.6283 271.57,300.2783 308.42,340.4883 C320.62,353.7983 305.03,651.4583 316.42,665.4883 C333.49,686.5283 358.59,698.6283 384.88,705.3583" fill="none" id="FIN-UC2" style="stroke:#181818;stroke-width:1;"/></g><!--link FIN to UC8--><g class="link" data-entity-1="ent0004" data-entity-2="ent0020" data-link-type="association" data-source-line="85" id="lnk68"><path d="M159.4,335.9083 C207,356.5283 278.04,395.9083 308.42,456.4883 C317.71,475.0083 305.09,812.1183 316.42,829.4883 C338.07,862.6983 375.99,883.4583 412.01,896.3283" fill="none" id="FIN-UC8" style="stroke:#181818;stroke-width:1;"/></g><!--link CRYPTO to UC1--><g class="link" data-entity-1="ent0005" data-entity-2="ent0012" data-link-type="association" data-source-line="86" id="lnk69"><path d="M146.06,424.6383 C189.52,405.3583 265.05,381.3983 308.42,422.4883 C320.37,433.8083 305.95,557.7683 316.42,570.4883 C330.95,588.1383 351.05,599.6983 372.71,607.1783" fill="none" id="CRYPTO-UC1" style="stroke:#181818;stroke-width:1;"/></g><!--link CRYPTO to UC2--><g class="link" data-entity-1="ent0005" data-entity-2="ent0013" data-link-type="association" data-source-line="87" id="lnk70"><path d="M146.09,433.6783 C190.3,425.5483 267.43,419.4183 308.42,463.4883 C323.71,479.9283 302.13,648.1483 316.42,665.4883 C333.65,686.3983 358.81,698.4583 385.09,705.1783" fill="none" id="CRYPTO-UC2" style="stroke:#181818;stroke-width:1;"/></g><!--link CRYPTO to UC8--><g class="link" data-entity-1="ent0005" data-entity-2="ent0020" data-link-type="association" data-source-line="88" id="lnk71"><path d="M145.95,452.1883 C196.67,469.2683 289.49,503.6683 308.42,532.4883 C326.54,560.0783 298.31,801.8783 316.42,829.4883 C338.16,862.6383 376.1,883.3883 412.09,896.2783" fill="none" id="CRYPTO-UC8" style="stroke:#181818;stroke-width:1;"/></g><!--link DB_FAV to UC5--><g class="link" data-entity-1="ent0006" data-entity-2="ent0017" data-link-type="association" data-source-line="89" id="lnk72"><path d="M175.65,909.6183 C219.28,905.3483 275.28,908.4683 308.42,943.4883 C329.99,966.2783 296,1060.6483 316.42,1084.4883 C338.27,1110.0083 372.1,1121.5783 404.97,1126.2483" fill="none" id="DB_FAV-UC5" style="stroke:#181818;stroke-width:1;"/></g><!--link DB_FAV to UC6--><g class="link" data-entity-1="ent0006" data-entity-2="ent0018" data-link-type="association" data-source-line="90" id="lnk73"><path d="M118.93,883.0083 C138.34,771.9083 202.81,464.9983 308.42,568.4883 C324.05,583.8083 304.39,944.1883 316.42,962.4883 C342.6,1002.3083 392.45,1023.7283 434.02,1035.1083" fill="none" id="DB_FAV-UC6" style="stroke:#181818;stroke-width:1;"/></g><!--link DB_FAV to UC7--><g class="link" data-entity-1="ent0006" data-entity-2="ent0019" data-link-type="association" data-source-line="91" id="lnk74"><path d="M159.62,960.0683 C185.3,980.9383 217.83,1006.9783 247.42,1029.4883 C274.02,1049.7283 291.9,1044.4183 308.42,1073.4883 C318.45,1091.1283 302.94,1149.3083 316.42,1164.4883 C339.14,1190.0783 373.96,1201.3483 407.38,1205.6983" fill="none" id="DB_FAV-UC7" style="stroke:#181818;stroke-width:1;"/></g><!--link SELIC to UC9--><g class="link" data-entity-1="ent0007" data-entity-2="ent0022" data-link-type="association" data-source-line="92" id="lnk75"><path d="M140.23,2086.8183 C184.68,2074.4183 271.06,2043.1783 308.42,1980.4883 C321.19,1959.0483 300.39,1887.6083 316.42,1868.4883 C331.42,1850.5783 352.16,1838.9483 374.38,1831.5083" fill="none" id="SELIC-UC9" style="stroke:#181818;stroke-width:1;"/></g><!--link TAXAS to UC10--><g class="link" data-entity-1="ent0008" data-entity-2="ent0023" data-link-type="association" data-source-line="93" id="lnk76"><path d="M217.86,1986.7683 C227.85,1987.0583 237.82,1987.3083 247.42,1987.4883 C274.52,1987.9883 281.77,1992.5083 308.42,1987.4883 C361.48,1977.4783 418.64,1953.3783 457.15,1934.9783" fill="none" id="TAXAS-UC10" style="stroke:#181818;stroke-width:1;"/></g><!--link TAXAS to UC11--><g class="link" data-entity-1="ent0008" data-entity-2="ent0024" data-link-type="association" data-source-line="94" id="lnk77"><path d="M217.86,1980.6983 C251.76,1974.5583 286.25,1961.3283 308.42,1934.4883 C331.08,1907.0283 293.56,1801.7783 316.42,1774.4883 C334.86,1752.4583 362.12,1740.3983 390.14,1734.0983" fill="none" id="TAXAS-UC11" style="stroke:#181818;stroke-width:1;"/></g><!--link DB_SIM to UC12--><g class="link" data-entity-1="ent0009" data-entity-2="ent0025" data-link-type="association" data-source-line="95" id="lnk78"><path d="M182.75,1890.3983 C224.95,1897.1883 276.53,1896.5483 308.42,1864.4883 C329.19,1843.5983 300.33,1624.1583 316.42,1599.4883 C339.92,1563.4283 382.35,1541.6283 420.8,1528.6283" fill="none" id="DB_SIM-UC12" style="stroke:#181818;stroke-width:1;"/></g><!--link DB_SIM to UC13--><g class="link" data-entity-1="ent0009" data-entity-2="ent0026" data-link-type="association" data-source-line="96" id="lnk79"><path d="M156.39,1832.8783 C203.6,1788.0983 276.38,1709.4683 308.42,1624.4883 C314.58,1608.1383 305.26,1480.9283 316.42,1467.4883 C332.78,1447.7483 356.17,1435.8183 380.87,1428.7783" fill="none" id="DB_SIM-UC13" style="stroke:#181818;stroke-width:1;"/></g><!--link DB_SIM to UC14--><g class="link" data-entity-1="ent0009" data-entity-2="ent0027" data-link-type="association" data-source-line="97" id="lnk80"><path d="M182.91,1909.9183 C224.63,1927.0483 275.64,1937.0783 308.42,1905.4883 C325.79,1888.7383 301.1,1707.1283 316.42,1688.4883 C332.99,1668.3183 356.93,1656.3783 382.16,1649.5283" fill="none" id="DB_SIM-UC14" style="stroke:#181818;stroke-width:1;"/></g><?plantuml-src ZLNVJzim47xFNt7Y2HuOf0rjEY6a4AY610EHjjea97HBtDOYZQlOxNvf__ikJkoc2LtsThQ_--xkyvsTiha29I3dYwM2XESiLbnaZdpZsHfpN85SOYA-ysm1SqmbgvsiCNx31OlKpvH1uOZP8cMEexYYZH2ba90mc4e1fn1ngTWAONptUHB0SIWoALAU4FU9us2iH0v7Kxd1d8iZG0bJincnVCjZKJ056yKonMECiGG5qyadWmkUxc3CCynYndFKnnIhVXhcVArAn_3vwzFaqHnUavCECCQjoBaIKeDkhb_7mQpE4B6Kn_eikhs_2-j7v3t17wWhBjFWkA9iotYJu4iGjS95VBL9CHRCnelk7Xp7Iad5rrKxWjyE6DKfQimaISlWWUKnwLWU0smaYr4IO1gw9FoCawef_uKv92YNtmJc2SoDK9NOeTjqxJLScS9qoOhoNZAU9Ro8c3DvXeflAxt8gSdI9vPdLd6G2qfbG_QROAyEJiM2PnNI8-GVfrwxlIWgFnIgqh1L_mKn1fGhTJHHplTkbqwRy071RnEkti4EcjYXJdObjgmD7ZR1Fe6BZj-a1NTS9GnizPBHzQvf_AXiEDQxPx5kKtbIaVcjudKNGglDMjMFzgzGKNkM7Goeoiq4go2ZLkUSwvHNnQINhkNLprkjNM1RtgwU-AAxStZNfTLlRj5m4QRRfiTB9ZLHOdrRNURszoizu0-Iw2rBg_rShtwb_qDX-zAopB1uquf9Iyh7ZzppdSoli-3-zIQuUOpUSyBcyrOvw5UEuapXz5IFQcNqZD4tXcUC2sCCZ34qXc-CaIKyjvRbTYsvQzcfNgTuKpvSrJE3Zt1voRCutIJiwiefNeuEGBy6q6Aq45udug8hoA0BCEm2-5s0KHU0XgWBqQccsocds-z4UFz6xFJq3-de7zBFFvWnrNOe4KgvaO7EgchcdUtLxDqeq6Te9i6QlPtfE-NlRZ3rLMzlvJlb5szcfhuQxAs6ZlxmpU3exzmEJttbEkKlRgTeRzdVNtf_0G00?></g></svg>